<?xml version="1.0" encoding="UTF-8" standalone="no"?>
<svg
   width="64"
   height="64"
   version="1.1"
   id="svg7"
   sodipodi:docname="4kvideotomp3.svg"
   inkscape:version="1.3.2 (091e20ef0f, 2023-11-25, custom)"
   xmlns:inkscape="http://www.inkscape.org/namespaces/inkscape"
   xmlns:sodipodi="http://sodipodi.sourceforge.net/DTD/sodipodi-0.dtd"
   xmlns="http://www.w3.org/2000/svg"
   xmlns:svg="http://www.w3.org/2000/svg"
   xmlns:rdf="http://www.w3.org/1999/02/22-rdf-syntax-ns#"
   xmlns:cc="http://creativecommons.org/ns#"
   xmlns:dc="http://purl.org/dc/elements/1.1/">
  <sodipodi:namedview
     id="namedview7"
     pagecolor="#ffffff"
     bordercolor="#000000"
     borderopacity="0.25"
     inkscape:showpageshadow="2"
     inkscape:pageopacity="0.0"
     inkscape:pagecheckerboard="0"
     inkscape:deskcolor="#d1d1d1"
     inkscape:zoom="4.3531261"
     inkscape:cx="7.580759"
     inkscape:cy="12.404878"
     inkscape:window-width="1920"
     inkscape:window-height="995"
     inkscape:window-x="0"
     inkscape:window-y="0"
     inkscape:window-maximized="1"
     inkscape:current-layer="svg7" />
  <metadata
     id="metadata1">
    <rdf:RDF>
      <cc:Work
         rdf:about="">
        <dc:format>image/svg+xml</dc:format>
        <dc:type
           rdf:resource="http://purl.org/dc/dcmitype/StillImage" />
      </cc:Work>
    </rdf:RDF>
  </metadata>
  <defs
     id="defs6">
    <style
       type="text/css"
       id="style1" />
    <linearGradient
       id="linearGradient1448"
       x1="3.9687"
       x2="3.9687"
       y1="15.338"
       y2=".54085"
       gradientTransform="matrix(.91666 0 0 .91666 26.674 -20.554)"
       gradientUnits="userSpaceOnUse">
      <stop
         stop-color="#8c05eb"
         offset="0"
         id="stop1" />
      <stop
         stop-color="#5a00a0"
         offset="1"
         id="stop2" />
    </linearGradient>
    <linearGradient
       id="linearGradient956"
       x1="32.014"
       x2="32.014"
       y1="48.181"
       y2="11.537"
       gradientTransform="translate(-69.682)"
       gradientUnits="userSpaceOnUse">
      <stop
         stop-color="#e0e3e5"
         offset="0"
         id="stop3" />
      <stop
         stop-color="#f3f5f5"
         offset="1"
         id="stop4" />
    </linearGradient>
    <linearGradient
       id="linearGradient958"
       x1="32"
       x2="32"
       y1="29.887"
       y2="52.08"
       gradientTransform="translate(-69.176 -2.0639)"
       gradientUnits="userSpaceOnUse">
      <stop
         stop-color="#f5f6f6"
         offset="0"
         id="stop5" />
      <stop
         stop-color="#e0e3e5"
         offset="1"
         id="stop6" />
    </linearGradient>
  </defs>
  <g
     transform="matrix(3.7796 0 0 3.7796 -98.154 -16.352)"
     id="g6">
    <rect
       transform="scale(1,-1)"
       x="27.16"
       y="-20.069"
       width="14.552"
       height="14.552"
       ry="3.4395"
       fill="url(#linearGradient1448)"
       image-rendering="optimizeSpeed"
       stroke-opacity=".95294"
       stroke-width=".083152"
       id="rect6" />
  </g>
  <path
     d="m 32.00512,9.7574687 c -0.85136,-3.511e-4 -1.7023,0.0228 -2.1105,0.06928 -5.0029,0.5693103 -9.0992,2.6370003 -12.634,6.3774003 -2.3794,2.5175 -4.0067,5.5542 -4.8781,9.1032 -0.28508,1.161 -0.35957,1.669 -0.42732,2.9212 -0.06965,1.287602 0.0021,3.515599 0.14953,4.6394 0.21346,1.6285 0.85092,3.7128 1.7003,5.559598 1.5711,3.416402 4.1078,6.290601 7.3897,8.3747 1.0362,0.657941 3.1429,1.7376 4.0235,2.061801 0.266211,0.09804 0.31358,0.0974 0.39782,-0.0042 0.156121,-0.188107 -0.04878,-1.921398 -0.280532,-2.373199 -0.148819,-0.290117 -0.298911,-0.405959 -0.94381,-0.72776 -3.528398,-1.760443 -6.333798,-4.612342 -8.121598,-8.25544 -0.77167,-1.572303 -1.3004,-3.142103 -1.4788,-4.391804 -0.20114,-1.408996 -0.23622,-3.743198 -0.08299,-5.539298 0.13699,-1.6057 0.60102,-3.192 1.4534,-4.9682 1.2938,-2.6958 3.1454,-4.9562 5.5075,-6.7253 2.2998,-1.7222 5.0302,-2.8706 7.7217,-3.247 0.70111,-0.09805 3.713098,-0.134952 4.6346,-0.05693 2.105,0.178231 3.891001,0.7089 5.987401,1.7792 3.7758,1.9279 6.8052,5.2753 8.3921,9.2734 0.84844,2.1377 1.0712,3.4929 1.0714,6.518803 1.1e-4,2.417899 -0.12975,3.380598 -0.6763,5.016797 -0.81896,2.451402 -2.1097,4.6606 -3.8355,6.564 -1.3795,1.5214 -3.4356,3.0901 -5.181,3.953499 -0.79743,0.394421 -0.94738,0.526693 -1.105,0.973293 -0.20451,0.579579 -0.341027,2.056199 -0.203036,2.194197 0.114556,0.114558 0.538446,-0.04256 1.770296,-0.654357 1.2325,-0.61214 2.90311,-1.584699 3.67301,-2.1386 3.5443,-2.550002 6.3561,-6.612601 7.5222,-10.868002 0.48144,-1.756599 0.57868,-2.496899 0.62142,-4.733401 0.0359,-1.874599 -0.0344,-3.248699 -0.21196,-4.140099 -0.67995,-3.414899 -1.99138,-6.318899 -3.96648,-8.784099 -1.0202,-1.2735 -2.3121,-2.579 -3.4404,-3.4761 -3.0423,-2.4188 -6.350102,-3.7723 -10.323999,-4.2251004 -0.410721,-0.0468 -1.2626,-0.07097 -2.113902,-0.07134 z m -0.0583,6.6866003 c -1.5067,0.0075 -2.9733,0.19414 -3.9473,0.52058 -2.0797,0.69694 -4.1379,1.9965 -5.6907,3.5941 -1.4603,1.5022 -2.4981,3.2087 -3.1599,5.1954 -0.47177,1.4163 -0.61854,2.6062 -0.56654,4.587999 0.01799,0.68592 0.07217,1.4882 0.122782,1.812102 0.39674,2.539801 2.0577,5.628098 4.031,7.496398 0.270028,0.255609 0.58088,0.525702 0.69138,0.600181 0.110479,0.07446 0.41319,0.286866 0.67287,0.471901 0.25968,0.185008 0.4989,0.32776 0.53155,0.316875 0.03266,-0.01096 0.0759,-0.09335 0.09534,-0.183156 0.01943,-0.08976 0.0382,-0.72994 0.04184,-1.422599 l 0.0062,-1.25927 -0.64816,-0.782589 c -1.3818,-1.667804 -2.1564,-3.1034 -2.5975,-4.814302 -1.0808,-4.1917 0.44616,-8.5638 3.9473,-11.302 1.6539,-1.2936 3.6385,-2.0227 6.1536,-2.2607 1.273399,-0.12048 3.619201,0.36485 5.085801,1.0522 2.591798,1.2145 4.734798,3.6655 5.657398,6.4687 0.42691,1.2974 0.50188,1.8043 0.49935,3.386999 -0.002,1.2683 -0.0132,1.4232 -0.15156,2.071401 -0.29934,1.404 -0.8993,2.8394 -1.6612,3.9748 -0.21566,0.321374 -0.69634,0.949622 -1.0679,1.395799 l -0.6756,0.81072 0.017,1.382101 c 0.0121,1.003601 0.0355,1.4012 0.0858,1.451301 0.0927,0.09256 0.63546,-0.278702 1.3855,-0.947233 2.6419,-2.354797 4.0477,-4.957799 4.59831,-8.516099 0.14932,-0.96525 0.13519,-2.759399 -0.0287,-3.692899 -0.2526,-1.4376 -0.60383,-2.5306 -1.21338,-3.7765 -2.0913,-4.275 -6.268698,-7.2309 -10.711,-7.5783 -0.494419,-0.03869 -1.001199,-0.05599 -1.503499,-0.0535 z m 0.102199,7.1922 c -0.889129,-4.56e-4 -1.021199,0.01238 -1.438299,0.14061 -1.171,0.36002 -2.2903,1.3506 -2.8389,2.5138 -0.26959,0.57155 -0.37001,0.98624 -0.40537,1.6736 -0.05355,1.0412 0.19812,2.038199 0.71059,2.818301 0.29791,0.453498 1.1,1.2471 1.5823,1.5652 1.1346,0.7484 2.5157,0.983959 3.8198,0.651587 1.659598,-0.422948 2.9029,-1.638096 3.417101,-3.339598 0.130507,-0.43182 0.148838,-0.58852 0.148838,-1.2758 0,-0.68726 -0.01814,-0.84328 -0.148838,-1.2751 -0.513592,-1.6995 -1.7234,-2.8848 -3.420502,-3.3499 -0.380939,-0.1044 -0.593379,-0.12234 -1.426699,-0.12278 z m -0.125518,11.276 c -2.2276,0.01134 -3.859301,0.754299 -4.5262,2.075501 -0.333249,0.66017 -0.43813,1.800099 -0.332659,3.621498 0.176318,3.044799 0.90476,8.5499 1.3786,10.419999 0.345301,1.362202 0.83931,2.172201 1.6338,2.6771 0.311928,0.198236 1.0112,0.426403 1.524,0.49796 0.61799,0.08625 1.6053,0.02268 2.106998,-0.135798 1.114802,-0.352214 1.743201,-1.110799 2.1338,-2.576198 0.344995,-1.294103 0.963712,-5.909499 1.275099,-9.512001 0.12223,-1.414001 0.124309,-3.4285 0.0042,-4.019301 -0.171629,-0.843617 -0.457709,-1.296 -1.1564,-1.827901 -1.126601,-0.857616 -2.001301,-1.152899 -3.587899,-1.212699 -0.15369,-0.0057 -0.304868,-0.0083 -0.45338,-0.0076 z"
     fill="#ffffff"
     stroke-width="0.99998"
     style="paint-order:fill markers stroke"
     id="path7" />
</svg>
