<?xml version="1.0" encoding="UTF-8" standalone="no"?>
<svg
   width="64"
   height="64"
   version="1.1"
   id="svg24"
   sodipodi:docname="hotspot.svg"
   xml:space="preserve"
   inkscape:version="1.3 (0e150ed6c4, 2023-07-21)"
   xmlns:inkscape="http://www.inkscape.org/namespaces/inkscape"
   xmlns:sodipodi="http://sodipodi.sourceforge.net/DTD/sodipodi-0.dtd"
   xmlns:xlink="http://www.w3.org/1999/xlink"
   xmlns="http://www.w3.org/2000/svg"
   xmlns:svg="http://www.w3.org/2000/svg"><defs
     id="defs28"><linearGradient
       inkscape:collect="always"
       id="linearGradient1165"><stop
         style="stop-color:#fffe1c;stop-opacity:1"
         offset="0"
         id="stop1161" /><stop
         style="stop-color:#ffa200;stop-opacity:1"
         offset="0.33802268"
         id="stop9477" /><stop
         style="stop-color:#ff0000;stop-opacity:1"
         offset="0.72596633"
         id="stop8509" /><stop
         style="stop-color:#ff0b0b;stop-opacity:1"
         offset="1"
         id="stop1163" /></linearGradient><linearGradient
       inkscape:collect="always"
       xlink:href="#linearGradient1165"
       id="linearGradient1167"
       x1="-286.39844"
       y1="-289.55469"
       x2="-286.39844"
       y2="-60.988663"
       gradientUnits="userSpaceOnUse"
       gradientTransform="matrix(0.19521895,0,0,0.19521895,90.322078,66.027838)" /><linearGradient
       id="linearGradient1448-6"
       x1="3.9686999"
       x2="3.9686999"
       y1="15.338"
       y2="0.54084998"
       gradientTransform="matrix(3.4646856,0,0,3.4646856,2.6660566,2.6585346)"
       gradientUnits="userSpaceOnUse"><stop
         stop-color="#333132"
         offset="0"
         id="stop1" /><stop
         stop-color="#212427"
         offset="1"
         id="stop2" /></linearGradient></defs><sodipodi:namedview
     id="namedview26"
     pagecolor="#ffffff"
     bordercolor="#999999"
     borderopacity="1"
     inkscape:showpageshadow="0"
     inkscape:pageopacity="0"
     inkscape:pagecheckerboard="0"
     inkscape:deskcolor="#d1d1d1"
     showgrid="false"
     inkscape:zoom="3.3203125"
     inkscape:cx="28.009412"
     inkscape:cy="32.225882"
     inkscape:window-width="1920"
     inkscape:window-height="941"
     inkscape:window-x="0"
     inkscape:window-y="34"
     inkscape:window-maximized="1"
     inkscape:current-layer="svg24" /><rect
     x="4.4996166"
     y="4.4996166"
     width="55.000767"
     height="55.000767"
     ry="13.000319"
     fill="url(#linearGradient1448-6)"
     stroke-opacity="0.95294"
     stroke-width="0.314285"
     id="rect2"
     style="fill:url(#linearGradient1448-6)" /><path
     id="circle377"
     style="fill:url(#linearGradient1167);fill-opacity:1;fill-rule:evenodd;stroke-width:1.34725;stroke-linecap:round;stroke-linejoin:round;paint-order:stroke fill markers"
     d="m 34.527207,9.5005157 c -0.07365,-0.0015 -0.11553,7.5e-4 -0.11553,7.5e-4 3.220691,2.4075273 1.439886,5.3479133 0.658477,5.7627753 -4.566722,2.424567 -4.068168,4.119587 -3.745758,6.067042 0.32241,1.947448 -0.127987,2.984824 -2.293445,3.139894 -2.165457,0.155069 -1.329163,-3.714116 -1.329163,-3.714116 -4.305212,2.454162 0.480165,6.651457 -0.956654,8.880559 -1.43681,2.229102 -2.472829,0.796559 -3.739277,-0.977624 -1.266449,-1.774175 1.193811,-4.400432 1.193811,-4.400432 -5.806763,4.075263 -3.084236,7.157151 -2.541282,7.901795 1.025316,1.406181 3.946465,3.736203 1.560223,4.982274 -2.386227,1.246071 -4.181192,-3.626036 -4.181192,-3.626036 -0.499867,4.720149 3.250856,9.433038 3.250856,9.433038 h 0.02437 a 9.6402295,9.6402295 0 0 0 -0.21543,1.909108 9.6402295,9.6402295 0 0 0 9.640457,9.640457 9.6402295,9.6402295 0 0 0 9.640083,-9.640457 9.6402295,9.6402295 0 0 0 -0.32829,-2.48447 c 2.85e-4,-4.95e-4 0.0023,-7.5e-4 0.0023,-0.0015 0.25959,-0.521459 1.343954,-1.689605 3.169639,-4.390141 1.825692,-2.700537 -0.09685,-8.083287 -0.09685,-8.083287 -0.257744,2.251114 -0.456786,3.795302 -1.75544,4.987238 -1.278433,1.173366 -3.399115,0.554827 -3.287456,-1.64144 0.111653,-2.196267 2.296325,-2.278482 2.966412,-5.197329 0.670079,-2.918838 -2.851264,-7.733644 -2.851264,-7.733644 0.375232,0.638691 0.742019,2.674091 0.517402,4.686023 -0.224618,2.011925 -2.222135,2.386092 -2.222135,2.386092 -3.175376,-1.492018 -1.110381,-3.3562 -0.974196,-5.222108 0.136192,-1.865907 -4.1413,-3.925615 -2.856597,-5.549633 1.284661,-1.624018 3.961272,-1.763833 3.69272,-4.512534 C 37.119016,9.6977055 35.042614,9.5099432 34.527139,9.5005307 Z M 31.737705,40.930005 a 4.190644,4.190644 0 0 1 4.190725,4.190725 4.190644,4.190644 0 0 1 -4.190725,4.190724 4.190644,4.190644 0 0 1 -4.190724,-4.190724 4.190644,4.190644 0 0 1 4.190724,-4.190725 z" /><circle
     style="fill:#babcb7;fill-rule:evenodd;stroke-width:6.90125;stroke-linecap:round;stroke-linejoin:round;paint-order:stroke fill markers"
     id="circle1094"
     cx="-486.71857"
     cy="-108.43314"
     r="49.381626" /><circle
     style="fill:#babcb7;fill-rule:evenodd;stroke-width:3;stroke-linecap:round;stroke-linejoin:round;paint-order:stroke fill markers"
     id="circle1096"
     cx="-486.71857"
     cy="-107.09535"
     r="21.466379" /><path
     style="fill:#babcb7;fill-opacity:1;stroke:none;stroke-width:1px;stroke-linecap:butt;stroke-linejoin:miter;stroke-opacity:1"
     d="m -535.12196,-118.21368 c 0,0 -19.21294,-24.14047 -16.65239,-48.31928 0,0 9.1945,24.95729 21.4179,18.57434 12.22341,-6.38295 -2.74077,-18.3183 -7.99292,-25.52142 -2.78127,-3.81441 -16.72722,-19.60192 13.01769,-40.47731 0,0 -12.60214,13.45385 -6.1148,22.54201 6.48734,9.08817 11.79478,16.42555 19.15481,5.00707 7.36004,-11.41847 -17.15423,-32.91962 4.89906,-45.49098 0,0 -4.28329,19.81973 6.80918,19.02541 11.09248,-0.79433 13.39869,-6.10839 11.74716,-16.08414 -1.65153,-9.97574 -4.20356,-18.65699 19.18931,-31.07673 4.00272,-2.12513 13.12396,-17.18687 -3.37392,-29.51931 0,0 13.6971,-0.75376 15.07273,13.32634 1.37563,14.08011 -12.33636,14.796 -18.91721,23.11498 -6.58084,8.31898 15.33191,18.86959 14.63429,28.42762 -0.69762,9.55803 -11.27655,19.10623 4.98917,26.74903 0,0 10.23173,-1.91636 11.38233,-12.22239 1.15059,-10.30602 -0.72779,-20.73154 -2.64992,-24.00318 0,0 18.03746,24.66391 14.60499,39.61559 -3.43247,14.95167 -14.62229,15.37205 -15.19424,26.62235 -0.57195,11.2503 10.28991,14.41938 16.83863,8.40884 6.65233,-6.10563 7.67354,-14.0155 8.99383,-25.54673 0,0 9.84666,27.57275 0.49464,41.40613 -9.35202,13.83339 -14.90618,19.81537 -16.23591,22.4865 -1.32972,2.67113 -96.11441,2.95526 -96.11441,2.95526 z"
     id="path1098"
     sodipodi:nodetypes="ccsscsscssscssscscsssc" /></svg>
