<?xml version="1.0" encoding="UTF-8" standalone="no"?>
<svg
   width="64"
   height="64"
   version="1.1"
   id="svg26"
   sodipodi:docname="im.vector.svg"
   inkscape:version="1.3 (0e150ed6c4, 2023-07-21)"
   xmlns:inkscape="http://www.inkscape.org/namespaces/inkscape"
   xmlns:sodipodi="http://sodipodi.sourceforge.net/DTD/sodipodi-0.dtd"
   xmlns="http://www.w3.org/2000/svg"
   xmlns:svg="http://www.w3.org/2000/svg">
  <defs
     id="defs30">
    <linearGradient
       id="linearGradient844"
       x1="15"
       x2="35"
       y1="8"
       y2="38"
       gradientTransform="matrix(1.3636,0,0,1.3636,107.8852,-0.72639787)"
       gradientUnits="userSpaceOnUse">
      <stop
         stop-color="#18d862"
         offset="0"
         id="stop1157" />
      <stop
         stop-color="#1cd664"
         offset="1"
         id="stop1159" />
    </linearGradient>
    <linearGradient
       id="linearGradient1448-8"
       x1="8.0646"
       x2="8.0646"
       y1="2.2321"
       y2="14.651"
       gradientTransform="matrix(3.4646,0,0,3.4646,2.6665013,2.6665013)"
       gradientUnits="userSpaceOnUse">
      <stop
         stop-color="#76dd38"
         offset="0"
         id="stop1" />
      <stop
         stop-color="#14ab4b"
         offset="1"
         id="stop2" />
    </linearGradient>
    <filter
       id="filter2040"
       x="-0.032216473"
       y="-0.094106042"
       width="1.0644329"
       height="1.1882121"
       color-interpolation-filters="sRGB">
      <feGaussianBlur
         stdDeviation="0.60405546"
         id="feGaussianBlur2" />
    </filter>
    <linearGradient
       id="linearGradient2034"
       x1="28.853001"
       x2="28.853001"
       y1="24.025999"
       y2="40.034"
       gradientTransform="translate(19.500001,-28.498999)"
       gradientUnits="userSpaceOnUse">
      <stop
         stop-color="#fff"
         offset="0"
         id="stop3" />
      <stop
         stop-color="#aaf8ad"
         offset="1"
         id="stop4" />
    </linearGradient>
  </defs>
  <sodipodi:namedview
     id="namedview28"
     pagecolor="#ffffff"
     bordercolor="#999999"
     borderopacity="1"
     inkscape:showpageshadow="0"
     inkscape:pageopacity="0"
     inkscape:pagecheckerboard="0"
     inkscape:deskcolor="#d1d1d1"
     showgrid="false"
     inkscape:zoom="4.695631"
     inkscape:cx="42.592785"
     inkscape:cy="25.129743"
     inkscape:window-width="1920"
     inkscape:window-height="941"
     inkscape:window-x="0"
     inkscape:window-y="34"
     inkscape:window-maximized="1"
     inkscape:current-layer="svg26" />
  <rect
     x="4.4995003"
     y="4.4995003"
     width="55.000999"
     height="55.000999"
     ry="13"
     fill="url(#linearGradient1448-8)"
     stroke-opacity="0.95294"
     stroke-width="0.31428"
     id="rect4"
     style="fill:url(#linearGradient1448-8)" />
  <g
     fill="#ffffff"
     id="g22"
     transform="matrix(1.35,0,0,1.35,-0.4,-0.4)"
     style="stroke-width:0.74074;shape-rendering:auto">
    <path
       d="m 27.391,12.269 a 3.3635,3.3635 0 0 1 -0.50279,1.7119 l 4.9477,2.8594 a 3.3506,3.3506 0 0 1 0.93155,-1.4652 z m -6.7213,0.05244 -5.4042,3.1216 a 3.3506,3.3506 0 0 1 0.86369,1.4251 l 5.0279,-2.9057 a 3.3635,3.3635 0 0 1 -0.48736,-1.641 z m -6.7738,8.7201 a 3.3506,3.3506 0 0 1 -0.97165,0.14498 3.3506,3.3506 0 0 1 -0.59224,-0.05243 v 6.0581 a 3.3506,3.3506 0 0 1 0.59224,-0.05553 3.3506,3.3506 0 0 1 0.97165,0.14498 z m 20.22,0.01548 v 6.2093 a 3.3506,3.3506 0 0 1 0.91921,-0.12955 3.3506,3.3506 0 0 1 0.78349,0.09871 v -6.1445 a 3.3506,3.3506 0 0 1 -0.78349,0.09563 3.3506,3.3506 0 0 1 -0.91921,-0.12955 z m -17.909,10.108 a 3.3506,3.3506 0 0 1 -0.65085,1.3912 l 5.1328,2.9643 a 3.3506,3.3506 0 0 1 0.51513,-1.4683 z m 15.556,0.02776 -4.923,2.844 a 3.3506,3.3506 0 0 1 0.52438,1.5423 l 5.1019,-2.9458 a 3.3506,3.3506 0 0 1 -0.70329,-1.4405 z"
       color="#000000"
       color-rendering="auto"
       image-rendering="auto"
       opacity="0.5"
       solid-color="#000000"
       style="isolation:auto;mix-blend-mode:normal"
       id="path4" />
    <path
       d="m 23.958,9.6875 a 2.369,2.369 0 0 0 -2.369,2.369 2.369,2.369 0 0 0 2.369,2.369 2.369,2.369 0 0 0 2.369,-2.369 2.369,2.369 0 0 0 -2.369,-2.369 z m -0.05553,1.5793 a 0.78966,0.78966 0 0 1 0.05553,0 0.78966,0.78966 0 0 1 0.78966,0.78966 0.78966,0.78966 0 0 1 -0.78966,0.78966 0.78966,0.78966 0 0 1 -0.78966,-0.78966 0.78966,0.78966 0 0 1 0.73413,-0.78966 z"
       color="#000000"
       color-rendering="auto"
       image-rendering="auto"
       opacity="0.5"
       solid-color="#000000"
       style="isolation:auto;mix-blend-mode:normal"
       id="path6" />
    <path
       d="m 35.055,28.044 a 2.369,2.369 0 0 0 -2.369,2.369 2.369,2.369 0 0 0 2.369,2.369 2.369,2.369 0 0 0 2.369,-2.369 2.369,2.369 0 0 0 -2.369,-2.369 z m -0.05553,1.5793 a 0.78966,0.78966 0 0 1 0.05553,0 0.78966,0.78966 0 0 1 0.78966,0.78966 0.78966,0.78966 0 0 1 -0.78966,0.78966 0.78966,0.78966 0 0 1 -0.78966,-0.78966 0.78966,0.78966 0 0 1 0.73413,-0.78966 z"
       color="#000000"
       color-rendering="auto"
       image-rendering="auto"
       opacity="0.5"
       solid-color="#000000"
       style="isolation:auto;mix-blend-mode:normal"
       id="path8" />
    <path
       d="m 35.055,15.393 a 2.369,2.369 0 0 0 -2.369,2.369 2.369,2.369 0 0 0 2.369,2.369 2.369,2.369 0 0 0 2.369,-2.369 2.369,2.369 0 0 0 -2.369,-2.369 z m -0.05553,1.5793 a 0.78966,0.78966 0 0 1 0.05553,0 0.78966,0.78966 0 0 1 0.78966,0.78966 0.78966,0.78966 0 0 1 -0.78966,0.78966 0.78966,0.78966 0 0 1 -0.78966,-0.78966 0.78966,0.78966 0 0 1 0.73413,-0.78966 z"
       color="#000000"
       color-rendering="auto"
       image-rendering="auto"
       solid-color="#000000"
       style="isolation:auto;mix-blend-mode:normal"
       id="path10" />
    <path
       d="m 12.945,28.044 a 2.369,2.369 0 0 0 -2.369,2.369 2.369,2.369 0 0 0 2.369,2.369 2.369,2.369 0 0 0 2.369,-2.369 2.369,2.369 0 0 0 -2.369,-2.369 z m -0.05553,1.5793 a 0.78966,0.78966 0 0 1 0.05553,0 0.78966,0.78966 0 0 1 0.78966,0.78966 0.78966,0.78966 0 0 1 -0.78966,0.78966 0.78966,0.78966 0 0 1 -0.78966,-0.78966 0.78966,0.78966 0 0 1 0.73413,-0.78966 z"
       color="#000000"
       color-rendering="auto"
       image-rendering="auto"
       opacity="0.5"
       solid-color="#000000"
       style="isolation:auto;mix-blend-mode:normal"
       id="path12" />
    <path
       d="m 12.945,15.393 a 2.369,2.369 0 0 0 -2.369,2.369 2.369,2.369 0 0 0 2.369,2.369 2.369,2.369 0 0 0 2.369,-2.369 2.369,2.369 0 0 0 -2.369,-2.369 z m -0.05553,1.5793 a 0.78966,0.78966 0 0 1 0.05553,0 0.78966,0.78966 0 0 1 0.78966,0.78966 0.78966,0.78966 0 0 1 -0.78966,0.78966 0.78966,0.78966 0 0 1 -0.78966,-0.78966 0.78966,0.78966 0 0 1 0.73413,-0.78966 z"
       color="#000000"
       color-rendering="auto"
       image-rendering="auto"
       solid-color="#000000"
       style="isolation:auto;mix-blend-mode:normal"
       id="path14" />
    <path
       d="m 23.958,33.575 a 2.369,2.369 0 0 0 -2.369,2.369 2.369,2.369 0 0 0 2.369,2.369 2.369,2.369 0 0 0 2.369,-2.369 2.369,2.369 0 0 0 -2.369,-2.369 z m -0.05553,1.5793 a 0.78966,0.78966 0 0 1 0.05553,0 0.78966,0.78966 0 0 1 0.78966,0.78966 0.78966,0.78966 0 0 1 -0.78966,0.78966 0.78966,0.78966 0 0 1 -0.78966,-0.78966 0.78966,0.78966 0 0 1 0.73413,-0.78966 z"
       color="#000000"
       color-rendering="auto"
       image-rendering="auto"
       solid-color="#000000"
       style="isolation:auto;mix-blend-mode:normal"
       id="path16" />
    <path
       d="m 15.49,19.993 a 3.3506,3.3506 0 0 1 -1.2832,0.93463 l 7.3259,12.69 a 3.3506,3.3506 0 0 1 1.3048,-0.89453 z"
       color="#000000"
       color-rendering="auto"
       image-rendering="auto"
       solid-color="#000000"
       style="isolation:auto;mix-blend-mode:normal"
       id="path18" />
    <path
       d="m 32.523,20.052 -7.3167,12.675 a 3.3506,3.3506 0 0 1 1.3079,0.89453 l 7.3105,-12.665 A 3.3506,3.3506 0 0 1 32.523,20.05274 Z"
       color="#000000"
       color-rendering="auto"
       image-rendering="auto"
       solid-color="#000000"
       style="isolation:auto;mix-blend-mode:normal"
       id="path20" />
  </g>
</svg>
