<?xml version="1.0" encoding="UTF-8" standalone="no"?>
<svg
   width="64"
   height="64"
   version="1.1"
   viewBox="0 0 64 64"
   id="svg3473"
   sodipodi:docname="insomnia.svg"
   inkscape:version="1.3 (0e150ed6c4, 2023-07-21)"
   xmlns:inkscape="http://www.inkscape.org/namespaces/inkscape"
   xmlns:sodipodi="http://sodipodi.sourceforge.net/DTD/sodipodi-0.dtd"
   xmlns="http://www.w3.org/2000/svg"
   xmlns:svg="http://www.w3.org/2000/svg">
  <defs
     id="defs3477">
    <linearGradient
       id="linearGradient1448"
       x1="3.9686999"
       x2="3.9686999"
       y1="15.338"
       y2="0.54084998"
       gradientTransform="matrix(0.91666,0,0,0.91666,26.674,-20.554)"
       gradientUnits="userSpaceOnUse">
      <stop
         stop-color="#8c05eb"
         offset="0"
         id="stop1" />
      <stop
         stop-color="#5a00a0"
         offset="1"
         id="stop2" />
    </linearGradient>
  </defs>
  <sodipodi:namedview
     id="namedview3475"
     pagecolor="#ffffff"
     bordercolor="#999999"
     borderopacity="1"
     inkscape:showpageshadow="0"
     inkscape:pageopacity="0"
     inkscape:pagecheckerboard="0"
     inkscape:deskcolor="#d1d1d1"
     showgrid="false"
     inkscape:zoom="6.640625"
     inkscape:cx="16.564706"
     inkscape:cy="30.418824"
     inkscape:window-width="1920"
     inkscape:window-height="995"
     inkscape:window-x="0"
     inkscape:window-y="0"
     inkscape:window-maximized="1"
     inkscape:current-layer="svg3473" />
  <g
     transform="matrix(3.7796,0,0,3.7796,-98.154305,-16.352424)"
     id="g2">
    <rect
       transform="scale(1,-1)"
       x="27.16"
       y="-20.069"
       width="14.552"
       height="14.552"
       ry="3.4395001"
       fill="url(#linearGradient1448)"
       image-rendering="optimizeSpeed"
       stroke-opacity="0.95294"
       stroke-width="0.083152"
       id="rect2"
       style="fill:url(#linearGradient1448)" />
  </g>
  <path
     d="m32 14c-9.9412 0-18 8.0588-18 18s8.0588 18 18 18 18-8.0588 18-18-8.0588-18-18-18zm-0.6 2.4c8.2843-0.0036 15 6.7157 15 15s-6.7157 15-15 15-15.006-6.7157-15-15c5.46e-4 -0.76006 0.07074-1.5185 0.19219-2.2687 1.5209 1.083 3.3408 1.668 5.2078 1.6687 4.9705 0.0024 9.0029-4.0295 9-9-0.0011-1.8704-0.59045-3.6931-1.6781-5.2148 0.75356-0.11952 1.5151-0.18485 2.2781-0.18516z"
     fill="#fff"
     stroke-width="1.2"
     style="paint-order:normal"
     id="path3471" />
</svg>
