<?xml version="1.0" encoding="UTF-8" standalone="no"?>
<svg
   width="64"
   height="64"
   version="1.1"
   viewBox="0 0 64 64"
   id="svg8"
   sodipodi:docname="insomnia-designer.svg"
   inkscape:version="1.3 (0e150ed6c4, 2023-07-21)"
   xmlns:inkscape="http://www.inkscape.org/namespaces/inkscape"
   xmlns:sodipodi="http://sodipodi.sourceforge.net/DTD/sodipodi-0.dtd"
   xmlns="http://www.w3.org/2000/svg"
   xmlns:svg="http://www.w3.org/2000/svg">
  <defs
     id="defs12">
    <linearGradient
       id="linearGradient2323"
       x1="0.73910999"
       x2="16.388"
       y1="16.296"
       y2="0.64687002"
       gradientTransform="matrix(0.99998,0,0,0.99998,27.862,17.827)"
       gradientUnits="userSpaceOnUse">
      <stop
         stop-color="#5a00a0"
         offset="0"
         id="stop383" />
      <stop
         stop-color="#8c05eb"
         offset="1"
         id="stop385" />
    </linearGradient>
    <linearGradient
       id="linearGradient1448"
       x1="3.9686999"
       x2="3.9686999"
       y1="15.338"
       y2="0.54084998"
       gradientTransform="matrix(0.91666,0,0,0.91666,26.674,-20.554)"
       gradientUnits="userSpaceOnUse">
      <stop
         stop-color="#8c05eb"
         offset="0"
         id="stop1" />
      <stop
         stop-color="#5a00a0"
         offset="1"
         id="stop2" />
    </linearGradient>
  </defs>
  <sodipodi:namedview
     id="namedview10"
     pagecolor="#ffffff"
     bordercolor="#999999"
     borderopacity="1"
     inkscape:showpageshadow="0"
     inkscape:pageopacity="0"
     inkscape:pagecheckerboard="0"
     inkscape:deskcolor="#d1d1d1"
     showgrid="false"
     inkscape:zoom="4.695631"
     inkscape:cx="21.296392"
     inkscape:cy="34.926084"
     inkscape:window-width="1920"
     inkscape:window-height="995"
     inkscape:window-x="0"
     inkscape:window-y="0"
     inkscape:window-maximized="1"
     inkscape:current-layer="svg8" />
  <g
     transform="matrix(3.7796,0,0,3.7796,-98.1543,-16.352424)"
     id="g2">
    <rect
       transform="scale(1,-1)"
       x="27.16"
       y="-20.069"
       width="14.552"
       height="14.552"
       ry="3.4395001"
       fill="url(#linearGradient1448)"
       image-rendering="optimizeSpeed"
       stroke-opacity="0.95294"
       stroke-width="0.083152"
       id="rect2"
       style="fill:url(#linearGradient1448)" />
  </g>
  <g
     transform="matrix(1.3043333,0,0,1.3043333,18.547889,5.2125157)"
     id="g6">
    <path
       d="m -1.1866,8.5373 c -0.277,0 -0.5,0.223 -0.5,0.5 v 2 c 0,0.277 0.223,0.5 0.5,0.5 h 1.5 v 18 h -1.5 c -0.277,0 -0.5,0.223 -0.5,0.5 v 2 c 0,0.277 0.223,0.5 0.5,0.5 h 6 c 0.277,0 0.5,-0.223 0.5,-0.5 v -2 c 0,-0.277 -0.223,-0.5 -0.5,-0.5 H 3.3661 v -18 h 1.4473 c 0.277,0 0.5,-0.223 0.5,-0.5 v -2 c 0,-0.277 -0.223,-0.5 -0.5,-0.5 z m 10,0 c -0.277,0 -0.5,0.223 -0.5,0.5 v 2 c 0,0.277 0.223,0.5 0.5,0.5 h 9 c 0.277,0 0.5,-0.223 0.5,-0.5 v -2 c 0,-0.277 -0.223,-0.5 -0.5,-0.5 z m 6,7 c -0.277,0 -0.5,0.223 -0.5,0.5 v 2 c 0,0.277 0.223,0.5 0.5,0.5 h 7 c 0.277,0 0.5,-0.223 0.5,-0.5 v -2 c 0,-0.277 -0.223,-0.5 -0.5,-0.5 z m 0,7 c -0.277,0 -0.5,0.223 -0.5,0.5 v 2 c 0,0.277 0.223,0.5 0.5,0.5 h 7 c 0.277,0 0.5,-0.223 0.5,-0.5 v -2 c 0,-0.277 -0.223,-0.5 -0.5,-0.5 z m -6,7 c -0.277,0 -0.5,0.223 -0.5,0.5 v 2 c 0,0.277 0.223,0.5 0.5,0.5 h 9 c 0.277,0 0.5,-0.223 0.5,-0.5 v -2 c 0,-0.277 -0.223,-0.5 -0.5,-0.5 z"
       fill="#f9f9f9"
       stroke-linecap="round"
       stroke-opacity="0.73902"
       stroke-width="2"
       id="path4" />
  </g>
</svg>
