<?xml version="1.0" encoding="UTF-8" standalone="no"?>
<svg
   width="64"
   height="64"
   version="1.0"
   id="svg16"
   sodipodi:docname="io.github.seadve.Kooha.svg"
   inkscape:version="1.3.2 (091e20ef0f, 2023-11-25, custom)"
   xmlns:inkscape="http://www.inkscape.org/namespaces/inkscape"
   xmlns:sodipodi="http://sodipodi.sourceforge.net/DTD/sodipodi-0.dtd"
   xmlns="http://www.w3.org/2000/svg"
   xmlns:svg="http://www.w3.org/2000/svg">
  <defs
     id="defs20">
    <linearGradient
       id="a"
       x1="368.95999"
       x2="368.95999"
       y1="545.75"
       y2="517.40002"
       gradientTransform="matrix(1.722125,0,0,1.61875,-682.6166,-828.92487)"
       gradientUnits="userSpaceOnUse">
      <stop
         stop-color="#ff3069"
         offset="0"
         id="stop251" />
      <stop
         stop-color="#ffa548"
         offset="1"
         id="stop253" />
    </linearGradient>
    <linearGradient
       id="linearGradient1448"
       x1="14.313"
       x2="2.8512001"
       y1="14.382"
       y2="2.9196"
       gradientTransform="matrix(3.4646,0,0,3.4646,2.6661028,2.6661)"
       gradientUnits="userSpaceOnUse">
      <stop
         stop-color="#f74058"
         offset="0"
         id="stop1" />
      <stop
         stop-color="#ff6f33"
         offset="1"
         id="stop2" />
    </linearGradient>
  </defs>
  <sodipodi:namedview
     id="namedview18"
     pagecolor="#ffffff"
     bordercolor="#999999"
     borderopacity="1"
     inkscape:showpageshadow="0"
     inkscape:pageopacity="0"
     inkscape:pagecheckerboard="0"
     inkscape:deskcolor="#d1d1d1"
     showgrid="false"
     inkscape:zoom="3.3203125"
     inkscape:cx="-52.103529"
     inkscape:cy="39.152941"
     inkscape:window-width="1920"
     inkscape:window-height="995"
     inkscape:window-x="0"
     inkscape:window-y="0"
     inkscape:window-maximized="1"
     inkscape:current-layer="svg16" />
  <rect
     x="4.4995003"
     y="4.4995003"
     width="55.000999"
     height="55.000999"
     ry="13"
     fill="url(#linearGradient1448)"
     stroke-opacity="0.95294"
     stroke-width="0.31428"
     id="rect8"
     style="fill:url(#linearGradient1448)" />
  <path
     d="m 28.875,24.1875 c -1.73125,0 -3.125,1.39375 -3.125,3.125 v 9.375 c 0,1.73125 1.39375,3.125 3.125,3.125 h 12.5 c 1.73125,0 3.125,-1.39375 3.125,-3.125 v -9.375 c 0,-1.73125 -1.39375,-3.125 -3.125,-3.125 z M 25.75,32 21.0625,25.75 H 19.5 v 12.5 h 1.5625 z m 9.280312,-6.25 a 6.25,6.25 0 0 1 0.09469,0 6.25,6.25 0 0 1 6.25,6.25 6.25,6.25 0 0 1 -6.25,6.25 6.25,6.25 0 0 1 -6.25,-6.25 6.25,6.25 0 0 1 6.155312,-6.25 z m 0.01828,3.125 a 3.125,3.125 0 0 0 -3.04875,3.125 3.125,3.125 0 0 0 3.125,3.125 3.125,3.125 0 0 0 3.125,-3.125 3.125,3.125 0 0 0 -3.125,-3.125 3.125,3.125 0 0 0 -0.07625,0 z"
     fill="#ffffff"
     id="path571"
     style="stroke-width:1.5625;opacity:1" />
  <g
     id="g9"
     transform="translate(63.773739)">
    <path
       id="path6"
       style="color:#000000;fill:#fbfbfb;stroke-linecap:round;-inkscape-stroke:none"
       d="m -51.836697,16.345245 v 5.332031 h 1 v -5.332031 c 0,-1.896994 1.511209,-3.408203 3.408203,-3.408203 h 5.333985 v -1 h -5.333985 c -2.433695,0 -4.408203,1.974508 -4.408203,4.408203 z" />
    <path
       id="path7"
       style="color:#000000;fill:#fbfbfb;stroke-linecap:round;-inkscape-stroke:none"
       d="m -11.710781,16.345245 v 5.332031 h -1 v -5.332031 c 0,-1.896994 -1.511209,-3.408203 -3.408203,-3.408203 h -5.333985 v -1 h 5.333985 c 2.433695,0 4.408203,1.974508 4.408203,4.408203 z" />
    <path
       id="path8"
       style="color:#000000;fill:#fbfbfb;stroke-linecap:round;-inkscape-stroke:none"
       d="m -51.836697,47.654755 v -5.332031 h 1 v 5.332031 c 0,1.896994 1.511209,3.408203 3.408203,3.408203 h 5.333985 v 1 h -5.333985 c -2.433695,0 -4.408203,-1.974508 -4.408203,-4.408203 z" />
    <path
       id="path9"
       style="color:#000000;fill:#fbfbfb;stroke-linecap:round;-inkscape-stroke:none"
       d="m -11.710781,47.654755 v -5.332031 h -1 v 5.332031 c 0,1.896994 -1.511209,3.408203 -3.408203,3.408203 h -5.333985 v 1 h 5.333985 c 2.433695,0 4.408203,-1.974508 4.408203,-4.408203 z" />
  </g>
</svg>
