<?xml version="1.0" encoding="UTF-8" standalone="no"?>
<svg
   width="64"
   height="64"
   version="1.1"
   id="svg10"
   sodipodi:docname="kde-frameworks.svg"
   inkscape:version="1.3 (0e150ed6c4, 2023-07-21)"
   xmlns:inkscape="http://www.inkscape.org/namespaces/inkscape"
   xmlns:sodipodi="http://sodipodi.sourceforge.net/DTD/sodipodi-0.dtd"
   xmlns:xlink="http://www.w3.org/1999/xlink"
   xmlns="http://www.w3.org/2000/svg"
   xmlns:svg="http://www.w3.org/2000/svg">
  <defs
     id="defs14">
    <linearGradient
       id="linearGradient1005"
       x1="0.73910999"
       x2="16.388"
       y1="16.296"
       y2="0.64687002"
       gradientTransform="matrix(3.7795642,0,0,3.7795642,85.019307,3.255397)"
       gradientUnits="userSpaceOnUse">
      <stop
         stop-color="#00a0ff"
         offset="0"
         id="stop1897" />
      <stop
         stop-color="#37beff"
         offset="1"
         id="stop1899" />
    </linearGradient>
    <linearGradient
       inkscape:collect="always"
       xlink:href="#linearGradient2114"
       id="linearGradient2116"
       x1="59.5"
       y1="4.5"
       x2="4.5"
       y2="59.5"
       gradientUnits="userSpaceOnUse" />
    <linearGradient
       inkscape:collect="always"
       id="linearGradient2114">
      <stop
         style="stop-color:#37beff;stop-opacity:1"
         offset="0"
         id="stop2110" />
      <stop
         style="stop-color:#00a0ff;stop-opacity:1"
         offset="1"
         id="stop2112" />
    </linearGradient>
  </defs>
  <sodipodi:namedview
     id="namedview12"
     pagecolor="#ffffff"
     bordercolor="#999999"
     borderopacity="1"
     inkscape:showpageshadow="0"
     inkscape:pageopacity="0"
     inkscape:pagecheckerboard="0"
     inkscape:deskcolor="#d1d1d1"
     showgrid="false"
     inkscape:zoom="4.695631"
     inkscape:cx="1.8101934"
     inkscape:cy="15.546366"
     inkscape:window-width="1920"
     inkscape:window-height="995"
     inkscape:window-x="0"
     inkscape:window-y="0"
     inkscape:window-maximized="1"
     inkscape:current-layer="svg10" />
  <rect
     style="fill:url(#linearGradient2116);fill-opacity:1;stroke-width:2.12399"
     id="rect2106"
     width="55"
     height="55"
     x="4.5"
     y="4.5"
     ry="13" />
  <path
     d="m 19.692654,18.863615 c -0.172285,-0.0083 -0.338675,0.04336 -0.475778,0.180475 l -2.97221,2.97221 c -0.274219,0.274219 -0.274219,0.715626 0,0.989845 l 3.07077,4.823437 c -0.24577,0.495867 -0.458599,1.007401 -0.637114,1.531325 l -5.578179,1.238682 c -0.387801,0 -0.700002,0.312201 -0.700002,0.700003 v 4.200014 c 0,0.387801 0.321441,0.615876 0.700002,0.700002 l 5.580839,1.241413 c 0.172845,0.518729 0.379276,1.025671 0.617976,1.517605 l -3.07623,4.834356 c -0.208209,0.327182 -0.274219,0.715627 0,0.989846 l 2.96955,2.97221 c 0.274219,0.274219 0.715626,0.274219 0.989845,0 l 4.834357,-3.078891 c 0.500096,0.249117 1.016207,0.464704 1.544905,0.645319 l 1.238682,5.578179 c 0,0.387801 0.312202,0.700002 0.700003,0.700002 h 4.200014 c 0.387802,0 0.615876,-0.321441 0.700003,-0.700002 l 1.241412,-5.580839 c 0.526444,-0.175505 1.040708,-0.385604 1.539445,-0.62891 l 4.812517,3.06531 c 0.274219,0.274219 0.715626,0.274219 0.989845,0 l 2.97221,-2.97221 c 0.274219,-0.274219 0.208209,-0.662678 0,-0.989846 L 43.643012,41.731363 42.6641,42.122385 39.52781,37.419209 c -1.580606,3.514572 -5.074178,5.776559 -8.927831,5.780479 -5.412418,0 -9.800034,-4.387615 -9.800034,-9.800033 0.0043,-3.781133 2.183728,-7.222485 5.60002,-8.842991 v -3.01323 c -0.471074,0.161225 -0.932165,0.350225 -1.380867,0.566022 l -4.812517,-3.06531 c -0.16359,-0.104105 -0.341769,-0.172215 -0.514067,-0.180475 z"
     fill="#ffffff"
     id="path4"
     style="stroke-width:1.03704" />
  <path
     d="m 34.800105,12.399793 -7.000024,0.648048 V 40.399735 L 34.800105,38.99973 V 27.799692 l 8.400029,12.600043 7.000024,-2.80001 -9.100031,-11.77978 9.105491,-12.020301 -7.330845,-1.400005 -8.074668,11.900041 z"
     fill="#ffffff"
     id="path6"
     style="stroke-width:1.03704" />
</svg>
