<?xml version="1.0" encoding="UTF-8" standalone="no"?>
<svg
   width="64"
   height="64"
   version="1.1"
   id="svg30"
   sodipodi:docname="kdenlive.svg"
   xml:space="preserve"
   inkscape:version="1.3 (0e150ed6c4, 2023-07-21)"
   xmlns:inkscape="http://www.inkscape.org/namespaces/inkscape"
   xmlns:sodipodi="http://sodipodi.sourceforge.net/DTD/sodipodi-0.dtd"
   xmlns:xlink="http://www.w3.org/1999/xlink"
   xmlns="http://www.w3.org/2000/svg"
   xmlns:svg="http://www.w3.org/2000/svg"><defs
     id="defs34"><linearGradient
       id="linearGradient1"
       inkscape:collect="always"><stop
         style="stop-color:#29aeea;stop-opacity:1"
         offset="0"
         id="stop3" /><stop
         style="stop-color:#ac80e2;stop-opacity:1"
         offset="1"
         id="stop4" /></linearGradient><linearGradient
       id="linearGradient915"
       x1="18.820999"
       x2="31.299999"
       y1="-81.858002"
       y2="-72.986"
       gradientTransform="matrix(3.5275453,0,0,3.987617,25.350966,284.92958)"
       gradientUnits="userSpaceOnUse"><stop
         stop-color="#fa904f"
         offset="0"
         id="stop352" /><stop
         stop-color="#8c62c2"
         offset="1"
         id="stop354" /></linearGradient><linearGradient
       id="linearGradient885"
       x1="18.820999"
       x2="31.299999"
       y1="-81.858002"
       y2="-72.986"
       gradientTransform="matrix(3.5275453,0,0,3.987617,30.017997,338.80945)"
       gradientUnits="userSpaceOnUse"><stop
         stop-color="#29aeea"
         offset="0"
         id="stop334" /><stop
         stop-color="#ac80e2"
         offset="1"
         id="stop336" /></linearGradient><linearGradient
       id="linearGradient952"
       x1="18.820999"
       x2="31.299999"
       y1="-81.858002"
       y2="-72.986"
       gradientTransform="matrix(2.9396329,0,0,1.237911,44.971204,121.71512)"
       gradientUnits="userSpaceOnUse"><stop
         stop-color="#464b4b"
         offset="0"
         id="stop339" /><stop
         stop-color="#1e1e1e"
         offset="1"
         id="stop341" /></linearGradient><filter
       id="filter1068"
       x="-0.1011817"
       y="-0.071806608"
       width="1.2023634"
       height="1.1436132"
       color-interpolation-filters="sRGB"><feGaussianBlur
         stdDeviation="0.22308744"
         id="feGaussianBlur344" /></filter><linearGradient
       id="linearGradient1056"
       x1="8.7996998"
       x2="14.091"
       y1="-42.897999"
       y2="-42.897999"
       gradientTransform="matrix(3.5275453,0,0,3.5275453,-5.3309925,254.89183)"
       gradientUnits="userSpaceOnUse"><stop
         stop-color="#ebebeb"
         offset="0"
         id="stop347" /><stop
         stop-color="#fff"
         offset="1"
         id="stop349" /></linearGradient><linearGradient
       id="linearGradient13164"
       x1="19.673"
       x2="32.200001"
       y1="4.7459002"
       y2="4.7459002"
       gradientUnits="userSpaceOnUse"
       xlink:href="#linearGradient13162" /><linearGradient
       id="linearGradient13162"><stop
         stop-color="#50e6ff"
         offset="0"
         id="stop329" /><stop
         stop-color="#50e6ff"
         offset="1"
         id="stop331" /></linearGradient><linearGradient
       id="linearGradient1448-3"
       x1="3.9686999"
       x2="3.9686999"
       y1="16.385"
       y2="0.54084998"
       gradientTransform="matrix(3.4646,0,0,3.4646,2.666502,2.6665007)"
       gradientUnits="userSpaceOnUse"><stop
         stop-color="#cfdef0"
         offset="0"
         id="stop1" /><stop
         stop-color="#f5faff"
         offset="1"
         id="stop2" /></linearGradient><linearGradient
       inkscape:collect="always"
       xlink:href="#linearGradient1"
       id="linearGradient4"
       x1="12.777836"
       y1="13.33362"
       x2="50.685413"
       y2="49.194668"
       gradientUnits="userSpaceOnUse" /><linearGradient
       inkscape:collect="always"
       xlink:href="#linearGradient952"
       id="linearGradient12"
       gradientUnits="userSpaceOnUse"
       gradientTransform="matrix(2.9396329,0,0,1.237911,-42.769933,121.14056)"
       x1="18.820999"
       y1="-81.858002"
       x2="31.299999"
       y2="-72.986" /><linearGradient
       inkscape:collect="always"
       xlink:href="#linearGradient13162"
       id="linearGradient13"
       gradientUnits="userSpaceOnUse"
       x1="19.673"
       y1="4.7459002"
       x2="32.200001"
       y2="4.7459002"
       gradientTransform="matrix(3.5276159,0,0,3.5276159,-59.797382,-3.9826513)" /><linearGradient
       inkscape:collect="always"
       xlink:href="#linearGradient13162"
       id="linearGradient14"
       gradientUnits="userSpaceOnUse"
       x1="19.673"
       y1="4.7459002"
       x2="32.200001"
       y2="4.7459002"
       gradientTransform="matrix(3.5276159,0,0,3.5276159,-59.797382,-3.9826513)" /><linearGradient
       inkscape:collect="always"
       xlink:href="#linearGradient13162"
       id="linearGradient15"
       gradientUnits="userSpaceOnUse"
       x1="19.673"
       y1="4.7459002"
       x2="32.200001"
       y2="4.7459002"
       gradientTransform="matrix(3.5276159,0,0,3.5276159,-59.797382,-3.9826513)" /></defs><sodipodi:namedview
     id="namedview32"
     pagecolor="#ffffff"
     bordercolor="#999999"
     borderopacity="1"
     inkscape:showpageshadow="0"
     inkscape:pageopacity="0"
     inkscape:pagecheckerboard="0"
     inkscape:deskcolor="#d1d1d1"
     showgrid="false"
     inkscape:zoom="6.640625"
     inkscape:cx="33.581176"
     inkscape:cy="31.924706"
     inkscape:window-width="1920"
     inkscape:window-height="941"
     inkscape:window-x="0"
     inkscape:window-y="34"
     inkscape:window-maximized="1"
     inkscape:current-layer="svg30" /><rect
     x="4.4994998"
     y="4.4995003"
     width="55.000999"
     height="55.000999"
     ry="13"
     stroke-opacity="0.95294"
     stroke-width="0.31428"
     id="rect2"
     style="fill:url(#linearGradient4);fill-opacity:1" /><rect
     x="8.6665936"
     y="18.358799"
     width="46.666832"
     height="15.06663"
     ry="2.5347557"
     fill="url(#linearGradient952)"
     stroke-width="1.90761"
     id="rect4"
     style="fill:url(#linearGradient12)" /><path
     d="m 9.6014056,7.1589708 3.7332764,5.6000902 -3.7332764,5.60009 h 9.3104364 l 3.733276,-5.60009 -3.733276,-5.6000902 z"
     id="path4"
     style="fill:url(#linearGradient13);stroke-width:3.52755" /><path
     d="m 25.17583,7.1589708 3.733276,5.6000902 -3.733276,5.60009 h 9.310436 l 3.733276,-5.60009 -3.733276,-5.6000902 z"
     id="path5"
     style="fill:url(#linearGradient14);stroke-width:3.52755" /><path
     d="m 40.746726,7.1589708 3.733276,5.6000902 -3.733276,5.60009 h 9.310437 l 3.733276,-5.60009 -3.733276,-5.6000902 z"
     id="path6"
     style="fill:url(#linearGradient15);stroke-width:3.52755" /><path
     id="path7"
     style="fill:#fefefe;fill-opacity:1;stroke-width:0.962946"
     d="M 53.185547 52.210938 L 53.185547 53.175781 L 54.148438 53.175781 L 54.148438 52.210938 L 53.185547 52.210938 z " /><path
     id="path42"
     style="fill:#fefefe;fill-opacity:1;stroke-width:0.962946"
     d="M 44.517578 52.210938 L 44.517578 53.175781 L 45.480469 53.175781 L 45.480469 52.210938 L 44.517578 52.210938 z " /><path
     id="path41"
     style="fill:#fefefe;fill-opacity:1;stroke-width:0.962946"
     d="M 40.666016 52.210938 L 40.666016 53.175781 L 41.628906 53.175781 L 41.628906 52.210938 L 40.666016 52.210938 z " /><path
     id="path40"
     style="fill:#fefefe;fill-opacity:1;stroke-width:0.962946"
     d="M 36.814453 52.210938 L 36.814453 53.175781 L 37.777344 53.175781 L 37.777344 52.210938 L 36.814453 52.210938 z " /><path
     id="path39"
     style="fill:#fefefe;fill-opacity:1;stroke-width:0.962946"
     d="M 32.962891 52.210938 L 32.962891 53.175781 L 33.925781 53.175781 L 33.925781 52.210938 L 32.962891 52.210938 z " /><path
     id="path38"
     style="fill:#fefefe;fill-opacity:1;stroke-width:0.962946"
     d="M 29.111328 52.210938 L 29.111328 53.175781 L 30.074219 53.175781 L 30.074219 52.210938 L 29.111328 52.210938 z " /><path
     id="path37"
     style="fill:#fefefe;fill-opacity:1;stroke-width:0.962946"
     d="M 25.259766 52.210938 L 25.259766 53.175781 L 26.222656 53.175781 L 26.222656 52.210938 L 25.259766 52.210938 z " /><path
     id="path36"
     style="fill:#fefefe;fill-opacity:1;stroke-width:0.962946"
     d="M 21.408203 52.210938 L 21.408203 53.175781 L 22.371094 53.175781 L 22.371094 52.210938 L 21.408203 52.210938 z " /><path
     id="path35"
     style="fill:#fefefe;fill-opacity:1;stroke-width:0.962946"
     d="M 17.556641 52.210938 L 17.556641 53.175781 L 18.519531 53.175781 L 18.519531 52.210938 L 17.556641 52.210938 z " /><path
     id="path34"
     style="fill:#fefefe;fill-opacity:1;stroke-width:0.962946"
     d="M 13.703125 52.210938 L 13.703125 53.175781 L 14.666016 53.175781 L 14.666016 52.210938 L 13.703125 52.210938 z " /><path
     id="path33"
     style="fill:#fefefe;fill-opacity:1;stroke-width:0.962946"
     d="M 9.8515625 52.210938 L 9.8515625 53.175781 L 10.814453 53.175781 L 10.814453 52.210938 L 9.8515625 52.210938 z " /><path
     id="path32"
     style="fill:#fefefe;fill-opacity:1;stroke-width:0.962946"
     d="M 55.111328 51.248047 L 55.111328 53.175781 L 56.074219 53.175781 L 56.074219 51.248047 L 55.111328 51.248047 z " /><path
     id="path31"
     style="fill:#fefefe;fill-opacity:1;stroke-width:0.962946"
     d="M 46.443359 51.248047 L 46.443359 53.175781 L 47.40625 53.175781 L 47.40625 51.248047 L 46.443359 51.248047 z " /><path
     id="path30"
     style="fill:#fefefe;fill-opacity:1;stroke-width:0.962946"
     d="M 42.591797 51.248047 L 42.591797 53.175781 L 43.554688 53.175781 L 43.554688 51.248047 L 42.591797 51.248047 z " /><path
     id="path29"
     style="fill:#fefefe;fill-opacity:1;stroke-width:0.962946"
     d="M 38.740234 51.248047 L 38.740234 53.175781 L 39.703125 53.175781 L 39.703125 51.248047 L 38.740234 51.248047 z " /><path
     id="path28"
     style="fill:#fefefe;fill-opacity:1;stroke-width:0.962946"
     d="M 34.888672 51.248047 L 34.888672 53.175781 L 35.851562 53.175781 L 35.851562 51.248047 L 34.888672 51.248047 z " /><path
     id="path27"
     style="fill:#fefefe;fill-opacity:1;stroke-width:0.962946"
     d="M 31.037109 51.248047 L 31.037109 53.175781 L 32 53.175781 L 32 51.248047 L 31.037109 51.248047 z " /><path
     id="path26"
     style="fill:#fefefe;fill-opacity:1;stroke-width:0.962946"
     d="M 27.185547 51.248047 L 27.185547 53.175781 L 28.148438 53.175781 L 28.148438 51.248047 L 27.185547 51.248047 z " /><path
     id="path25"
     style="fill:#fefefe;fill-opacity:1;stroke-width:0.962946"
     d="M 23.333984 51.248047 L 23.333984 53.175781 L 24.296875 53.175781 L 24.296875 51.248047 L 23.333984 51.248047 z " /><path
     id="path24"
     style="fill:#fefefe;fill-opacity:1;stroke-width:0.962946"
     d="M 19.482422 51.248047 L 19.482422 53.175781 L 20.445312 53.175781 L 20.445312 51.248047 L 19.482422 51.248047 z " /><path
     id="path23"
     style="fill:#fefefe;fill-opacity:1;stroke-width:0.962946"
     d="M 15.630859 51.248047 L 15.630859 53.175781 L 16.59375 53.175781 L 16.59375 51.248047 L 15.630859 51.248047 z " /><path
     id="path22"
     style="fill:#fefefe;fill-opacity:1;stroke-width:0.962946"
     d="M 11.777344 51.248047 L 11.777344 53.175781 L 12.740234 53.175781 L 12.740234 51.248047 L 11.777344 51.248047 z " /><path
     id="path21"
     style="fill:#fefefe;fill-opacity:1;stroke-width:0.962946"
     d="M 7.9257812 51.248047 L 7.9257812 53.175781 L 8.8886719 53.175781 L 8.8886719 51.248047 L 7.9257812 51.248047 z " /><path
     id="path20"
     style="fill:#fefefe;fill-opacity:1;stroke-width:0.962946"
     d="M 50.296875 47.396484 L 50.296875 53.175781 L 51.259766 53.175781 L 51.259766 47.396484 L 50.296875 47.396484 z " /><path
     id="path18"
     style="fill:#fefefe;fill-opacity:1;stroke-width:0.962946"
     d="M 57.652344 53.175781 C 57.746121 53.018979 57.848283 52.868067 57.935547 52.707031 C 57.959192 52.663396 57.976841 52.616203 58 52.572266 L 58 52.210938 L 57.037109 52.210938 L 57.037109 53.175781 L 57.652344 53.175781 z " /><path
     id="path16"
     style="fill:#fefefe;fill-opacity:1;stroke-width:0.962946"
     d="M 6 52.572266 C 6.0231588 52.616203 6.0408077 52.663396 6.0644531 52.707031 C 6.1517165 52.868067 6.2538793 53.018979 6.3476562 53.175781 L 6.9628906 53.175781 L 6.9628906 52.210938 L 6 52.210938 L 6 52.572266 z " /><path
     d="m 53.184816,35.841817 v 1.925892 h 0.962946 v -0.962946 h 0.962946 v -0.962946 z m 2.888838,0 v 0.962946 h 0.962947 v 0.962946 h 0.962946 v -1.925892 z m -2.888838,2.888839 v 1.925892 h 1.925892 v -0.962946 h -0.962946 v -0.962946 z m 3.851785,0 v 0.962946 h -0.962947 v 0.962946 h 1.925893 v -1.925892 z"
     id="path8"
     style="fill:#fefefe;fill-opacity:1;stroke-width:0.962946" /><path
     d="m 50.778413,43.543461 a 1.4444193,1.4444193 0 0 0 -1.444419,1.444419 c 0,0.797319 0.962946,3.370312 1.444419,3.370312 0.481473,0 1.44442,-2.572993 1.44442,-3.370312 a 1.4444193,1.4444193 0 0 0 -1.44442,-1.444419 z m 0,0.962946 a 0.4814731,0.4814731 0 1 1 0,0.962946 0.4814731,0.4814731 0 0 1 0,-0.962946 z"
     id="path9"
     style="fill:#50e6ff;fill-opacity:1;stroke-width:0.962946" /><path
     d="m 6.9518434,34.876945 a 0.96294619,0.96294619 0 0 0 -0.9504279,0.962946 v 3.849859 a 0.96294619,0.96294619 0 0 0 1.4973813,0.801171 l 2.8888382,-1.925892 a 0.96294619,0.96294619 0 0 0 0,-1.60138 L 7.4987968,35.037757 A 0.96294619,0.96294619 0 0 0 6.9518434,34.876945 Z"
     fill-rule="evenodd"
     font-family="sans-serif"
     font-weight="400"
     overflow="visible"
     style="text-indent:0;text-decoration-line:none;text-decoration-style:solid;text-decoration-color:#000000;text-transform:none;white-space:normal;isolation:auto;mix-blend-mode:normal;fill:#fefefe;fill-opacity:1;stroke-width:0.962946"
     id="path10" /><rect
     x="22.37055"
     y="36.804752"
     width="28.888386"
     height="1.9258924"
     ry="0.89168817"
     fill="#eeeeee"
     id="rect10"
     style="fill:#fefefe;fill-opacity:1;stroke-width:0.962946" /><rect
     x="12.741089"
     y="36.804752"
     width="9.6294622"
     height="1.9258924"
     ry="0.96294618"
     id="rect11"
     style="fill:#50e6ff;fill-opacity:1;stroke-width:0.962946" /><circle
     cx="22.37055"
     cy="37.7677"
     id="circle11"
     r="2.8888385"
     style="fill:#434848;fill-opacity:1;stroke-width:0.962946" /><path
     d="m 49.333031,53.174848 0.962946,-1.925892 h 0.962946 l 0.962947,1.925892 z"
     fill-rule="evenodd"
     id="path11"
     style="fill:#fefefe;fill-opacity:1;stroke-width:0.962946" /></svg>
