<?xml version="1.0" encoding="UTF-8" standalone="no"?>
<svg
   width="64"
   height="64"
   version="1.1"
   id="svg20"
   sodipodi:docname="kdevelop.svg"
   xml:space="preserve"
   inkscape:version="1.3 (0e150ed6c4, 2023-07-21)"
   xmlns:inkscape="http://www.inkscape.org/namespaces/inkscape"
   xmlns:sodipodi="http://sodipodi.sourceforge.net/DTD/sodipodi-0.dtd"
   xmlns:xlink="http://www.w3.org/1999/xlink"
   xmlns="http://www.w3.org/2000/svg"
   xmlns:svg="http://www.w3.org/2000/svg"><defs
     id="defs24"><linearGradient
       inkscape:collect="always"
       id="linearGradient47454"><stop
         style="stop-color:#c8cccc;stop-opacity:0.99994463;"
         offset="0"
         id="stop47450" /><stop
         style="stop-color:#dcdcdc;stop-opacity:1;"
         offset="1"
         id="stop47452" /></linearGradient><linearGradient
       inkscape:collect="always"
       id="linearGradient38402"><stop
         style="stop-color:#7feaa6;stop-opacity:1"
         offset="0"
         id="stop38398" /><stop
         style="stop-color:#d5f8ea;stop-opacity:1"
         offset="1"
         id="stop38400" /></linearGradient><linearGradient
       inkscape:collect="always"
       id="linearGradient31232"><stop
         style="stop-color:#51d181;stop-opacity:1"
         offset="0"
         id="stop31228" /><stop
         style="stop-color:#378876;stop-opacity:1"
         offset="1"
         id="stop31230" /></linearGradient><linearGradient
       inkscape:collect="always"
       id="linearGradient13481"><stop
         style="stop-color:#3f905d;stop-opacity:1"
         offset="0"
         id="stop13477" /><stop
         style="stop-color:#4042b5;stop-opacity:1;"
         offset="1"
         id="stop13479" /></linearGradient><linearGradient
       inkscape:collect="always"
       id="linearGradient410"><stop
         style="stop-color:#edefef;stop-opacity:0.92156863"
         offset="0"
         id="stop406" /><stop
         style="stop-color:#afb5b5;stop-opacity:1"
         offset="0.81945544"
         id="stop7194" /><stop
         style="stop-color:#a9b1b1;stop-opacity:0.98431373"
         offset="1"
         id="stop408" /></linearGradient><linearGradient
       inkscape:collect="always"
       xlink:href="#linearGradient13481"
       id="linearGradient5"
       gradientUnits="userSpaceOnUse"
       gradientTransform="translate(91.928866,-24.632265)"
       x1="14.561023"
       y1="8.1095343"
       x2="64.921333"
       y2="37.482891" /><linearGradient
       inkscape:collect="always"
       xlink:href="#linearGradient410"
       id="linearGradient6"
       gradientUnits="userSpaceOnUse"
       gradientTransform="translate(95.171765)"
       x1="9.3335714"
       y1="15.595671"
       x2="48.409088"
       y2="54.676895" /><linearGradient
       inkscape:collect="always"
       xlink:href="#linearGradient31232"
       id="linearGradient7"
       gradientUnits="userSpaceOnUse"
       gradientTransform="translate(-91.92887,24.632249)"
       x1="-23.806862"
       y1="-12.891647"
       x2="-54.510792"
       y2="-32.468327" /><linearGradient
       inkscape:collect="always"
       xlink:href="#linearGradient38402"
       id="linearGradient8"
       gradientUnits="userSpaceOnUse"
       gradientTransform="matrix(0.72890011,0,0,0.43615359,-50.413289,87.803131)"
       x1="-23.683653"
       y1="-28.509127"
       x2="-51.226299"
       y2="-10.761479" /><linearGradient
       inkscape:collect="always"
       xlink:href="#linearGradient47454"
       id="linearGradient9"
       gradientUnits="userSpaceOnUse"
       gradientTransform="rotate(15,47.585883,361.45066)"
       x1="13.628036"
       y1="8.3917885"
       x2="57.369915"
       y2="33.160213" /><linearGradient
       id="linearGradient1448"
       x1="3.9686999"
       x2="3.9686999"
       y1="15.338"
       y2="0.54084998"
       gradientTransform="matrix(3.46461,0,0,3.46461,2.6660936,-61.344832)"
       gradientUnits="userSpaceOnUse"><stop
         stop-color="#333132"
         offset="0"
         id="stop11" /><stop
         stop-color="#212427"
         offset="1"
         id="stop12" /></linearGradient></defs><sodipodi:namedview
     id="namedview22"
     pagecolor="#ffffff"
     bordercolor="#999999"
     borderopacity="1"
     inkscape:showpageshadow="0"
     inkscape:pageopacity="0"
     inkscape:pagecheckerboard="0"
     inkscape:deskcolor="#d1d1d1"
     showgrid="false"
     inkscape:zoom="3.3203125"
     inkscape:cx="12.348235"
     inkscape:cy="21.383529"
     inkscape:window-width="1920"
     inkscape:window-height="941"
     inkscape:window-x="0"
     inkscape:window-y="34"
     inkscape:window-maximized="1"
     inkscape:current-layer="svg20" /><rect
     transform="scale(1,-1)"
     x="4.4996166"
     y="-59.500381"
     width="55.000767"
     height="55.000767"
     ry="12.999942"
     fill="url(#linearGradient1448)"
     stroke-opacity="0.95294"
     stroke-width="0.314281"
     id="rect12"
     style="fill:url(#linearGradient1448)" /><g
     id="g5"
     transform="matrix(0.80358081,0,0,0.80358081,-70.192603,6.2854141)"><circle
       transform="rotate(15)"
       cx="131.12064"
       cy="-2.0043395"
       r="21.008093"
       stroke-linecap="round"
       id="circle1"
       style="color:#000000;fill:url(#linearGradient5);fill-opacity:1;stroke-width:3.11116;stroke-linejoin:round" /><path
       d="m 124.30327,59.84817 a 28.010792,28.010792 0 0 0 5.73815,0.0083 l 0.66525,-4.341673 a 23.809173,23.809173 0 0 0 5.16421,-1.380189 l 2.73946,3.418717 a 28.010792,28.010792 0 0 0 4.97051,-2.876429 l -1.58961,-4.07697 a 23.809173,23.809173 0 0 0 3.79518,-3.774735 l 4.05176,1.578409 a 28.010792,28.010792 0 0 0 2.87125,-4.976678 l -3.39211,-2.718447 a 23.809173,23.809173 0 0 0 0.85236,-2.546882 23.809173,23.809173 0 0 0 0.51732,-2.628112 l 4.33326,-0.665256 a 28.010792,28.010792 0 0 0 0.008,-5.738151 l -4.34167,-0.665257 a 23.809173,23.809173 0 0 0 -1.38019,-5.164209 l 3.41872,-2.739455 a 28.010792,28.010792 0 0 0 -2.87643,-4.970515 l -4.07697,1.589613 a 23.809173,23.809173 0 0 0 -3.77432,-3.794907 l 1.57855,-4.0514799 a 28.010792,28.010792 0 0 0 -4.97685,-2.87128 l -2.71635,3.392247 a 23.809173,23.809173 0 0 0 -2.54912,-0.852565 23.809173,23.809173 0 0 0 -2.62811,-0.5173168 l -0.66299,-4.3331295 a 28.010792,28.010792 0 0 0 -5.73815,-0.00828 l -0.66797,4.3415326 a 23.809173,23.809173 0 0 0 -5.16379,1.3805677 l -2.73946,-3.4182939 a 28.010792,28.010792 0 0 0 -4.97051,2.8764279 l 1.58961,4.0769719 a 23.809173,23.809173 0 0 0 -3.79518,3.774733 l -4.05204,-1.579808 a 28.010792,28.010792 0 0 0 -2.87125,4.976677 l 3.39211,2.718447 a 23.809173,23.809173 0 0 0 -0.85236,2.546882 23.809173,23.809173 0 0 0 -0.51731,2.628112 l -4.333274,0.665256 a 28.010792,28.010792 0 0 0 -0.0083,5.738151 l 4.341674,0.665256 a 23.809173,23.809173 0 0 0 1.38021,5.16421 l -3.41872,2.739455 a 28.010792,28.010792 0 0 0 2.87643,4.970516 l 4.07697,-1.589613 a 23.809173,23.809173 0 0 0 3.77473,3.795182 l -1.5784,4.051761 a 28.010792,28.010792 0 0 0 4.97667,2.871246 l 2.71845,-3.392107 a 23.809173,23.809173 0 0 0 2.54688,0.852355 23.809173,23.809173 0 0 0 2.62811,0.517317 z m -2.20641,-8.908552 a 19.607554,19.607554 0 0 1 -13.86464,-24.013652 19.607554,19.607554 0 0 1 24.01365,-13.864642 19.607554,19.607554 0 0 1 13.86464,24.013652 19.607554,19.607554 0 0 1 -24.01365,13.864642"
       id="path1"
       style="color:#000000;fill:url(#linearGradient6);fill-opacity:1;stroke-width:3.11116;stroke-linejoin:round" /><circle
       transform="rotate(-165.00001)"
       cx="-131.12082"
       cy="2.0042205"
       r="18.207092"
       id="circle3"
       style="color:#000000;fill:url(#linearGradient7);fill-opacity:1;stroke-width:3.11117;stroke-linecap:round;stroke-linejoin:round" /><ellipse
       transform="matrix(-0.59813192,-0.80139766,0.94723738,-0.32053292,0,0)"
       cx="-78.980309"
       cy="77.93383"
       id="ellipse3"
       style="color:#000000;fill:url(#linearGradient8);fill-opacity:1;stroke-width:1.75419;stroke-linecap:round;stroke-linejoin:round"
       rx="13.271151"
       ry="7.9410887" /><path
       d="m 114.56672,37.601999 5.60215,5.602158 2.80108,-8.403237 z"
       fill-rule="evenodd"
       stroke-width="1.03703"
       id="path3"
       style="fill:#344746;fill-opacity:1" /><path
       id="path5"
       style="color:#000000;opacity:1;fill:url(#linearGradient9);fill-opacity:1;stroke-width:3.11116;stroke-linejoin:round"
       d="M 126.67177,10.998047 A 21.008093,21.008093 0 0 0 106.8788,26.5625 21.008093,21.008093 0 0 0 121.73427,52.292969 21.008093,21.008093 0 0 0 147.46473,37.4375 21.008093,21.008093 0 0 0 132.60926,11.708984 21.008093,21.008093 0 0 0 126.67177,10.998047 Z m 0.0332,1.398438 a 19.610315,19.610315 0 0 1 5.54297,0.662109 19.610315,19.610315 0 0 1 13.86523,24.017578 19.610315,19.610315 0 0 1 -24.01758,13.867187 19.610315,19.610315 0 0 1 -13.86523,-24.017577 19.610315,19.610315 0 0 1 18.47461,-14.529297 z" /></g></svg>
