<?xml version="1.0" encoding="UTF-8" standalone="no"?>
<svg
   width="64"
   height="64"
   version="1.1"
   id="svg31"
   sodipodi:docname="org.xfce.Gigolo.svg"
   inkscape:version="1.3.2 (091e20ef0f, 2023-11-25, custom)"
   xmlns:inkscape="http://www.inkscape.org/namespaces/inkscape"
   xmlns:sodipodi="http://sodipodi.sourceforge.net/DTD/sodipodi-0.dtd"
   xmlns:xlink="http://www.w3.org/1999/xlink"
   xmlns="http://www.w3.org/2000/svg"
   xmlns:svg="http://www.w3.org/2000/svg">
  <sodipodi:namedview
     id="namedview33"
     pagecolor="#ffffff"
     bordercolor="#999999"
     borderopacity="1"
     inkscape:showpageshadow="0"
     inkscape:pageopacity="0"
     inkscape:pagecheckerboard="0"
     inkscape:deskcolor="#d1d1d1"
     showgrid="false"
     inkscape:zoom="4.4746601"
     inkscape:cx="17.878453"
     inkscape:cy="32.628177"
     inkscape:window-width="1920"
     inkscape:window-height="995"
     inkscape:window-x="0"
     inkscape:window-y="0"
     inkscape:window-maximized="1"
     inkscape:current-layer="svg31" />
  <defs
     id="defs7">
    <linearGradient
       id="linearGradient892"
       x1="-197.72"
       x2="-197.72"
       y1="263.86"
       y2="273.76"
       gradientTransform="matrix(0.70713,-0.70713,0.70713,0.70713,72.787112,-281.39)"
       gradientUnits="userSpaceOnUse">
      <stop
         offset="0"
         id="stop2" />
      <stop
         stop-opacity="0"
         offset="1"
         id="stop4" />
    </linearGradient>
    <linearGradient
       id="linearGradient1777"
       x1="0.52969003"
       x2="16.774"
       y1="15.081"
       y2="2.5021999"
       gradientUnits="userSpaceOnUse"
       gradientTransform="matrix(3.779602,0,0,3.779602,-73.402451,-3.8841398)">
      <stop
         stop-color="#0078e1"
         offset="0"
         id="stop262" />
      <stop
         stop-color="#05b9ff"
         offset="1"
         id="stop264" />
    </linearGradient>
    <linearGradient
       inkscape:collect="always"
       xlink:href="#linearGradient2156"
       id="linearGradient2158"
       x1="-11.134952"
       y1="1.858956"
       x2="-11.134952"
       y2="5.2934809"
       gradientUnits="userSpaceOnUse"
       gradientTransform="matrix(3.779602,0,0,3.779602,145.20499,19)" />
    <linearGradient
       inkscape:collect="always"
       id="linearGradient2156">
      <stop
         style="stop-color:#0078dc;stop-opacity:1"
         offset="0"
         id="stop2152" />
      <stop
         style="stop-color:#0050b4;stop-opacity:1"
         offset="1"
         id="stop2154" />
    </linearGradient>
    <linearGradient
       inkscape:collect="always"
       xlink:href="#linearGradient1693"
       id="linearGradient1695"
       x1="-87.035156"
       y1="35"
       x2="-26.035156"
       y2="35"
       gradientUnits="userSpaceOnUse"
       gradientTransform="translate(157.53613,19)" />
    <linearGradient
       inkscape:collect="always"
       id="linearGradient1693">
      <stop
         style="stop-color:#0078dc;stop-opacity:1"
         offset="0"
         id="stop1689" />
      <stop
         style="stop-color:#00aaff;stop-opacity:0.99607843"
         offset="1"
         id="stop1691" />
    </linearGradient>
  </defs>
  <g
     id="g1"
     transform="translate(-69.000975,-19)">
    <path
       id="rect2148"
       style="fill:url(#linearGradient2158);fill-opacity:1;stroke:none;stroke-width:1;stroke-linecap:round;stroke-opacity:1"
       d="m 76.013668,26 c -2.769994,0 -4.999997,2.22993 -4.999997,5 V 70.999999 C 71.013671,73.769993 73.243598,76 76.013668,76 h 49.974612 c 0.6925,0 1.35064,-0.140223 1.94922,-0.39258 0.59861,-0.252326 1.13795,-0.616506 1.58984,-1.068357 0.45189,-0.451851 0.81604,-0.991231 1.06836,-1.589844 0.25237,-0.598614 0.39258,-1.256722 0.39258,-1.94922 V 37 c 0,-0.692499 -0.14023,-1.350643 -0.39258,-1.949219 -0.25232,-0.598613 -0.61651,-1.137954 -1.06836,-1.589843 -0.45189,-0.45189 -0.99123,-0.816034 -1.58984,-1.06836 C 127.33888,32.140252 126.68078,32 125.98828,32 H 97.01367 C 96.26368,32 95.513648,31.74998 94.794915,31.359375 94.076148,30.968753 93.388665,30.43748 92.76367,29.875 91.51368,28.750002 90.513673,27.500004 90.013673,27 89.578373,26.564704 88.907607,26.315828 88.238277,26.173829 87.597865,26.03799 86.978328,26.006993 86.550779,26.000001 h -0.537111 z" />
    <path
       id="rect1669"
       style="fill:url(#linearGradient1695);fill-opacity:1;stroke:none;stroke-width:1;stroke-linecap:round;stroke-opacity:1"
       d="m 115.46387,32 c -0.42755,0.007 -1.04709,0.03799 -1.6875,0.173828 -0.66933,0.141999 -1.3401,0.390875 -1.77539,0.826172 -0.50001,0.500004 -1.50002,1.750001 -2.75001,2.875 -0.62499,0.56248 -1.31248,1.093753 -2.03124,1.484375 C 106.501,37.749959 105.75096,38 105.00097,38 H 74.000974 c -0.830984,0 -1.580789,0.334707 -2.123044,0.876953 -0.542264,0.542222 -0.876955,1.292065 -0.876955,2.123046 v 30 C 71.000975,73.769993 73.230868,76 76.000977,76 h 50.000003 c 2.76999,0 5,-2.229893 5,-5.000001 V 37 c 0,-2.770032 -2.22997,-5 -5,-5 z" />
    <path
       id="rect2138"
       style="fill:#008cff;fill-opacity:0.995699;stroke:none;stroke-width:1;stroke-linecap:round;stroke-opacity:1"
       d="m 115.46484,32 c -0.42755,0.007 -1.04709,0.03798 -1.6875,0.173828 -0.66933,0.141999 -1.34008,0.390879 -1.77539,0.826172 -0.5,0.500004 -1.49999,1.749992 -2.75,2.875 -0.625,0.562484 -1.31254,1.093772 -2.03125,1.484375 C 106.50197,37.749958 105.75196,38 105.00195,38 H 73.999999 c -0.830988,0 -1.580845,0.334699 -2.123048,0.876953 C 71.334684,39.419177 71,40.169094 71,40.999999 v 1.001954 c 0,-0.830986 0.334684,-1.580843 0.876951,-2.123047 0.542263,-0.542264 1.29214,-0.876953 2.123048,-0.876953 h 31.402341 c 0.75,0 1.49995,-0.250043 2.21875,-0.640625 0.71878,-0.390622 1.40635,-0.921871 2.03125,-1.484375 1.25001,-1.125008 2.25,-2.374996 2.75,-2.875 0.43531,-0.435303 1.10609,-0.684171 1.77539,-0.826172 0.64043,-0.135843 1.26,-0.166835 1.68751,-0.173828 h 10.13672 c 2.77001,0 4.99999,2.22998 4.99999,5 V 37 c 0,-2.77002 -2.22998,-5 -4.99999,-5 z" />
  </g>
  <g
     id="g557">
    <path
       d="m34.711 24a5.5 5.4286 0 0 0-5.406 4.4611 6.1875 6.1071 0 0 0-2.1565-0.38965 6.1875 6.1071 0 0 0-6.1875 6.1071 6.1875 6.1071 0 0 0 0.08057 0.94629 4.125 4.0714 0 0 0-1.4556-0.26772 4.125 4.0714 0 0 0-4.125 4.0714 4.125 4.0714 0 0 0 4.125 4.0714h26.125v-0.07421a3.4375 3.3929 0 0 0 2.75-3.3186 3.4375 3.3929 0 0 0-3.4375-3.3929 3.4375 3.3929 0 0 0-0.69018 0.07422 5.5 5.4286 0 0 0 0.0027-0.07422 5.5 5.4286 0 0 0-4.3372-5.304 5.5 5.4286 0 0 0 0.21216-1.4817 5.5 5.4286 0 0 0-5.5-5.4286z"
       fill="#ffffff"
       id="path23" />
    <circle
       cx="25"
       cy="50.5"
       r="2.5"
       fill="#ffffff"
       opacity=".35"
       id="circle25" />
    <circle
       cx="32"
       cy="50.5"
       r="2.5"
       fill="#ffffff"
       opacity=".35"
       id="circle27" />
    <circle
       cx="39"
       cy="50.5"
       r="2.5"
       fill="#ffffff"
       opacity=".75"
       id="circle29" />
  </g>
</svg>
