<?xml version="1.0" encoding="UTF-8" standalone="no"?>
<svg
   width="64"
   height="64"
   version="1.1"
   viewBox="0 0 16.933 16.933"
   id="svg601"
   sodipodi:docname="org.xfce.panel.directorymenu.svg"
   inkscape:version="1.3.2 (091e20ef0f, 2023-11-25, custom)"
   xmlns:inkscape="http://www.inkscape.org/namespaces/inkscape"
   xmlns:sodipodi="http://sodipodi.sourceforge.net/DTD/sodipodi-0.dtd"
   xmlns:xlink="http://www.w3.org/1999/xlink"
   xmlns="http://www.w3.org/2000/svg"
   xmlns:svg="http://www.w3.org/2000/svg">
  <sodipodi:namedview
     id="namedview603"
     pagecolor="#ffffff"
     bordercolor="#999999"
     borderopacity="1"
     inkscape:showpageshadow="0"
     inkscape:pageopacity="0"
     inkscape:pagecheckerboard="0"
     inkscape:deskcolor="#d1d1d1"
     showgrid="false"
     inkscape:zoom="6.328125"
     inkscape:cx="27.97037"
     inkscape:cy="25.758025"
     inkscape:window-width="1920"
     inkscape:window-height="995"
     inkscape:window-x="0"
     inkscape:window-y="0"
     inkscape:window-maximized="1"
     inkscape:current-layer="svg601" />
  <defs
     id="defs583">
    <linearGradient
       id="linearGradient892"
       x1="-197.72"
       x2="-197.72"
       y1="263.86"
       y2="273.76"
       gradientTransform="matrix(.18709 -.18709 .18709 .18709 1.1192 -74.45)"
       gradientUnits="userSpaceOnUse">
      <stop
         offset="0"
         id="stop578" />
      <stop
         stop-opacity="0"
         offset="1"
         id="stop580" />
    </linearGradient>
    <linearGradient
       id="linearGradient1777"
       x1="0.52969003"
       x2="16.774"
       y1="15.081"
       y2="2.5021999"
       gradientUnits="userSpaceOnUse"
       gradientTransform="matrix(3.779602,0,0,3.779602,-73.402451,-3.8841398)">
      <stop
         stop-color="#0078e1"
         offset="0"
         id="stop262" />
      <stop
         stop-color="#05b9ff"
         offset="1"
         id="stop264" />
    </linearGradient>
    <linearGradient
       inkscape:collect="always"
       xlink:href="#linearGradient2156"
       id="linearGradient2158"
       x1="-11.134952"
       y1="1.858956"
       x2="-11.134952"
       y2="5.2934809"
       gradientUnits="userSpaceOnUse"
       gradientTransform="translate(36.830595,-0.52915627)" />
    <linearGradient
       inkscape:collect="always"
       id="linearGradient2156">
      <stop
         style="stop-color:#0078dc;stop-opacity:1"
         offset="0"
         id="stop2152" />
      <stop
         style="stop-color:#0050b4;stop-opacity:1"
         offset="1"
         id="stop2154" />
    </linearGradient>
    <linearGradient
       inkscape:collect="always"
       xlink:href="#linearGradient1693"
       id="linearGradient1695"
       x1="-87.035156"
       y1="35"
       x2="-26.035156"
       y2="35"
       gradientUnits="userSpaceOnUse"
       gradientTransform="matrix(0.26457812,0,0,0.26457812,40.093145,-0.52915627)" />
    <linearGradient
       inkscape:collect="always"
       id="linearGradient1693">
      <stop
         style="stop-color:#0078dc;stop-opacity:1"
         offset="0"
         id="stop1689" />
      <stop
         style="stop-color:#00aaff;stop-opacity:0.99607843"
         offset="1"
         id="stop1691" />
    </linearGradient>
  </defs>
  <g
     id="g1"
     transform="translate(-16.66868,0.5291562)">
    <path
       id="rect2148"
       style="fill:url(#linearGradient2158);fill-opacity:1;stroke:none;stroke-width:0.264578;stroke-linecap:round;stroke-opacity:1"
       d="m 18.524085,1.3228906 c -0.73288,0 -1.32289,0.5899906 -1.32289,1.3228906 V 13.228906 c 0,0.73288 0.58999,1.322891 1.32289,1.322891 h 13.222189 c 0.18322,0 0.35735,-0.0371 0.51572,-0.103868 0.15838,-0.06676 0.301078,-0.163114 0.420638,-0.282664 0.11956,-0.11955 0.215905,-0.262258 0.282665,-0.420638 0.06677,-0.15838 0.103867,-0.332501 0.103867,-0.515721 V 4.23325 c 0,-0.1832201 -0.0371,-0.3573506 -0.103867,-0.5157207 -0.06676,-0.1583799 -0.163115,-0.3010778 -0.282665,-0.4206377 -0.11956,-0.1195602 -0.262258,-0.2159048 -0.420638,-0.2826647 -0.15838,-0.06676 -0.3325,-0.1038675 -0.51572,-0.1038675 h -7.666048 c -0.198431,0 -0.396873,-0.06615 -0.587034,-0.1694954 -0.19017,-0.10335 -0.372063,-0.2439132 -0.537423,-0.3927331 -0.33072,-0.29765 -0.5953,-0.6283722 -0.727589,-0.7606621 -0.115171,-0.11517 -0.292641,-0.181017 -0.469731,-0.218587 -0.169439,-0.03594 -0.333355,-0.044141 -0.446475,-0.045991 h -0.142108 z" />
    <path
       id="rect1669"
       style="fill:url(#linearGradient1695);fill-opacity:1;stroke:none;stroke-width:0.264578;stroke-linecap:round;stroke-opacity:1"
       d="m 28.961744,2.9103593 c -0.11312,0.00185 -0.277035,0.010051 -0.446475,0.045991 -0.17709,0.03757 -0.35456,0.103417 -0.46973,0.2185871 -0.132291,0.1322901 -0.39687,0.463012 -0.72759,0.7606621 -0.16536,0.14882 -0.347254,0.2893832 -0.537424,0.3927332 -0.19016,0.10334 -0.388603,0.1694954 -0.587033,0.1694954 H 17.99157 c -0.21986,0 -0.418242,0.088556 -0.561711,0.2320226 -0.143471,0.1434601 -0.232023,0.3418519 -0.232023,0.5617115 v 7.9373438 c 0,0.73288 0.589981,1.322891 1.322891,1.322891 h 13.228906 c 0.73288,0 1.322891,-0.589981 1.322891,-1.322891 V 4.23325 c 0,-0.73289 -0.590001,-1.3228907 -1.322891,-1.3228907 z" />
    <path
       id="rect2138"
       style="fill:#008cff;fill-opacity:0.995699;stroke:none;stroke-width:0.264578;stroke-linecap:round;stroke-opacity:1"
       d="m 28.962003,2.9103593 c -0.113121,0.00185 -0.277039,0.01005 -0.446476,0.045991 -0.177091,0.03757 -0.354557,0.1034181 -0.469729,0.2185871 -0.13229,0.1322901 -0.396865,0.4630096 -0.72759,0.7606621 -0.165363,0.148821 -0.347271,0.2893882 -0.537424,0.3927332 -0.190162,0.1033398 -0.388598,0.1694954 -0.587033,0.1694954 h -8.202439 c -0.219861,0 -0.418257,0.088554 -0.561712,0.2320226 -0.143472,0.1434606 -0.232022,0.3418722 -0.232022,0.5617115 v 0.2650951 c 0,-0.2198607 0.08855,-0.4182565 0.232022,-0.5617118 0.143471,-0.1434712 0.341872,-0.2320226 0.561712,-0.2320226 h 8.308373 c 0.198433,0 0.396853,-0.066156 0.587033,-0.1694953 0.190172,-0.1033501 0.372089,-0.2439069 0.537424,-0.3927332 0.330726,-0.2976526 0.5953,-0.6283721 0.72759,-0.7606622 0.115172,-0.1151716 0.292646,-0.1810167 0.46973,-0.218587 0.169442,-0.035941 0.333368,-0.044141 0.446476,-0.045991 h 2.681954 c 0.732886,0 1.32289,0.5900039 1.32289,1.3228906 V 4.23325 c 0,-0.7328868 -0.590004,-1.3228907 -1.32289,-1.3228907 z" />
  </g>
  <path
     id="path599"
     style="opacity:1;fill:#ffffff;fill-opacity:1;stroke-width:0.246906"
     d="m 5.7505357,6.3040155 c -0.2734976,0 -0.4938117,0.2203215 -0.4938117,0.4938117 v 0.7412113 h 6.419552 V 6.7978272 c 0,-0.2734976 -0.220322,-0.4938117 -0.493812,-0.4938117 z M 5.9979353,6.7968643 A 0.24730089,0.24730089 0 0 1 6.2448412,7.0442639 0.24730089,0.24730089 0 0 1 5.9979353,7.2916636 0.24730089,0.24730089 0 0 1 5.7505357,7.0442639 0.24730089,0.24730089 0 0 1 5.9979353,6.7968643 Z M 5.256724,7.7849814 v 1.235023 h 6.419552 V 7.7849814 Z M 5.9979353,8.2787931 A 0.24730089,0.24730089 0 0 1 6.2448412,8.5261928 0.24730089,0.24730089 0 0 1 5.9979353,8.7735924 0.24730089,0.24730089 0 0 1 5.7505357,8.5261928 0.24730089,0.24730089 0 0 1 5.9979353,8.2787931 Z M 5.256724,9.2669103 v 1.2350227 h 6.419552 V 9.2669103 Z M 5.9979353,9.759759 a 0.24730089,0.24730089 0 0 1 0.2469059,0.2474 0.24730089,0.24730089 0 0 1 -0.2469059,0.247399 0.24730089,0.24730089 0 0 1 -0.2473996,-0.247399 0.24730089,0.24730089 0 0 1 0.2473996,-0.2474 z M 5.256724,10.747876 v 1.235023 h 6.419552 v -1.235023 z m 0.7412113,0.493812 a 0.24730089,0.24730089 0 0 1 0.2469059,0.247399 0.24730089,0.24730089 0 0 1 -0.2469059,0.2474 0.24730089,0.24730089 0 0 1 -0.2473996,-0.2474 0.24730089,0.24730089 0 0 1 0.2473996,-0.247399 z M 5.256724,12.230274 v 0.988117 c 0,0.273498 0.2203215,0.493812 0.4938117,0.493812 h 5.4319283 c 0.273498,0 0.493812,-0.220322 0.493812,-0.493812 v -0.988117 z m 0.7412113,0.492355 a 0.24730089,0.24730089 0 0 1 0.2469059,0.2474 0.24730089,0.24730089 0 0 1 -0.2469059,0.247399 0.24730089,0.24730089 0 0 1 -0.2473996,-0.247399 0.24730089,0.24730089 0 0 1 0.2473996,-0.2474 z" />
</svg>
