<?xml version="1.0" encoding="UTF-8" standalone="no"?>
<!-- Created with Inkscape (http://www.inkscape.org/) -->

<svg
   width="64"
   height="64"
   version="1.1"
   viewBox="0 0 16.933 16.933"
   id="svg78"
   sodipodi:docname="playmymusic.svg"
   inkscape:version="1.3.2 (091e20ef0f, 2023-11-25, custom)"
   xmlns:inkscape="http://www.inkscape.org/namespaces/inkscape"
   xmlns:sodipodi="http://sodipodi.sourceforge.net/DTD/sodipodi-0.dtd"
   xmlns:xlink="http://www.w3.org/1999/xlink"
   xmlns="http://www.w3.org/2000/svg"
   xmlns:svg="http://www.w3.org/2000/svg"
   xmlns:rdf="http://www.w3.org/1999/02/22-rdf-syntax-ns#"
   xmlns:cc="http://creativecommons.org/ns#"
   xmlns:dc="http://purl.org/dc/elements/1.1/">
  <sodipodi:namedview
     id="namedview80"
     pagecolor="#ffffff"
     bordercolor="#999999"
     borderopacity="1"
     inkscape:showpageshadow="0"
     inkscape:pageopacity="0"
     inkscape:pagecheckerboard="0"
     inkscape:deskcolor="#d1d1d1"
     showgrid="false"
     inkscape:zoom="4.4746601"
     inkscape:cx="-3.5756906"
     inkscape:cy="27.935083"
     inkscape:window-width="1920"
     inkscape:window-height="995"
     inkscape:window-x="0"
     inkscape:window-y="0"
     inkscape:window-maximized="1"
     inkscape:current-layer="svg78" />
  <defs
     id="defs34">
    <linearGradient
       id="i"
       x1="400.4"
       x2="400.4"
       y1="545.62"
       y2="517.62"
       gradientTransform="matrix(.41967 0 0 .41967 -173.34 -178.23)"
       gradientUnits="userSpaceOnUse">
      <stop
         stop-color="#d3d3d3"
         offset="0"
         id="stop2" />
      <stop
         stop-color="#fcf9f9"
         offset="1"
         id="stop4" />
    </linearGradient>
    <linearGradient
       id="f"
       x1="400.4"
       x2="400.4"
       y1="545.62"
       y2="517.62"
       gradientTransform="matrix(.43343 0 0 .43343 -193.09 -179.69)"
       gradientUnits="userSpaceOnUse">
      <stop
         stop-color="#8d3aff"
         offset="0"
         id="stop7" />
      <stop
         stop-color="#ff3680"
         offset="1"
         id="stop9" />
    </linearGradient>
    <linearGradient
       id="linearGradient987"
       x1="-54.828"
       x2="-63.444"
       y1="-1.7294"
       y2="-11.074"
       gradientTransform="matrix(3.4523,0,0,3.4523,191.99,263.05)"
       gradientUnits="userSpaceOnUse">
      <stop
         stop-color="#232223"
         offset="0"
         id="stop12" />
      <stop
         stop-color="#49484d"
         offset="1"
         id="stop14" />
    </linearGradient>
    <linearGradient
       id="linearGradient1034"
       x1="-54.828"
       x2="-63.444"
       y1="-1.7294"
       y2="-11.074"
       gradientTransform="matrix(.3727 0 0 .3727 18.862 66.055)"
       gradientUnits="userSpaceOnUse">
      <stop
         stop-color="#d2d2d2"
         offset="0"
         id="stop17" />
      <stop
         stop-color="#fff"
         offset="1"
         id="stop19" />
    </linearGradient>
    <linearGradient
       id="linearGradient1044"
       x1="-54.828"
       x2="-63.444"
       y1="-1.7294"
       y2="-11.074"
       gradientTransform="matrix(.14259 0 0 .14259 5.2712 64.548)"
       gradientUnits="userSpaceOnUse">
      <stop
         stop-color="#232223"
         offset="0"
         id="stop22" />
      <stop
         stop-color="#49484d"
         offset="1"
         id="stop24" />
    </linearGradient>
    <linearGradient
       id="linearGradient967"
       x1="400.4"
       x2="400.4"
       y1="545.62"
       y2="517.62"
       gradientTransform="matrix(.41967 0 0 .41967 -173.34 -178.23)"
       gradientUnits="userSpaceOnUse"
       xlink:href="#i" />
    <linearGradient
       id="linearGradient969"
       x1="400.4"
       x2="400.4"
       y1="545.62"
       y2="517.62"
       gradientTransform="matrix(.43343 0 0 .43343 -193.09 -179.69)"
       gradientUnits="userSpaceOnUse"
       xlink:href="#f" />
    <linearGradient
       id="linearGradient4338"
       x1="-8.4328"
       x2="1.7737"
       y1="59.166"
       y2="68.565"
       gradientTransform="matrix(.15144 .00014684 -.00014608 .15224 -17.519 1.7135)"
       gradientUnits="userSpaceOnUse">
      <stop
         stop-color="#30c8f1"
         offset="0"
         id="stop29" />
      <stop
         stop-color="#1283e2"
         offset="1"
         id="stop31" />
    </linearGradient>
    <linearGradient
       id="linearGradient2200"
       x1="11.469"
       x2="55.384998"
       y1="10.516"
       y2="54.431"
       gradientTransform="translate(42.889,27.158)"
       gradientUnits="userSpaceOnUse">
      <stop
         stop-color="#1283e2"
         offset="0"
         id="stop1" />
      <stop
         stop-color="#399cef"
         offset="1"
         id="stop2-3" />
    </linearGradient>
    <linearGradient
       id="linearGradient914"
       x1="-54.827999"
       x2="-63.444"
       y1="-1.7294"
       y2="-11.074"
       gradientTransform="matrix(3.4523,0,0,3.4523,278.79,81.776)"
       gradientUnits="userSpaceOnUse">
      <stop
         stop-color="#232223"
         offset="0"
         id="stop3" />
      <stop
         stop-color="#49484d"
         offset="1"
         id="stop4-6" />
    </linearGradient>
    <linearGradient
       id="linearGradient916"
       x1="-54.827999"
       x2="-63.444"
       y1="-1.7294"
       y2="-11.074"
       gradientTransform="matrix(1.4087,0,0,1.4087,158.08,68.386)"
       gradientUnits="userSpaceOnUse">
      <stop
         stop-color="#d2d2d2"
         offset="0"
         id="stop5" />
      <stop
         stop-color="#fff"
         offset="1"
         id="stop6" />
    </linearGradient>
    <linearGradient
       id="linearGradient918"
       x1="-54.827999"
       x2="-63.444"
       y1="-1.7294"
       y2="-11.074"
       gradientTransform="matrix(0.53893,0,0,0.53893,106.72,62.69)"
       gradientUnits="userSpaceOnUse">
      <stop
         stop-color="#232223"
         offset="0"
         id="stop7-7" />
      <stop
         stop-color="#49484d"
         offset="1"
         id="stop8" />
    </linearGradient>
  </defs>
  <metadata
     id="metadata36">
    <rdf:RDF>
      <cc:Work
         rdf:about="">
        <dc:format>image/svg+xml</dc:format>
        <dc:type
           rdf:resource="http://purl.org/dc/dcmitype/StillImage" />
        <dc:title />
      </cc:Work>
    </rdf:RDF>
  </metadata>
  <g
     transform="translate(-21.834 .89695)"
     fill="#5e4aa6"
     stroke-width=".26458"
     id="g46">
    <circle
       cx="-330.35"
       cy="-328.38"
       r="0"
       id="circle38" />
    <circle
       cx="-312.11"
       cy="-326.25"
       r="0"
       id="circle40" />
    <circle
       cx="-306.02"
       cy="-333.07"
       r="0"
       id="circle42" />
    <circle
       cx="-308.84"
       cy="-326.01"
       r="0"
       id="circle44" />
  </g>
  <circle
     cx="-5.2346"
     cy="44.956"
     r="0"
     fill="url(#i)"
     image-rendering="optimizeSpeed"
     stroke-width=".26458"
     id="circle48" />
  <circle
     cx="-19.466"
     cy="50.818"
     r="0"
     fill="none"
     image-rendering="optimizeSpeed"
     stroke="url(#f)"
     stroke-width=".56347"
     id="circle50" />
  <g
     transform="matrix(0.26457812,0,0,0.26457812,-11.347491,-7.1854124)"
     id="g11">
    <path
       d="m 60.389,31.658 c -7.202,0 -13,5.798 -13,13 v 29 c 0,7.202 5.798,13 13,13 h 29 c 7.202,0 13,-5.798 13,-13 v -29 c 0,-7.202 -5.798,-13 -13,-13 z"
       fill="url(#linearGradient2200)"
       stroke-linecap="round"
       stroke-linejoin="round"
       style="fill:url(#linearGradient2200);paint-order:stroke fill markers"
       id="path8" />
    <path
       d="m 96.494,33.768 -7.17,4.8477 c -4.0846,-2.8742 -9.059,-4.5684 -14.434,-4.5684 -13.873,0 -25.119,11.246 -25.119,25.119 0,3.0101 0.53004,5.8953 1.502,8.5704 0.66229,1.8238 1.5284,3.5491 2.5742,5.1484 0.45009,0.68996 0.9326,1.3563 1.4473,1.9961 1.6578,2.0646 3.6357,3.8616 5.8574,5.3164 0.80792,0.52897 1.6481,1.0136 2.5176,1.4473 3.376,1.6896 7.187,2.6387 11.221,2.6387 4.0334,0 7.8445,-0.94911 11.221,-2.6387 0.86936,-0.43362 1.7097,-0.91819 2.5176,-1.4473 2.194,-1.4355 4.1465,-3.2034 5.791,-5.2344 0.51367,-0.63463 0.99917,-1.2947 1.4492,-1.9785 1.0745,-1.6264 1.963,-3.3863 2.6387,-5.2461 0.97202,-2.6759 1.502,-5.563 1.502,-8.5743 0,-3.0111 -0.5298,-5.8983 -1.502,-8.5743 -0.56324,-1.5515 -1.3081,-3.0129 -2.1523,-4.4043 l -6.002,4.1367 -2.5977,-3.7695 5.8164,-4.0078 6.9062,-4.666 c -1.0084,-1.6508 -2.3661,-3.0566 -3.9844,-4.1113 z"
       fill="url(#linearGradient914)"
       id="path9"
       style="fill:url(#linearGradient914)" />
    <path
       d="m 85.138,59.16 c 0,1.2287 -0.21627,2.4067 -0.61286,3.4985 -0.27568,0.75883 -0.63838,1.4762 -1.0768,2.1399 -0.18365,0.27901 -0.3811,0.54846 -0.59068,0.8074 -0.67099,0.82872 -1.4684,1.5504 -2.3636,2.1361 -0.32966,0.21585 -0.67228,0.41334 -1.027,0.59026 -1.3775,0.68936 -2.9325,1.0771 -4.5782,1.0771 -1.6457,0 -3.2007,-0.38779 -4.5782,-1.0772 -0.35475,-0.17696 -0.69779,-0.37441 -1.0274,-0.59026 -0.90654,-0.59362 -1.7135,-1.3266 -2.3899,-2.169 -0.21,-0.26102 -0.40703,-0.53296 -0.59068,-0.81447 -0.42672,-0.65259 -0.78018,-1.3567 -1.0504,-2.1009 -0.39656,-1.0915 -0.61245,-2.269 -0.61245,-3.4972 0,-5.6603 4.5888,-10.249 10.249,-10.249 2.8414,0 5.4124,1.1563 7.2689,3.0236 0.53504,0.53795 1.0107,1.1354 1.4155,1.7812 0.3828,0.60825 0.70278,1.26 0.9517,1.9456 0.39663,1.0919 0.6129,2.2699 0.6129,3.4985 z"
       fill="url(#linearGradient916)"
       stroke-width="0.040037"
       id="path10"
       style="fill:url(#linearGradient916)" />
    <path
       d="m 78.809,59.16 c 0,0.47007 -0.08274,0.92075 -0.23449,1.3385 -0.10549,0.29031 -0.24424,0.56479 -0.41198,0.81866 -0.07026,0.10674 -0.14578,0.20984 -0.22598,0.30891 -0.25671,0.31703 -0.56176,0.59313 -0.90427,0.81723 -0.12612,0.08258 -0.2572,0.15814 -0.39293,0.22583 -0.52699,0.26374 -1.1219,0.41209 -1.7515,0.41209 -0.6296,0 -1.2245,-0.14835 -1.7515,-0.41213 -0.13572,-0.06769 -0.26695,-0.14325 -0.39308,-0.22583 -0.34682,-0.22712 -0.65553,-0.50752 -0.91432,-0.82981 -0.08035,-0.09986 -0.15572,-0.20391 -0.22598,-0.31159 -0.16324,-0.24968 -0.29848,-0.51905 -0.40188,-0.80373 -0.15171,-0.41757 -0.2343,-0.8681 -0.2343,-1.338 0,-2.1656 1.7556,-3.921 3.921,-3.921 1.0871,0 2.0707,0.44236 2.781,1.1568 0.2047,0.2058 0.38669,0.43435 0.54154,0.68146 0.14646,0.23271 0.26888,0.48205 0.36409,0.74435 0.15175,0.41772 0.23449,0.8684 0.23449,1.3385 z"
       fill="url(#linearGradient918)"
       stroke-width="0.015317"
       id="path11"
       style="fill:url(#linearGradient918)" />
  </g>
</svg>
