<?xml version="1.0" encoding="UTF-8" standalone="no"?>
<svg
   width="64"
   height="64"
   version="1.1"
   id="svg27"
   sodipodi:docname="preferences-log.svg"
   inkscape:version="1.3.2 (091e20ef0f, 2023-11-25, custom)"
   xmlns:inkscape="http://www.inkscape.org/namespaces/inkscape"
   xmlns:sodipodi="http://sodipodi.sourceforge.net/DTD/sodipodi-0.dtd"
   xmlns="http://www.w3.org/2000/svg"
   xmlns:svg="http://www.w3.org/2000/svg">
  <sodipodi:namedview
     id="namedview29"
     pagecolor="#ffffff"
     bordercolor="#999999"
     borderopacity="1"
     inkscape:showpageshadow="0"
     inkscape:pageopacity="0"
     inkscape:pagecheckerboard="0"
     inkscape:deskcolor="#d1d1d1"
     showgrid="false"
     inkscape:zoom="4.4746601"
     inkscape:cx="42.461326"
     inkscape:cy="25.029834"
     inkscape:window-width="1920"
     inkscape:window-height="995"
     inkscape:window-x="0"
     inkscape:window-y="0"
     inkscape:window-maximized="1"
     inkscape:current-layer="svg27" />
  <defs
     id="defs7">
    <linearGradient
       id="a"
       x1="13.229"
       x2="2.117"
       y1="297"
       y2="280.07"
       gradientTransform="matrix(4.0496,0,0,3.7796,382.28,-574.74)"
       gradientUnits="userSpaceOnUse">
      <stop
         stop-color="#66bcff"
         offset="0"
         id="stop2" />
      <stop
         stop-color="#b29aff"
         offset="1"
         id="stop4" />
    </linearGradient>
    <linearGradient
       id="linearGradient1229"
       x1="17"
       x2="17"
       y1="7"
       y2="51"
       gradientTransform="matrix(1.1363751,0,0,1.1363751,10.04424,3.9270106)"
       gradientUnits="userSpaceOnUse">
      <stop
         stop-color="#6c7378"
         offset="0"
         id="stop260" />
      <stop
         stop-color="#42464a"
         offset="1"
         id="stop262" />
    </linearGradient>
    <linearGradient
       id="linearGradient1242"
       x1="-9"
       x2="45"
       y1="50"
       y2="50"
       gradientTransform="matrix(1.1363751,0,0,1.1363751,10.04424,3.9270106)"
       gradientUnits="userSpaceOnUse">
      <stop
         stop-color="#a1aab3"
         offset="0"
         id="stop265" />
      <stop
         stop-color="#818990"
         offset="1"
         id="stop267" />
    </linearGradient>
    <linearGradient
       id="linearGradient1448"
       x1="3.9686999"
       x2="3.9686999"
       y1="16.378"
       y2="0.54084998"
       gradientTransform="matrix(3.46461,0,0,3.46461,9.1665905,-6.8334095)"
       gradientUnits="userSpaceOnUse">
      <stop
         stop-color="#43474b"
         offset="0"
         id="stop3" />
      <stop
         stop-color="#6c7277"
         offset="1"
         id="stop4-3" />
    </linearGradient>
    <linearGradient
       id="linearGradient1242-6"
       x1="-9"
       x2="45"
       y1="50"
       y2="50"
       gradientTransform="matrix(1.1364081,0,0,1.1364081,18.046466,-10.392363)"
       gradientUnits="userSpaceOnUse">
      <stop
         stop-color="#a1aab3"
         offset="0"
         id="stop1" />
      <stop
         stop-color="#818990"
         offset="1"
         id="stop2-7" />
    </linearGradient>
  </defs>
  <g
     id="g1"
     transform="translate(-6.5003834,9.499397)">
    <rect
       x="11"
       y="-5"
       width="55.000767"
       height="55.000767"
       ry="12.999942"
       fill="url(#linearGradient1448)"
       stroke-opacity="0.95294"
       stroke-width="0.314281"
       id="rect6"
       style="fill:url(#linearGradient1448)" />
    <path
       d="m 11.850022,41.643747 c 1.861813,4.895235 6.586246,8.357459 12.150086,8.357459 h 29.000206 c 5.564139,0 10.289073,-3.462224 12.150086,-8.357459 H 11.849022 Z"
       fill="url(#linearGradient1242)"
       style="fill:url(#linearGradient1242-6);stroke-width:1.00001;paint-order:stroke fill markers"
       id="path6" />
    <g
       transform="matrix(3.779602,0,0,3.779602,16.178055,-8.6917642)"
       fill="#ffffff"
       stroke-width="0.79999"
       id="g10">
      <rect
         x="1.6291"
         y="13.777"
         width="1.0583"
         height="1.0583"
         ry="0.10583"
         style="paint-order:stroke markers fill"
         id="rect7" />
      <rect
         x="5.9987998"
         y="13.777"
         width="1.0583"
         height="1.0583"
         ry="0.10583"
         style="paint-order:stroke markers fill"
         id="rect8" />
      <rect
         x="7.5616002"
         y="13.777"
         width="1.0583"
         height="1.0583"
         ry="0.10583"
         style="paint-order:stroke markers fill"
         id="rect9" />
      <rect
         x="9.1245003"
         y="13.777"
         width="1.0583"
         height="1.0583"
         ry="0.10583"
         style="paint-order:stroke markers fill"
         id="rect10" />
    </g>
  </g>
  <path
     d="m 12,14.094751 h 15.000001 v 1.666666 H 12 Z m 0,28.333334 h 6.666667 v 1.666666 H 12 Z m 10,0 h 20 v 1.666666 H 22 Z M 12,39.094751 h 6.666667 v 1.666667 H 12 Z m 10,0 h 23.333333 v 1.666667 H 22 Z M 12,35.761418 h 6.666667 v 1.666666 H 12 Z m 10,0 h 20 v 1.666666 H 22 Z M 12,32.428084 h 6.666667 v 1.666667 H 12 Z m 10,0 h 23.333333 v 1.666667 H 22 Z M 12,29.094751 h 6.666667 v 1.666666 H 12 Z m 10,0 h 16.666666 v 1.666666 H 22 Z M 12,25.761417 h 6.666667 v 1.666667 H 12 Z m 10,0 h 26.666667 v 1.666667 H 22 Z M 12,22.428084 h 6.666667 V 24.09475 H 12 Z m 10,0 H 52 V 24.09475 H 22 Z M 12,19.09475 h 6.666667 v 1.666667 H 12 Z m 10,0 h 20 v 1.666667 H 22 Z"
     fill="#ffffff"
     opacity="0.5"
     id="path1"
     style="stroke-width:0.833333" />
</svg>
