<?xml version="1.0" encoding="UTF-8" standalone="no"?>
<svg
   width="64"
   height="64"
   version="1.1"
   viewBox="0 0 16.933 16.933"
   id="svg15"
   sodipodi:docname="goa-account-google.svg"
   inkscape:version="1.3 (0e150ed6c4, 2023-07-21)"
   xmlns:inkscape="http://www.inkscape.org/namespaces/inkscape"
   xmlns:sodipodi="http://sodipodi.sourceforge.net/DTD/sodipodi-0.dtd"
   xmlns:xlink="http://www.w3.org/1999/xlink"
   xmlns="http://www.w3.org/2000/svg"
   xmlns:svg="http://www.w3.org/2000/svg"
   xmlns:rdf="http://www.w3.org/1999/02/22-rdf-syntax-ns#"
   xmlns:cc="http://creativecommons.org/ns#"
   xmlns:dc="http://purl.org/dc/elements/1.1/">
  <sodipodi:namedview
     id="namedview15"
     pagecolor="#ffffff"
     bordercolor="#000000"
     borderopacity="0.25"
     inkscape:showpageshadow="2"
     inkscape:pageopacity="0.0"
     inkscape:pagecheckerboard="0"
     inkscape:deskcolor="#d1d1d1"
     inkscape:zoom="4.3531261"
     inkscape:cx="-26.073217"
     inkscape:cy="32.390516"
     inkscape:window-width="1920"
     inkscape:window-height="995"
     inkscape:window-x="0"
     inkscape:window-y="0"
     inkscape:window-maximized="1"
     inkscape:current-layer="svg15" />
  <metadata
     id="metadata1">
    <rdf:RDF>
      <cc:Work
         rdf:about="">
        <dc:format>image/svg+xml</dc:format>
        <dc:type
           rdf:resource="http://purl.org/dc/dcmitype/StillImage" />
      </cc:Work>
    </rdf:RDF>
  </metadata>
  <defs
     id="defs10">
    <linearGradient
       id="linearGradient2209"
       x1="109.83"
       x2="141.14"
       y1="21.006"
       y2="28.757"
       gradientUnits="userSpaceOnUse">
      <stop
         stop-color="#e56236"
         offset="0"
         id="stop1" />
      <stop
         stop-color="#f2c933"
         offset="1"
         id="stop2" />
    </linearGradient>
    <linearGradient
       id="linearGradient29255"
       x1="103.9"
       x2="119.65"
       y1="48.786"
       y2="15.728"
       gradientUnits="userSpaceOnUse">
      <stop
         stop-color="#13a082"
         offset="0"
         id="stop3" />
      <stop
         stop-color="#fee64c"
         offset="1"
         id="stop4" />
    </linearGradient>
    <linearGradient
       id="linearGradient46934"
       x1="104.2"
       x2="142.95"
       y1="46.333"
       y2="46.333"
       gradientUnits="userSpaceOnUse">
      <stop
         stop-color="#7ac0fe"
         offset="0"
         id="stop5" />
      <stop
         stop-color="#6580fc"
         offset="1"
         id="stop6" />
    </linearGradient>
    <linearGradient
       id="linearGradient61493"
       x1="133.65"
       x2="135.49"
       y1="50.545"
       y2="41.319"
       gradientUnits="userSpaceOnUse">
      <stop
         stop-color="#7e4ec4"
         offset="0"
         id="stop7" />
      <stop
         stop-color="#9b34a2"
         offset="1"
         id="stop8" />
    </linearGradient>
    <linearGradient
       id="linearGradient75579"
       x1="118.54"
       x2="141.01"
       y1="41.652"
       y2="39.325"
       gradientUnits="userSpaceOnUse">
      <stop
         stop-color="#e2316b"
         offset="0"
         id="stop9" />
      <stop
         stop-color="#f64d85"
         offset="1"
         id="stop10" />
    </linearGradient>
    <linearGradient
       id="linearGradient1049"
       x1="35.889"
       x2="35.889"
       y1="14.865"
       y2="31.173"
       gradientTransform="matrix(1.5625,0,0,1.5625,-8.1072,-10.908)"
       gradientUnits="userSpaceOnUse">
      <stop
         stop-color="#ff1e32"
         offset="0"
         id="stop23" />
      <stop
         stop-color="#ff5064"
         offset="1"
         id="stop25" />
    </linearGradient>
    <linearGradient
       id="linearGradient1067"
       x1="34.426998"
       x2="34.426998"
       y1="32.234001"
       y2="39.768002"
       gradientTransform="matrix(1,0,0,1.2271,5.7554,-25.761)"
       gradientUnits="userSpaceOnUse"
       xlink:href="#linearGradient1057" />
    <linearGradient
       id="linearGradient1057">
      <stop
         stop-color="#fff"
         offset="0"
         id="stop4-3" />
      <stop
         stop-color="#fff"
         stop-opacity="0"
         offset="1"
         id="stop6-6" />
    </linearGradient>
    <linearGradient
       id="linearGradient1047"
       x1="15.245"
       x2="15.245"
       y1="27.216999"
       y2="10.98"
       gradientTransform="matrix(1.5625,0,0,1.5625,-9.2253,1.3231)"
       gradientUnits="userSpaceOnUse">
      <stop
         stop-color="#14dc78"
         offset="0"
         id="stop18" />
      <stop
         stop-color="#14a03c"
         offset="1"
         id="stop20" />
    </linearGradient>
    <linearGradient
       id="linearGradient1063"
       x1="34.426998"
       x2="34.426998"
       y1="32.234001"
       y2="39.768002"
       gradientTransform="matrix(1,0,0,1.2271,-12.55,-19.793)"
       gradientUnits="userSpaceOnUse"
       xlink:href="#linearGradient1057" />
    <linearGradient
       id="linearGradient982"
       x1="16.919001"
       x2="16.919001"
       y1="37.106998"
       y2="21.003"
       gradientTransform="matrix(1.5625,0,0,1.5625,0.40633,-5.1891)"
       gradientUnits="userSpaceOnUse">
      <stop
         stop-color="#32b4ff"
         offset="0"
         id="stop9-3" />
      <stop
         stop-color="#0c35f9"
         offset="1"
         id="stop11" />
    </linearGradient>
    <linearGradient
       id="linearGradient1059"
       x1="34.426998"
       x2="34.426998"
       y1="32.234001"
       y2="39.768002"
       gradientTransform="matrix(1,0,0,1.2271,0.20646,-10.975)"
       gradientUnits="userSpaceOnUse"
       xlink:href="#linearGradient1057" />
  </defs>
  <path
     id="path887"
     style="fill:#f0f0f5;fill-opacity:1;stroke-width:0.264578;image-rendering:optimizeSpeed"
     d="m 4.630117,1.1906018 c -1.9055059,0 -3.439515,1.5340104 -3.439515,3.4395155 v 7.6727657 c 0,1.905505 1.5340091,3.439515 3.439515,3.439515 h 7.055244 0.617521 c 1.905506,0 3.439516,-1.53401 3.439516,-3.439515 V 4.6301173 c 0,-1.9055051 -1.53401,-3.4395155 -3.439516,-3.4395155 H 6.813921 Z" />
  <g
     id="g16"
     transform="translate(2.2896957,2.3811775)">
    <path
       d="M 6.2434649,0.79376 C 3.9592711,0.79939635 1.7245927,2.6133498 1.2033011,5.0598826 1.135207,5.3794781 1.0958498,5.7098869 1.0899742,6.0484678 1.0348248,9.2270436 3.583195,11.122355 5.9259384,11.352346 c 2.3426745,0.229971 4.4388066,-1.211405 5.1787796,-2.9118951 0.03363,-0.077287 0.06135,-0.1530842 0.0841,-0.2273643 0.09793,-0.3197126 0.09749,-0.611847 0.01782,-0.8794857 -2.25e-4,-2.475e-4 -4.88e-4,-4.661e-4 -6.9e-4,-6.896e-4 C 10.89638,6.2948107 9.3971172,5.6257313 7.837518,5.1511966 5.7820056,4.5257845 5.2759548,5.8815841 5.3960195,6.829688 5.5160704,7.7777919 6.4596365,8.0941943 7.1147854,7.6714509 7.7191705,7.2814373 7.9692374,7.1485041 8.0940605,7.1978334 c 0.010489,0.00414 0.020372,0.00936 0.02922,0.016034 0.1142441,0.08619 0.9595518,0.5126437 -0.00283,1.3157459 -0.5020096,0.4189091 -1.1276837,0.5682074 -1.7052491,0.5594972 -4.508e-4,-7.2e-6 -9.422e-4,6.2e-6 -0.00143,0 C 6.1510792,9.0850214 5.8981986,9.0479903 5.6717999,8.989328 5.4421696,8.9298291 5.2395148,8.8478776 5.0809205,8.7541293 4.4219924,8.3646122 3.0960263,7.4115567 3.4362899,5.5492789 c 0,0 0.3871378,-1.7946253 1.994618,-2.2804009 C 7.0383881,2.7831023 8.8257514,3.4085213 9.9610897,4.2125682 11.096428,5.0166083 11.067878,4.6211605 11.00919,3.8437263 10.962019,3.2188798 10.141015,1.9388981 8.3699057,1.2365096 7.9374041,1.0649985 7.4482837,0.92737589 6.8998897,0.84272376 6.681594,0.80902704 6.4623192,0.7933607 6.243458,0.79390138 Z M 4.4007035,3.0966428 c -0.024902,0.035384 -0.04903,0.070639 -0.0727,0.1061961 -0.023675,0.03556 -0.047381,0.071252 -0.069846,0.1069135 0.022475,-0.035658 0.045818,-0.071349 0.069494,-0.1069135 0.023668,-0.03556 0.048152,-0.070812 0.073052,-0.1061961 z m -0.207765,0.3203747 c -0.021303,0.035678 -0.042213,0.070935 -0.062364,0.1065548 -0.020151,0.03562 -0.039767,0.071073 -0.058801,0.1065548 0.019047,-0.035484 0.038287,-0.070935 0.058444,-0.1065548 0.020151,-0.035621 0.041432,-0.07088 0.062721,-0.1065548 z M 3.7852497,4.2512634 c -0.025972,0.066059 -0.050285,0.1306918 -0.0727,0.193862 -0.022427,0.063175 -0.042905,0.1249335 -0.062008,0.1846003 0.019089,-0.059666 0.039588,-0.1214233 0.062008,-0.1846003 0.022406,-0.063175 0.046726,-0.1278023 0.0727,-0.193862 z m 2.8221056,4.8587224 c 0.095886,0.0096 0.2038547,0.019271 0.3221608,0.028507 -0.1182992,-0.00924 -0.2262746,-0.018907 -0.3221608,-0.028507 z"
       fill="#844bbe"
       id="path10"
       style="stroke-width:0.68963" />
    <g
       transform="matrix(0.85286591,0,0,0.85286591,-21.066726,-2.2365863)"
       id="g15">
      <path
         transform="scale(0.26458)"
         d="m 130.46,15.391 c -0.12136,-0.0036 -0.24519,-0.0097 -0.36523,-0.01172 -0.31711,-0.0054 -0.62956,-0.007 -0.9375,-0.002 -0.30794,0.005 -0.61126,0.01609 -0.91016,0.03125 -0.2989,0.01516 -0.59282,0.03562 -0.88281,0.06055 -0.29,0.02492 -0.5762,0.05354 -0.85742,0.08789 -0.28122,0.03435 -0.5575,0.07376 -0.83008,0.11719 -0.27258,0.04343 -0.54062,0.09237 -0.80469,0.14453 -0.26407,0.05216 -0.52361,0.10742 -0.7793,0.16797 -0.25569,0.06055 -0.50841,0.12477 -0.75586,0.19336 -0.24744,0.06859 -0.49113,0.14246 -0.73046,0.21875 -0.23934,0.07629 -0.47373,0.1566 -0.70508,0.24023 -0.23136,0.08364 -0.45814,0.17108 -0.68164,0.26172 -0.22351,0.09064 -0.44437,0.18395 -0.66016,0.28125 -0.21579,0.0973 -0.42655,0.19717 -0.63476,0.30078 -0.20822,0.10361 -0.41253,0.21073 -0.61329,0.32031 -0.20076,0.10958 -0.39835,0.22269 -0.59179,0.33789 -0.19345,0.1152 -0.38406,0.23304 -0.57032,0.35352 -0.18625,0.12048 -0.36766,0.24373 -0.54687,0.36914 -0.17921,0.12541 -0.35506,0.25282 -0.52734,0.38281 -0.17229,0.12999 -0.34232,0.26226 -0.50782,0.39648 -0.1655,0.13422 -0.32748,0.27008 -0.48633,0.4082 -0.15884,0.13812 -0.31447,0.27825 -0.46679,0.41992 -0.15232,0.14167 -0.30134,0.28482 -0.44727,0.42969 -0.14593,0.14487 -0.28806,0.29173 -0.42773,0.43945 -0.13967,0.14772 -0.27661,0.29703 -0.41016,0.44726 -0.13354,0.15023 -0.26307,0.30073 -0.39062,0.45312 -0.12756,0.1524 -0.25331,0.30672 -0.375,0.46094 -0.1217,0.15421 -0.23951,0.30916 -0.35547,0.46484 -0.11597,0.15569 -0.22948,0.31194 -0.33985,0.46875 -0.11036,0.15681 -0.21736,0.31311 -0.32226,0.4707 -0.10491,0.15759 -0.20902,0.31658 -0.30859,0.47461 -0.0996,0.15803 -0.19469,0.31649 -0.28907,0.47461 -0.0944,0.15812 -0.18803,0.3148 -0.27734,0.47266 -0.0893,0.15786 -0.17539,0.3154 -0.25977,0.47266 -0.0844,0.15726 -0.16652,0.31439 -0.24609,0.4707 -0.0796,0.15631 -0.15556,0.31178 -0.23047,0.4668 -0.0749,0.15502 -0.14838,0.30952 -0.21875,0.46289 -0.0704,0.15337 -0.13911,0.30564 -0.20508,0.45703 -0.13193,0.30278 -0.25403,0.60177 -0.36914,0.89453 -0.11511,0.29276 -0.22292,0.5794 -0.32226,0.85938 -0.0994,0.27998 -0.19075,0.55393 -0.27539,0.81836 -0.0846,0.26443 -0.16142,0.51951 -0.23243,0.76562 -0.071,0.24611 -0.13689,0.482 -0.19531,0.70703 -0.0584,0.22503 -0.10935,0.43944 -0.15625,0.64062 -0.0469,0.20118 -0.0886,0.38989 -0.125,0.56445 -0.0364,0.17456 -0.0687,0.33528 -0.0957,0.48047 -0.054,0.29037 -0.0905,0.51953 -0.11328,0.67578 -0.0228,0.15625 -0.0312,0.24023 -0.0312,0.24023 0,0 1.716,-7.9527 8.8398,-10.105 7.1238,-2.1523 15.045,0.6184 20.076,4.1816 5.0315,3.5632 4.9046,1.8106 4.6445,-1.6348 -0.20906,-2.7692 -3.8462,-8.4421 -11.695,-11.555 z"
         fill="url(#linearGradient2209)"
         id="path11"
         style="fill:url(#linearGradient2209)" />
      <path
         transform="scale(0.26458)"
         d="m 129.23,41.811 c 0.0465,0.01836 0.0897,0.04072 0.1289,0.07031 0.50631,0.38197 4.2535,2.273 -0.0117,5.832 -2.2248,1.8565 -4.999,2.5171 -7.5586,2.4785 0.25825,0.02972 0.52248,0.0608 0.85156,0.09375 0.42494,0.04255 0.90346,0.08603 1.4277,0.12695 0.52427,0.04092 1.0928,0.07798 1.6953,0.10938 0.60245,0.0314 1.239,0.05634 1.8984,0.07031 0.65948,0.01397 1.3418,0.01722 2.0371,0.0059 0.69536,-0.01136 1.4052,-0.03744 2.1152,-0.08203 0.35504,-0.0223 0.7097,-0.04994 1.0644,-0.08203 0.35476,-0.03209 0.70872,-0.06846 1.0606,-0.11133 0.35182,-0.04286 0.70062,-0.09185 1.0469,-0.14648 0.34625,-0.05463 0.68932,-0.11426 1.0274,-0.18164 0.33803,-0.06738 0.67283,-0.14153 1,-0.22266 0.32717,-0.08113 0.64727,-0.16977 0.96094,-0.26562 0.31366,-0.09585 0.62045,-0.19898 0.91796,-0.31055 0.29752,-0.11157 0.58652,-0.2311 0.86524,-0.35937 0.27871,-0.12828 0.54741,-0.26614 0.80469,-0.41211 0.25727,-0.14597 0.50313,-0.3002 0.73632,-0.46484 0.2332,-0.16465 0.4537,-0.33912 0.66016,-0.52344 0.20646,-0.18432 0.39908,-0.37901 0.57617,-0.58398 0.0885,-0.10248 0.1732,-0.20662 0.25391,-0.31445 0.0551,-0.07363 0.10493,-0.15039 0.15625,-0.22656 0.43402,-1.4169 0.43115,-2.7122 0.0781,-3.8984 -0.0729,-0.08011 -0.14293,-0.1599 -0.23437,-0.24414 -0.064,-0.05897 -0.13315,-0.11784 -0.20703,-0.17774 -0.0739,-0.05989 -0.1539,-0.11977 -0.23828,-0.17969 -0.0844,-0.05991 -0.17402,-0.12066 -0.26954,-0.17969 -0.0955,-0.05903 -0.19544,-0.11658 -0.30273,-0.17383 -0.10728,-0.05725 -0.22211,-0.11341 -0.3418,-0.16797 -0.11968,-0.05456 -0.24424,-0.10724 -0.37695,-0.1582 -0.13271,-0.05096 -0.27355,-0.10002 -0.41992,-0.14648 -0.14637,-0.04646 -0.29833,-0.0898 -0.45899,-0.13086 -0.16066,-0.04106 -0.33027,-0.08048 -0.50585,-0.11524 -0.17559,-0.03476 -0.3577,-0.0662 -0.54883,-0.09375 -0.19114,-0.02755 -0.39034,-0.05088 -0.59766,-0.07031 -0.20732,-0.01943 -0.42235,-0.03451 -0.64648,-0.04492 -0.22414,-0.01042 -0.45764,-0.01708 -0.69922,-0.01758 -0.24158,-4.95e-4 -0.4923,0.0053 -0.75196,0.01563 -0.25965,0.01033 -0.52827,0.02677 -0.80664,0.04883 -0.27836,0.02206 -0.56557,0.04929 -0.86328,0.08398 -0.2977,0.03469 -0.60615,0.07677 -0.92383,0.125 -0.31767,0.04823 -0.64414,0.10335 -0.98242,0.16602 -0.33828,0.06267 -0.68736,0.13292 -1.0469,0.21094 -0.35952,0.07801 -0.72995,0.16355 -1.1113,0.25781 -0.38138,0.09426 -0.77386,0.19718 -1.1777,0.30859 -0.0912,0.02516 -0.18888,0.05597 -0.28124,0.08203 z"
         fill="url(#linearGradient61493)"
         id="path12"
         style="fill:url(#linearGradient61493)" />
      <path
         transform="scale(0.26458)"
         d="m 129.23,41.811 c 0.0924,-0.02606 0.19005,-0.05687 0.28124,-0.08203 0.40388,-0.11141 0.79636,-0.21433 1.1777,-0.30859 0.38138,-0.09426 0.75181,-0.1798 1.1113,-0.25781 0.35951,-0.07801 0.70859,-0.14827 1.0469,-0.21094 0.33828,-0.06267 0.66475,-0.11779 0.98242,-0.16602 0.31768,-0.04823 0.62613,-0.09031 0.92383,-0.125 0.29771,-0.03469 0.58492,-0.06193 0.86328,-0.08398 0.27837,-0.02206 0.54699,-0.0385 0.80664,-0.04883 0.25966,-0.01033 0.51038,-0.01612 0.75196,-0.01563 0.24158,4.95e-4 0.47508,0.0072 0.69922,0.01758 0.22413,0.01042 0.43916,0.02549 0.64648,0.04492 0.20732,0.01943 0.40652,0.04277 0.59766,0.07031 0.19113,0.02755 0.37324,0.05899 0.54883,0.09375 0.17558,0.03476 0.34519,0.07417 0.50585,0.11524 0.16066,0.04106 0.31262,0.0844 0.45899,0.13086 0.14637,0.04646 0.28721,0.09552 0.41992,0.14648 0.13271,0.05096 0.25727,0.10365 0.37695,0.1582 0.11969,0.05456 0.23452,0.11072 0.3418,0.16797 0.10729,0.05725 0.20722,0.1148 0.30273,0.17383 0.0955,0.05903 0.18515,0.11977 0.26954,0.17969 0.0844,0.05991 0.1644,0.1198 0.23828,0.17969 0.0739,0.05989 0.14302,0.11877 0.20703,0.17774 0.0914,0.08424 0.16152,0.16403 0.23437,0.24414 -1.3696,-4.6023 -8.0162,-7.5684 -14.93,-9.6719 -9.1096,-2.7717 -11.352,3.2376 -10.82,7.4395 0.53205,4.2019 4.7138,5.6041 7.6172,3.7305 2.6785,-1.7285 3.7866,-2.3182 4.3398,-2.0996 z"
         fill="url(#linearGradient75579)"
         id="path13"
         style="fill:url(#linearGradient75579)" />
      <path
         transform="scale(0.26458)"
         d="m 121.79,50.191 c -1.1642,-0.01804 -2.2838,-0.18141 -3.2871,-0.44141 -0.19056,-0.02204 -0.26291,-0.02418 -0.71289,-0.09766 -0.36491,-0.05959 -0.80564,-0.13899 -1.3066,-0.24414 -0.50096,-0.10515 -1.0618,-0.23524 -1.668,-0.39648 -0.30309,-0.08062 -0.61782,-0.16901 -0.94141,-0.26562 -0.32359,-0.09661 -0.65586,-0.20249 -0.99609,-0.31641 -0.34023,-0.11392 -0.68802,-0.2366 -1.041,-0.36914 -0.35299,-0.13254 -0.71231,-0.2733 -1.0742,-0.42578 -0.36191,-0.15248 -0.7268,-0.3165 -1.0938,-0.49024 -0.36696,-0.17373 -0.73539,-0.35839 -1.1035,-0.55469 -0.36811,-0.1963 -0.73611,-0.40287 -1.1016,-0.62305 -0.36549,-0.22018 -0.72899,-0.45384 -1.0879,-0.69922 -0.35891,-0.24538 -0.71206,-0.50351 -1.0606,-0.77539 -0.34849,-0.27188 -0.69117,-0.55771 -1.0254,-0.85742 -0.33422,-0.29971 -0.66048,-0.61256 -0.97656,-0.94141 -0.31609,-0.32885 -0.62194,-0.6739 -0.91602,-1.0332 -0.29408,-0.3593 -0.57553,-0.73393 -0.84375,-1.125 -0.26821,-0.39107 -0.52323,-0.7985 -0.76172,-1.2227 -0.11924,-0.21208 -0.23461,-0.42784 -0.3457,-0.64844 -0.11109,-0.22059 -0.21787,-0.44455 -0.32031,-0.67383 -0.10245,-0.22928 -0.2016,-0.46305 -0.29492,-0.70117 -0.09332,-0.23812 -0.18191,-0.48138 -0.26562,-0.72852 -0.08372,-0.24713 -0.1627,-0.49955 -0.23633,-0.75586 -0.07363,-0.25631 -0.14202,-0.5156 -0.20508,-0.78125 -0.06306,-0.26565 -0.11987,-0.53735 -0.17188,-0.8125 -0.052,-0.27515 -0.0982,-0.55503 -0.13867,-0.83984 -0.04047,-0.28482 -0.07507,-0.57449 -0.10352,-0.86914 -0.0053,-0.05443 -0.0069,-0.11124 -0.01172,-0.16602 -0.30177,1.4164 -0.47592,2.8804 -0.50195,4.3809 -0.24443,14.087 11.049,22.487 21.432,23.506 10.382,1.0192 19.672,-5.368 22.951,-12.904 0.14904,-0.34252 0.27221,-0.67862 0.37305,-1.0078 -0.0513,0.07617 -0.10114,0.15293 -0.15625,0.22656 -0.0807,0.10784 -0.16536,0.21197 -0.25391,0.31445 -0.17709,0.20497 -0.36971,0.39967 -0.57617,0.58398 -0.20646,0.18431 -0.42696,0.35879 -0.66016,0.52344 -0.23319,0.16465 -0.47905,0.31888 -0.73632,0.46484 -0.25728,0.14597 -0.52598,0.28383 -0.80469,0.41211 -0.27872,0.12828 -0.56772,0.2478 -0.86524,0.35937 -0.29751,0.11157 -0.6043,0.21469 -0.91796,0.31055 -0.31367,0.09586 -0.63377,0.1845 -0.96094,0.26562 -0.32717,0.08113 -0.66197,0.15527 -1,0.22266 -0.33803,0.06738 -0.6811,0.12701 -1.0274,0.18164 -0.3463,0.05463 -0.69505,0.10362 -1.0469,0.14648 -0.35183,0.04286 -0.70579,0.07924 -1.0606,0.11133 -0.35475,0.03209 -0.70941,0.05973 -1.0644,0.08203 -0.71008,0.04459 -1.4199,0.07067 -2.1152,0.08203 -0.69535,0.01136 -1.3776,0.0081 -2.0371,-0.0059 -0.65949,-0.01397 -1.296,-0.03892 -1.8984,-0.07031 -0.60246,-0.0314 -1.171,-0.06845 -1.6953,-0.10938 -0.52428,-0.04092 -1.0028,-0.08441 -1.4277,-0.12695 -0.32908,-0.03295 -0.59331,-0.06403 -0.85156,-0.09375 -0.002,-2.9e-5 -0.004,3e-5 -0.006,0 z"
         fill="url(#linearGradient46934)"
         id="path14"
         style="fill:url(#linearGradient46934)" />
      <path
         transform="scale(0.26458)"
         d="m 98.695,32.336 c 0.0048,0.05477 0.0065,0.11158 0.01172,0.16602 0.02845,0.29465 0.06305,0.58432 0.10352,0.86914 0.04047,0.28482 0.08667,0.56469 0.13867,0.83984 0.052,0.27515 0.10882,0.54685 0.17188,0.8125 0.06306,0.26565 0.13145,0.52494 0.20508,0.78125 0.07363,0.25631 0.15261,0.50873 0.23633,0.75586 0.08372,0.24713 0.1723,0.49039 0.26562,0.72852 0.09332,0.23812 0.19247,0.4719 0.29492,0.70117 0.10244,0.22928 0.20922,0.45323 0.32031,0.67383 0.11109,0.2206 0.22646,0.43636 0.3457,0.64844 0.23849,0.42416 0.49351,0.83158 0.76172,1.2227 0.26822,0.39107 0.54967,0.7657 0.84375,1.125 0.29408,0.3593 0.59993,0.70435 0.91602,1.0332 0.31608,0.32885 0.64234,0.6417 0.97656,0.94141 0.33422,0.29971 0.6769,0.58554 1.0254,0.85742 0.34849,0.27188 0.70164,0.53002 1.0606,0.77539 0.3589,0.24538 0.72244,0.47904 1.0879,0.69922 0.36546,0.22018 0.73343,0.42675 1.1016,0.62305 0.36817,0.1963 0.73656,0.38096 1.1035,0.55469 0.36695,0.17373 0.73184,0.33775 1.0938,0.49024 0.3619,0.15248 0.72122,0.29324 1.0742,0.42578 0.353,0.13254 0.70079,0.25522 1.041,0.36914 0.34023,0.11392 0.6725,0.21979 0.99609,0.31641 0.32359,0.09661 0.63832,0.185 0.94141,0.26562 0.60618,0.16124 1.167,0.29133 1.668,0.39648 0.501,0.10515 0.94173,0.18456 1.3066,0.24414 0.44998,0.07348 0.52233,0.07561 0.71289,0.09766 -1.0176,-0.2637 -1.9163,-0.6275 -2.6191,-1.043 -2.9202,-1.7263 -8.7968,-5.9501 -7.2891,-14.203 0,0 0.008,-0.08398 0.0312,-0.24023 0.0228,-0.15625 0.0592,-0.38541 0.11328,-0.67578 0.027,-0.14518 0.0593,-0.3059 0.0957,-0.48047 0.0364,-0.17457 0.0781,-0.36327 0.125,-0.56445 0.0469,-0.20118 0.0978,-0.4156 0.15625,-0.64062 0.0584,-0.22503 0.12431,-0.46092 0.19531,-0.70703 0.071,-0.24611 0.14778,-0.5012 0.23243,-0.76562 0.0846,-0.26443 0.17604,-0.53838 0.27539,-0.81836 0.0993,-0.27998 0.20715,-0.56661 0.32226,-0.85938 0.11511,-0.29276 0.23721,-0.59175 0.36914,-0.89453 0.066,-0.15139 0.13471,-0.30366 0.20508,-0.45703 0.0704,-0.15338 0.14384,-0.30788 0.21875,-0.46289 0.0749,-0.15502 0.15089,-0.31049 0.23047,-0.4668 0.0796,-0.15631 0.16172,-0.31345 0.24609,-0.4707 0.0844,-0.15726 0.17046,-0.3148 0.25977,-0.47266 0.0893,-0.15786 0.18297,-0.31454 0.27734,-0.47266 0.0944,-0.15812 0.18949,-0.31658 0.28907,-0.47461 0.0996,-0.15803 0.20368,-0.31702 0.30859,-0.47461 0.1049,-0.15759 0.2119,-0.31389 0.32226,-0.4707 0.11037,-0.15681 0.22388,-0.31306 0.33985,-0.46875 0.11596,-0.15569 0.23377,-0.31063 0.35547,-0.46484 0.12169,-0.15422 0.24744,-0.30854 0.375,-0.46094 0.12755,-0.1524 0.25708,-0.30289 0.39062,-0.45312 0.13355,-0.15023 0.27049,-0.29954 0.41016,-0.44726 0.13967,-0.14772 0.2818,-0.29458 0.42773,-0.43945 0.14593,-0.14487 0.29495,-0.28802 0.44727,-0.42969 0.15232,-0.14167 0.30796,-0.2818 0.46679,-0.41992 0.15885,-0.13812 0.32083,-0.27397 0.48633,-0.4082 0.1655,-0.13423 0.33553,-0.26649 0.50782,-0.39648 0.17228,-0.12999 0.34813,-0.25741 0.52734,-0.38281 0.17921,-0.12541 0.36062,-0.24866 0.54687,-0.36914 0.18626,-0.12048 0.37687,-0.23831 0.57032,-0.35352 0.19344,-0.1152 0.39103,-0.22831 0.59179,-0.33789 0.20076,-0.10958 0.40507,-0.2167 0.61329,-0.32031 0.2082,-0.10361 0.41897,-0.20348 0.63476,-0.30078 0.21579,-0.0973 0.43665,-0.19061 0.66016,-0.28125 0.2235,-0.09064 0.45028,-0.17808 0.68164,-0.26172 0.23135,-0.08364 0.46574,-0.16395 0.70508,-0.24023 0.23933,-0.07629 0.48302,-0.15016 0.73046,-0.21875 0.24745,-0.06859 0.50017,-0.13281 0.75586,-0.19336 0.25569,-0.06055 0.51523,-0.11581 0.7793,-0.16797 0.26407,-0.05216 0.53211,-0.1011 0.80469,-0.14453 0.27258,-0.04343 0.54886,-0.08284 0.83008,-0.11719 0.28122,-0.03435 0.56742,-0.06297 0.85742,-0.08789 0.28999,-0.02492 0.58391,-0.04539 0.88281,-0.06055 0.2989,-0.01516 0.60222,-0.02621 0.91016,-0.03125 0.30794,-0.005 0.62039,-0.0035 0.9375,0.002 0.12004,0.0021 0.24387,0.0081 0.36523,0.01172 -1.9168,-0.7601 -4.0852,-1.369 -6.5156,-1.7441 -0.96743,-0.14934 -1.9382,-0.21919 -2.9082,-0.2168 -10.123,0.02498 -20.028,8.064 -22.338,18.906 z"
         fill="url(#linearGradient29255)"
         id="path15"
         style="fill:url(#linearGradient29255)" />
    </g>
  </g>
</svg>
