<?xml version="1.0" encoding="UTF-8" standalone="no"?>
<svg
   width="64"
   height="64"
   version="1.1"
   viewBox="0 0 16.933 16.933"
   id="svg18"
   sodipodi:docname="guitar-pro.svg"
   xml:space="preserve"
   inkscape:version="1.3 (0e150ed6c4, 2023-07-21)"
   xmlns:inkscape="http://www.inkscape.org/namespaces/inkscape"
   xmlns:sodipodi="http://sodipodi.sourceforge.net/DTD/sodipodi-0.dtd"
   xmlns:xlink="http://www.w3.org/1999/xlink"
   xmlns="http://www.w3.org/2000/svg"
   xmlns:svg="http://www.w3.org/2000/svg"><defs
     id="defs22"><linearGradient
       inkscape:collect="always"
       id="linearGradient8679"><stop
         style="stop-color:#fefeff;stop-opacity:1"
         offset="0"
         id="stop8675" /><stop
         style="stop-color:#c1ddfd;stop-opacity:1"
         offset="1"
         id="stop8677" /></linearGradient><linearGradient
       inkscape:collect="always"
       xlink:href="#linearGradient8679"
       id="linearGradient8681"
       x1="8.4665003"
       y1="2.5134921"
       x2="8.4665003"
       y2="14.419508"
       gradientUnits="userSpaceOnUse"
       gradientTransform="translate(1.65e-5)" /><linearGradient
       inkscape:collect="always"
       xlink:href="#linearGradient2114"
       id="linearGradient2116"
       x1="59.5"
       y1="4.5"
       x2="4.5"
       y2="59.5"
       gradientUnits="userSpaceOnUse"
       gradientTransform="scale(0.26457813)" /><linearGradient
       inkscape:collect="always"
       id="linearGradient2114"><stop
         style="stop-color:#37beff;stop-opacity:1"
         offset="0"
         id="stop2110" /><stop
         style="stop-color:#00a0ff;stop-opacity:1"
         offset="1"
         id="stop2112" /></linearGradient><filter
       id="filter3440"
       x="-0.068744224"
       y="-0.082508317"
       width="1.1374884"
       height="1.1650166"
       color-interpolation-filters="sRGB"><feGaussianBlur
         stdDeviation="0.99297596"
         id="feGaussianBlur21" /></filter></defs><sodipodi:namedview
     id="namedview20"
     pagecolor="#ffffff"
     bordercolor="#999999"
     borderopacity="1"
     inkscape:showpageshadow="0"
     inkscape:pageopacity="0"
     inkscape:pagecheckerboard="0"
     inkscape:deskcolor="#d1d1d1"
     showgrid="false"
     inkscape:zoom="3.3203125"
     inkscape:cx="26.503529"
     inkscape:cy="6.9270588"
     inkscape:window-width="1920"
     inkscape:window-height="941"
     inkscape:window-x="0"
     inkscape:window-y="34"
     inkscape:window-maximized="1"
     inkscape:current-layer="svg18" /><rect
     style="fill:url(#linearGradient2116);fill-opacity:1;stroke-width:0.561961"
     id="rect2106"
     width="14.551798"
     height="14.551798"
     x="1.1906011"
     y="1.1906011"
     ry="3.4395156" /><path
     id="path5797"
     d="m 8.4665165,2.5134921 c -2.769113,0 -5.014065,1.5431561 -5.014065,3.4467502 0,0.731032 0.530914,2.1677883 1.206621,3.6363989 v -0.00155 c 1.083991,2.3557988 2.649276,4.8244168 3.807444,4.8244168 1.157826,0 2.7225245,-2.467183 3.8064105,-4.8223498 a 10.027562,10.027562 0 0 0 0.001,-5.168e-4 c 0.675729,-1.4686106 1.206621,-2.9053441 1.206621,-3.6363989 0,-1.9037081 -2.244953,-3.4467502 -5.0140655,-3.4467502 z m 1.7838355,2.6685184 c 0.273295,0 0.497736,0.1406069 0.673331,0.4216714 0.175593,0.279363 0.263545,0.6398691 0.263545,1.0810497 0,0.4411805 -0.08795,0.8020522 -0.263545,1.0831167 -0.175595,0.2793629 -0.400036,0.4190876 -0.673331,0.4190876 -0.154468,0 -0.2909585,-0.038947 -0.4097855,-0.1173032 C 9.7217395,7.9895727 9.6132285,7.8660508 9.5155275,7.69912 V 9.2013243 H 8.8065415 V 5.2512556 h 0.708986 v 0.4190876 c 0.0977,-0.1669329 0.206212,-0.2895724 0.325039,-0.367929 0.118827,-0.08006 0.2553175,-0.1204037 0.4097855,-0.1204037 z m -3.5687035,0.00517 c 0.154468,0 0.290727,0.039463 0.408235,0.1178199 0.117509,0.078356 0.225279,0.2018781 0.322972,0.3705127 V 5.2512556 h 0.712604 v 2.5729189 c 0,0.4599194 -0.112706,0.8107416 -0.338474,1.0526282 -0.22445,0.243588 -0.550452,0.3653452 -0.978216,0.3653452 -0.138626,0 -0.272649,-0.013569 -0.402035,-0.040824 -0.129386,-0.027255 -0.259444,-0.068842 -0.390149,-0.1250545 V 8.3631491 c 0.124102,0.091984 0.245485,0.1603453 0.364312,0.2046346 0.118827,0.045992 0.238481,0.068728 0.358627,0.068728 0.23237,0 0.402293,-0.065209 0.510553,-0.1963666 0.10826,-0.1311579 0.162778,-0.3366077 0.162778,-0.6159709 v -0.196883 c -0.0977,0.166933 -0.205472,0.2895723 -0.322972,0.3679289 -0.117508,0.078356 -0.253767,0.11782 -0.408235,0.11782 -0.270658,0 -0.494351,-0.1370884 -0.671264,-0.4113363 -0.176914,-0.2759496 -0.265095,-0.6272886 -0.265095,-1.053145 0,-0.427558 0.08818,-0.777498 0.265095,-1.0500444 0.176913,-0.274248 0.400606,-0.4113363 0.671264,-0.4113363 z m 0.263544,0.6593783 c -0.146547,0 -0.260749,0.069609 -0.342608,0.2092854 -0.08186,0.1396763 -0.122987,0.3377135 -0.122987,0.5932338 0,0.2623264 0.03964,0.4616113 0.118853,0.5978845 0.07922,0.1345717 0.194907,0.2015341 0.346742,0.2015341 0.147875,0 0.262825,-0.069609 0.344675,-0.2092854 0.08186,-0.1396763 0.122988,-0.3363252 0.122988,-0.5901332 0,-0.2555096 -0.04113,-0.4535468 -0.122988,-0.5932338 -0.08186,-0.1396763 -0.196807,-0.2092854 -0.344675,-0.2092854 z m 3.042132,0 c -0.151831,0 -0.269018,0.072245 -0.350876,0.2170367 -0.08054,0.14309 -0.120921,0.3497878 -0.120921,0.6206217 0,0.2708447 0.04038,0.4789308 0.120921,0.6237223 0.08186,0.14309 0.199043,0.214453 0.350876,0.214453 0.1518325,0 0.2670055,-0.071363 0.3462255,-0.214453 0.08054,-0.14309 0.120919,-0.3511761 0.120919,-0.6237223 0,-0.2725461 -0.04038,-0.4801155 -0.120919,-0.6232055 C 10.25433,5.9179219 10.139158,5.8465588 9.9873245,5.8465588 Z"
     style="fill:url(#linearGradient8681);fill-opacity:1" /></svg>
