<?xml version="1.0" encoding="UTF-8" standalone="no"?>
<svg
   width="64"
   height="64"
   version="1"
   id="svg42702"
   sodipodi:docname="hydrogen.svg"
   inkscape:version="1.3 (0e150ed6c4, 2023-07-21)"
   xmlns:inkscape="http://www.inkscape.org/namespaces/inkscape"
   xmlns:sodipodi="http://sodipodi.sourceforge.net/DTD/sodipodi-0.dtd"
   xmlns="http://www.w3.org/2000/svg"
   xmlns:svg="http://www.w3.org/2000/svg">
  <defs
     id="defs42706">
    <linearGradient
       id="linearGradient1053"
       x1="68"
       x2="128"
       y1="62"
       y2="2"
       gradientTransform="matrix(0.91666687,0,0,0.91666687,-57.832824,2.666245)"
       gradientUnits="userSpaceOnUse">
      <stop
         stop-color="#e0e4e9"
         offset="0"
         id="stop42825" />
      <stop
         stop-color="#fefeff"
         offset="1"
         id="stop42827" />
    </linearGradient>
  </defs>
  <sodipodi:namedview
     id="namedview42704"
     pagecolor="#ffffff"
     bordercolor="#999999"
     borderopacity="1"
     inkscape:showpageshadow="0"
     inkscape:pageopacity="0"
     inkscape:pagecheckerboard="0"
     inkscape:deskcolor="#d1d1d1"
     showgrid="false"
     inkscape:zoom="4.695631"
     inkscape:cx="-35.564975"
     inkscape:cy="34.926084"
     inkscape:window-width="1920"
     inkscape:window-height="941"
     inkscape:window-x="0"
     inkscape:window-y="34"
     inkscape:window-maximized="1"
     inkscape:current-layer="svg42702" />
  <path
     id="rect1060"
     d="m 17.5,4.5 c -7.201967,0 -13,5.798034 -13,13 v 29 c 0,7.201967 5.798033,13 13,13 h 29 c 7.20197,0 13,-5.798033 13,-13 v -29 c 0,-7.201966 -5.79803,-13 -13,-13 z"
     style="fill:#b5c0df;fill-opacity:1" />
  <g
     id="g14"
     transform="translate(-77.501694)">
    <rect
       x="88.501694"
       y="12"
       width="10"
       height="31"
       rx="1.429"
       ry="1.409"
       fill="#314277"
       id="rect1" />
    <rect
       x="104.50169"
       y="12"
       width="26"
       height="31"
       rx="1.368"
       ry="1.409"
       fill="#314277"
       id="rect2" />
    <rect
       transform="rotate(90)"
       x="23"
       y="-117.9017"
       width="10"
       height="29.4"
       rx="1.429"
       ry="1.4"
       fill="#314277"
       id="rect3" />
    <rect
       x="89.501694"
       y="47"
       width="5"
       height="5"
       rx="1.25"
       ry="1.25"
       fill="#314277"
       opacity="0.3"
       id="rect4" />
    <rect
       x="96.501694"
       y="47"
       width="5"
       height="5"
       rx="1.25"
       ry="1.25"
       fill="#314277"
       opacity="0.56"
       id="rect5" />
    <rect
       x="103.50169"
       y="47"
       width="5"
       height="5"
       rx="1.25"
       ry="1.25"
       fill="#314277"
       opacity="0.82"
       id="rect6" />
    <rect
       x="108.50169"
       y="16"
       width="18"
       height="5"
       rx="1.385"
       ry="1.25"
       fill="#ffffff"
       id="rect7" />
    <rect
       x="108.50169"
       y="34"
       width="18"
       height="5"
       rx="1.385"
       ry="1.25"
       fill="#ffffff"
       id="rect8" />
    <rect
       transform="rotate(90)"
       x="25"
       y="-113.50169"
       width="14"
       height="5"
       rx="1.077"
       ry="1.25"
       fill="#ffffff"
       id="rect9" />
    <rect
       transform="scale(-1)"
       x="-126.50169"
       y="-30"
       width="17"
       height="5"
       rx="1.308"
       ry="1.25"
       fill="#ffffff"
       id="rect10" />
    <rect
       transform="rotate(90)"
       x="16"
       y="-126.50169"
       width="14"
       height="5"
       rx="1.077"
       ry="1.25"
       fill="#ffffff"
       id="rect11" />
    <rect
       transform="scale(-1,1)"
       x="-129.50169"
       y="47"
       width="5"
       height="5"
       rx="1.25"
       ry="1.25"
       fill="#314277"
       opacity="0.3"
       id="rect12" />
    <rect
       transform="scale(-1,1)"
       x="-122.50169"
       y="47"
       width="5"
       height="5"
       rx="1.25"
       ry="1.25"
       fill="#314277"
       opacity="0.56"
       id="rect13" />
    <rect
       transform="scale(-1,1)"
       x="-115.50169"
       y="47"
       width="5"
       height="5"
       rx="1.25"
       ry="1.25"
       fill="#314277"
       opacity="0.82"
       id="rect14" />
  </g>
</svg>
