<?xml version="1.0" encoding="UTF-8" standalone="no"?>
<svg
   width="64"
   height="64"
   version="1.1"
   viewBox="0 0 16.933 16.933"
   id="svg774"
   sodipodi:docname="ibus-pinyin.svg"
   inkscape:version="1.3 (0e150ed6c4, 2023-07-21)"
   xmlns:inkscape="http://www.inkscape.org/namespaces/inkscape"
   xmlns:sodipodi="http://sodipodi.sourceforge.net/DTD/sodipodi-0.dtd"
   xmlns="http://www.w3.org/2000/svg"
   xmlns:svg="http://www.w3.org/2000/svg">
  <defs
     id="defs778">
    <linearGradient
       id="linearGradient873-6"
       x1="-48.646"
       x2="-32.771999"
       y1="-6.3007002"
       y2="9.5740004"
       gradientTransform="matrix(0.91663,0,0,0.91663,68.658262,6.96636)"
       gradientUnits="userSpaceOnUse">
      <stop
         stop-color="#28afea"
         offset="0"
         id="stop243" />
      <stop
         stop-color="#838be4"
         offset="1"
         id="stop245" />
    </linearGradient>
    <linearGradient
       id="linearGradient1448"
       x1="2.5143001"
       x2="15.021"
       y1="2.5143001"
       y2="15.021"
       gradientTransform="matrix(0.91665735,0,0,0.91665735,0.7053914,0.70539202)"
       gradientUnits="userSpaceOnUse">
      <stop
         stop-color="#289be6"
         offset="0"
         id="stop1" />
      <stop
         stop-color="#8278eb"
         offset="1"
         id="stop2" />
    </linearGradient>
  </defs>
  <sodipodi:namedview
     id="namedview776"
     pagecolor="#ffffff"
     bordercolor="#999999"
     borderopacity="1"
     inkscape:showpageshadow="0"
     inkscape:pageopacity="0"
     inkscape:pagecheckerboard="0"
     inkscape:deskcolor="#d1d1d1"
     showgrid="false"
     inkscape:zoom="4.695631"
     inkscape:cx="35.564975"
     inkscape:cy="33.861264"
     inkscape:window-width="1920"
     inkscape:window-height="941"
     inkscape:window-x="0"
     inkscape:window-y="34"
     inkscape:window-maximized="1"
     inkscape:current-layer="svg774" />
  <rect
     x="1.1904695"
     y="1.1904695"
     width="14.552061"
     height="14.552061"
     ry="3.4395156"
     fill="url(#linearGradient1448)"
     stroke-opacity="0.95294"
     stroke-width="0.0831516"
     id="rect2"
     style="fill:url(#linearGradient1448)" />
  <path
     id="rect1"
     style="opacity:0.15;fill-rule:evenodd;stroke-width:0.774594;paint-order:fill markers stroke"
     d="m 5.2915779,13.493 h 6.3498441 c 0.439737,0 0.79375,0.354013 0.79375,0.79375 0,0.439738 -0.354013,0.79375 -0.79375,0.79375 H 5.2915779 c -0.4397375,0 -0.79375,-0.354012 -0.79375,-0.79375 0,-0.439737 0.3540125,-0.79375 0.79375,-0.79375 z" />
  <path
     d="m 10.4395,4.4808 c -0.165,0.44 -0.358,0.907 -0.577,1.292 h -2.03 v 0.534 h 0.738 v 0.95 c 0,0.165 -0.01,0.357 -0.028,0.504 h -0.89 v 0.537 h 0.835 c -0.11,0.971 -0.485,1.644 -1.127,2.12 l 0.385,0.413 c 0.752,-0.55 1.191,-1.36 1.32,-2.533 h 1.118 v 2.533 h 0.55 v -2.533 h 1.08 v -0.537 h -1.08 v -1.454 h 0.9 v -0.534 h -1.194 c 0.202,-0.312 0.403,-0.723 0.605,-1.127 z m -4.23,0.017 v 1.086 h -0.91 v 0.543 h 0.91 v 1.433 c -0.348,0.147 -0.688,0.293 -1.09,0.44 l 0.192,0.577 c 0.33,-0.128 0.605,-0.256 0.898,-0.385 v 1.732 c 0,0.22 -0.046,0.33 -0.138,0.33 -0.256,0 -0.467,-0.037 -0.705,-0.11 l 0.11,0.577 c 0.22,0.055 0.422,0.083 0.678,0.083 0.22,0 0.376,-0.055 0.467,-0.165 0.092,-0.11 0.126,-0.303 0.126,-0.577 v -2.144 l 0.845,-0.44 -0.083,-0.495 c -0.238,0.11 -0.524,0.229 -0.762,0.357 v -1.214 h 0.905 v -0.542 h -0.905 v -1.086 z m 2.58,0.066 -0.549,0.165 c 0.202,0.256 0.357,0.55 0.467,0.88 l 0.577,-0.193 a 2.66,2.66 0 0 0 -0.494,-0.852 z m 0.33,1.743 h 1.064 v 1.454 h -1.09 c 0.017,-0.128 0.027,-0.293 0.027,-0.42 z"
     fill="#f9f9f9"
     id="path1" />
</svg>
