<?xml version="1.0" encoding="UTF-8" standalone="no"?>
<svg
   width="64"
   height="64"
   version="1.1"
   viewBox="0 0 16.933 16.933"
   id="svg588"
   sodipodi:docname="ibus-bopomofo.svg"
   inkscape:version="1.3 (0e150ed6c4, 2023-07-21)"
   xmlns:inkscape="http://www.inkscape.org/namespaces/inkscape"
   xmlns:sodipodi="http://sodipodi.sourceforge.net/DTD/sodipodi-0.dtd"
   xmlns="http://www.w3.org/2000/svg"
   xmlns:svg="http://www.w3.org/2000/svg">
  <defs
     id="defs592">
    <linearGradient
       id="linearGradient873-6"
       x1="-48.646"
       x2="-32.771999"
       y1="-6.3007002"
       y2="9.5740004"
       gradientTransform="matrix(0.91663,0,0,0.91663,45.78195,6.9663601)"
       gradientUnits="userSpaceOnUse">
      <stop
         stop-color="#28afea"
         offset="0"
         id="stop243" />
      <stop
         stop-color="#838be4"
         offset="1"
         id="stop245" />
    </linearGradient>
    <linearGradient
       id="linearGradient1448"
       x1="2.5143001"
       x2="15.021"
       y1="2.5143001"
       y2="15.021"
       gradientTransform="matrix(0.91665735,0,0,0.91665735,0.70539154,0.7053921)"
       gradientUnits="userSpaceOnUse">
      <stop
         stop-color="#289be6"
         offset="0"
         id="stop1" />
      <stop
         stop-color="#8278eb"
         offset="1"
         id="stop2" />
    </linearGradient>
  </defs>
  <sodipodi:namedview
     id="namedview590"
     pagecolor="#ffffff"
     bordercolor="#999999"
     borderopacity="1"
     inkscape:showpageshadow="0"
     inkscape:pageopacity="0"
     inkscape:pagecheckerboard="0"
     inkscape:deskcolor="#d1d1d1"
     showgrid="false"
     inkscape:zoom="4.695631"
     inkscape:cx="51.963197"
     inkscape:cy="38.759434"
     inkscape:window-width="1920"
     inkscape:window-height="941"
     inkscape:window-x="0"
     inkscape:window-y="34"
     inkscape:window-maximized="1"
     inkscape:current-layer="svg588" />
  <rect
     x="1.1904695"
     y="1.1904695"
     width="14.552061"
     height="14.552061"
     ry="3.4395156"
     fill="url(#linearGradient1448)"
     stroke-opacity="0.95294"
     stroke-width="0.0831516"
     id="rect2"
     style="fill:url(#linearGradient1448)" />
  <path
     id="rect1"
     style="opacity:0.15;fill-rule:evenodd;stroke-width:0.774594;paint-order:fill markers stroke"
     d="m 5.291578,13.493 h 6.349844 c 0.439736,0 0.793749,0.354013 0.793749,0.79375 0,0.439738 -0.354013,0.79375 -0.793749,0.79375 H 5.291578 c -0.4397375,0 -0.79375,-0.354012 -0.79375,-0.79375 0,-0.439737 0.3540125,-0.79375 0.79375,-0.79375 z" />
  <g
     transform="translate(0 -280.07)"
     id="g1">
    <path
       d="m7.053 284.3-1.415 1.91 0.4 0.793h4.24c-0.04 1.017-0.047 1.263-0.264 1.789-0.128 0.31-0.29 0.504-0.614 0.656-0.325 0.152-0.845 0.244-1.635 0.193l-0.064 0.992c0.89 0.058 1.576-0.03 2.12-0.283a2.216 2.216 0 0 0 1.113-1.179c0.402-0.974 0.294-1.46 0.361-2.637l-0.021-0.526h-4.249l0.827-1.115z"
       fill="#fff"
       fill-rule="evenodd"
       id="path1" />
  </g>
</svg>
