<?xml version="1.0" encoding="UTF-8" standalone="no"?>
<svg
   width="64"
   height="64"
   version="1.1"
   viewBox="0 0 16.933 16.933"
   id="svg10"
   sodipodi:docname="ibus-anthy.svg"
   inkscape:version="1.3 (0e150ed6c4, 2023-07-21)"
   xmlns:inkscape="http://www.inkscape.org/namespaces/inkscape"
   xmlns:sodipodi="http://sodipodi.sourceforge.net/DTD/sodipodi-0.dtd"
   xmlns="http://www.w3.org/2000/svg"
   xmlns:svg="http://www.w3.org/2000/svg"
   xmlns:rdf="http://www.w3.org/1999/02/22-rdf-syntax-ns#"
   xmlns:cc="http://creativecommons.org/ns#"
   xmlns:dc="http://purl.org/dc/elements/1.1/">
  <defs
     id="defs14">
    <linearGradient
       id="linearGradient873-6"
       x1="-48.646"
       x2="-32.771999"
       y1="-6.3007002"
       y2="9.5740004"
       gradientTransform="matrix(0.91663,0,0,0.91663,64.432342,6.9663601)"
       gradientUnits="userSpaceOnUse">
      <stop
         stop-color="#28afea"
         offset="0"
         id="stop243" />
      <stop
         stop-color="#838be4"
         offset="1"
         id="stop245" />
    </linearGradient>
    <linearGradient
       id="linearGradient1448"
       x1="2.5143001"
       x2="15.021"
       y1="2.5143001"
       y2="15.021"
       gradientTransform="matrix(0.91665735,0,0,0.91665735,0.70539154,0.7053921)"
       gradientUnits="userSpaceOnUse">
      <stop
         stop-color="#289be6"
         offset="0"
         id="stop1" />
      <stop
         stop-color="#8278eb"
         offset="1"
         id="stop2" />
    </linearGradient>
  </defs>
  <sodipodi:namedview
     id="namedview12"
     pagecolor="#ffffff"
     bordercolor="#999999"
     borderopacity="1"
     inkscape:showpageshadow="0"
     inkscape:pageopacity="0"
     inkscape:pagecheckerboard="0"
     inkscape:deskcolor="#d1d1d1"
     showgrid="false"
     inkscape:zoom="4.695631"
     inkscape:cx="28.324202"
     inkscape:cy="18.527861"
     inkscape:window-width="1920"
     inkscape:window-height="941"
     inkscape:window-x="0"
     inkscape:window-y="34"
     inkscape:window-maximized="1"
     inkscape:current-layer="svg10" />
  <metadata
     id="metadata2">
    <rdf:RDF>
      <cc:Work
         rdf:about="">
        <dc:format>image/svg+xml</dc:format>
        <dc:type
           rdf:resource="http://purl.org/dc/dcmitype/StillImage" />
        <dc:title />
      </cc:Work>
    </rdf:RDF>
  </metadata>
  <rect
     x="1.1904695"
     y="1.1904695"
     width="14.552061"
     height="14.552061"
     ry="3.4395156"
     fill="url(#linearGradient1448)"
     stroke-opacity="0.95294"
     stroke-width="0.0831516"
     id="rect2"
     style="fill:url(#linearGradient1448)" />
  <path
     id="rect1"
     style="opacity:0.15;fill-rule:evenodd;stroke-width:0.774594;paint-order:fill markers stroke"
     d="m 5.291578,13.493 h 6.349844 c 0.439737,0 0.79375,0.354013 0.79375,0.79375 0,0.439738 -0.354013,0.79375 -0.79375,0.79375 H 5.291578 c -0.4397375,0 -0.79375,-0.354012 -0.79375,-0.79375 0,-0.439737 0.3540125,-0.79375 0.79375,-0.79375 z" />
  <path
     d="m 11.03182,4.8936 c -1.0075,0.22013 -2.142,0.34713 -3.0987,0.39793 l 0.0508,-0.254 C 8.04319,4.75814 8.08552,4.47874 8.17865,4.18241 L 6.99335,4.131611 c 0.0085,0.27939 0,0.48259 -0.04233,0.84665 -0.0085,0.1016 -0.03387,0.21166 -0.0508,0.33866 -0.50799,-0.00847 -1.143,-0.076199 -1.6425,-0.16086 v 1.0414 c 0.42332,0.042333 0.91438,0.076199 1.4478,0.084665 -0.22013,0.92285 -0.55879,2.0404 -0.95671,2.8109 l 0.99058,0.35559 c 0.08466,-0.14393 0.14393,-0.254 0.23706,-0.36406 0.49952,-0.64345 1.3546,-0.99058 2.3198,-0.99058 0.81278,0 1.253,0.42332 1.253,0.92285 0,1.2361 -1.8542,1.4562 -3.6914,1.1599 l 0.29633,1.0837 c 2.7093,0.28786 4.5211,-0.38946 4.5211,-2.2775 0,-1.0668 -0.89745,-1.7949 -2.2521,-1.7949 -0.77045,0 -1.4054,0.1524 -2.0828,0.52492 0.13546,-0.40639 0.27093,-0.93978 0.38099,-1.4478 1.126,-0.059265 2.4553,-0.22013 3.3273,-0.35559 z"
     fill="#ffffff"
     stroke-width="0.26458"
     id="path540" />
</svg>
