<?xml version="1.0" encoding="UTF-8" standalone="no"?>
<svg
   width="64"
   height="64"
   version="1.1"
   viewBox="0 0 16.933 16.933"
   id="svg9"
   sodipodi:docname="icon-preview-app.svg"
   inkscape:version="1.3 (0e150ed6c4, 2023-07-21)"
   xmlns:inkscape="http://www.inkscape.org/namespaces/inkscape"
   xmlns:sodipodi="http://sodipodi.sourceforge.net/DTD/sodipodi-0.dtd"
   xmlns="http://www.w3.org/2000/svg"
   xmlns:svg="http://www.w3.org/2000/svg"
   xmlns:rdf="http://www.w3.org/1999/02/22-rdf-syntax-ns#"
   xmlns:cc="http://creativecommons.org/ns#"
   xmlns:dc="http://purl.org/dc/elements/1.1/">
  <defs
     id="defs9">
    <linearGradient
       id="linearGradient1448"
       x1="3.9686999"
       x2="3.9686999"
       y1="16.378"
       y2="0.54084998"
       gradientTransform="matrix(0.91666,0,0,0.91666,0.7054196,-16.227637)"
       gradientUnits="userSpaceOnUse">
      <stop
         stop-color="#43474b"
         offset="0"
         id="stop3" />
      <stop
         stop-color="#6c7277"
         offset="1"
         id="stop4" />
    </linearGradient>
    <linearGradient
       id="linearGradient1242"
       x1="-9"
       x2="45"
       y1="50"
       y2="50"
       gradientTransform="matrix(0,0.30066871,-0.30066871,0,17.169258,3.0548406)"
       gradientUnits="userSpaceOnUse">
      <stop
         stop-color="#a1aab3"
         offset="0"
         id="stop1" />
      <stop
         stop-color="#818990"
         offset="1"
         id="stop2" />
    </linearGradient>
  </defs>
  <sodipodi:namedview
     id="namedview9"
     pagecolor="#ffffff"
     bordercolor="#000000"
     borderopacity="0.25"
     inkscape:showpageshadow="2"
     inkscape:pageopacity="0.0"
     inkscape:pagecheckerboard="0"
     inkscape:deskcolor="#d1d1d1"
     inkscape:zoom="2.8671875"
     inkscape:cx="33.482289"
     inkscape:cy="66.26703"
     inkscape:window-width="1920"
     inkscape:window-height="941"
     inkscape:window-x="0"
     inkscape:window-y="34"
     inkscape:window-maximized="1"
     inkscape:current-layer="svg9" />
  <metadata
     id="metadata1">
    <rdf:RDF>
      <cc:Work
         rdf:about="">
        <dc:format>image/svg+xml</dc:format>
        <dc:type
           rdf:resource="http://purl.org/dc/dcmitype/StillImage" />
        <dc:title />
      </cc:Work>
    </rdf:RDF>
  </metadata>
  <rect
     x="1.1905"
     y="-15.742558"
     width="14.552"
     height="14.552"
     ry="3.4395001"
     stroke-opacity="0.95294"
     stroke-width="0.083152"
     id="rect6-3"
     transform="rotate(90)"
     style="fill:#865e3c;fill-opacity:1" />
  <path
     d="M 3.401642,1.4153966 C 2.10647,1.9079916 1.190441,3.1579736 1.190441,4.6300436 v 7.6728204 c 0,1.47215 0.916029,2.722264 2.211201,3.214647 V 1.4151326 Z"
     id="path6"
     style="fill:#454b55;fill-opacity:1" />
  <g
     transform="matrix(.91479 0 0 .91479 1.3124 1.2036)"
     fill="#f6f5f4"
     id="g5">
    <g
       stroke-width=".13229"
       id="g3">
      <path
         d="m12.171 8.7302v0.39171c0.33469 0.40203 0.52916 0.85181 0.52916 1.4603 0 0.60853-0.20637 1.0583-0.52916 1.4602v0.39184h0.36551c0.38774-0.43404 0.6928-1.1075 0.6928-1.852 0-0.74465-0.26458-1.3684-0.68394-1.852zm-1.4676 0.26458-0.7854 0.7936h-0.65735v1.5873h0.65735l0.80432 0.79387 0.12581-2.64e-4v-3.1747zm0.93846 0.26458v0.52916c0.16047 0.20862 0.26458 0.46539 0.26458 0.79373s-0.10411 0.58723-0.26458 0.79374v0.52916h0.26458c0.32358-0.26326 0.52916-0.76026 0.52916-1.3229 0-0.57334-0.19552-1.0636-0.52916-1.3229zm-0.52916 0.52916v1.5875h0.26458c0.1778-0.22145 0.26458-0.46116 0.26458-0.79374 0-0.33271-0.08242-0.5863-0.26458-0.79373z"
         color="#bebebe"
         overflow="visible"
         id="path1" />
      <path
         d="m7.4166 8.731a0.25532 0.25532 0 0 1 0.25624 0.25624v0.016538c-0.0045 1.7497-1.4242 3.1667-3.1749 3.1667h-0.0082c-0.1442 0-0.25638-0.118-0.25638-0.26458v-0.79373c0-0.14658 0.118-0.26458 0.26458-0.26458h0.52916c0.14658 0 0.26458 0.118 0.26458 0.26458v0.12395a2.3726 2.3726 0 0 0 1.447-1.4468h-0.12409c-0.14658 0-0.26458-0.118-0.26458-0.26458v-0.52916c0-0.14658 0.118-0.26458 0.26458-0.26458h0.80194z"
         id="path2" />
      <path
         d="m5.1593 3.7052a0.66145 0.66145 0 0 0 0 1.3229c0.118 0 0.22648-0.036777 0.32252-0.091015l0.52082 0.48788-0.52095 0.48775c-0.09591-0.054239-0.20439-0.090883-0.32239-0.090883a0.66145 0.66145 0 1 0 0.66145 0.66145c0-0.06072-0.00953-0.11787-0.024738-0.1737l0.56223-0.54569 1.1823 1.1163h0.39687v-0.26458l-2.1415-2.0754a0.65086 0.65086 0 0 0 0.02487-0.17356 0.66145 0.66145 0 0 0-0.66145-0.66145zm0 0.39687a0.26458 0.26458 0 1 1 0 0.52916 0.26458 0.26458 0 0 1 0-0.52916zm2.3812-0.13229-1.0418 0.98383 0.34726 0.33906 1.0914-1.0583v-0.26458zm-2.3812 2.2489a0.26458 0.26458 0 1 1 0 0.52916 0.26458 0.26458 0 0 1 0-0.52916z"
         color="#000000"
         overflow="visible"
         solid-color="#000000"
         style="isolation:auto;mix-blend-mode:normal"
         id="path3" />
    </g>
    <g
       transform="scale(.13229)"
       id="g4">
      <path
         d="m86.02 26.038a1.997 1.997 0 0 0-1.196 0.37l-13.98 9.986a1.998 1.998 0 0 0-0.835 1.626h-2e-3v1.997h1.947a1.998 1.998 0 0 0 0.025 0h0.025a1.998 1.998 0 0 0 1.162-0.37l0.834-0.597v10.953a1.997 1.997 0 0 0 1.998 1.997h19.971a1.997 1.997 0 0 0 1.997-1.997v-10.955l0.838 0.599a1.998 1.998 0 0 0 1.16 0.37h1.997v-1.97a1.998 1.998 0 0 0-0.836-1.653l-13.98-9.986a1.997 1.997 0 0 0-1.123-0.37zm-0.038 4.45 7.989 5.707v11.81h-5.991v-7.988h-5.992v7.989h-3.994v-11.81z"
         color="#000000"
         font-family="sans-serif"
         font-weight="400"
         overflow="visible"
         solid-color="#000000"
         style="font-feature-settings:normal;font-variant-alternates:normal;font-variant-caps:normal;font-variant-ligatures:normal;font-variant-numeric:normal;font-variant-position:normal;isolation:auto;mix-blend-mode:normal;shape-padding:0;text-decoration-color:#000000;text-decoration-line:none;text-decoration-style:solid;text-indent:0;text-orientation:mixed;text-transform:none;white-space:normal"
         id="path4" />
    </g>
  </g>
  <g
     fill="#ffffff"
     stroke-width="0.090253"
     id="g9"
     transform="translate(-0.48769297)">
    <rect
       x="3.1749001"
       y="2.1166"
       width="0.26458001"
       height="2.1166"
       rx="0.13229001"
       ry="0.13229001"
       opacity="0.15"
       id="rect5" />
    <rect
       x="3.1749001"
       y="4.7624002"
       width="0.26458001"
       height="2.1166"
       rx="0.13229001"
       ry="0.13229001"
       opacity="0.15"
       id="rect6" />
    <rect
       x="3.1749001"
       y="7.4081998"
       width="0.26458001"
       height="2.1166"
       rx="0.13229001"
       ry="0.13229001"
       opacity="0.15"
       id="rect7" />
    <rect
       x="3.1749001"
       y="10.054"
       width="0.26458001"
       height="2.1166"
       rx="0.13229001"
       ry="0.13229001"
       opacity="0.15"
       id="rect8" />
    <rect
       x="3.1749001"
       y="12.7"
       width="0.26458001"
       height="2.1166"
       rx="0.13229001"
       ry="0.13229001"
       opacity="0.15"
       id="rect9" />
  </g>
</svg>
