<?xml version="1.0" encoding="UTF-8" standalone="no"?>
<svg
   width="64"
   height="64"
   version="1.1"
   viewBox="0 0 16.933 16.933"
   id="svg5"
   sodipodi:docname="jdownloader.svg"
   inkscape:version="1.3.2 (091e20ef0f, 2023-11-25, custom)"
   xmlns:inkscape="http://www.inkscape.org/namespaces/inkscape"
   xmlns:sodipodi="http://sodipodi.sourceforge.net/DTD/sodipodi-0.dtd"
   xmlns="http://www.w3.org/2000/svg"
   xmlns:svg="http://www.w3.org/2000/svg"
   xmlns:rdf="http://www.w3.org/1999/02/22-rdf-syntax-ns#"
   xmlns:cc="http://creativecommons.org/ns#"
   xmlns:dc="http://purl.org/dc/elements/1.1/">
  <defs
     id="defs5">
    <linearGradient
       id="linearGradient1115"
       x1="-29.448"
       x2="-29.448"
       y1="4.6371002"
       y2="59.493999"
       gradientTransform="matrix(0.26458,0,0,0.26458,16.852171,-1.1033733e-4)"
       gradientUnits="userSpaceOnUse">
      <stop
         stop-color="#fff"
         offset="0"
         id="stop1" />
      <stop
         stop-color="#ccd4da"
         offset="1"
         id="stop2-3" />
    </linearGradient>
  </defs>
  <sodipodi:namedview
     id="namedview5"
     pagecolor="#ffffff"
     bordercolor="#000000"
     borderopacity="0.25"
     inkscape:showpageshadow="2"
     inkscape:pageopacity="0.0"
     inkscape:pagecheckerboard="0"
     inkscape:deskcolor="#d1d1d1"
     inkscape:zoom="6.15625"
     inkscape:cx="24.527919"
     inkscape:cy="38.010152"
     inkscape:window-width="1920"
     inkscape:window-height="995"
     inkscape:window-x="0"
     inkscape:window-y="0"
     inkscape:window-maximized="1"
     inkscape:current-layer="svg5" />
  <metadata
     id="metadata1">
    <rdf:RDF>
      <cc:Work
         rdf:about="">
        <dc:format>image/svg+xml</dc:format>
        <dc:type
           rdf:resource="http://purl.org/dc/dcmitype/StillImage" />
        <dc:title />
      </cc:Work>
    </rdf:RDF>
  </metadata>
  <rect
     x="1.1905"
     y="1.1905"
     width="14.552"
     height="14.552"
     ry="3.4396"
     fill="url(#linearGradient1115)"
     image-rendering="optimizeSpeed"
     stroke-width="0.12512"
     id="rect2"
     style="fill:url(#linearGradient1115)" />
  <g
     id="g5"
     transform="translate(0.30084317,0.50801821)">
    <circle
       cx="8.1656303"
       cy="7.9584818"
       r="5.4449897"
       fill="#0f2228"
       style="stroke-width:0.762219;paint-order:stroke fill markers"
       id="circle1" />
    <path
       d="m 5.8202049,3.0499422 a 5.4449895,5.4449895 0 0 0 -0.426073,0.2286353 h 0.055808 l 0.028312,0.090933 -0.080315,0.074977 0.3430368,0.00958 0.052545,0.1238987 L 5.40747,3.5635949 5.3884115,3.4684166 5.1635339,3.4194935 A 5.4449895,5.4449895 0 0 0 4.9332065,3.5843387 h 0.1344936 v 0.089873 l -0.059079,0.078676 H 4.726844 V 3.741208 A 5.4449895,5.4449895 0 0 0 3.0285433,6.1713916 l 0.02976,0.014157 v 0.4546562 l 0.228117,0.3909499 0.186111,0.028586 L 3.4964628,6.9257959 3.2768675,6.587119 3.2343113,6.257421 h 0.1281519 l 0.054228,0.3392257 0.3169231,0.463094 -0.081352,0.1494635 0.2015156,0.3090037 0.5003664,0.1244171 V 7.56122 l 0.1998311,0.028586 -0.018514,0.1432058 0.1568189,0.028586 0.2431175,0.066429 0.3430368,0.3920398 0.4385962,0.032942 0.042468,0.3582811 -0.2997504,0.2101744 -0.013884,0.3201626 -0.04302,0.1954787 0.4336951,0.544499 0.032942,0.1862176 c 0,0 0.1573601,0.04301 0.17669,0.04301 0.019059,0 0.3525645,0.253194 0.3525645,0.253194 v 0.983644 l 0.1189748,0.03348 -0.080856,0.453566 0.2001054,0.267623 -0.036757,0.449755 0.2643529,0.465823 0.3370457,0.294575 a 5.4449895,5.4449895 0 0 0 0.017971,0.0032 l 0.3261536,0.0057 0.032942,-0.109988 -0.2504729,-0.211539 0.014436,-0.105362 0.044651,-0.128777 0.00953,-0.131223 -0.1696091,-0.0054 -0.085757,-0.107267 0.1410259,-0.136125 0.019058,-0.102092 -0.1573602,-0.04519 0.00953,-0.09529 0.2237875,-0.03403 0.3408569,-0.164166 0.1143405,-0.210175 0.3574656,-0.458193 -0.080856,-0.35854 0.109447,-0.190844 0.328608,0.01007 0.2213408,-0.175875 0.071876,-0.69179 L 9.0855894,9.55733 9.1286,9.3564209 8.9048048,9.2845436 8.7569724,9.0419978 8.2516744,9.0368528 7.8514636,8.8835781 7.8326771,8.5977154 7.6987324,8.3635769 7.3366401,8.3584091 7.1278225,8.0292599 6.9416047,7.9383272 6.9320793,8.0382465 6.5939436,8.0583889 6.4698009,7.8855099 6.1175108,7.8139071 5.8264726,8.1504116 5.3693621,8.0728177 5.3355965,7.5558196 5.0018207,7.4989192 5.1357655,7.2454508 5.0973763,7.0997983 4.6587801,7.3938244 4.3827196,7.3603416 4.2844619,7.1439019 4.3445476,6.9209299 4.4965189,6.6402426 4.8471779,6.462737 5.5234493,6.4621925 5.5218334,6.6691045 5.7649508,6.7823627 5.7456202,6.429257 5.9206791,6.2520257 6.2743336,6.0197928 6.2988382,5.8559004 6.6514027,5.4880915 7.0260182,5.2800895 6.9930759,5.2525924 7.246811,5.0132861 7.339916,5.0375171 7.382936,5.0914231 7.479311,4.9838816 7.502449,4.9738086 7.3973615,4.9588339 7.28982,4.9228968 V 4.8196847 l 0.056896,-0.046283 h 0.1249582 l 0.057447,0.025047 0.049547,0.1004605 0.060983,-0.00898 v -0.00926 l 0.017148,0.00599 0.1758745,-0.026681 0.025049,-0.086032 0.099919,0.025047 v 0.09338 l -0.092564,0.063978 0.013884,0.1020916 0.3179903,0.098281 c 0,0 5.447e-4,0.00163 0.00111,0.00436 l 0.0735,-0.00653 L 8.2761881,5.016248 8.0238097,4.9010843 8.0093817,4.8349283 8.2187404,4.7633262 8.2279938,4.5621308 8.0093588,4.4287271 7.9949308,4.0900503 7.6946392,4.2378827 H 7.5849406 L 7.613799,3.9799782 7.2054248,3.8831916 7.036357,4.0113664 V 4.4017751 L 6.7319799,4.4984245 6.610284,4.7532496 6.4779704,4.774485 V 4.4483314 L 6.1923821,4.4091274 6.0494507,4.3160147 5.9920038,4.104941 6.5030184,3.8050306 l 0.2499241,-0.076039 0.025321,0.1680312 0.1393947,-0.00691 0.010621,-0.08453 0.1456525,-0.021263 0.00272,-0.029266 -0.062615,-0.026054 -0.014435,-0.089843 0.1791368,-0.014892 0.1078083,-0.1132582 0.00595,-0.00798 0.00162,5.172e-4 0.032942,-0.03403 L 7.7035801,3.4216522 7.8699268,3.5636308 7.4335105,3.7965421 7.9891684,3.9278725 8.060772,3.7417614 H 8.3038971 L 8.3894638,3.5795764 8.218216,3.5365064 V 3.331256 L 7.6797081,3.0919725 7.3080881,3.1350425 7.098455,3.2451146 7.112883,3.5125697 6.8931809,3.4790824 6.8596944,3.3312499 7.0698687,3.1398338 6.6884466,3.121212 l -0.1094471,0.03297 -0.04737,0.1286931 0.1423902,0.024448 -0.02804,0.1430381 -0.2431174,0.014348 -0.037573,0.095209 -0.3525645,0.0101 c 0,0 -0.00981,-0.2004866 -0.023961,-0.2004866 -0.014156,2.73e-5 0.2760605,-0.00476 0.2760605,-0.00476 L 6.4747317,3.1589762 6.3603836,3.101559 6.2079245,3.2499097 5.9552793,3.2355343 Z m 5.9026261,0.7896591 -0.173154,0.068062 -0.111352,0.121231 0.02559,0.1414602 0.136666,0.019058 0.08195,0.2063633 0.235496,-0.095285 0.03893,0.2755194 h -0.07079 l -0.193565,-0.028586 -0.21426,0.036209 -0.207453,0.2934849 -0.296755,0.046828 -0.04301,0.2545507 0.125507,0.029131 -0.0362,0.1638924 -0.294575,-0.059078 -0.27007,0.059078 -0.05745,0.1505535 0.04682,0.3163515 0.15845,0.074324 0.265992,-0.00163 0.179685,-0.015791 0.05472,-0.1434726 0.280687,-0.3653622 0.185128,0.037571 0.181865,-0.164708 0.03403,0.128777 0.447575,0.3030126 -0.05472,0.073235 -0.202011,-0.010618 0.07759,0.1102626 0.124417,0.026953 0.145111,-0.060439 -0.003,-0.1756001 0.0648,-0.032397 -0.05202,-0.055267 -0.298912,-0.1668879 -0.07813,-0.221882 h 0.248293 l 0.07922,0.078684 0.213719,0.1851278 0.009,0.2232464 0.221882,0.2360441 0.08222,-0.3237069 0.153275,-0.084126 0.02858,0.2649017 0.150013,0.164708 0.0697,-0.00109 A 5.4449895,5.4449895 0 0 0 12.403996,4.5435901 l -0.361003,-0.00326 -0.0245,-0.081672 0.214809,-0.1097138 A 5.4449895,5.4449895 0 0 0 11.722831,3.8395891 Z m -6.6597385,0.056356 c 0.010621,0 0,0.1249659 0,0.1249659 l -0.2825928,0.018077 -0.053633,-0.064333 0.2001054,-0.057445 c 0,0 0.1252326,-0.021263 0.1361248,-0.021263 z M 5.406396,4.5046811 5.5419796,4.5373506 5.4951527,4.7197572 5.3484102,4.7663121 5.2558463,4.5760088 Z m 0.37162,0.4328795 h 0.225152 v 0.068607 H 6.052442 V 5.1243265 H 5.70968 l -0.1282281,-0.035664 0.031855,-0.082495 z m 0.3356814,0.050638 0.1178848,0.1072671 -0.1178848,0.028858 z m 0.2594518,0.1647079 0.087122,0.054722 -0.069972,0.057989 -0.069149,-0.057989 z M 5.713761,5.1711473 H 5.9029743 L 5.6601312,5.5109142 5.5602195,5.4570085 5.5814534,5.3140771 Z m 0.3041026,0 h 0.1924832 v 0.1143481 l -0.08549,0.055267 -0.1069927,0.020147 z m 0.2393063,0.125507 h 0.014435 l 0.218071,0.064251 V 5.4719838 H 6.3072691 L 6.2571715,5.3998382 Z M 6.1673272,5.399836 V 5.5114553 L 6.085381,5.5936759 H 5.9029743 l 0.028856,-0.1249658 0.086032,-0.00735 0.017699,-0.043016 z m 5.6682438,0.4731704 -0.643329,0.049822 -0.199289,0.1075415 h -0.255374 l -0.125507,-0.0128 -0.30982,0.1728789 V 6.5152455 L 9.6679106,6.9737128 9.720458,7.1694583 h 0.1287769 l -0.033484,0.1859434 -0.090384,0.033487 -0.00541,0.4870581 0.5483101,0.6253551 h 0.238216 l 0.0147,-0.037843 h 0.428794 L 11.073275,8.348844 h 0.243392 l 0.132855,0.1339448 0.362908,0.03757 -0.04791,0.4829726 0.401842,0.7113868 -0.211539,0.4056528 0.01444,0.191119 0.166347,0.166888 v 0.459283 l 0.219161,0.295116 v 0.201195 A 5.4449895,5.4449895 0 0 0 13.610673,7.9584048 5.4449895,5.4449895 0 0 0 13.379263,6.4030202 H 13.108645 L 12.83013,6.1950181 12.537186,6.2238765 v 0.1791368 h -0.09311 l -0.09991,-0.071872 -0.508567,-0.1290438 z"
       fill="#5d9c21"
       stroke-width="0.194465"
       id="path1" />
    <circle
       cx="8.1656303"
       cy="7.9584818"
       r="4.2349663"
       fill="#ffffff"
       opacity="0.15"
       stroke-width="0.592839"
       style="paint-order:stroke fill markers"
       id="circle2" />
    <circle
       cx="8.1500015"
       cy="7.9836831"
       r="3.0250194"
       fill="#ffffff"
       opacity="0.15"
       stroke-width="0.423459"
       style="paint-order:stroke fill markers"
       id="circle3" />
    <path
       d="M 10.966404,3.2972061 C 11.471893,5.3457466 11.219431,7.1839146 10.413399,8.7150606 9.4709912,10.505285 7.7373235,11.907845 5.4124023,12.648874 a 5.4449895,5.4449895 0 0 0 2.4448945,0.739117 C 9.6097151,12.456101 10.994972,11.117568 11.859177,9.4759765 12.533695,8.1946859 12.874529,6.7395331 12.845565,5.1875022 A 5.4449895,5.4449895 0 0 0 10.966389,3.2971985 Z"
       fill="#eab100"
       stroke-width="0.194465"
       id="path3" />
    <path
       d="m 8.1656754,2.5134923 c -0.5776375,0.00237 -1.1512014,0.096633 -1.6992139,0.2792698 1.2130328,1.1075806 2.5024978,3.2797262 3.4503373,5.6668699 0.4657922,1.1729614 0.8031422,2.413159 1.1832262,3.546533 0,0 0.195307,0.387525 0.09059,-0.01418 l 0.761378,-0.121316 c 0.851966,-0.08035 0.851966,-0.282012 0.657397,-0.771218 C 12.296727,10.030168 11.923581,8.9230509 11.491164,7.8342455 10.706736,5.8588876 9.7784182,3.9519354 8.6145722,2.5362263 8.4652693,2.5225639 8.3154583,2.5150733 8.1655383,2.5137746 Z"
       fill="#ffd517"
       id="path4"
       style="stroke-width:0.201668" />
  </g>
  <path
     d="m 14.032748,11.61184 a 0.2664871,0.3729234 75.748 0 0 -0.107663,0.009 l -3.701489,0.708933 a 0.2664871,0.3729234 75.748 0 0 -0.2517226,0.130949 0.2664871,0.3729234 75.748 0 0 -0.01213,0.327373 l 1.0804456,0.984407 1.080445,0.984863 a 0.2664871,0.3729234 75.748 0 0 0.633476,-0.121467 l 0.770299,-1.338838 0.77068,-1.339296 a 0.2664871,0.3729234 75.748 0 0 -0.262333,-0.345887 z"
     fill="#ffd517"
     stroke-width="0.201668"
     id="path5" />
</svg>
