<?xml version="1.0" encoding="UTF-8" standalone="no"?>
<svg
   width="64"
   height="64"
   version="1.1"
   id="svg10"
   sodipodi:docname="kdeapp.svg"
   inkscape:version="1.3 (0e150ed6c4, 2023-07-21)"
   xmlns:inkscape="http://www.inkscape.org/namespaces/inkscape"
   xmlns:sodipodi="http://sodipodi.sourceforge.net/DTD/sodipodi-0.dtd"
   xmlns:xlink="http://www.w3.org/1999/xlink"
   xmlns="http://www.w3.org/2000/svg"
   xmlns:svg="http://www.w3.org/2000/svg">
  <defs
     id="defs14">
    <linearGradient
       id="linearGradient1"
       inkscape:collect="always">
      <stop
         style="stop-color:#333333;stop-opacity:1"
         offset="0"
         id="stop13" />
      <stop
         style="stop-color:#484848;stop-opacity:1"
         offset="1"
         id="stop14" />
    </linearGradient>
    <linearGradient
       id="linearGradient873"
       x1="-41.43"
       x2="-41.43"
       y1="-6.3007002"
       y2="9.5742998"
       gradientTransform="matrix(3.4644,0,0,3.4644,260.0698,26.328799)"
       gradientUnits="userSpaceOnUse">
      <stop
         stop-color="#333"
         offset="0"
         id="stop1027" />
      <stop
         stop-color="#484848"
         offset="1"
         id="stop1029" />
    </linearGradient>
    <filter
       id="filter1046"
       x="-0.39750709"
       y="-0.39752041"
       width="1.7950142"
       height="1.9148042"
       color-interpolation-filters="sRGB">
      <feFlood
         flood-color="rgb(0,0,0)"
         flood-opacity=".81109"
         result="flood"
         id="feFlood1016" />
      <feComposite
         in="flood"
         in2="SourceGraphic"
         operator="in"
         result="composite1"
         id="feComposite1018" />
      <feGaussianBlur
         in="composite1"
         result="blur"
         stdDeviation="2.4793367866847822"
         id="feGaussianBlur1020" />
      <feOffset
         dx="0"
         dy="2.3952680811036746"
         result="offset"
         id="feOffset1022" />
      <feComposite
         in="SourceGraphic"
         in2="offset"
         result="composite2"
         id="feComposite1024" />
    </filter>
    <linearGradient
       id="linearGradient982"
       x1="3.9686999"
       x2="3.9686999"
       y1="8.9776001"
       y2="0.54084998"
       gradientTransform="matrix(3.46461,0,0,3.46461,2.666094,2.6660938)"
       gradientUnits="userSpaceOnUse">
      <stop
         stop-color="#464646"
         offset="0"
         id="stop1" />
      <stop
         stop-color="#a4a4a4"
         offset="1"
         id="stop2" />
    </linearGradient>
    <linearGradient
       id="linearGradient950"
       x1="3.9686999"
       x2="3.9686999"
       y1="16.169001"
       y2="0.54084998"
       gradientTransform="matrix(3.023606,0,0,3.023606,6.400001,6.4000004)"
       gradientUnits="userSpaceOnUse">
      <stop
         stop-color="#212427"
         offset="0"
         id="stop3" />
      <stop
         stop-color="#111d22"
         offset="1"
         id="stop4" />
    </linearGradient>
    <linearGradient
       id="linearGradient16450"
       x1="66.500999"
       x2="66.500999"
       y1="32.070999"
       y2="105.31"
       gradientTransform="matrix(0.11127,0,0,0.11127,1.4271,1.2298)"
       gradientUnits="userSpaceOnUse">
      <stop
         stop-color="#f35f38"
         offset="0"
         id="stop5" />
      <stop
         stop-color="#d98775"
         offset="1"
         id="stop6" />
    </linearGradient>
    <linearGradient
       id="linearGradient16452"
       x1="-17.132999"
       x2="91.400002"
       y1="34.298"
       y2="83.183998"
       gradientTransform="matrix(0.11127,0,0,0.11127,1.2992,1.3725)"
       gradientUnits="userSpaceOnUse">
      <stop
         stop-color="#f3f038"
         offset="0"
         id="stop7" />
      <stop
         stop-color="#f3f038"
         stop-opacity="0"
         offset="1"
         id="stop8" />
    </linearGradient>
    <linearGradient
       id="linearGradient16454"
       x1="17.035"
       x2="17.035"
       y1="20.052999"
       y2="27.336"
       gradientTransform="matrix(0.42057,0,0,0.42057,1.2993,1.3725)"
       gradientUnits="userSpaceOnUse">
      <stop
         stop-color="#12a1f4"
         offset="0"
         id="stop9" />
      <stop
         stop-color="#2fc5f5"
         stop-opacity=".98182"
         offset="1"
         id="stop10" />
    </linearGradient>
    <linearGradient
       id="linearGradient16456"
       x1="59.966999"
       x2="63.122002"
       y1="71.892998"
       y2="81.852997"
       gradientTransform="matrix(0.11127,0,0,0.11127,1.2993,1.3725)"
       gradientUnits="userSpaceOnUse">
      <stop
         stop-color="#54cbf7"
         offset="0"
         id="stop11" />
      <stop
         stop-color="#54cbf7"
         stop-opacity="0"
         offset="1"
         id="stop12" />
    </linearGradient>
    <linearGradient
       inkscape:collect="always"
       xlink:href="#linearGradient1"
       id="linearGradient14"
       x1="32"
       y1="4.4996166"
       x2="32"
       y2="59.500381"
       gradientUnits="userSpaceOnUse" />
  </defs>
  <sodipodi:namedview
     id="namedview12"
     pagecolor="#ffffff"
     bordercolor="#999999"
     borderopacity="1"
     inkscape:showpageshadow="0"
     inkscape:pageopacity="0"
     inkscape:pagecheckerboard="0"
     inkscape:deskcolor="#d1d1d1"
     showgrid="false"
     inkscape:zoom="4.695631"
     inkscape:cx="36.842759"
     inkscape:cy="40.463146"
     inkscape:window-width="1920"
     inkscape:window-height="941"
     inkscape:window-x="0"
     inkscape:window-y="34"
     inkscape:window-maximized="1"
     inkscape:current-layer="svg10" />
  <rect
     x="4.4996171"
     y="4.4996166"
     width="55.000767"
     height="55.000767"
     ry="12.999942"
     stroke-opacity="0.95294"
     stroke-width="0.314281"
     id="rect12"
     style="fill:url(#linearGradient14);fill-opacity:1" />
  <rect
     x="7.999907"
     y="7.9999061"
     width="48.000946"
     height="48.000946"
     ry="10.000072"
     stroke-opacity="0.95294"
     stroke-width="0.274278"
     id="rect13"
     style="fill:#202020;fill-opacity:1" />
  <g
     id="g15"
     transform="translate(-87.70471,2.09e-4)">
    <path
       d="m 108.50917,19.33295 c -0.16613,-0.008 -0.32658,0.04181 -0.45878,0.174029 l -2.86605,2.86605 c -0.26443,0.264424 -0.26443,0.690065 0,0.95449 l 2.96109,4.651155 c -0.23699,0.478157 -0.44222,0.97142 -0.61436,1.47663 l -5.37894,1.19444 c -0.37395,0 -0.675,0.30105 -0.675,0.675 v 4.05 c 0,0.37395 0.30996,0.593878 0.675,0.675 l 5.38151,1.197072 c 0.16667,0.500202 0.36572,0.989037 0.5959,1.4634 l -2.96636,4.661685 c -0.20077,0.315495 -0.26442,0.690066 0,0.95449 l 2.86349,2.86605 c 0.26442,0.264425 0.69006,0.264425 0.95449,0 l 4.66168,-2.96892 c 0.48224,0.240219 0.97992,0.448106 1.48973,0.622269 l 1.19444,5.37894 c 0,0.37395 0.30105,0.675 0.675,0.675 h 4.05 c 0.37395,0 0.59388,-0.30996 0.675,-0.675 l 1.19707,-5.381505 c 0.50764,-0.169236 1.00354,-0.37183 1.48446,-0.606447 l 4.64063,2.955825 c 0.26442,0.264425 0.69006,0.264425 0.95449,0 l 2.86605,-2.86605 c 0.26442,-0.264424 0.20077,-0.639009 0,-0.95449 l -1.26563,-1.988145 -0.94395,0.377055 -3.02427,-4.53519 c -1.52415,3.38904 -4.89294,5.570235 -8.60895,5.574015 -5.2191,0 -9.45,-4.2309 -9.45,-9.45 0.004,-3.64608 2.10573,-6.964515 5.4,-8.52714 v -2.905605 c -0.45424,0.155466 -0.89887,0.337716 -1.33154,0.545805 l -4.64063,-2.955825 c -0.15774,-0.100387 -0.32956,-0.166064 -0.4957,-0.174029 z"
       fill="#ffffff"
       id="path14"
       style="stroke-width:0.999999" />
    <path
       d="m 123.07702,13.1 -6.75,0.624902 v 26.37495 l 6.75,-1.35 V 27.949851 l 8.1,12.150001 6.75,-2.7 -8.775,-11.359035 8.78027,-11.590965 -7.06901,-1.35 -7.78626,11.474999 z"
       fill="#ffffff"
       id="path15"
       style="stroke-width:0.999999" />
  </g>
</svg>
