<?xml version="1.0" encoding="UTF-8" standalone="no"?>
<svg
   width="64"
   height="64"
   version="1.1"
   viewBox="0 0 16.933 16.933"
   id="svg14"
   sodipodi:docname="keepassxc.svg"
   xml:space="preserve"
   inkscape:version="1.3 (0e150ed6c4, 2023-07-21)"
   xmlns:inkscape="http://www.inkscape.org/namespaces/inkscape"
   xmlns:sodipodi="http://sodipodi.sourceforge.net/DTD/sodipodi-0.dtd"
   xmlns:xlink="http://www.w3.org/1999/xlink"
   xmlns="http://www.w3.org/2000/svg"
   xmlns:svg="http://www.w3.org/2000/svg"><defs
     id="defs18"><linearGradient
       inkscape:collect="always"
       id="linearGradient7126"><stop
         style="stop-color:#327931;stop-opacity:1"
         offset="0"
         id="stop7122" /><stop
         style="stop-color:#6aae45;stop-opacity:1"
         offset="1"
         id="stop7124" /></linearGradient><linearGradient
       inkscape:collect="always"
       xlink:href="#linearGradient7126"
       id="linearGradient7128"
       x1="8.4665003"
       y1="1.9275312"
       x2="8.4665003"
       y2="15.005469"
       gradientUnits="userSpaceOnUse" /><linearGradient
       id="linearGradient1448"
       x1="3.9686999"
       x2="3.9686999"
       y1="16.378"
       y2="0.54084998"
       gradientTransform="matrix(0.91666,0,0,0.91666,0.70542041,0.70542001)"
       gradientUnits="userSpaceOnUse"><stop
         stop-color="#43474b"
         offset="0"
         id="stop3" /><stop
         stop-color="#6c7277"
         offset="1"
         id="stop4" /></linearGradient></defs><sodipodi:namedview
     id="namedview16"
     pagecolor="#ffffff"
     bordercolor="#999999"
     borderopacity="1"
     inkscape:showpageshadow="0"
     inkscape:pageopacity="0"
     inkscape:pagecheckerboard="0"
     inkscape:deskcolor="#d1d1d1"
     showgrid="false"
     inkscape:zoom="6.640625"
     inkscape:cx="8.5835294"
     inkscape:cy="15.962353"
     inkscape:window-width="1920"
     inkscape:window-height="941"
     inkscape:window-x="0"
     inkscape:window-y="34"
     inkscape:window-maximized="1"
     inkscape:current-layer="svg14" /><rect
     x="1.1905"
     y="1.1905"
     width="14.552"
     height="14.552"
     ry="3.4395001"
     fill="url(#linearGradient1448)"
     stroke-opacity="0.95294"
     stroke-width="0.083152"
     id="rect6"
     style="fill:url(#linearGradient1448)" /><g
     id="g1"
     transform="matrix(0.84154211,0,0,0.84154211,1.3415835,1.3415843)"><circle
       cx="8.4665003"
       cy="8.4664993"
       r="7.2311258"
       style="fill:#ffffff;fill-opacity:1;stroke-width:1.01225;paint-order:stroke markers fill"
       id="circle320" /><circle
       style="opacity:1;fill:url(#linearGradient7128);fill-opacity:1;fill-rule:evenodd;stroke-width:1.26422;stroke-linecap:round;stroke-linejoin:round;paint-order:stroke fill markers"
       id="path6583"
       cx="8.4665003"
       cy="8.4665003"
       r="6.538969" /><path
       id="path6"
       style="fill:#ffffff;fill-rule:evenodd;stroke-width:1.23556"
       d="m 10.412596,1.5022043 a 7.2311258,7.2311258 0 0 0 -0.0067,-0.00207 7.2311258,7.2311258 0 0 0 -0.135407,-0.03617 A 7.2311258,7.2311258 0 0 0 10.134066,1.4303755 7.2311258,7.2311258 0 0 0 9.9971258,1.3993702 7.2311258,7.2311258 0 0 0 9.8601859,1.3709488 7.2311258,7.2311258 0 0 0 9.7222126,1.3451111 7.2311258,7.2311258 0 0 0 9.5837225,1.3223739 7.2311258,7.2311258 0 0 0 9.4452324,1.3017037 7.2311258,7.2311258 0 0 0 9.3062255,1.2841341 7.2311258,7.2311258 0 0 0 9.1667019,1.2691482 7.2311258,7.2311258 0 0 0 9.0266615,1.2572628 7.2311258,7.2311258 0 0 0 8.8871379,1.2474445 7.2311258,7.2311258 0 0 0 8.7470975,1.2407267 7.2311258,7.2311258 0 0 0 8.6065404,1.2365927 7.2311258,7.2311258 0 0 0 8.4665,1.2355592 7.2311258,7.2311258 0 0 0 8.0458621,1.2474442 7.2311258,7.2311258 0 0 0 7.6267745,1.2841342 7.2311258,7.2311258 0 0 0 7.2107874,1.3451112 7.2311258,7.2311258 0 0 0 6.7989344,1.4303752 7.2311258,7.2311258 0 0 0 6.4558096,1.5223572 2.5344478,2.5344478 0 0 0 5.9302706,3.0638349 2.5444479,2.5444479 0 0 0 7.3017361,5.327218 v 5.09778 l 1.1399597,0.685216 c 0.01,-3.6688907 0.017647,-5.4863261 0.016536,-5.5018817 h 0.00878 A 2.5411145,2.5411145 0 0 0 10.412596,1.5022043 Z M 8.4582319,1.2784498 c 0.4166669,0 0.7523941,0.3352104 0.7523941,0.7518773 A 0.750001,0.750001 0 0 1 8.4582319,2.7827211 0.750001,0.750001 0 0 1 7.7068714,2.0303271 c 0,-0.4166669 0.3346938,-0.7518773 0.7513605,-0.7518773 z" /><path
       d="M 8.4414997,11.108238 9.6115012,10.424904 V 9.8137917 L 9.0892783,9.2560129 9.6115012,8.7937899 V 8.6193459 L 9.0848338,8.0749009 9.6115012,7.5115659 9.0803894,6.9404544 9.6115012,6.4304538 V 5.3004522 c -0.2744448,0.1222224 -0.7244454,0.285556 -1.1600015,0.2788893 0,0 -0.00778,1.8400024 -0.011111,5.5288965 z"
       opacity="0.6"
       id="path8"
       style="fill:#ffffff;fill-rule:evenodd;stroke-width:1.23556" /></g></svg>
