<?xml version="1.0" encoding="UTF-8" standalone="no"?>
<!-- Created with Inkscape (http://www.inkscape.org/) -->

<svg
   width="64"
   height="64"
   version="1.1"
   viewBox="0 0 16.933 16.933"
   id="svg19"
   sodipodi:docname="mate-tweak.svg"
   inkscape:version="1.3.2 (091e20ef0f, 2023-11-25, custom)"
   xmlns:inkscape="http://www.inkscape.org/namespaces/inkscape"
   xmlns:sodipodi="http://sodipodi.sourceforge.net/DTD/sodipodi-0.dtd"
   xmlns:xlink="http://www.w3.org/1999/xlink"
   xmlns="http://www.w3.org/2000/svg"
   xmlns:svg="http://www.w3.org/2000/svg">
  <sodipodi:namedview
     id="namedview19"
     pagecolor="#ffffff"
     bordercolor="#000000"
     borderopacity="0.25"
     inkscape:showpageshadow="2"
     inkscape:pageopacity="0.0"
     inkscape:pagecheckerboard="0"
     inkscape:deskcolor="#d1d1d1"
     inkscape:zoom="4.3531261"
     inkscape:cx="-50.308673"
     inkscape:cy="22.282837"
     inkscape:window-width="1920"
     inkscape:window-height="995"
     inkscape:window-x="0"
     inkscape:window-y="0"
     inkscape:window-maximized="1"
     inkscape:current-layer="svg19" />
  <defs
     id="defs11">
    <linearGradient
       id="g-7-9"
       x1="32"
       x2="32"
       y1="16"
       y2="48"
       gradientTransform="matrix(0.46299473,0,0,0.46299473,-33.092819,-6.3499556)"
       gradientUnits="userSpaceOnUse">
      <stop
         stop-color="#333"
         offset="0"
         id="stop1" />
      <stop
         stop-color="#484848"
         offset="1"
         id="stop2" />
    </linearGradient>
    <filter
       id="n-6"
       x="-0.059999251"
       y="-0.059999251"
       width="1.1199985"
       height="1.1199985"
       color-interpolation-filters="sRGB">
      <feGaussianBlur
         stdDeviation="0.14999813"
         id="feGaussianBlur2" />
    </filter>
    <filter
       id="o-5"
       x="-0.059999251"
       y="-0.059999251"
       width="1.1199985"
       height="1.1199985"
       color-interpolation-filters="sRGB">
      <feGaussianBlur
         stdDeviation="0.14999813"
         id="feGaussianBlur3" />
    </filter>
    <filter
       id="l-3"
       x="-0.059999251"
       y="-0.059999251"
       width="1.1199985"
       height="1.1199985"
       color-interpolation-filters="sRGB">
      <feGaussianBlur
         stdDeviation="0.14999813"
         id="feGaussianBlur4" />
    </filter>
    <linearGradient
       id="e"
       x1="32"
       x2="32"
       y1="40"
       y2="45.333"
       gradientTransform="matrix(0.4983,0,0,0.4983,-36.585,1.9597)"
       gradientUnits="userSpaceOnUse"
       xlink:href="#a-3" />
    <linearGradient
       id="a-3">
      <stop
         stop-color="#a2a2a2"
         offset="0"
         id="stop4" />
      <stop
         stop-color="#d0d0d0"
         offset="1"
         id="stop5" />
    </linearGradient>
    <linearGradient
       id="f"
       x1="32"
       x2="32"
       y1="40"
       y2="45.333"
       gradientTransform="matrix(0.4983,0,0,0.4983,-36.585,-2.2893)"
       gradientUnits="userSpaceOnUse"
       xlink:href="#a-3" />
    <linearGradient
       id="c"
       x1="32"
       x2="32"
       y1="40"
       y2="45.333"
       gradientTransform="matrix(0.4983,0,0,0.4983,-36.585,5.9459)"
       gradientUnits="userSpaceOnUse"
       xlink:href="#a-3" />
    <linearGradient
       id="linearGradient1465-6"
       x1="50.633"
       x2="64.116"
       y1="12.823"
       y2="25.536"
       gradientTransform="matrix(0.33333,0,0,0.33333,3.6953,7.7365)"
       gradientUnits="userSpaceOnUse">
      <stop
         stop-color="#869099"
         offset="0"
         id="stop6" />
      <stop
         stop-color="#4c6068"
         offset="1"
         id="stop7" />
    </linearGradient>
    <linearGradient
       id="linearGradient1481-1"
       x1="55.678"
       x2="61.884"
       y1="6.314"
       y2="12.52"
       gradientTransform="matrix(0.33333,0,0,0.33333,3.3127,11.061)"
       gradientUnits="userSpaceOnUse">
      <stop
         stop-color="#d2d7dc"
         offset="0"
         id="stop8" />
      <stop
         stop-color="#fff"
         offset="1"
         id="stop9" />
    </linearGradient>
    <linearGradient
       id="linearGradient1491-2"
       x1="55.678"
       x2="61.884"
       y1="6.314"
       y2="12.52"
       gradientTransform="matrix(0.23598,0,0,0.23598,9.1263,12.067)"
       gradientUnits="userSpaceOnUse">
      <stop
         stop-color="#006ec8"
         offset="0"
         id="stop10" />
      <stop
         stop-color="#0a327d"
         offset="1"
         id="stop11" />
    </linearGradient>
    <linearGradient
       id="linearGradient1375"
       x1="22.211"
       x2="22.211"
       y1="4.0214"
       y2="59.160999"
       gradientTransform="matrix(0.26458,0,0,0.26458,-1.5e-4,-1.5e-4)"
       gradientUnits="userSpaceOnUse">
      <stop
         stop-color="#333"
         offset="0"
         id="stop1-3" />
      <stop
         stop-color="#484848"
         offset="1"
         id="stop2-6" />
    </linearGradient>
    <linearGradient
       id="linearGradient1052"
       x1="23.5"
       x2="23.5"
       y1="20"
       y2="36"
       gradientTransform="matrix(0.44294,0,0,0.38403,-5.14545,-3.58695)"
       gradientUnits="userSpaceOnUse"
       xlink:href="#b" />
    <linearGradient
       id="b">
      <stop
         stop-color="#3af63a"
         offset="0"
         id="stop3" />
      <stop
         stop-color="#3af68b"
         offset="1"
         id="stop4-7" />
    </linearGradient>
    <linearGradient
       id="linearGradient1050"
       x1="32"
       x2="32"
       y1="30"
       y2="36"
       gradientTransform="matrix(0.44294,0,0,0.38403,-5.73345,-3.58695)"
       gradientUnits="userSpaceOnUse"
       xlink:href="#b" />
    <linearGradient
       id="linearGradient1048"
       x1="40.5"
       x2="40.5"
       y1="26"
       y2="36"
       gradientTransform="matrix(0.44294,0,0,0.38403,-6.32155,-3.58695)"
       gradientUnits="userSpaceOnUse">
      <stop
         stop-color="#0ef1c9"
         offset="0"
         id="stop7-5" />
      <stop
         stop-color="#0e95f1"
         offset="1"
         id="stop8-6" />
    </linearGradient>
    <filter
       id="n-6-2"
       x="-0.059999251"
       y="-0.059999251"
       width="1.1199985"
       height="1.1199985"
       color-interpolation-filters="sRGB">
      <feGaussianBlur
         stdDeviation="0.14999813"
         id="feGaussianBlur6" />
    </filter>
    <filter
       id="o-5-9"
       x="-0.059999251"
       y="-0.059999251"
       width="1.1199985"
       height="1.1199985"
       color-interpolation-filters="sRGB">
      <feGaussianBlur
         stdDeviation="0.14999813"
         id="feGaussianBlur7" />
    </filter>
    <filter
       id="l-3-1"
       x="-0.059999251"
       y="-0.059999251"
       width="1.1199985"
       height="1.1199985"
       color-interpolation-filters="sRGB">
      <feGaussianBlur
         stdDeviation="0.14999813"
         id="feGaussianBlur8" />
    </filter>
    <linearGradient
       id="linearGradient1095"
       x1="32"
       x2="32"
       y1="40"
       y2="45.333"
       gradientTransform="matrix(0.49831,0,0,0.49831,-26.139,-11.396)"
       gradientUnits="userSpaceOnUse"
       xlink:href="#a-3" />
    <linearGradient
       id="linearGradient1097-5"
       x1="32"
       x2="32"
       y1="40"
       y2="45.333"
       gradientTransform="matrix(0.49831,0,0,0.49831,-26.139,-15.646)"
       gradientUnits="userSpaceOnUse"
       xlink:href="#a-3" />
    <linearGradient
       id="linearGradient1099"
       x1="32"
       x2="32"
       y1="40"
       y2="45.333"
       gradientTransform="matrix(0.49831,0,0,0.49831,-26.139,-7.4102)"
       gradientUnits="userSpaceOnUse"
       xlink:href="#a-3" />
    <linearGradient
       inkscape:collect="always"
       xlink:href="#linearGradient1465-6"
       id="linearGradient20"
       gradientUnits="userSpaceOnUse"
       gradientTransform="matrix(0.33333,0,0,0.33333,3.6953,7.7365)"
       x1="50.633"
       y1="12.823"
       x2="64.116"
       y2="25.536" />
    <linearGradient
       inkscape:collect="always"
       xlink:href="#linearGradient1481-1"
       id="linearGradient21"
       gradientUnits="userSpaceOnUse"
       gradientTransform="matrix(0.33333,0,0,0.33333,3.3127,11.061)"
       x1="55.678"
       y1="6.314"
       x2="61.884"
       y2="12.52" />
    <linearGradient
       inkscape:collect="always"
       xlink:href="#linearGradient1491-2"
       id="linearGradient22"
       gradientUnits="userSpaceOnUse"
       gradientTransform="matrix(0.23598,0,0,0.23598,9.1263,12.067)"
       x1="55.678"
       y1="6.314"
       x2="61.884"
       y2="12.52" />
  </defs>
  <path
     d="m 4.63005,1.19045 c -1.9055,0 -3.4396,1.5341 -3.4396,3.4396 v 7.6729 c 0,1.9055 1.5341,3.4396 3.4396,3.4396 h 7.6729 c 1.9055,0 3.4396,-1.5341 3.4396,-3.4396 v -7.6729 c 0,-1.9055 -1.5341,-3.4396 -3.4396,-3.4396 z"
     fill="url(#linearGradient1375)"
     style="fill:url(#linearGradient1375);paint-order:stroke fill markers"
     id="path9" />
  <rect
     x="2.7083499"
     y="2.708256"
     width="11.516"
     height="7.9728999"
     ry="1.6627001"
     fill="#141414"
     image-rendering="optimizeSpeed"
     stroke-width="0.57264"
     style="paint-order:normal"
     id="rect9" />
  <g
     stroke-width="1.5"
     id="g15"
     transform="translate(-1.26635,2.70235)">
    <circle
       transform="matrix(0,-0.44294,0.44294,0,-4.3099,-8.41)"
       cx="-42"
       cy="41"
       r="3"
       filter="url(#n-6)"
       image-rendering="optimizeSpeed"
       opacity="0.15"
       style="paint-order:normal;filter:url(#n-6-2)"
       id="circle12-6" />
    <circle
       transform="matrix(0,-0.44294,0.44294,0,-4.3099,-8.41)"
       cx="-42"
       cy="32"
       r="3"
       filter="url(#o-5)"
       image-rendering="optimizeSpeed"
       opacity="0.15"
       style="paint-order:normal;filter:url(#o-5-9)"
       id="circle13-0" />
    <circle
       transform="matrix(0,-0.44294,0.44294,0,-4.3099,-8.41)"
       cx="-42"
       cy="22.407"
       r="3"
       filter="url(#l-3)"
       image-rendering="optimizeSpeed"
       opacity="0.15"
       style="paint-order:normal;filter:url(#l-3-1)"
       id="circle14-6" />
  </g>
  <g
     stroke-width="0.66441"
     id="g17"
     transform="translate(-1.26635,2.70235)">
    <circle
       transform="rotate(-90)"
       cx="-10.194"
       cy="9.8641996"
       r="1.3288"
       fill="url(#linearGradient1095)"
       image-rendering="optimizeSpeed"
       style="fill:url(#linearGradient1095);paint-order:normal"
       id="circle15-2" />
    <path
       d="M 11.193,10.194 A 1.3288,1.3288 0 0 0 11.01262,9.52959 H 9.86422 A 0.66441,0.66441 0 0 0 9.19981,10.194 0.66441,0.66441 0 0 0 9.86422,10.85841 h 1.1497 A 1.3288,1.3288 0 0 0 11.193,10.194 Z"
       image-rendering="optimizeSpeed"
       opacity="0.25"
       style="paint-order:normal"
       id="path15-6" />
    <circle
       transform="rotate(-90)"
       cx="-10.194"
       cy="5.6150999"
       r="1.3288"
       fill="url(#linearGradient1097-5)"
       image-rendering="optimizeSpeed"
       style="fill:url(#linearGradient1097-5);paint-order:normal"
       id="circle16-1" />
    <path
       d="M 5.6151,8.8647 A 1.3288,1.3288 0 0 0 4.95069,9.04507 v 1.1484 A 0.66441,0.66441 0 0 0 5.6151,10.85788 0.66441,0.66441 0 0 0 6.27951,10.19347 V 9.04377 A 1.3288,1.3288 0 0 0 5.6151,8.86469 Z"
       image-rendering="optimizeSpeed"
       opacity="0.25"
       style="paint-order:normal"
       id="path16-8" />
    <circle
       transform="rotate(-90)"
       cx="-10.194"
       cy="13.851"
       r="1.3288"
       fill="url(#linearGradient1099)"
       image-rendering="optimizeSpeed"
       style="fill:url(#linearGradient1099);paint-order:normal"
       id="circle17-7" />
    <path
       d="m 13.851,11.522 a 1.3288,1.3288 0 0 0 0.66441,-0.18037 v -1.1484 A 0.66441,0.66441 0 0 0 13.851,9.52882 0.66441,0.66441 0 0 0 13.18659,10.19323 v 1.1497 a 1.3288,1.3288 0 0 0 0.66441,0.17908 z"
       image-rendering="optimizeSpeed"
       opacity="0.25"
       style="paint-order:normal"
       id="path17-9" />
  </g>
  <g
     stroke-width="0.33333"
     id="g20"
     transform="matrix(1.0453,0,0,1.0453,-15.805406,-8.4785)">
    <path
       d="m 23.92,12.024 a 0.1673,0.16309 0 0 0 -0.01661,0.0016 0.1673,0.16309 0 0 0 -0.01644,0.0029 0.1673,0.16309 0 0 0 -0.01611,0.0045 0.1673,0.16309 0 0 0 -0.01544,0.0061 0.1673,0.16309 0 0 0 -0.01478,0.0078 0.1673,0.16309 0 0 0 -0.0052,0.0029 0.1673,0.16309 0 0 0 -0.01378,0.0094 0.1673,0.16309 0 0 0 -0.01262,0.01052 0.1673,0.16309 0 0 0 -0.01162,0.01182 0.1673,0.16309 0 0 0 -0.0103,0.01279 0.1673,0.16309 0 0 0 -0.009,0.01376 0.1673,0.16309 0 0 0 -0.0075,0.01457 0.1673,0.16309 0 0 0 -0.006,0.01521 0.1673,0.16309 0 0 0 -0.0043,0.01587 0.5621,0.548 0 0 1 -0.0076,0.0306 0.5621,0.548 0 0 1 -0.0176,0.05197 0.5621,0.548 0 0 1 -0.02275,0.05018 0.5621,0.548 0 0 1 -0.0279,0.0476 0.5621,0.548 0 0 1 -0.03238,0.04468 0.5621,0.548 0 0 1 -0.03703,0.04128 0.5621,0.548 0 0 1 -0.04102,0.0374 0.5621,0.548 0 0 1 -0.0445,0.03335 0.5621,0.548 0 0 1 -0.04782,0.02881 0.5621,0.548 0 0 1 -0.05048,0.02396 0.5621,0.548 0 0 1 -0.05281,0.01894 0.5621,0.548 0 0 1 -0.0543,0.01376 0.5621,0.548 0 0 1 -0.05563,0.0083 0.5621,0.548 0 0 1 -0.05613,0.003 0.5621,0.548 0 0 1 -0.03006,-9.66e-4 0.5621,0.548 0 0 1 -0.05596,-0.006 0.5621,0.548 0 0 1 -0.05497,-0.01117 0.5621,0.548 0 0 1 -0.05347,-0.01667 0.5621,0.548 0 0 1 -0.05164,-0.02169 0.5621,0.548 0 0 1 -0.04915,-0.02671 0.5621,0.548 0 0 1 -0.046,-0.03124 0.5621,0.548 0 0 1 -0.04268,-0.03562 0.5621,0.548 0 0 1 -0.03886,-0.03966 0.5621,0.548 0 0 1 -0.03454,-0.04306 0.5621,0.548 0 0 1 -0.03006,-0.0463 0.5621,0.548 0 0 1 -0.02507,-0.04905 0.5621,0.548 0 0 1 -0.01993,-0.05132 0.5621,0.548 0 0 1 -0.01461,-0.05278 0.1673,0.16309 0 0 0 -6.67e-4,-0.0033 0.1673,0.16309 0 0 0 -0.0045,-0.01571 0.1673,0.16309 0 0 0 -0.006,-0.01521 0.1673,0.16309 0 0 0 -0.0075,-0.01457 0.1673,0.16309 0 0 0 -0.0091,-0.01376 0.1673,0.16309 0 0 0 -0.0103,-0.01279 0.1673,0.16309 0 0 0 -0.01162,-0.01182 0.1673,0.16309 0 0 0 -0.01279,-0.01052 0.1673,0.16309 0 0 0 -0.01378,-0.0092 0.16144,0.15739 0 0 0 -0.0076,-0.0044 0.16144,0.15739 0 0 0 -0.01461,-0.0066 0.16144,0.15739 0 0 0 -0.01527,-0.0053 0.16144,0.15739 0 0 0 -0.01561,-0.0037 0.16144,0.15739 0 0 0 -0.01594,-0.0021 0.16144,0.15739 0 0 0 -0.01627,-8e-4 0.16144,0.15739 0 0 0 -0.01611,9.66e-4 0.16144,0.15739 0 0 0 -0.01594,0.0026 0.16144,0.15739 0 0 0 -0.01544,0.004 2.6432,2.5768 0 0 0 -0.1526,0.04986 2.6432,2.5768 0 0 0 -0.24294,0.10134 2.6432,2.5768 0 0 0 -0.23132,0.12449 2.6432,2.5768 0 0 0 -0.21737,0.14634 2.6432,2.5768 0 0 0 -0.20143,0.16674 0.1673,0.16309 0 0 0 -0.0025,0.0021 0.1673,0.16309 0 0 0 -0.01129,0.01215 0.1673,0.16309 0 0 0 -0.01,0.01327 0.1673,0.16309 0 0 0 -0.0085,0.01392 0.1673,0.16309 0 0 0 -0.0071,0.01457 0.1673,0.16309 0 0 0 -0.0056,0.01538 0.1673,0.16309 0 0 0 -0.004,0.01587 0.1673,0.16309 0 0 0 -0.0022,0.01619 0.1673,0.16309 0 0 0 -6.66e-4,0.01635 0.1673,0.16309 0 0 0 0,0.0026 0.1673,0.16309 0 0 0 0.001,0.01635 0.1673,0.16309 0 0 0 0.0027,0.01603 0.1673,0.16309 0 0 0 0.0041,0.01571 0.1673,0.16309 0 0 0 0.006,0.01538 0.1673,0.16309 0 0 0 0.0073,0.01457 0.1673,0.16309 0 0 0 0.009,0.01376 0.1673,0.16309 0 0 0 0.0103,0.01295 0.1673,0.16309 0 0 0 0.01146,0.01182 0.55876,0.54473 0 0 1 0.0058,0.0052 0.55876,0.54473 0 0 1 0.03886,0.03918 0.55876,0.54473 0 0 1 0.03454,0.04274 0.55876,0.54473 0 0 1 0.03006,0.04598 0.55876,0.54473 0 0 1 0.02524,0.04857 0.55876,0.54473 0 0 1 0.02009,0.05083 0.55876,0.54473 0 0 1 0.01478,0.05245 0.55876,0.54473 0 0 1 0.0093,0.05375 0.55876,0.54473 0 0 1 0.0038,0.05423 0.55876,0.54473 0 0 1 -0.0017,0.05439 0.55876,0.54473 0 0 1 -0.0073,0.05407 0.55876,0.54473 0 0 1 -0.01295,0.05294 0.55876,0.54473 0 0 1 -0.0181,0.05148 0.55876,0.54473 0 0 1 -0.02341,0.04954 0.55876,0.54473 0 0 1 -0.0284,0.04695 0.55876,0.54473 0 0 1 -0.03288,0.04387 0.55876,0.54473 0 0 1 -0.03736,0.04047 0.55876,0.54473 0 0 1 -0.04118,0.03675 0.55876,0.54473 0 0 1 -0.04484,0.03238 0.55876,0.54473 0 0 1 -0.04799,0.02801 0.55876,0.54473 0 0 1 -0.05065,0.02315 0.55876,0.54473 0 0 1 -0.05264,0.01813 0.55876,0.54473 0 0 1 -0.0543,0.01295 0.55876,0.54473 0 0 1 -0.0553,0.0075 0.55876,0.54473 0 0 1 -0.0558,0.0021 0.55876,0.54473 0 0 1 -0.05564,-0.0033 0.55876,0.54473 0 0 1 -0.05513,-0.0087 0.55876,0.54473 0 0 1 -0.05397,-0.01408 0.1673,0.16309 0 0 0 -0.008,-0.0022 0.1673,0.16309 0 0 0 -0.01627,-0.0034 0.1673,0.16309 0 0 0 -0.01677,-0.0019 0.1673,0.16309 0 0 0 -0.0166,-1.62e-4 0.1673,0.16309 0 0 0 -0.01677,0.0015 0.1673,0.16309 0 0 0 -0.01644,0.003 0.1673,0.16309 0 0 0 -0.01594,0.0045 0.1673,0.16309 0 0 0 -0.01544,0.0061 0.1673,0.16309 0 0 0 -0.01478,0.0076 0.1673,0.16309 0 0 0 -0.01395,0.0091 0.1673,0.16309 0 0 0 -0.01295,0.01036 0.1673,0.16309 0 0 0 -0.01179,0.01149 0.1673,0.16309 0 0 0 -0.01062,0.01263 0.1673,0.16309 0 0 0 -0.0091,0.0136 0.1673,0.16309 0 0 0 -0.0078,0.01441 0.1673,0.16309 0 0 0 -0.0063,0.01522 0.1673,0.16309 0 0 0 -0.0046,0.01554 2.573,2.5083 0 0 0 -0.03803,0.17726 2.573,2.5083 0 0 0 -0.03089,0.24898 2.573,2.5083 0 0 0 -0.0052,0.2506 2.573,2.5083 0 0 0 0.02059,0.24995 2.573,2.5083 0 0 0 0.046,0.24671 0.1673,0.16309 0 0 0 0.0018,0.0075 0.1673,0.16309 0 0 0 0.0053,0.01554 0.1673,0.16309 0 0 0 0.0068,0.01489 0.1673,0.16309 0 0 0 0.0083,0.01409 0.1673,0.16309 0 0 0 0.0098,0.01327 0.1673,0.16309 0 0 0 0.01096,0.0123 0.1673,0.16309 0 0 0 0.01229,0.01117 0.1673,0.16309 0 0 0 0.01328,0.0099 0.1673,0.16309 0 0 0 0.01412,0.0086 0.1673,0.16309 0 0 0 0.01511,0.007 0.1673,0.16309 0 0 0 0.01578,0.0057 0.1673,0.16309 0 0 0 0.01611,0.004 0.1673,0.16309 0 0 0 0.01661,0.0024 0.1673,0.16309 0 0 0 0.0166,8e-4 0.1673,0.16309 0 0 0 0.01677,-8e-4 0.1673,0.16309 0 0 0 0.01661,-0.0024 0.1673,0.16309 0 0 0 0.01611,-0.0039 0.55876,0.54473 0 0 1 0.0085,-0.0026 0.55876,0.54473 0 0 1 0.0543,-0.01279 0.55876,0.54473 0 0 1 0.0553,-0.0075 0.55876,0.54473 0 0 1 0.0558,-0.0019 0.55876,0.54473 0 0 1 0.05579,0.0034 0.55876,0.54473 0 0 1 0.05513,0.0089 0.55876,0.54473 0 0 1 0.05397,0.01408 0.55876,0.54473 0 0 1 0.05214,0.01927 0.55876,0.54473 0 0 1 0.04998,0.02444 0.55876,0.54473 0 0 1 0.04733,0.02898 0.55876,0.54473 0 0 1 0.044,0.03351 0.55876,0.54473 0 0 1 0.04035,0.03772 0.55876,0.54473 0 0 1 0.03637,0.04128 0.55876,0.54473 0 0 1 0.03188,0.04468 0.55876,0.54473 0 0 1 0.02707,0.04759 0.55876,0.54473 0 0 1 0.02225,0.05002 0.55876,0.54473 0 0 1 0.01677,0.0518 0.55876,0.54473 0 0 1 0.01162,0.05342 0.55876,0.54473 0 0 1 0.006,0.05407 0.55876,0.54473 0 0 1 5e-4,0.05439 0.55876,0.54473 0 0 1 -0.0051,0.05423 0.55876,0.54473 0 0 1 -0.01079,0.05342 0.55876,0.54473 0 0 1 -0.01594,0.05229 0.55876,0.54473 0 0 1 -0.02142,0.05018 0.55876,0.54473 0 0 1 -0.0264,0.04808 0.55876,0.54473 0 0 1 -0.03122,0.04517 0.55876,0.54473 0 0 1 -0.03554,0.04193 0.55876,0.54473 0 0 1 -0.03985,0.03821 0.1673,0.16309 0 0 0 -0.0033,0.0029 0.1673,0.16309 0 0 0 -0.01146,0.01182 0.1673,0.16309 0 0 0 -0.01046,0.01279 0.1673,0.16309 0 0 0 -0.009,0.01376 0.1673,0.16309 0 0 0 -0.0075,0.01441 0.1673,0.16309 0 0 0 -0.006,0.01521 0.1673,0.16309 0 0 0 -0.0045,0.01587 0.1673,0.16309 0 0 0 -0.0028,0.01603 0.1673,0.16309 0 0 0 -0.001,0.01619 0.1673,0.16309 0 0 0 0,0.0042 0.1673,0.16309 0 0 0 0.001,0.01635 0.1673,0.16309 0 0 0 0.0027,0.01603 0.1673,0.16309 0 0 0 0.0041,0.01571 0.1673,0.16309 0 0 0 0.006,0.01538 0.1673,0.16309 0 0 0 0.0073,0.01457 0.1673,0.16309 0 0 0 0.009,0.01376 0.1673,0.16309 0 0 0 0.0103,0.01295 0.1673,0.16309 0 0 0 0.01146,0.01182 2.6575,2.5907 0 0 0 0.11142,0.09875 2.6575,2.5907 0 0 0 0.2099,0.15865 2.6575,2.5907 0 0 0 0.225,0.1376 2.6575,2.5907 0 0 0 0.23812,0.11478 2.6575,2.5907 0 0 0 0.24858,0.09114 0.1673,0.16309 0 0 0 0.0047,0.0015 0.1673,0.16309 0 0 0 0.01627,0.0036 0.1673,0.16309 0 0 0 0.0166,0.0019 0.1673,0.16309 0 0 0 0.01661,4.66e-4 0.1673,0.16309 0 0 0 0.01677,-0.0013 0.1673,0.16309 0 0 0 0.01644,-0.0029 0.1673,0.16309 0 0 0 0.01611,-0.0044 0.1673,0.16309 0 0 0 0.01544,-0.006 0.1673,0.16309 0 0 0 0.01495,-0.0074 0.1673,0.16309 0 0 0 0.006,-0.0033 0.1673,0.16309 0 0 0 0.01395,-0.0091 0.1673,0.16309 0 0 0 0.01295,-0.0102 0.1673,0.16309 0 0 0 0.01179,-0.01149 0.1673,0.16309 0 0 0 0.01079,-0.01263 0.1673,0.16309 0 0 0 0.0091,-0.01344 0.1673,0.16309 0 0 0 0.008,-0.01441 0.1673,0.16309 0 0 0 0.0063,-0.01521 0.1673,0.16309 0 0 0 0.0048,-0.01554 0.56126,0.54716 0 0 1 0.006,-0.0238 0.56126,0.54716 0 0 1 0.0176,-0.05197 0.56126,0.54716 0 0 1 0.02275,-0.05002 0.56126,0.54716 0 0 1 0.02773,-0.04743 0.56126,0.54716 0 0 1 0.03238,-0.04468 0.56126,0.54716 0 0 1 0.03686,-0.04112 0.56126,0.54716 0 0 1 0.04085,-0.03756 0.56126,0.54716 0 0 1 0.04467,-0.03319 0.56126,0.54716 0 0 1 0.04766,-0.02881 0.56126,0.54716 0 0 1 0.05048,-0.02396 0.56126,0.54716 0 0 1 0.05264,-0.01894 0.56126,0.54716 0 0 1 0.0543,-0.01376 0.56126,0.54716 0 0 1 0.05546,-0.0083 0.56126,0.54716 0 0 1 0.05596,-0.003 h 0.0066 a 0.56126,0.54716 0 0 1 0.03188,0.0015 0.56126,0.54716 0 0 1 0.0558,0.0066 0.56126,0.54716 0 0 1 0.05463,0.01198 0.56126,0.54716 0 0 1 0.0533,0.01716 0.56126,0.54716 0 0 1 0.05115,0.0225 0.56126,0.54716 0 0 1 0.04865,0.0272 0.56126,0.54716 0 0 1 0.04567,0.03189 0.56126,0.54716 0 0 1 0.04218,0.0361 0.56126,0.54716 0 0 1 0.03819,0.03999 0.56126,0.54716 0 0 1 0.03388,0.04355 0.56126,0.54716 0 0 1 0.02939,0.04662 0.56126,0.54716 0 0 1 0.02424,0.04938 0.56126,0.54716 0 0 1 0.01926,0.05132 0.56126,0.54716 0 0 1 0.01378,0.05294 0.1673,0.16309 0 0 0 0.001,0.0045 0.1673,0.16309 0 0 0 0.0045,0.01571 0.1673,0.16309 0 0 0 0.0061,0.01521 0.1673,0.16309 0 0 0 0.0076,0.01441 0.1673,0.16309 0 0 0 0.009,0.01376 0.1673,0.16309 0 0 0 0.01046,0.01279 0.1673,0.16309 0 0 0 0.01179,0.01166 0.1673,0.16309 0 0 0 0.01279,0.01052 0.1673,0.16309 0 0 0 0.01378,0.0091 0.1673,0.16309 0 0 0 0.0076,0.0044 0.1673,0.16309 0 0 0 0.01511,0.0071 0.1673,0.16309 0 0 0 0.01561,0.0057 0.1673,0.16309 0 0 0 0.01627,0.004 0.1673,0.16309 0 0 0 0.01644,0.0024 0.1673,0.16309 0 0 0 0.01677,9.67e-4 0.1673,0.16309 0 0 0 0.01527,-0.0016 0.1673,0.16309 0 0 0 0.01644,-0.0034 0.1673,0.16309 0 0 0 0.01594,-0.0049 2.6474,2.5809 0 0 0 0.14995,-0.0463 2.6474,2.5809 0 0 0 0.2451,-0.09746 2.6474,2.5809 0 0 0 0.23397,-0.12061 2.6474,2.5809 0 0 0 0.22036,-0.14295 2.6474,2.5809 0 0 0 0.20458,-0.1635 0.1673,0.16309 0 0 0 0.0035,-0.0033 0.1673,0.16309 0 0 0 0.01162,-0.01182 0.1673,0.16309 0 0 0 0.01013,-0.01295 0.1673,0.16309 0 0 0 0.0088,-0.01376 0.1673,0.16309 0 0 0 0.0075,-0.01474 0.1673,0.16309 0 0 0 0.0058,-0.01521 0.1673,0.16309 0 0 0 0.0043,-0.01571 0.1673,0.16309 0 0 0 0.0027,-0.01619 0.1673,0.16309 0 0 0 8.33e-4,-0.01619 0.1673,0.16309 0 0 0 0,-0.0053 0.1673,0.16309 0 0 0 -0.0013,-0.01619 0.1673,0.16309 0 0 0 -0.003,-0.01603 0.1673,0.16309 0 0 0 -0.0046,-0.01571 0.1673,0.16309 0 0 0 -0.0061,-0.01521 0.1673,0.16309 0 0 0 -0.0078,-0.01441 0.1673,0.16309 0 0 0 -0.0091,-0.0136 0.1673,0.16309 0 0 0 -0.01046,-0.01263 0.1673,0.16309 0 0 0 -0.01179,-0.01166 0.5596,0.54553 0 0 1 -0.01212,-0.01118 0.5596,0.54553 0 0 1 -0.03786,-0.04015 0.5596,0.54553 0 0 1 -0.03354,-0.04347 0.5596,0.54553 0 0 1 -0.02906,-0.04662 0.5596,0.54553 0 0 1 -0.02408,-0.04921 0.5596,0.54553 0 0 1 -0.01893,-0.05132 0.5596,0.54553 0 0 1 -0.01345,-0.05294 0.5596,0.54553 0 0 1 -0.0081,-0.05407 0.5596,0.54553 0 0 1 -0.0025,-0.05439 0.5596,0.54553 0 0 1 0.0031,-0.05456 0.5596,0.54553 0 0 1 0.0086,-0.05375 0.5596,0.54553 0 0 1 0.01412,-0.05278 0.5596,0.54553 0 0 1 0.01959,-0.05116 0.5596,0.54553 0 0 1 0.02458,-0.04905 0.5596,0.54553 0 0 1 0.02939,-0.0463 0.5596,0.54553 0 0 1 0.03421,-0.04322 0.5596,0.54553 0 0 1 0.03836,-0.03966 0.5596,0.54553 0 0 1 0.04218,-0.03578 0.5596,0.54553 0 0 1 0.04567,-0.03141 0.5596,0.54553 0 0 1 0.04865,-0.02687 0.5596,0.54553 0 0 1 0.05115,-0.02202 0.5596,0.54553 0 0 1 0.05314,-0.017 0.5596,0.54553 0 0 1 0.0548,-0.01166 0.5596,0.54553 0 0 1 0.05546,-0.0063 0.5596,0.54553 0 0 1 0.05596,-8e-4 0.5596,0.54553 0 0 1 0.0558,0.0047 0.5596,0.54553 0 0 1 0.05497,0.01004 0.5596,0.54553 0 0 1 0.05364,0.01521 0.1673,0.16309 0 0 0 0.005,0.0016 0.1673,0.16309 0 0 0 0.01611,0.0042 0.1673,0.16309 0 0 0 0.01644,0.0026 0.1673,0.16309 0 0 0 0.01677,9.67e-4 0.1673,0.16309 0 0 0 0.0166,-6.67e-4 0.1673,0.16309 0 0 0 0.01661,-0.0023 0.1673,0.16309 0 0 0 0.01627,-0.0039 0.1673,0.16309 0 0 0 0.01578,-0.0053 0.1673,0.16309 0 0 0 0.01511,-0.007 0.1673,0.16309 0 0 0 0.0046,-0.0026 0.1673,0.16309 0 0 0 0.01412,-0.0087 0.1673,0.16309 0 0 0 0.01312,-0.0102 0.1673,0.16309 0 0 0 0.01196,-0.01133 0.1673,0.16309 0 0 0 0.01079,-0.01247 0.1673,0.16309 0 0 0 0.0095,-0.01344 0.1673,0.16309 0 0 0 0.0081,-0.01424 0.1673,0.16309 0 0 0 0.0065,-0.01505 0.1673,0.16309 0 0 0 0.005,-0.01554 2.6022,2.5369 0 0 0 0.03869,-0.16966 2.6022,2.5369 0 0 0 0.03487,-0.25124 2.6022,2.5369 0 0 0 0.009,-0.25351 2.6022,2.5369 0 0 0 -0.0171,-0.25303 2.6022,2.5369 0 0 0 -0.04284,-0.25011 0.1673,0.16309 0 0 0 -0.0012,-0.0047 0.1673,0.16309 0 0 0 -0.0046,-0.0157 0.1673,0.16309 0 0 0 -0.0063,-0.01505 0.1673,0.16309 0 0 0 -0.008,-0.01441 0.1673,0.16309 0 0 0 -0.0091,-0.0136 0.1673,0.16309 0 0 0 -0.01062,-0.01263 0.1673,0.16309 0 0 0 -0.01196,-0.01149 0.1673,0.16309 0 0 0 -0.01295,-0.0102 0.1673,0.16309 0 0 0 -0.01395,-0.0091 0.1673,0.16309 0 0 0 -0.0042,-0.0022 0.1673,0.16309 0 0 0 -0.01511,-0.007 0.1673,0.16309 0 0 0 -0.01561,-0.0057 0.1673,0.16309 0 0 0 -0.01627,-0.0039 0.1673,0.16309 0 0 0 -0.01644,-0.0024 0.1673,0.16309 0 0 0 -0.01677,-8e-4 0.1673,0.16309 0 0 0 -0.01677,8e-4 0.1673,0.16309 0 0 0 -0.01644,0.0024 0.1673,0.16309 0 0 0 -0.01627,0.0042 0.5596,0.54553 0 0 1 -0.02707,0.0078 0.5596,0.54553 0 0 1 -0.05463,0.01133 0.5596,0.54553 0 0 1 -0.05563,0.0061 0.5596,0.54553 0 0 1 -0.05596,6.67e-4 0.5596,0.54553 0 0 1 -0.05568,-0.0049 0.5596,0.54553 0 0 1 -0.05497,-0.0102 0.5596,0.54553 0 0 1 -0.05364,-0.01554 0.5596,0.54553 0 0 1 -0.05181,-0.02056 0.5596,0.54553 0 0 1 -0.04932,-0.02558 0.5596,0.54553 0 0 1 -0.04666,-0.03027 0.5596,0.54553 0 0 1 -0.04317,-0.03464 0.5596,0.54553 0 0 1 -0.03936,-0.03869 0.5596,0.54553 0 0 1 -0.03537,-0.04241 0.5596,0.54553 0 0 1 -0.03072,-0.04549 0.5596,0.54553 0 0 1 -0.0259,-0.0484 0.5596,0.54553 0 0 1 -0.02092,-0.05051 0.5596,0.54553 0 0 1 -0.01561,-0.05245 0.5596,0.54553 0 0 1 -0.01013,-0.05358 0.5596,0.54553 0 0 1 -0.0045,-0.05439 0.5596,0.54553 0 0 1 8.33e-4,-0.05439 0.5596,0.54553 0 0 1 0.0066,-0.05423 0.5596,0.54553 0 0 1 0.01212,-0.05326 0.5596,0.54553 0 0 1 0.01744,-0.0518 0.5596,0.54553 0 0 1 0.02275,-0.04986 0.5596,0.54553 0 0 1 0.02757,-0.04727 0.5596,0.54553 0 0 1 0.03238,-0.04452 0.5596,0.54553 0 0 1 0.03687,-0.04112 0.5596,0.54553 0 0 1 0.04085,-0.03723 0.17231,0.16799 0 0 0 0.001,-9.67e-4 0.17231,0.16799 0 0 0 0.01229,-0.01166 0.17231,0.16799 0 0 0 0.01096,-0.01295 0.17231,0.16799 0 0 0 0.0096,-0.01392 0.17231,0.16799 0 0 0 0.0081,-0.01473 0.17231,0.16799 0 0 0 0.0066,-0.01554 0.17231,0.16799 0 0 0 0.005,-0.01619 0.17231,0.16799 0 0 0 0.0033,-0.01635 0.17231,0.16799 0 0 0 0.0015,-0.01683 0.1673,0.16309 0 0 0 1.67e-4,-0.0042 0.1673,0.16309 0 0 0 -8.33e-4,-0.01635 0.1673,0.16309 0 0 0 -0.0025,-0.01619 0.1673,0.16309 0 0 0 -0.004,-0.0157 0.1673,0.16309 0 0 0 -0.0056,-0.01538 0.1673,0.16309 0 0 0 -0.0073,-0.01473 0.1673,0.16309 0 0 0 -0.0086,-0.01392 0.1673,0.16309 0 0 0 -0.01013,-0.01295 0.1673,0.16309 0 0 0 -0.01129,-0.01198 2.6583,2.5915 0 0 0 -0.16232,-0.14245 2.6583,2.5915 0 0 0 -0.21288,-0.15508 2.6583,2.5915 0 0 0 -0.22766,-0.13356 2.6583,2.5915 0 0 0 -0.24012,-0.11073 2.6583,2.5915 0 0 0 -0.25042,-0.08693 0.1673,0.16309 0 0 0 -0.0048,-0.0013 0.1673,0.16309 0 0 0 -0.01627,-0.0034 0.1673,0.16309 0 0 0 -0.01661,-0.0018 0.1673,0.16309 0 0 0 -0.01677,-1.61e-4 z m -2.7162,2.8352 a 0.89336,0.87093 0 0 1 0.08652,0.02185 0.89336,0.87093 0 0 1 0.08386,0.03011 0.89336,0.87093 0 0 0 -0.08386,-0.03011 0.89336,0.87093 0 0 0 -0.08652,-0.02185 z m 0.25058,0.09001 a 0.89336,0.87093 0 0 1 0.07605,0.04565 0.89336,0.87093 0 0 1 0.07091,0.05294 0.89336,0.87093 0 0 0 -0.07091,-0.05294 0.89336,0.87093 0 0 0 -0.07605,-0.04565 z m 1.9195,1.1589 a 0.89836,0.87579 0 0 1 0.08668,0.02315 0.89836,0.87579 0 0 0 -0.08668,-0.02315 z m 0.17037,0.05472 a 0.89836,0.87579 0 0 1 0.08021,0.0395 0.89836,0.87579 0 0 0 -0.08021,-0.0395 z m 0.22634,0.14084 a 0.89836,0.87579 0 0 1 0.0646,0.06087 0.89836,0.87579 0 0 0 -0.0646,-0.06087 z m -1.8464,0.0633 a 2.2978,2.2401 0 0 0 0.19611,0.11672 2.2978,2.2401 0 0 1 -0.19611,-0.11672 z"
       fill="url(#linearGradient1465-6)"
       opacity="0.8"
       id="path19"
       style="fill:url(#linearGradient20)" />
    <circle
       cx="23.219999"
       cy="14.505"
       r="1.3513"
       fill="url(#linearGradient1481-1)"
       opacity="0.8"
       id="circle19"
       style="fill:url(#linearGradient21)" />
    <circle
       cx="23.219999"
       cy="14.505"
       r="0.95665997"
       fill="url(#linearGradient1491-2)"
       opacity="0.8"
       id="circle20"
       style="fill:url(#linearGradient22)" />
  </g>
</svg>
