<?xml version="1.0" encoding="UTF-8" standalone="no"?>
<svg
   width="64"
   height="64"
   version="1.1"
   viewBox="0 0 16.933 16.933"
   id="svg21"
   sodipodi:docname="openshot.svg"
   inkscape:version="1.3.2 (091e20ef0f, 2023-11-25, custom)"
   xmlns:inkscape="http://www.inkscape.org/namespaces/inkscape"
   xmlns:sodipodi="http://sodipodi.sourceforge.net/DTD/sodipodi-0.dtd"
   xmlns:xlink="http://www.w3.org/1999/xlink"
   xmlns="http://www.w3.org/2000/svg"
   xmlns:svg="http://www.w3.org/2000/svg">
  <sodipodi:namedview
     id="namedview23"
     pagecolor="#ffffff"
     bordercolor="#999999"
     borderopacity="1"
     inkscape:showpageshadow="0"
     inkscape:pageopacity="0"
     inkscape:pagecheckerboard="0"
     inkscape:deskcolor="#d1d1d1"
     showgrid="false"
     inkscape:zoom="9.3912619"
     inkscape:cx="21.083429"
     inkscape:cy="33.328854"
     inkscape:window-width="1920"
     inkscape:window-height="995"
     inkscape:window-x="0"
     inkscape:window-y="0"
     inkscape:window-maximized="1"
     inkscape:current-layer="svg21" />
  <defs
     id="defs5">
    <linearGradient
       id="linearGradient49"
       inkscape:collect="always">
      <stop
         style="stop-color:#ffffff;stop-opacity:1;"
         offset="0"
         id="stop49" />
      <stop
         style="stop-color:#727272;stop-opacity:1;"
         offset="1"
         id="stop50" />
    </linearGradient>
    <linearGradient
       id="linearGradient20"
       inkscape:collect="always">
      <stop
         style="stop-color:#fdfdfd;stop-opacity:1"
         offset="0"
         id="stop20" />
      <stop
         style="stop-color:#c9c9c9;stop-opacity:1"
         offset="1"
         id="stop21" />
    </linearGradient>
    <linearGradient
       id="linearGradient18"
       inkscape:collect="always">
      <stop
         style="stop-color:#86cfee;stop-opacity:1"
         offset="0"
         id="stop18" />
      <stop
         style="stop-color:#134ca1;stop-opacity:1"
         offset="1"
         id="stop19" />
    </linearGradient>
    <filter
       id="a"
       x="-0.059999165"
       y="-0.059999165"
       width="1.1199983"
       height="1.1199983"
       color-interpolation-filters="sRGB">
      <feGaussianBlur
         stdDeviation="0.14551797"
         id="feGaussianBlur2" />
    </filter>
    <radialGradient
       id="radialGradient44808"
       cx="8.467"
       cy="8.4665003"
       r="5.2916002"
       gradientUnits="userSpaceOnUse"
       gradientTransform="matrix(1.367999,0,0,1.367999,-21.523213,-3.1156645)">
      <stop
         stop-color="#fff"
         offset="0"
         id="stop328" />
      <stop
         stop-color="#f2f2f2"
         offset=".79454"
         id="stop330" />
      <stop
         stop-color="#727272"
         offset="1"
         id="stop332" />
    </radialGradient>
    <linearGradient
       id="linearGradient7170"
       x1="-25.500999"
       x2="-22.094999"
       y1="5.6071"
       y2="12.71"
       gradientUnits="userSpaceOnUse"
       gradientTransform="matrix(1.367999,0,0,1.367999,25.81236,-3.1598)">
      <stop
         stop-color="#fdfdfd"
         offset="0"
         id="stop311" />
      <stop
         stop-color="#ddd"
         offset=".76146"
         id="stop313" />
      <stop
         stop-color="#b2b2b2"
         offset="1"
         id="stop315" />
    </linearGradient>
    <linearGradient
       id="linearGradient31054"
       x1="-28.646"
       x2="-26.108"
       y1="5.5844998"
       y2="11.61"
       gradientUnits="userSpaceOnUse"
       gradientTransform="matrix(1.367999,0,0,1.367999,25.81236,-3.1598)">
      <stop
         stop-color="#86cfee"
         offset="0"
         id="stop318" />
      <stop
         stop-color="#134ca1"
         offset="1"
         id="stop320" />
    </linearGradient>
    <radialGradient
       id="radialGradient39408"
       cx="-28.540001"
       cy="7.4654999"
       r="0.93180001"
       gradientTransform="matrix(1.9421482,0,0,1.9421482,41.516989,-8.2560067)"
       gradientUnits="userSpaceOnUse">
      <stop
         stop-color="#fff"
         stop-opacity=".8"
         offset="0"
         id="stop323" />
      <stop
         stop-color="#fff"
         stop-opacity="0"
         offset="1"
         id="stop325" />
    </radialGradient>
    <linearGradient
       id="linearGradient982"
       x1="3.9686999"
       x2="3.9686999"
       y1="8.9776001"
       y2="0.54084998"
       gradientTransform="matrix(0.91666,0,0,0.91666,0.70538983,0.70539019)"
       gradientUnits="userSpaceOnUse">
      <stop
         stop-color="#464646"
         offset="0"
         id="stop1" />
      <stop
         stop-color="#a3a3a3"
         offset="1"
         id="stop2" />
    </linearGradient>
    <linearGradient
       id="linearGradient950"
       x1="3.9686999"
       x2="3.9686999"
       y1="16.169001"
       y2="0.54084998"
       gradientTransform="matrix(0.79998,0,0,0.79998,1.6932002,1.6932004)"
       gradientUnits="userSpaceOnUse">
      <stop
         stop-color="#e8e8e8"
         offset="0"
         id="stop3" />
      <stop
         stop-color="#fdfdfd"
         offset="1"
         id="stop4" />
    </linearGradient>
    <linearGradient
       id="linearGradient16450"
       x1="66.500999"
       x2="66.500999"
       y1="32.070999"
       y2="105.31"
       gradientTransform="matrix(0.11127,0,0,0.11127,1.4271,1.2298)"
       gradientUnits="userSpaceOnUse">
      <stop
         stop-color="#f35f38"
         offset="0"
         id="stop5" />
      <stop
         stop-color="#d98775"
         offset="1"
         id="stop6" />
    </linearGradient>
    <linearGradient
       id="linearGradient16452"
       x1="-17.132999"
       x2="91.400002"
       y1="34.298"
       y2="83.183998"
       gradientTransform="matrix(0.11127,0,0,0.11127,1.2992,1.3725)"
       gradientUnits="userSpaceOnUse">
      <stop
         stop-color="#f3f038"
         offset="0"
         id="stop7" />
      <stop
         stop-color="#f3f038"
         stop-opacity="0"
         offset="1"
         id="stop8" />
    </linearGradient>
    <linearGradient
       id="linearGradient16454"
       x1="17.035"
       x2="17.035"
       y1="20.052999"
       y2="27.336"
       gradientTransform="matrix(0.42057,0,0,0.42057,1.2993,1.3725)"
       gradientUnits="userSpaceOnUse">
      <stop
         stop-color="#12a1f4"
         offset="0"
         id="stop9" />
      <stop
         stop-color="#2fc5f5"
         stop-opacity=".98182"
         offset="1"
         id="stop10" />
    </linearGradient>
    <linearGradient
       id="linearGradient16456"
       x1="59.966999"
       x2="63.122002"
       y1="71.892998"
       y2="81.852997"
       gradientTransform="matrix(0.11127,0,0,0.11127,1.2993,1.3725)"
       gradientUnits="userSpaceOnUse">
      <stop
         stop-color="#54cbf7"
         offset="0"
         id="stop11" />
      <stop
         stop-color="#54cbf7"
         stop-opacity="0"
         offset="1"
         id="stop12" />
    </linearGradient>
    <linearGradient
       inkscape:collect="always"
       xlink:href="#linearGradient18"
       id="linearGradient19"
       x1="4.1892729"
       y1="4.4336886"
       x2="8.0468369"
       y2="12.78009"
       gradientUnits="userSpaceOnUse" />
    <radialGradient
       inkscape:collect="always"
       xlink:href="#radialGradient39408"
       id="radialGradient19"
       gradientUnits="userSpaceOnUse"
       gradientTransform="matrix(3.0484512,0,0,3.0484512,91.706625,-18.411253)"
       cx="-28.540001"
       cy="7.4654999"
       r="0.93180001" />
    <linearGradient
       inkscape:collect="always"
       xlink:href="#linearGradient20"
       id="linearGradient21"
       x1="10.634898"
       y1="4.9572225"
       x2="14.816375"
       y2="14.816375"
       gradientUnits="userSpaceOnUse" />
    <radialGradient
       inkscape:collect="always"
       xlink:href="#linearGradient49"
       id="radialGradient50"
       cx="8.4665003"
       cy="8.4665003"
       fx="8.4665003"
       fy="8.4665003"
       r="7.276"
       gradientUnits="userSpaceOnUse"
       gradientTransform="matrix(1.3340274,0,0,1.3340274,-2.8280436,-2.8280436)" />
  </defs>
  <rect
     x="1.1905"
     y="1.1905"
     width="14.552"
     height="14.552"
     ry="3.4395001"
     stroke-opacity="0.95294"
     stroke-width="0.083152"
     id="rect12"
     style="fill:url(#radialGradient50);fill-opacity:1" />
  <path
     id="rect13"
     style="fill:url(#linearGradient950)"
     d="M 7.4009529 3.9805572 C 7.4373599 3.9399398 7.4753686 3.8990272 7.5130886 3.8586032 C 7.5507946 3.8181791 7.5884013 3.7778607 7.6272913 3.7376828 C 7.5883953 3.7778618 7.5502918 3.8181794 7.5125718 3.8586032 C 7.474855 3.8990277 7.4373529 3.9399404 7.4009529 3.9805572 z " />
  <path
     id="path16"
     style="fill:url(#linearGradient950)"
     d="M 7.0945177 4.3474527 C 7.1261677 4.3065779 7.1588243 4.2658239 7.1921843 4.2249819 C 7.2255482 4.1841417 7.2595516 4.1432682 7.2945016 4.1025112 C 7.2595476 4.1432666 7.2250375 4.1841401 7.1916675 4.2249819 C 7.1583075 4.2658236 7.1261777 4.3065797 7.0945177 4.3474527 z " />
  <path
     id="path8"
     style="fill:url(#linearGradient950)"
     d="M 4.7624062 2.116625 C 3.296636 2.116625 2.116625 3.296636 2.116625 4.7624062 L 2.116625 7.0655795 A 6.5149584 6.5149584 0 0 1 2.3197094 6.3638274 A 6.5149584 6.5149584 0 0 0 2.116625 7.0655795 L 2.116625 9.8596692 A 6.5149584 6.5149584 0 0 0 2.3429633 10.632733 A 6.5149584 6.5149584 0 0 1 2.116625 9.8596692 L 2.116625 12.170594 C 2.116625 13.636362 3.2966375 14.816375 4.7624062 14.816375 L 7.0619622 14.816375 A 6.5149584 6.5149584 0 0 1 6.8914333 14.784336 A 6.5149584 6.5149584 0 0 1 6.1307712 14.535777 A 6.5149584 6.5149584 0 0 0 6.8914333 14.784336 C 6.9635533 14.743786 7.0359813 14.701637 7.1105371 14.658248 C 7.1949069 14.609148 7.2815134 14.558652 7.3689142 14.505806 C 7.456304 14.452956 7.5447408 14.398195 7.6350426 14.341478 C 7.7253424 14.284758 7.8173667 14.226492 7.9104725 14.165782 C 8.0035623 14.105062 8.097881 14.042009 8.1936538 13.977166 C 8.2894236 13.912326 8.3867716 13.845233 8.4851031 13.776149 C 8.5834491 13.707069 8.6824763 13.636191 8.7832703 13.562729 C 8.8840643 13.489271 8.9860419 13.41279 9.0891888 13.334841 C 9.1923356 13.256891 9.2964756 13.177122 9.401825 13.09455 C 9.5071881 13.01199 9.6137093 12.927613 9.7211791 12.840307 C 9.8286489 12.752997 9.9372671 12.66324 10.046734 12.571078 C 10.156201 12.478918 10.266619 12.384018 10.377974 12.286863 C 10.489327 12.189705 10.601261 12.089935 10.714381 11.987663 C 10.770929 11.936523 10.826079 11.885885 10.879225 11.836254 C 10.932375 11.786624 10.984469 11.738177 11.034251 11.690012 C 11.084031 11.641862 11.131942 11.594109 11.178426 11.547388 C 11.224916 11.500658 11.269572 11.454749 11.312782 11.409415 C 11.356012 11.364095 11.397818 11.319548 11.437836 11.275576 C 11.477866 11.231606 11.516187 11.188499 11.553073 11.14587 C 11.589953 11.10324 11.625233 11.061111 11.659007 11.019782 C 11.692797 10.978442 11.7249 10.937907 11.75564 10.897828 C 11.78639 10.857758 11.815738 10.81834 11.843488 10.779492 C 11.871248 10.740642 11.897205 10.701902 11.922035 10.664255 C 11.946865 10.626595 11.97088 10.589649 11.99283 10.553153 C 12.01477 10.516653 12.035194 10.480521 12.054324 10.445152 C 12.073434 10.409782 12.090693 10.375572 12.107033 10.341284 C 12.123383 10.307004 12.138877 10.272709 12.152507 10.239483 C 12.166187 10.206255 12.178237 10.174017 12.189197 10.141817 C 12.200137 10.109607 12.209785 10.077447 12.218135 10.046217 C 12.226435 10.014997 12.233552 9.9850188 12.239322 9.954752 C 12.245022 9.924485 12.249468 9.8941857 12.252758 9.8648367 C 12.256058 9.8354879 12.257642 9.806487 12.258442 9.778022 C 12.259264 9.7495572 12.259503 9.7214081 12.257925 9.6937911 C 12.256325 9.6661751 12.25314 9.6389458 12.24914 9.612144 C 12.24514 9.585342 12.240395 9.5591024 12.234155 9.5330806 C 12.228055 9.5070596 12.220404 9.4813592 12.211934 9.4560842 C 12.203434 9.4308092 12.194163 9.4057188 12.183513 9.3811548 C 12.172846 9.356591 12.16115 9.333213 12.148373 9.309326 C 12.135651 9.285439 12.121372 9.2617727 12.106516 9.2385307 C 12.09166 9.2152867 12.075856 9.1919206 12.058975 9.1692856 C 12.042094 9.1466508 12.024084 9.1241696 12.005232 9.1021076 C 11.986368 9.0800476 11.966586 9.0585176 11.945806 9.0369966 C 11.925026 9.0154756 11.903336 8.9944508 11.880695 8.9734358 C 11.85804 8.9524198 11.834875 8.9309368 11.810416 8.9103918 C 11.785956 8.8898468 11.760161 8.8695228 11.733936 8.8494148 C 11.707715 8.8293068 11.68074 8.8102117 11.652806 8.7905049 C 11.624885 8.7707989 11.596084 8.7509329 11.566508 8.7315949 C 11.536932 8.7122569 11.506221 8.693239 11.475043 8.6742352 C 11.443867 8.6552292 11.412683 8.6366148 11.37996 8.617909 C 11.347224 8.599203 11.313421 8.5805415 11.279193 8.5620995 C 11.244966 8.5436575 11.209439 8.5250178 11.173775 8.5068068 C 11.102448 8.470384 11.028859 8.4345123 10.952087 8.3988052 C 10.875317 8.3630982 10.795657 8.3276204 10.713864 8.2923539 C 10.632083 8.2570851 10.547546 8.221522 10.461171 8.1864193 C 10.374795 8.1513165 10.28661 8.116215 10.196076 8.0810014 C 10.105542 8.0457877 10.013364 8.0106662 9.9190959 7.9750668 C 9.7305587 7.9038695 9.5350478 7.8319049 9.3341302 7.7575133 C 9.1332126 7.6831231 8.9265007 7.6068225 8.716609 7.527041 C 8.61167 7.4871488 8.5058616 7.446223 8.399322 7.4045702 C 8.2927827 7.3629176 8.1861474 7.3206203 8.0784176 7.2769319 C 7.9707018 7.2332441 7.8623638 7.1875417 7.753896 7.1415424 C 7.6454272 7.0955424 7.5366068 7.049053 7.4278242 7.0004685 C 7.4006242 6.9883205 7.374174 6.9762529 7.348244 6.9637789 C 7.322304 6.9513029 7.2964444 6.9383381 7.2717644 6.9255391 C 7.2470844 6.9127351 7.2233856 6.8993818 7.1999356 6.8862658 C 7.1764856 6.8731468 7.1534373 6.8604165 7.1312073 6.8469925 C 7.1089773 6.8335725 7.087623 6.8198969 7.066613 6.8061689 C 7.045583 6.7924409 7.0249591 6.7783348 7.0051193 6.7643118 C 6.9852793 6.7502888 6.9659128 6.73625 6.9472428 6.721938 C 6.9285728 6.707625 6.9105036 6.6931276 6.8929836 6.6785306 C 6.8754636 6.6639338 6.8582148 6.6489608 6.841825 6.6340898 C 6.825435 6.6192188 6.8100703 6.6042732 6.7948003 6.5891322 C 6.7795303 6.5739912 6.7650462 6.5590608 6.7508762 6.5436578 C 6.7367062 6.5282538 6.7231326 6.5128109 6.7100526 6.4971499 C 6.6969228 6.4814889 6.6843396 6.4655184 6.6723296 6.4496086 C 6.6602896 6.4336986 6.6486671 6.4177024 6.6377071 6.4015504 C 6.6267671 6.3853984 6.6166318 6.3693635 6.6067018 6.3529755 C 6.5967018 6.3365885 6.5871903 6.3199861 6.5782803 6.3033671 C 6.5693803 6.2867501 6.5608594 6.270084 6.5529594 6.253242 C 6.5450594 6.236402 6.5376688 6.2191393 6.530739 6.2020833 C 6.523739 6.1850273 6.5170523 6.1676739 6.5111023 6.1504079 C 6.5051023 6.1331419 6.5001329 6.1156837 6.4950829 6.0982157 C 6.4899829 6.0807477 6.4857573 6.0636864 6.4816473 6.0460236 C 6.4775473 6.0283596 6.4734287 6.0101331 6.4702787 5.9922811 C 6.4671787 5.9744291 6.4648274 5.9565747 6.4625274 5.9385387 C 6.4603274 5.9205027 6.4582431 5.9024905 6.4568431 5.8842795 C 6.4554431 5.8660685 6.4543426 5.8478846 6.4537426 5.8295036 C 6.4532496 5.8111226 6.4533836 5.7922371 6.4537426 5.7736941 C 6.4541026 5.7551511 6.4545346 5.7365837 6.4558096 5.7178847 C 6.4570096 5.6991857 6.4589771 5.6804055 6.4609771 5.6615585 C 6.4649771 5.6238635 6.47077 5.5861228 6.47803 5.5478726 C 6.48533 5.5096206 6.4936177 5.4713921 6.5038677 5.4326364 C 6.5141277 5.3938824 6.5263638 5.3540207 6.5395238 5.3148164 C 6.5526538 5.2756126 6.5675079 5.2365961 6.5834479 5.1969965 C 6.5993879 5.1573955 6.6160267 5.1175678 6.6346065 5.0776263 C 6.6531865 5.0376833 6.6729333 4.9974524 6.6940333 4.9572226 C 6.7151231 4.9169916 6.7377513 4.8767683 6.7612113 4.8363021 C 6.7846813 4.7958351 6.8093873 4.7555132 6.8351071 4.7148649 C 6.8608271 4.6742159 6.8878908 4.6331705 6.9157208 4.5923941 C 6.9435408 4.5516173 6.971692 4.5112928 7.001502 4.4704402 C 7.031312 4.4295892 7.0628679 4.3883261 7.0945177 4.3474527 C 7.1261777 4.3065797 7.1583075 4.2658236 7.1916675 4.2249819 C 7.2250375 4.1841401 7.2595476 4.1432666 7.2945016 4.1025112 C 7.3294516 4.0617562 7.3645481 4.0211726 7.4009529 3.9805572 C 7.4373529 3.9399404 7.474855 3.8990277 7.5125718 3.8586032 C 7.5502918 3.8181794 7.5883953 3.7778618 7.6272913 3.7376828 C 7.6661811 3.6975038 7.70568 3.6576748 7.745628 3.6177958 C 7.7855778 3.5779158 7.8262072 3.538469 7.8670652 3.4989424 C 7.907925 3.4594154 7.9489316 3.420243 7.9905694 3.3811224 C 8.0322094 3.3420014 8.0743696 3.3029972 8.1166574 3.264336 C 8.2012574 3.187015 8.286579 3.1105716 8.3729675 3.0354139 C 8.4593703 2.9602521 8.5468007 2.8857817 8.6339283 2.8132096 C 8.7210703 2.7406358 8.8085929 2.6698558 8.8954059 2.6003069 C 8.9822189 2.5307501 9.0683517 2.4628211 9.153783 2.3967057 C 9.2392138 2.3305919 9.3234932 2.2661934 9.4064758 2.2039565 C 9.4465741 2.1738809 9.4851942 2.1454577 9.5242957 2.116625 L 7.0655795 2.116625 A 6.5149584 6.5149584 0 0 0 6.3638274 2.3197094 A 6.5149584 6.5149584 0 0 1 7.0655795 2.116625 L 4.7624062 2.116625 z M 6.1814131 2.3858539 A 6.5149584 6.5149584 0 0 0 5.6005815 2.6364797 A 6.5149584 6.5149584 0 0 1 6.1814131 2.3858539 z M 5.5023982 2.6824708 A 6.5149584 6.5149584 0 0 0 4.8797094 3.049883 A 6.5149584 6.5149584 0 0 1 5.5023982 2.6824708 z M 4.727267 3.1568511 A 6.5149584 6.5149584 0 0 0 4.2539202 3.5237466 A 6.5149584 6.5149584 0 0 1 4.727267 3.1568511 z M 4.1361002 3.6224466 A 6.5149584 6.5149584 0 0 0 3.6224466 4.1361002 A 6.5149584 6.5149584 0 0 1 4.1361002 3.6224466 z M 3.5237466 4.2539202 A 6.5149584 6.5149584 0 0 0 3.1568511 4.727267 A 6.5149584 6.5149584 0 0 1 3.5237466 4.2539202 z M 3.049883 4.8797094 A 6.5149584 6.5149584 0 0 0 2.6824708 5.5023982 A 6.5149584 6.5149584 0 0 1 3.049883 4.8797094 z M 2.6364797 5.6005815 A 6.5149584 6.5149584 0 0 0 2.3858539 6.1814131 A 6.5149584 6.5149584 0 0 1 2.6364797 5.6005815 z M 2.4101414 10.814631 A 6.5149584 6.5149584 0 0 0 2.740864 11.547905 A 6.5149584 6.5149584 0 0 0 3.1692532 12.227953 A 6.5149584 6.5149584 0 0 1 2.740864 11.547905 A 6.5149584 6.5149584 0 0 1 2.4101414 10.814631 z M 3.2855229 12.387114 A 6.5149584 6.5149584 0 0 0 3.8033105 13.001534 A 6.5149584 6.5149584 0 0 0 4.3991281 13.535858 A 6.5149584 6.5149584 0 0 1 3.8033105 13.001534 A 6.5149584 6.5149584 0 0 1 3.2855229 12.387114 z M 4.5593219 13.660913 A 6.5149584 6.5149584 0 0 0 5.2228342 14.108422 A 6.5149584 6.5149584 0 0 0 5.942156 14.459815 A 6.5149584 6.5149584 0 0 1 5.2228342 14.108422 A 6.5149584 6.5149584 0 0 1 4.5593219 13.660913 z " />
  <path
     id="path7"
     d="M 9.5242957 2.116625 C 9.4851943 2.1454577 9.4465741 2.1738809 9.4064758 2.2039565 C 9.3234933 2.2661933 9.2392137 2.330592 9.153783 2.3967057 C 9.0683518 2.4628211 8.9822189 2.5307502 8.8954059 2.6003069 C 8.808593 2.6698557 8.7210703 2.7406359 8.6339283 2.8132096 C 8.5468008 2.8857816 8.4593702 2.9602522 8.3729675 3.0354139 C 8.2865791 3.1105715 8.2012574 3.187015 8.1166574 3.264336 C 8.0743697 3.3029971 8.0322094 3.3420014 7.9905694 3.3811224 C 7.9489317 3.420243 7.9079249 3.4594154 7.8670652 3.4989424 C 7.8262072 3.5384689 7.7855777 3.5779158 7.745628 3.6177958 C 7.70568 3.6576748 7.666181 3.6975038 7.6272913 3.7376828 C 7.5884013 3.7778606 7.5507946 3.8181792 7.5130886 3.8586032 C 7.4753686 3.8990272 7.4373599 3.9399399 7.4009529 3.9805572 C 7.3645482 4.0211726 7.3294516 4.0617562 7.2945016 4.1025112 C 7.2595516 4.1432682 7.2255481 4.1841418 7.1921843 4.2249819 C 7.1588243 4.2658239 7.1261677 4.3065779 7.0945177 4.3474527 C 7.0628679 4.3883255 7.0318387 4.4295886 7.0020187 4.4704402 C 6.9722089 4.511293 6.9435508 4.5516166 6.9157208 4.5923941 C 6.8878908 4.6331705 6.8608271 4.6742159 6.8351071 4.7148649 C 6.8093874 4.7555131 6.7846813 4.7958351 6.7612113 4.8363021 C 6.7377513 4.8767683 6.715123 4.9169916 6.6940333 4.9572226 C 6.6729433 4.9974534 6.6536933 5.0376853 6.6351233 5.0776263 C 6.6165433 5.1175681 6.5993879 5.1573968 6.5834479 5.1969965 C 6.5675079 5.2365961 6.5526538 5.2756127 6.5395238 5.3148164 C 6.5263638 5.3540207 6.5141277 5.3938824 6.5038677 5.4326364 C 6.4936177 5.471392 6.48533 5.5096206 6.47803 5.5478726 C 6.47077 5.5861227 6.4649771 5.6238635 6.4609771 5.6615585 C 6.4588771 5.6804065 6.4575264 5.6991867 6.4563264 5.7178847 C 6.4551264 5.7365837 6.4541426 5.7551511 6.4537426 5.7736941 C 6.4533836 5.7922371 6.4532496 5.8111226 6.4537426 5.8295036 C 6.4543426 5.8478846 6.4554431 5.8660685 6.4568431 5.8842795 C 6.4582431 5.9024905 6.4603274 5.9205027 6.4625274 5.9385387 C 6.4648274 5.9565747 6.4671787 5.9744291 6.4702787 5.9922811 C 6.4734287 6.0101331 6.4775473 6.0283596 6.4816473 6.0460236 C 6.4857573 6.0636863 6.4899829 6.0807477 6.4950829 6.0982157 C 6.5001329 6.1156837 6.5051023 6.1331419 6.5111023 6.1504079 C 6.5171023 6.1676729 6.5243157 6.1850273 6.5312557 6.2020833 C 6.5382557 6.2191393 6.5450594 6.236402 6.5529594 6.253242 C 6.5608594 6.270084 6.5693803 6.2867501 6.5782803 6.3033671 C 6.5871903 6.3199861 6.5967018 6.3365885 6.6067018 6.3529755 C 6.6166318 6.3693635 6.6267671 6.3853984 6.6377071 6.4015504 C 6.6486671 6.4177024 6.6602896 6.4336986 6.6723296 6.4496086 C 6.6843396 6.4655183 6.6969229 6.4814889 6.7100526 6.4971499 C 6.7231326 6.5128109 6.7367062 6.5282538 6.7508762 6.5436578 C 6.7650462 6.5590608 6.7795303 6.5739912 6.7948003 6.5891322 C 6.8100703 6.6042732 6.825435 6.6192188 6.841825 6.6340898 C 6.8582147 6.6489608 6.8754636 6.6639339 6.8929836 6.6785306 C 6.9105036 6.6931276 6.9285728 6.707625 6.9472428 6.721938 C 6.9659128 6.73625 6.9852793 6.7502888 7.0051193 6.7643118 C 7.024959 6.7783348 7.045583 6.7924409 7.066613 6.8061689 C 7.087623 6.8198969 7.1089773 6.8335725 7.1312073 6.8469925 C 7.1534373 6.8604165 7.1764856 6.8731468 7.1999356 6.8862658 C 7.2233856 6.8993818 7.2470844 6.9127351 7.2717644 6.9255391 C 7.2964444 6.9383381 7.322304 6.9513029 7.348244 6.9637789 C 7.374174 6.9762529 7.4006242 6.9883205 7.4278242 7.0004685 C 7.5366066 7.0490529 7.6454273 7.0955424 7.753896 7.1415424 C 7.8623637 7.1875416 7.9707019 7.2332442 8.0784176 7.2769319 C 8.1861473 7.3206203 8.2927828 7.3629177 8.399322 7.4045702 C 8.5058615 7.446223 8.6116701 7.4871488 8.716609 7.527041 C 8.9265005 7.6068224 9.1332128 7.6831232 9.3341302 7.7575133 C 9.5350476 7.8319048 9.7305589 7.9038696 9.9190959 7.9750668 C 10.013364 8.0106662 10.105542 8.0457877 10.196076 8.0810014 C 10.28661 8.116215 10.374795 8.1513165 10.461171 8.1864193 C 10.547546 8.2215219 10.632083 8.2570851 10.713864 8.2923539 C 10.795657 8.3276203 10.875318 8.3630982 10.952087 8.3988052 C 11.028859 8.4345123 11.102448 8.4703841 11.173775 8.5068068 C 11.209439 8.5250178 11.244966 8.5436575 11.279193 8.5620995 C 11.313421 8.5805415 11.347224 8.599203 11.37996 8.617909 C 11.412683 8.6366147 11.443867 8.6552292 11.475043 8.6742352 C 11.506221 8.6932389 11.536932 8.7122569 11.566508 8.7315949 C 11.596084 8.7509329 11.624885 8.7707989 11.652806 8.7905049 C 11.68074 8.8102116 11.707716 8.8293068 11.733936 8.8494148 C 11.760161 8.8695228 11.785956 8.8898468 11.810416 8.9103918 C 11.834875 8.9309368 11.85804 8.9524198 11.880695 8.9734358 C 11.903336 8.9944508 11.925026 9.0154756 11.945806 9.0369966 C 11.966586 9.0585176 11.986368 9.0800476 12.005232 9.1021076 C 12.024084 9.1241696 12.042094 9.1466509 12.058975 9.1692856 C 12.075856 9.1919206 12.09166 9.2152867 12.106516 9.2385307 C 12.121372 9.2617727 12.135651 9.285439 12.148373 9.309326 C 12.16115 9.333213 12.172846 9.3565911 12.183513 9.3811548 C 12.194163 9.4057188 12.203434 9.4308092 12.211934 9.4560842 C 12.220434 9.4813592 12.228441 9.5070596 12.234671 9.5330806 C 12.239869 9.5548935 12.243563 9.5773933 12.247073 9.5997419 C 12.247737 9.6039022 12.248516 9.6079573 12.24914 9.612144 C 12.25314 9.6389457 12.256325 9.6661751 12.257925 9.6937911 C 12.259503 9.7214081 12.259264 9.7495573 12.258442 9.778022 C 12.257642 9.806487 12.256058 9.835488 12.252758 9.8648367 C 12.249468 9.8941857 12.245022 9.924485 12.239322 9.954752 C 12.233552 9.9850187 12.226435 10.014997 12.218135 10.046217 C 12.209785 10.077447 12.200137 10.109607 12.189197 10.141817 C 12.178237 10.174017 12.166187 10.206256 12.152507 10.239483 C 12.138827 10.272713 12.12388 10.307007 12.10755 10.341284 C 12.0912 10.375564 12.073444 10.409785 12.054324 10.445152 C 12.035194 10.480521 12.01477 10.516653 11.99283 10.553153 C 11.97088 10.589649 11.946865 10.626595 11.922035 10.664255 C 11.897205 10.701902 11.871248 10.740642 11.843488 10.779492 C 11.815728 10.818342 11.786907 10.85775 11.756157 10.897828 C 11.725417 10.937898 11.692787 10.978443 11.659007 11.019782 C 11.625233 11.061111 11.589953 11.10324 11.553073 11.14587 C 11.516187 11.188499 11.477866 11.231606 11.437836 11.275576 C 11.397818 11.319548 11.356012 11.364095 11.312782 11.409415 C 11.269572 11.454749 11.224916 11.500658 11.178426 11.547388 C 11.131942 11.594109 11.084031 11.641862 11.034251 11.690012 C 10.984469 11.738177 10.932375 11.786624 10.879225 11.836254 C 10.826079 11.885885 10.770928 11.936523 10.714381 11.987663 C 10.601261 12.089935 10.489326 12.189706 10.377974 12.286863 C 10.266619 12.384018 10.156201 12.478918 10.046734 12.571078 C 9.9372674 12.66324 9.8286488 12.752997 9.7211791 12.840307 C 9.6137094 12.927613 9.507188 13.01199 9.401825 13.09455 C 9.2964757 13.177122 9.1923354 13.256891 9.0891888 13.334841 C 8.986042 13.41279 8.8840642 13.489272 8.7832703 13.562729 C 8.6824764 13.636191 8.5834491 13.707069 8.4851031 13.776149 C 8.3867717 13.845233 8.2894235 13.912326 8.1936538 13.977166 C 8.0978811 14.042009 8.0035622 14.105062 7.9104725 14.165782 C 7.8173668 14.226491 7.7253423 14.284758 7.6350426 14.341478 C 7.5447409 14.398195 7.4563039 14.452956 7.3689142 14.505806 C 7.2815135 14.558652 7.1949068 14.609148 7.1105371 14.658248 C 7.0359814 14.701637 6.9635533 14.743786 6.8914333 14.784336 A 6.5149584 6.5149584 0 0 0 7.0619622 14.816375 L 9.8674205 14.816375 A 6.5149584 6.5149584 0 0 0 10.569173 14.613291 A 6.5149584 6.5149584 0 0 1 9.8674205 14.816375 L 12.170594 14.816375 C 13.636362 14.816375 14.816375 13.636362 14.816375 12.170594 L 14.816375 9.8674205 A 6.5149584 6.5149584 0 0 1 14.613291 10.569173 A 6.5149584 6.5149584 0 0 0 14.816375 9.8674205 L 14.816375 7.0578282 A 6.5149584 6.5149584 0 0 0 14.613807 6.3591766 A 6.5149584 6.5149584 0 0 1 14.816375 7.0578282 L 14.816375 4.7624062 C 14.816375 3.2966375 13.636362 2.116625 12.170594 2.116625 L 9.868454 2.116625 A 6.5149584 6.5149584 0 0 1 10.569173 2.3191926 A 6.5149584 6.5149584 0 0 0 9.868454 2.116625 L 9.5248125 2.116625 L 9.5242957 2.116625 z M 10.753654 2.3863707 A 6.5149584 6.5149584 0 0 1 11.330352 2.6349294 A 6.5149584 6.5149584 0 0 0 10.753654 2.3863707 z M 11.430085 2.6814373 A 6.5149584 6.5149584 0 0 1 12.053291 3.0488495 A 6.5149584 6.5149584 0 0 0 11.430085 2.6814373 z M 12.202116 3.1532338 A 6.5149584 6.5149584 0 0 1 12.678563 3.5221963 A 6.5149584 6.5149584 0 0 0 12.202116 3.1532338 z M 12.795866 3.6203796 A 6.5149584 6.5149584 0 0 1 13.307453 4.1309327 A 6.5149584 6.5149584 0 0 0 12.795866 3.6203796 z M 13.41132 4.2544369 A 6.5149584 6.5149584 0 0 1 13.776149 4.7241664 A 6.5149584 6.5149584 0 0 0 13.41132 4.2544369 z M 13.880533 4.8729916 A 6.5149584 6.5149584 0 0 1 14.248979 5.4956804 A 6.5149584 6.5149584 0 0 0 13.880533 4.8729916 z M 14.298071 5.6010982 A 6.5149584 6.5149584 0 0 1 14.544562 6.1710781 A 6.5149584 6.5149584 0 0 0 14.298071 5.6010982 z M 14.547146 10.751587 A 6.5149584 6.5149584 0 0 1 14.29652 11.332419 A 6.5149584 6.5149584 0 0 0 14.547146 10.751587 z M 14.250529 11.430602 A 6.5149584 6.5149584 0 0 1 13.883117 12.053291 A 6.5149584 6.5149584 0 0 0 14.250529 11.430602 z M 13.776149 12.205733 A 6.5149584 6.5149584 0 0 1 13.409253 12.67908 A 6.5149584 6.5149584 0 0 0 13.776149 12.205733 z M 13.310553 12.7969 A 6.5149584 6.5149584 0 0 1 12.7969 13.310553 A 6.5149584 6.5149584 0 0 0 13.310553 12.7969 z M 12.67908 13.409253 A 6.5149584 6.5149584 0 0 1 12.205733 13.776149 A 6.5149584 6.5149584 0 0 0 12.67908 13.409253 z M 12.053291 13.883117 A 6.5149584 6.5149584 0 0 1 11.430602 14.250529 A 6.5149584 6.5149584 0 0 0 12.053291 13.883117 z M 11.332419 14.29652 A 6.5149584 6.5149584 0 0 1 10.751587 14.547146 A 6.5149584 6.5149584 0 0 0 11.332419 14.29652 z "
     style="fill-opacity:1;fill:url(#linearGradient21)" />
  <path
     id="path18"
     d="M 4.7624062 2.116625 C 3.296636 2.116625 2.116625 3.296636 2.116625 4.7624062 L 2.116625 7.0655795 A 6.5149584 6.5149584 0 0 1 2.3197094 6.3638274 A 6.5149584 6.5149584 0 0 0 2.116625 7.0655795 L 2.116625 9.8596692 A 6.5149584 6.5149584 0 0 0 2.3429633 10.632733 A 6.5149584 6.5149584 0 0 1 2.116625 9.8596692 L 2.116625 12.170594 C 2.116625 13.636362 3.2966375 14.816375 4.7624062 14.816375 L 7.0619622 14.816375 A 6.5149584 6.5149584 0 0 1 6.8914333 14.784336 A 6.5149584 6.5149584 0 0 1 6.1307712 14.535777 A 6.5149584 6.5149584 0 0 0 6.8914333 14.784336 C 6.9635533 14.743786 7.0359813 14.701637 7.1105371 14.658248 C 7.1949069 14.609148 7.2815134 14.558652 7.3689142 14.505806 C 7.456304 14.452956 7.5447408 14.398195 7.6350426 14.341478 C 7.7253424 14.284758 7.8173667 14.226492 7.9104725 14.165782 C 8.0035623 14.105062 8.097881 14.042009 8.1936538 13.977166 C 8.2894236 13.912326 8.3867716 13.845233 8.4851031 13.776149 C 8.5834491 13.707069 8.6824763 13.636191 8.7832703 13.562729 C 8.8840643 13.489271 8.9860419 13.41279 9.0891888 13.334841 C 9.1923356 13.256891 9.2964756 13.177122 9.401825 13.09455 C 9.5071881 13.01199 9.6137093 12.927613 9.7211791 12.840307 C 9.8286489 12.752997 9.9372671 12.66324 10.046734 12.571078 C 10.156201 12.478918 10.266619 12.384018 10.377974 12.286863 C 10.489327 12.189705 10.601261 12.089935 10.714381 11.987663 C 10.770929 11.936523 10.826079 11.885885 10.879225 11.836254 C 10.932375 11.786624 10.984469 11.738177 11.034251 11.690012 C 11.084031 11.641862 11.131942 11.594109 11.178426 11.547388 C 11.224916 11.500658 11.269572 11.454749 11.312782 11.409415 C 11.356012 11.364095 11.397818 11.319548 11.437836 11.275576 C 11.477866 11.231606 11.516187 11.188499 11.553073 11.14587 C 11.589953 11.10324 11.625233 11.061111 11.659007 11.019782 C 11.692797 10.978442 11.7249 10.937907 11.75564 10.897828 C 11.78639 10.857758 11.815738 10.81834 11.843488 10.779492 C 11.871248 10.740642 11.897205 10.701902 11.922035 10.664255 C 11.946865 10.626595 11.97088 10.589649 11.99283 10.553153 C 12.01477 10.516653 12.035194 10.480521 12.054324 10.445152 C 12.073434 10.409782 12.090693 10.375572 12.107033 10.341284 C 12.123383 10.307004 12.138877 10.272709 12.152507 10.239483 C 12.166187 10.206255 12.178237 10.174017 12.189197 10.141817 C 12.200137 10.109607 12.209785 10.077447 12.218135 10.046217 C 12.226435 10.014997 12.233552 9.9850188 12.239322 9.954752 C 12.245022 9.924485 12.249468 9.8941857 12.252758 9.8648367 C 12.256058 9.8354879 12.257642 9.806487 12.258442 9.778022 C 12.259264 9.7495572 12.259503 9.7214081 12.257925 9.6937911 C 12.256325 9.6661751 12.25314 9.6389458 12.24914 9.612144 C 12.24514 9.585342 12.240395 9.5591024 12.234155 9.5330806 C 12.228055 9.5070596 12.220404 9.4813592 12.211934 9.4560842 C 12.203434 9.4308092 12.194163 9.4057188 12.183513 9.3811548 C 12.172846 9.356591 12.16115 9.333213 12.148373 9.309326 C 12.135651 9.285439 12.121372 9.2617727 12.106516 9.2385307 C 12.09166 9.2152867 12.075856 9.1919206 12.058975 9.1692856 C 12.042094 9.1466508 12.024084 9.1241696 12.005232 9.1021076 C 11.986368 9.0800476 11.966586 9.0585176 11.945806 9.0369966 C 11.925026 9.0154756 11.903336 8.9944508 11.880695 8.9734358 C 11.85804 8.9524198 11.834875 8.9309368 11.810416 8.9103918 C 11.785956 8.8898468 11.760161 8.8695228 11.733936 8.8494148 C 11.707715 8.8293068 11.68074 8.8102117 11.652806 8.7905049 C 11.624885 8.7707989 11.596084 8.7509329 11.566508 8.7315949 C 11.536932 8.7122569 11.506221 8.693239 11.475043 8.6742352 C 11.443867 8.6552292 11.412683 8.6366148 11.37996 8.617909 C 11.347224 8.599203 11.313421 8.5805415 11.279193 8.5620995 C 11.244966 8.5436575 11.209439 8.5250178 11.173775 8.5068068 C 11.102448 8.470384 11.028859 8.4345123 10.952087 8.3988052 C 10.875317 8.3630982 10.795657 8.3276204 10.713864 8.2923539 C 10.632083 8.2570851 10.547546 8.221522 10.461171 8.1864193 C 10.374795 8.1513165 10.28661 8.116215 10.196076 8.0810014 C 10.105542 8.0457877 10.013364 8.0106662 9.9190959 7.9750668 C 9.7305587 7.9038695 9.5350478 7.8319049 9.3341302 7.7575133 C 9.1332126 7.6831231 8.9265007 7.6068225 8.716609 7.527041 C 8.61167 7.4871488 8.5058616 7.446223 8.399322 7.4045702 C 8.2927827 7.3629176 8.1861474 7.3206203 8.0784176 7.2769319 C 7.9707018 7.2332441 7.8623638 7.1875417 7.753896 7.1415424 C 7.6454272 7.0955424 7.5366068 7.049053 7.4278242 7.0004685 C 7.4006242 6.9883205 7.374174 6.9762529 7.348244 6.9637789 C 7.322304 6.9513029 7.2964444 6.9383381 7.2717644 6.9255391 C 7.2470844 6.9127351 7.2233856 6.8993818 7.1999356 6.8862658 C 7.1764856 6.8731468 7.1534373 6.8604165 7.1312073 6.8469925 C 7.1089773 6.8335725 7.087623 6.8198969 7.066613 6.8061689 C 7.045583 6.7924409 7.0249591 6.7783348 7.0051193 6.7643118 C 6.9852793 6.7502888 6.9659128 6.73625 6.9472428 6.721938 C 6.9285728 6.707625 6.9105036 6.6931276 6.8929836 6.6785306 C 6.8754636 6.6639338 6.8582148 6.6489608 6.841825 6.6340898 C 6.825435 6.6192188 6.8100703 6.6042732 6.7948003 6.5891322 C 6.7795303 6.5739912 6.7650462 6.5590608 6.7508762 6.5436578 C 6.7367062 6.5282538 6.7231326 6.5128109 6.7100526 6.4971499 C 6.6969228 6.4814889 6.6843396 6.4655184 6.6723296 6.4496086 C 6.6602896 6.4336986 6.6486671 6.4177024 6.6377071 6.4015504 C 6.6267671 6.3853984 6.6166318 6.3693635 6.6067018 6.3529755 C 6.5967018 6.3365885 6.5871903 6.3199861 6.5782803 6.3033671 C 6.5693803 6.2867501 6.5608594 6.270084 6.5529594 6.253242 C 6.5450594 6.236402 6.5376688 6.2191393 6.530739 6.2020833 C 6.523739 6.1850273 6.5170523 6.1676739 6.5111023 6.1504079 C 6.5051023 6.1331419 6.5001329 6.1156837 6.4950829 6.0982157 C 6.4899829 6.0807477 6.4857573 6.0636864 6.4816473 6.0460236 C 6.4775473 6.0283596 6.4734287 6.0101331 6.4702787 5.9922811 C 6.4671787 5.9744291 6.4648274 5.9565747 6.4625274 5.9385387 C 6.4603274 5.9205027 6.4582431 5.9024905 6.4568431 5.8842795 C 6.4554431 5.8660685 6.4543426 5.8478846 6.4537426 5.8295036 C 6.4532496 5.8111226 6.4533836 5.7922371 6.4537426 5.7736941 C 6.4541026 5.7551511 6.4545346 5.7365837 6.4558096 5.7178847 C 6.4570096 5.6991857 6.4589771 5.6804055 6.4609771 5.6615585 C 6.4649771 5.6238635 6.47077 5.5861228 6.47803 5.5478726 C 6.48533 5.5096206 6.4936177 5.4713921 6.5038677 5.4326364 C 6.5141277 5.3938824 6.5263638 5.3540207 6.5395238 5.3148164 C 6.5526538 5.2756126 6.5675079 5.2365961 6.5834479 5.1969965 C 6.5993879 5.1573955 6.6160267 5.1175678 6.6346065 5.0776263 C 6.6531865 5.0376833 6.6729333 4.9974524 6.6940333 4.9572226 C 6.7151231 4.9169916 6.7377513 4.8767683 6.7612113 4.8363021 C 6.7846813 4.7958351 6.8093873 4.7555132 6.8351071 4.7148649 C 6.8608271 4.6742159 6.8878908 4.6331705 6.9157208 4.5923941 C 6.9435408 4.5516173 6.971692 4.5112928 7.001502 4.4704402 C 7.031312 4.4295892 7.0628679 4.3883261 7.0945177 4.3474527 C 7.1261777 4.3065797 7.1583075 4.2658236 7.1916675 4.2249819 C 7.2250375 4.1841401 7.2595476 4.1432666 7.2945016 4.1025112 C 7.3294516 4.0617562 7.3645481 4.0211726 7.4009529 3.9805572 C 7.4373529 3.9399404 7.474855 3.8990277 7.5125718 3.8586032 C 7.5502918 3.8181794 7.5883953 3.7778618 7.6272913 3.7376828 C 7.6661811 3.6975038 7.70568 3.6576748 7.745628 3.6177958 C 7.7855778 3.5779158 7.8262072 3.538469 7.8670652 3.4989424 C 7.907925 3.4594154 7.9489316 3.420243 7.9905694 3.3811224 C 8.0322094 3.3420014 8.0743696 3.3029972 8.1166574 3.264336 C 8.2012574 3.187015 8.286579 3.1105716 8.3729675 3.0354139 C 8.4593703 2.9602521 8.5468007 2.8857817 8.6339283 2.8132096 C 8.7210703 2.7406358 8.8085929 2.6698558 8.8954059 2.6003069 C 8.9822189 2.5307501 9.0683517 2.4628211 9.153783 2.3967057 C 9.2392138 2.3305919 9.3234932 2.2661934 9.4064758 2.2039565 C 9.4465741 2.1738809 9.4851942 2.1454577 9.5242957 2.116625 L 7.0655795 2.116625 A 6.5149584 6.5149584 0 0 0 6.3638274 2.3197094 A 6.5149584 6.5149584 0 0 1 7.0655795 2.116625 L 4.7624062 2.116625 z M 6.1814131 2.3858539 A 6.5149584 6.5149584 0 0 0 5.6005815 2.6364797 A 6.5149584 6.5149584 0 0 1 6.1814131 2.3858539 z M 5.5023982 2.6824708 A 6.5149584 6.5149584 0 0 0 4.8797094 3.049883 A 6.5149584 6.5149584 0 0 1 5.5023982 2.6824708 z M 4.727267 3.1568511 A 6.5149584 6.5149584 0 0 0 4.2539202 3.5237466 A 6.5149584 6.5149584 0 0 1 4.727267 3.1568511 z M 4.1361002 3.6224466 A 6.5149584 6.5149584 0 0 0 3.6224466 4.1361002 A 6.5149584 6.5149584 0 0 1 4.1361002 3.6224466 z M 3.5237466 4.2539202 A 6.5149584 6.5149584 0 0 0 3.1568511 4.727267 A 6.5149584 6.5149584 0 0 1 3.5237466 4.2539202 z M 3.049883 4.8797094 A 6.5149584 6.5149584 0 0 0 2.6824708 5.5023982 A 6.5149584 6.5149584 0 0 1 3.049883 4.8797094 z M 2.6364797 5.6005815 A 6.5149584 6.5149584 0 0 0 2.3858539 6.1814131 A 6.5149584 6.5149584 0 0 1 2.6364797 5.6005815 z M 2.4101414 10.814631 A 6.5149584 6.5149584 0 0 0 2.740864 11.547905 A 6.5149584 6.5149584 0 0 0 3.1692532 12.227953 A 6.5149584 6.5149584 0 0 1 2.740864 11.547905 A 6.5149584 6.5149584 0 0 1 2.4101414 10.814631 z M 3.2855229 12.387114 A 6.5149584 6.5149584 0 0 0 3.8033105 13.001534 A 6.5149584 6.5149584 0 0 0 4.3991281 13.535858 A 6.5149584 6.5149584 0 0 1 3.8033105 13.001534 A 6.5149584 6.5149584 0 0 1 3.2855229 12.387114 z M 4.5593219 13.660913 A 6.5149584 6.5149584 0 0 0 5.2228342 14.108422 A 6.5149584 6.5149584 0 0 0 5.942156 14.459815 A 6.5149584 6.5149584 0 0 1 5.2228342 14.108422 A 6.5149584 6.5149584 0 0 1 4.5593219 13.660913 z "
     style="fill:url(#linearGradient19);fill-opacity:1" />
  <circle
     cx="4.7021937"
     cy="4.3474526"
     r="2.8405974"
     fill="url(#radialGradient39408)"
     opacity="0.5"
     style="fill:url(#radialGradient19);fill-rule:evenodd;stroke-width:2.14725;paint-order:stroke fill markers"
     id="circle19" />
  <path
     d="m 2.0543217,6.5612602 c 0,0 -0.04874,0.2914984 -0.1004626,0.7127609 -1.701e-4,0.00235 -0.04585,0.417206 0.4953799,0.8024437 L 2.371067,9.9376567 c 0,0 -0.3402123,-0.1745358 -0.536724,-0.7744564 0.00754,0.3751352 0.044309,0.7189554 0.1244682,0.9792187 l 0.041616,-0.1614253 0.059568,0.043041 -0.053009,0.176883 -0.041573,-0.0359 c 0.057975,0.179191 0.1372381,0.317138 0.245995,0.389703 0.7487433,0.499541 1.8396741,1.107163 4.7278447,1.373575 2.8881615,0.266389 7.6833581,-0.0257 7.9863931,-1.435226 0,0 0.05389,-0.37743 0.102233,-0.8898256 -0.125281,0.3419751 -0.262658,0.4983526 -0.262658,0.4983526 l 0.05115,-1.8921026 C 14.963692,8.0495159 15.034964,7.7028215 15.065366,7.5112175 15.027168,7.1937038 14.955393,6.9406986 14.833557,6.8168614 15.784811,8.2494254 12.032343,8.6798475 10.011656,8.8024156 8.1823766,8.9133922 5.0237619,8.6724896 3.1528743,7.8077392 1.9487001,7.2512113 2.0543397,6.5612748 2.0543397,6.5612748 Z m 0.07721,0.7776265 0.060164,0.042845 -0.053022,0.1768868 -0.051955,-0.044376 z m 0.08885,0.076537 0.07661,0.05323 -0.03499,0.1860344 -0.088085,-0.041785 z m 0.1090897,0.1111781 0.098437,0.048249 -0.022112,0.1996906 -0.097418,-0.022344 z m 0.1456962,0.1003393 0.1171036,0.059201 -0.019001,0.2430496 c 0,0 -0.1165363,-0.03989 -0.1259927,-0.099859 -0.00947,-0.059958 0.02789,-0.2023968 0.02789,-0.2023968 z m 0.27843,0.1695361 0.1577113,0.073221 -0.047573,0.2402896 -0.1529742,-0.090379 z m 0.2196468,0.1134166 0.1574998,0.072621 -0.024549,0.234899 -0.1575162,-0.061167 z m 0.2386945,0.1101008 0.1561392,0.062998 0.00247,0.2408878 -0.1630635,-0.055852 z m -0.3416788,0.307916 1.5026455,0.535456 -0.085211,1.9101904 -1.4936401,-0.550075 z m 0.6049887,-0.1909902 0.1561401,0.062998 0.00247,0.2408886 -0.1636676,-0.05564 z m 0.2832611,0.095108 0.1733458,0.0583 0.00809,0.2281475 -0.1858909,-0.038403 z m 0.3004997,0.092428 0.1741599,0.058688 0.00749,0.228359 -0.1861019,-0.039004 z m 0.3095724,0.081825 0.1954813,0.059952 0.014212,0.2340794 -0.2141388,-0.045991 z m 0.3146709,0.086772 0.2179417,0.056779 0.00134,0.2204212 -0.2243225,-0.028945 z m 0.3688366,0.06842 0.2177184,0.056179 0.00134,0.2204203 -0.2235082,-0.028556 z m 0.3637487,0.076934 0.2177293,0.056176 0.00134,0.2204202 -0.2235083,-0.028556 z M 5.78171,8.7098895 5.9985449,8.7481966 5.9998875,8.9686178 5.776378,8.9400616 Z M 5.0047938,9.0057252 c 0.1918178,0.092555 2.0935575,0.3063227 2.0935575,0.3063227 L 7.0158142,11.212564 C 6.7244581,11.226029 4.9388008,10.909187 4.9388008,10.909187 Z m -2.9160381,1.0520298 0.076819,0.05382 -0.036393,0.185863 -0.087695,-0.0426 z M 6.1655338,8.7690001 6.3825793,8.8079071 6.383706,9.0277242 6.1601977,8.999168 Z m -3.9683091,1.4001619 0.098649,0.04885 -0.022706,0.199898 -0.097027,-0.02315 z m 0.1453037,0.101155 0.1173142,0.0598 -0.019804,0.242654 c 0,0 -0.1169193,-0.04046 -0.1262002,-0.100449 -0.00934,-0.05997 0.028703,-0.202007 0.028703,-0.202007 z m 4.2185551,-1.4523782 0.2164417,0.039117 0.00113,0.2198171 -0.2235083,-0.028556 z m 0.3998372,0.047415 0.2307979,0.032056 0.00709,0.2157033 -0.2432305,-0.017587 z m -4.3397775,1.5750972 0.1571196,0.07343 -0.048384,0.23991 -0.1523721,-0.09059 z m 4.7583252,-1.5436773 0.2301955,0.032268 0.00708,0.2157064 -0.2432298,-0.017586 z m -4.5392232,1.6572863 0.1573294,0.07403 -0.025365,0.234506 -0.1569247,-0.06138 z m 4.955282,-1.6270162 0.2301956,0.032269 0.00709,0.2157037 -0.2432302,-0.017586 z m -4.7167264,1.7385022 0.1561387,0.063 0.00187,0.2411 L 3.0735332,10.9132 Z M 8.2065166,8.9543823 8.436067,8.9713894 8.4466001,9.1892468 8.20337,9.1716594 Z m -4.8648079,1.8289087 0.1555478,0.06321 0.00187,0.241099 -0.1632738,-0.05645 z m 5.2976936,-1.8119503 0.2410674,0.02104 0.00649,0.2159162 -0.2432301,-0.017587 z m 0.3961082,0.00227 0.2404766,0.021247 0.00687,0.215101 -0.2430197,-0.016986 z m -5.4110126,1.9056003 0.1733458,0.0583 0.00689,0.228571 -0.1854985,-0.03922 z m 4.243627,-1.4867324 2.2847281,0.020291 c 0.01816,0.5318928 -0.08426,1.8822254 -0.08426,1.8822254 -0.5044724,0.07971 -2.2511176,-0.01662 -2.2511176,-0.01662 z m 1.6077026,-0.4193368 0.2404762,0.021249 0.00709,0.215704 -0.2432302,-0.017586 z m -5.5511542,1.9993182 0.1735574,0.0589 0.00689,0.22857 -0.1854983,-0.03921 z m 5.9614987,-2.0060873 0.260384,-0.00258 -0.0028,0.2124452 -0.253446,0.00892 z m -5.6523989,2.0887573 0.195089,0.06077 0.013406,0.233685 -0.213547,-0.0462 z m 6.0731209,-2.1045654 0.261199,-0.0022 -0.0037,0.2120507 -0.252647,0.00929 z m 0.414377,-0.035802 0.260383,-0.00258 -0.0028,0.2124446 -0.253446,0.0089 z m -6.1730404,2.2285684 0.2179293,0.05679 5.28e-4,0.220029 L 4.5429686,11.391 Z m 6.5938704,-2.247779 0.254209,-0.023981 -0.0039,0.2168825 -0.245936,0.026458 z m 0.387843,-0.036582 0.233018,-0.042122 0.0222,0.2184764 -0.250893,0.043028 z m -6.6126798,2.353379 0.2173386,0.05699 7.399e-4,0.220634 -0.2239318,-0.02976 z m 10.0144778,-3.5161579 0.02911,0.1231156 -0.05238,0.029179 -0.03505,-0.1264112 z m -3.025874,1.1229495 0.250813,-0.060506 0.0046,0.2374467 -0.250501,0.042213 z m 2.953061,-1.0293676 0.03411,0.1469405 -0.06194,0.034538 -0.04196,-0.1502432 z m -0.09653,0.070277 0.03972,0.1705667 -0.07209,0.040136 -0.04866,-0.1748427 z m -2.497296,0.9022355 0.250813,-0.060506 0.0046,0.2374468 -0.250501,0.042213 z m 2.390666,-0.8129158 0.03687,0.2065825 -0.09341,0.038886 -0.03893,-0.208556 z m -2.038264,0.7443382 0.215208,-0.050683 0.007,0.2116842 -0.217887,0.058372 z m -7.3367536,2.5963071 0.2175466,0.05759 5.277e-4,0.220028 -0.2237196,-0.02915 z m 9.1163546,-3.1951687 0.115366,-0.037743 0.03438,0.2013993 -0.110581,0.045615 z m -1.469696,0.5398896 0.215418,-0.050081 0.007,0.2116873 -0.217499,0.05755 z m -1.954403,0.6974117 c 0.438396,0.00188 1.978699,-0.2621166 1.978699,-0.2621166 l -0.06661,1.86729 c -0.584026,0.202585 -1.965413,0.324786 -1.965413,0.324786 z m 3.227482,-1.1318441 0.150468,-0.052861 0.02611,0.2123821 -0.137659,0.049035 z m -0.974012,0.3482472 0.215206,-0.050683 0.0078,0.2120675 -0.207682,0.070173 z m 0.770832,-0.2633339 0.16909,-0.055421 0.02245,0.2210835 -0.163057,0.057283 z m -0.246169,0.087154 0.177776,-0.053696 0.02881,0.2161548 -0.178309,0.059855 z m -0.235459,0.09078 0.177775,-0.053696 0.0282,0.2163704 -0.178308,0.059855 z m -7.8694162,2.8992562 0.2166531,0.03972 5.277e-4,0.220029 -0.2237195,-0.02915 z m 0.3835731,0.06054 0.2166519,0.03972 5.28e-4,0.22003 -0.2237195,-0.02915 z m 8.5795941,-2.9884687 -0.05588,1.8729077 c -0.160772,0.183152 -1.11529,0.509658 -1.11529,0.509658 l 0.06081,-1.8914505 c 0.547174,-0.144675 1.110371,-0.4910922 1.110371,-0.4910922 z m -8.1841227,3.0387767 0.2166514,0.03972 5.279e-4,0.22003 -0.2237186,-0.02916 z m 0.4002607,0.04863 0.2304044,0.03286 0.00627,0.215312 -0.2432286,-0.01759 z m 0.4176925,0.03307 0.2304159,0.03286 0.00627,0.215313 -0.2434408,-0.01819 z m 0.4158646,0.03169 0.2310094,0.03266 0.00568,0.215521 -0.2434405,-0.01819 z m 0.4111786,0.02795 0.2293795,0.01841 0.00972,0.217477 -0.2428369,-0.0184 z m 0.432738,0.01836 0.2406884,0.02185 0.00649,0.215915 -0.2434407,-0.01819 z m 0.3959253,0.0037 0.2404768,0.02125 0.00649,0.215916 -0.2434409,-0.01819 z m 0.4406908,7.45e-4 0.2406885,0.02185 0.00568,0.215522 -0.2428376,-0.0184 z m 0.4100294,-0.006 0.2608068,-0.0014 -0.0042,0.212262 -0.2528541,0.0087 z m 0.4213558,-0.01401 0.260807,-0.0014 -0.0044,0.21167 -0.252854,0.0087 z m 0.414588,-0.0352 0.260203,-0.0011 -0.0037,0.212049 -0.253065,0.0081 z m 0.420089,-0.01762 0.254418,-0.02339 -0.0039,0.216882 -0.246957,0.02548 z m 0.388262,-0.03539 0.23323,-0.04152 0.02162,0.218682 -0.251317,0.04182 z m 3.405387,-1.152564 0.02851,0.123327 -0.05236,0.02921 -0.03434,-0.126663 z m -3.029036,1.113948 0.251021,-0.05991 0.0038,0.237054 -0.251316,0.04182 z m 2.956011,-1.020969 0.03351,0.147151 -0.06194,0.03453 -0.04139,-0.150446 z m -0.09653,0.07029 0.03912,0.170778 -0.0723,0.03954 -0.04781,-0.174461 z m -2.499826,0.895034 0.250422,-0.05969 0.0044,0.236843 -0.251317,0.04182 z m 2.392402,-0.806121 0.03629,0.206787 -0.09281,0.03868 -0.03853,-0.209374 z m -2.040368,0.738349 0.215419,-0.05008 0.0064,0.211897 -0.21771,0.05695 z m 1.781477,-0.59352 0.115366,-0.03775 0.03401,0.202208 -0.111017,0.04437 z m -1.471171,0.535691 0.215417,-0.05008 0.0064,0.211896 -0.21771,0.05695 z m 1.274128,-0.431447 0.150861,-0.05171 0.02532,0.211996 -0.137659,0.04903 z m -0.974854,0.345855 0.215419,-0.05008 0.0064,0.211896 -0.20708,0.06996 z m 0.525076,-0.175008 0.177963,-0.05316 0.0282,0.216371 -0.17831,0.05986 z m 0.24659,-0.08595 0.168705,-0.05459 0.02245,0.221083 -0.163459,0.05613 z m -0.482243,0.176183 0.17737,-0.05296 0.0282,0.216371 -0.178497,0.05932 z"
     id="path21"
     style="stroke-width:1.22953" />
  <path
     d="m 5.5046437,9.3493071 c 0,0 -0.227389,0.6237084 -0.1791104,1.4284149 0,0 0.9652816,-0.193334 1.3993953,-0.566764 0,0 -0.5161189,-0.6555215 -1.2202946,-0.8616781 z"
     id="path22"
     style="stroke-width:1.22953" />
  <path
     d="m 2.4485502,8.0766541 -0.078171,1.8611923 c 0,0 -0.3049662,-0.111266 -0.5367243,-0.7744569 -0.231608,-0.6632427 0.1214915,-1.9118573 0.1214915,-1.9118573 0,0 -0.040207,0.2700083 0.4933912,0.8250487 z"
     opacity="0.4"
     id="path23"
     style="stroke-width:1.22953" />
  <path
     d="m 14.609179,8.4341609 c 0,0 -0.03518,0.022113 -0.09655,0.056808 -0.03065,0.017434 -0.06813,0.037619 -0.110747,0.060462 -0.04266,0.022748 -0.09058,0.048264 -0.142874,0.074436 -0.05229,0.026231 -0.108582,0.053312 -0.168297,0.08068 -0.05972,0.027349 -0.122916,0.054387 -0.187795,0.080782 -0.06489,0.026378 -0.131963,0.052231 -0.199737,0.075543 -0.03388,0.011659 -0.06795,0.022777 -0.102177,0.033109 -0.03418,0.010512 -0.06802,0.020115 -0.102226,0.029146 l -0.06081,1.8914501 c 0,0 0.05945,-0.0204 0.151451,-0.05388 0.046,-0.01673 0.100232,-0.0369 0.158991,-0.05924 0.05876,-0.02234 0.121835,-0.04678 0.186496,-0.07298 0.06469,-0.02611 0.131046,-0.0538 0.194802,-0.08191 0.06381,-0.02799 0.125055,-0.05631 0.181097,-0.08449 0.02801,-0.01412 0.05467,-0.02837 0.0795,-0.04208 0.02481,-0.01379 0.04795,-0.027 0.06867,-0.04029 0.02073,-0.01326 0.03922,-0.02641 0.05503,-0.03887 0.0158,-0.01252 0.02915,-0.02455 0.03922,-0.03599 z"
     opacity="0.4"
     style="fill-rule:evenodd;stroke-width:1.22953;paint-order:stroke fill markers"
     id="path24" />
  <path
     d="m 10.972213,9.3326183 -0.05337,1.9298907 c 0,0 0.08587,-0.0077 0.224501,-0.02229 0.06931,-0.0073 0.151907,-0.01608 0.243116,-0.02681 0.09121,-0.01072 0.191407,-0.02335 0.295999,-0.0373 0.104587,-0.01397 0.213717,-0.02914 0.323178,-0.04619 0.109458,-0.01706 0.219429,-0.0357 0.325242,-0.05567 0.0529,-0.01002 0.10444,-0.02014 0.154837,-0.03082 0.05042,-0.01065 0.09973,-0.02194 0.146556,-0.03331 0.04683,-0.01138 0.09143,-0.02356 0.13366,-0.03549 0.04222,-0.01194 0.08188,-0.02419 0.118358,-0.0369 L 12.9509,9.0704326 c 0,0 -0.09625,0.016438 -0.247509,0.041162 -0.151259,0.024715 -0.35773,0.057602 -0.57767,0.090472 -0.109974,0.016441 -0.223536,0.033023 -0.335204,0.048384 -0.111662,0.01538 -0.22163,0.029765 -0.324662,0.042008 -0.103031,0.012244 -0.199184,0.022431 -0.283258,0.029464 -0.04202,0.00357 -0.08107,0.0061 -0.116416,0.00789 -0.03535,0.00188 -0.0666,0.00282 -0.094,0.00272 z"
     opacity="0.4"
     style="fill-rule:evenodd;stroke-width:1.22953;paint-order:stroke fill markers"
     id="path25" />
  <path
     d="m 7.8669849,9.3928056 -0.050627,1.8859204 c 0,0 0.1087248,0.0062 0.2803427,0.01398 0.085819,0.0038 0.1873925,0.0081 0.2985988,0.01227 0.1112066,0.0042 0.2321453,0.0084 0.3570749,0.01194 0.1249279,0.0036 0.2537523,0.0066 0.3807294,0.0084 0.1269726,0.0018 0.2522171,0.0026 0.3695648,0.0015 0.058677,-5.39e-4 0.115274,-0.0015 0.1693511,-0.0029 0.054074,-0.0015 0.1054051,-0.0036 0.1534234,-0.0061 0.048018,-0.0025 0.092974,-0.0055 0.1334823,-0.0092 0.040506,-0.0037 0.076975,-0.0083 0.1084947,-0.01319 0,0 0.006,-0.08398 0.01536,-0.218874 0.0093,-0.134899 0.02152,-0.320758 0.03317,-0.522795 0.0058,-0.101013 0.01159,-0.205846 0.0167,-0.310932 0.0051,-0.105087 0.0098,-0.210376 0.01329,-0.3110748 0.0036,-0.1006991 0.006,-0.1968236 0.007,-0.2846525 0.001,-0.087829 9.16e-4,-0.1673924 -0.0013,-0.2338781 z"
     opacity="0.4"
     style="fill-rule:evenodd;stroke-width:1.22953;paint-order:stroke fill markers"
     id="path26" />
  <path
     d="M 5.0047156,9.0057407 4.9386927,10.90919 c 0,0 0.1113657,0.01979 0.2833243,0.04929 0.1719557,0.02948 0.4045517,0.06899 0.6459711,0.107766 0.12071,0.01939 0.2437527,0.03855 0.3626129,0.05646 0.1188606,0.01791 0.2333837,0.03452 0.3375735,0.04842 0.104186,0.0139 0.1978916,0.02479 0.2746071,0.03216 0.038367,0.0037 0.072134,0.0067 0.101211,0.0082 0.029107,0.0016 0.053552,0.0019 0.071756,10e-4 l 0.082536,-1.9005136 c 0,0 -0.1190897,-0.01307 -0.3003647,-0.034544 C 6.6166313,9.2560079 6.3731126,9.2263992 6.1234033,9.1938901 5.998556,9.1776397 5.8722344,9.160456 5.7514446,9.1434041 5.6306442,9.126359 5.5150625,9.1093245 5.4124407,9.0927957 5.3098101,9.0762637 5.2198146,9.0604866 5.1494506,9.0457827 c -0.035174,-0.00735 -0.065085,-0.014416 -0.089555,-0.021066 -0.02447,-0.00665 -0.043179,-0.013224 -0.055163,-0.019006 z"
     opacity="0.4"
     style="fill-rule:evenodd;stroke-width:1.22953;paint-order:stroke fill markers"
     id="path27" />
  <path
     d="m 2.8692243,8.328169 -0.076198,1.895556 1.4936411,0.550074 0.08521,-1.9101904 z"
     opacity="0.4"
     style="fill-rule:evenodd;stroke-width:1.22953;paint-order:stroke fill markers"
     id="path28" />
  <path
     d="m 14.815546,8.2091885 -0.05115,1.8920995 c 0,0 0.25467,-0.2643829 0.262658,-0.4983493 0.008,-0.2339682 0.102988,-0.6055614 0.03749,-2.0920312 0,0 -0.0841,0.3721022 -0.248992,0.698281 z"
     opacity="0.4"
     id="path29"
     style="stroke-width:1.22953" />
</svg>
