<?xml version="1.0" encoding="UTF-8" standalone="no"?>
<svg
   width="64"
   height="64"
   version="1.1"
   viewBox="0 0 16.933 16.933"
   id="svg24"
   sodipodi:docname="org.gnome.Gtranslator.svg"
   inkscape:version="1.3.2 (091e20ef0f, 2023-11-25, custom)"
   xmlns:inkscape="http://www.inkscape.org/namespaces/inkscape"
   xmlns:sodipodi="http://sodipodi.sourceforge.net/DTD/sodipodi-0.dtd"
   xmlns:xlink="http://www.w3.org/1999/xlink"
   xmlns="http://www.w3.org/2000/svg"
   xmlns:svg="http://www.w3.org/2000/svg">
  <defs
     id="defs28">
    <linearGradient
       id="linearGradient1053"
       x1="68"
       x2="128"
       y1="62"
       y2="2"
       gradientTransform="matrix(0.91665,0,0,0.91665,2.2353,34.915)"
       gradientUnits="userSpaceOnUse">
      <stop
         stop-color="#e0e4e9"
         offset="0"
         id="stop257" />
      <stop
         stop-color="#fefeff"
         offset="1"
         id="stop259" />
    </linearGradient>
    <linearGradient
       inkscape:collect="always"
       xlink:href="#linearGradient1113"
       id="linearGradient1115"
       x1="-29.448217"
       y1="4.6370807"
       x2="-29.448217"
       y2="59.494377"
       gradientUnits="userSpaceOnUse"
       gradientTransform="matrix(0.26457813,0,0,0.26457813,16.851814,3.1396443e-8)" />
    <linearGradient
       inkscape:collect="always"
       id="linearGradient1113">
      <stop
         style="stop-color:#ffffff;stop-opacity:1"
         offset="0"
         id="stop1109" />
      <stop
         style="stop-color:#ccd4da;stop-opacity:1"
         offset="1"
         id="stop1111" />
    </linearGradient>
  </defs>
  <sodipodi:namedview
     id="namedview26"
     pagecolor="#ffffff"
     bordercolor="#999999"
     borderopacity="1"
     inkscape:showpageshadow="0"
     inkscape:pageopacity="0"
     inkscape:pagecheckerboard="0"
     inkscape:deskcolor="#d1d1d1"
     showgrid="false"
     inkscape:zoom="4.4746601"
     inkscape:cx="-34.639503"
     inkscape:cy="31.957735"
     inkscape:window-width="1920"
     inkscape:window-height="995"
     inkscape:window-x="0"
     inkscape:window-y="0"
     inkscape:window-maximized="1"
     inkscape:current-layer="svg24" />
  <path
     id="rect3"
     style="fill:#26a269;fill-opacity:1;stroke-width:0.125123;image-rendering:optimizeSpeed"
     d="M 15.742398 11.612499 C 15.742398 13.517989 14.208373 15.052015 12.302883 15.052015 L 4.6301172 15.052015 C 2.7246275 15.052015 1.1906016 13.517989 1.1906016 11.612499 L 1.1906016 12.302883 C 1.1906016 14.208373 2.7246275 15.742398 4.6301172 15.742398 L 12.302883 15.742398 C 14.208373 15.742398 15.742398 14.208373 15.742398 12.302883 L 15.742398 11.612499 z " />
  <path
     id="path5"
     style="fill:url(#linearGradient1115);fill-opacity:1;stroke-width:0.125123;image-rendering:optimizeSpeed"
     d="M 1.1906016 4.6301172 L 1.1906016 11.612499 C 1.1906016 13.517989 2.7246275 15.052015 4.6301172 15.052015 L 12.302883 15.052015 C 14.208373 15.052015 15.742398 13.517989 15.742398 11.612499 L 15.742398 4.6301172 C 15.742398 2.7246275 14.208373 1.1906016 12.302883 1.1906016 L 4.6301172 1.1906016 C 2.7246275 1.1906016 1.1906016 2.7246275 1.1906016 4.6301172 z " />
  <text
     transform="scale(1.0244757,0.97610907)"
     x="5.1851001"
     y="13.278616"
     fill="#4d4d4d"
     font-family="FreeSans"
     font-size="5.28482px"
     font-weight="700"
     stroke-width="0.292618"
     text-align="center"
     text-anchor="middle"
     style="line-height:0%"
     id="text10"><tspan
       x="5.1851001"
       y="13.278616"
       id="tspan8"
       style="stroke-width:0.292618">A</tspan></text>
  <text
     transform="scale(0.97074381,1.0301379)"
     x="11.46277"
     y="8.0482559"
     fill="#4d4d4d"
     font-family="FreeSans"
     font-size="6.69377px"
     font-weight="700"
     stroke-width="0.292618"
     text-align="center"
     text-anchor="middle"
     style="line-height:0%"
     id="text14"><tspan
       x="11.46277"
       y="8.0482559"
       font-size="5.28483px"
       id="tspan12"
       style="stroke-width:0.304717">𝛀</tspan></text>
  <path
     d="m 2.64268,2.3781619 c -0.3522132,0 -0.3522132,0.5296916 0,0.5296916 0.3522132,0 0.3522132,-0.5296916 0,-0.5296916 z m 1.0556,0 c -0.3522132,0 -0.3522132,0.5296916 0,0.5296916 0.3522132,0 0.3522132,-0.5296916 0,-0.5296916 z m 1.0556,0 c -0.3522132,0 -0.3522132,0.5296916 0,0.5296916 0.3522132,0 0.3522132,-0.5296916 0,-0.5296916 z m 1.0556,0 c -0.3522132,0 -0.3522132,0.5296916 0,0.5296916 0.3522132,0 0.3522132,-0.5296916 0,-0.5296916 z m 1.0556,0 c -0.3522132,0 -0.3522132,0.5296916 0,0.5296916 0.3522132,0 0.3522132,-0.5296916 0,-0.5296916 z m 1.0556,0 c -0.3522132,0 -0.3522132,0.5296916 0,0.5296916 0.3522132,0 0.3522132,-0.5296916 0,-0.5296916 z m 1.0556,0 c -0.3522132,0 -0.3522132,0.5296916 0,0.5296916 0.3522132,0 0.3522132,-0.5296916 0,-0.5296916 z m 1.0556,0 c -0.3522132,0 -0.3522132,0.5296916 0,0.5296916 0.352213,0 0.352213,-0.5296916 0,-0.5296916 z m 1.0556,0 c -0.352213,0 -0.352213,0.5296916 0,0.5296916 0.352213,0 0.352213,-0.5296916 0,-0.5296916 z"
     fill="#d5d3cf"
     id="path16"
     style="stroke-width:0.999695"
     sodipodi:nodetypes="sssssssssssssssssssssssssss" />
  <path
     d="m 5.80948,2.3781619 a 0.26416,0.2648458 0 1 0 0,0.5296916 0.26416,0.2648458 0 0 0 0,-0.5296916 z m 1.0556,0 a 0.26416,0.2648458 0 1 0 0,0.5296916 0.26416,0.2648458 0 0 0 0,-0.5296916 z m 1.0556,0 a 0.26416,0.2648458 0 1 0 0,0.5296916 0.26416,0.2648458 0 0 0 0,-0.5296916 z m 1.0556,0 a 0.26416,0.2648458 0 1 0 0,0.5296916 0.26416,0.2648458 0 0 0 0,-0.5296916 z m 1.0556,0 a 0.26416,0.2648458 0 1 0 0,0.5296916 0.26416,0.2648458 0 0 0 0,-0.5296916 z m 1.0556,0 a 0.26416,0.2648458 0 1 0 0,0.5296916 0.26416,0.2648458 0 0 0 0,-0.5296916 z m 1.0556,0 a 0.26416,0.2648458 0 1 0 0,0.5296916 0.26416,0.2648458 0 0 0 0,-0.5296916 z m 1.0556,0 a 0.26416,0.2648458 0 1 0 0,0.5296916 0.26416,0.2648458 0 0 0 0,-0.5296916 z m 1.0556,0 a 0.26416,0.2648458 0 1 0 0,0.5296916 0.26416,0.2648458 0 0 0 0,-0.5296916 z"
     fill="#d5d3cf"
     id="path18"
     style="stroke-width:0.999695" />
  <path
     d="M 6.941,5.8524383 7.149,6.4916134 8.60396,4.8858554 6.48964,4.2122712 6.6134,4.8034821 C 4.5282,5.8566091 4.3098,6.7793986 4.0238,7.7074016 L 5.14908,7.9065573 C 5.41532,6.7804413 6.11628,6.2059136 6.941,5.8524383 Z m 2.52928,5.3240267 -0.208,-0.639176 -1.45496,1.605758 2.11432,0.673585 -0.12376,-0.591211 c 2.0852,-1.053127 2.3036,-1.975917 2.5896,-2.9039198 L 11.2622,9.1223455 C 10.99596,10.248462 10.295,10.822989 9.47028,11.176465 Z"
     fill="#33d17a"
     id="path20"
     style="stroke-width:0.999695" />
</svg>
