<?xml version="1.0" encoding="UTF-8" standalone="no"?>
<svg
   width="64"
   height="64"
   version="1"
   id="svg16"
   sodipodi:docname="photoflare.svg"
   xml:space="preserve"
   inkscape:version="1.3.2 (091e20ef0f, 2023-11-25, custom)"
   xmlns:inkscape="http://www.inkscape.org/namespaces/inkscape"
   xmlns:sodipodi="http://sodipodi.sourceforge.net/DTD/sodipodi-0.dtd"
   xmlns:xlink="http://www.w3.org/1999/xlink"
   xmlns="http://www.w3.org/2000/svg"
   xmlns:svg="http://www.w3.org/2000/svg"><defs
     id="defs20"><linearGradient
       inkscape:collect="always"
       id="linearGradient1330"><stop
         style="stop-color:#ffffff;stop-opacity:1;"
         offset="0"
         id="stop1326" /><stop
         style="stop-color:#ffffff;stop-opacity:0;"
         offset="1"
         id="stop1328" /></linearGradient><linearGradient
       id="linearGradient864"
       x1="1.1905"
       x2="15.742"
       y1="1.1905"
       y2="15.742"
       gradientTransform="matrix(3.779602,0,0,3.779602,6.229248e-7,1.0962292e-4)"
       gradientUnits="userSpaceOnUse"><stop
         stop-color="#595959"
         offset="0"
         id="stop1" /><stop
         stop-color="#161616"
         offset="1"
         id="stop2" /></linearGradient><linearGradient
       inkscape:collect="always"
       xlink:href="#linearGradient1330"
       id="linearGradient7"
       gradientUnits="userSpaceOnUse"
       gradientTransform="matrix(1.0655324,0,0,1.0655324,-80.862255,11.562502)"
       x1="19.785398"
       y1="32"
       x2="30.501551"
       y2="32" /></defs><sodipodi:namedview
     id="namedview18"
     pagecolor="#ffffff"
     bordercolor="#999999"
     borderopacity="1"
     inkscape:showpageshadow="0"
     inkscape:pageopacity="0"
     inkscape:pagecheckerboard="0"
     inkscape:deskcolor="#d1d1d1"
     showgrid="false"
     inkscape:zoom="4.0117188"
     inkscape:cx="-44.619279"
     inkscape:cy="8.9737098"
     inkscape:window-width="1920"
     inkscape:window-height="995"
     inkscape:window-x="0"
     inkscape:window-y="0"
     inkscape:window-maximized="1"
     inkscape:current-layer="svg16" /><path
     id="path19"
     style="fill:url(#linearGradient864)"
     d="M 17.5 4.5 C 16.302432 4.5 15.148552 4.6741814 14.048828 4.9746094 C 8.5350201 6.4808989 4.5 11.49562 4.5 17.5 L 4.5 46.5 C 4.5 52.50438 8.5350035 57.519084 14.048828 59.025391 C 15.148554 59.325821 16.302433 59.5 17.5 59.5 L 46.5 59.5 C 47.697567 59.5 48.851446 59.325821 49.951172 59.025391 C 55.464996 57.519084 59.5 52.50438 59.5 46.5 L 59.5 17.5 C 59.5 11.49562 55.464979 6.4808989 49.951172 4.9746094 C 48.851448 4.6741814 47.697568 4.5 46.5 4.5 L 17.5 4.5 z M 16.203125 6.6542969 L 18.486328 6.6542969 C 19.205328 6.6542969 19.783203 7.1785383 19.783203 7.828125 C 19.783207 8.4777117 19.205328 9 18.486328 9 L 16.203125 9 C 15.484125 9 14.90625 8.4777117 14.90625 7.828125 C 14.90625 7.1785383 15.484125 6.6542969 16.203125 6.6542969 z M 23.529297 6.6542969 L 25.8125 6.6542969 C 26.5315 6.6542969 27.111328 7.1785383 27.111328 7.828125 C 27.111332 8.4777117 26.5315 9 25.8125 9 L 23.529297 9 C 22.810297 9 22.232422 8.4777117 22.232422 7.828125 C 22.232422 7.1785383 22.810297 6.6542969 23.529297 6.6542969 z M 30.859375 6.6542969 L 33.140625 6.6542969 C 33.859624 6.6542969 34.439453 7.1785383 34.439453 7.828125 C 34.439457 8.4777117 33.859624 9 33.140625 9 L 30.859375 9 C 30.140375 9 29.558594 8.4777117 29.558594 7.828125 C 29.558594 7.1785383 30.140375 6.6542969 30.859375 6.6542969 z M 38.185547 6.6542969 L 40.46875 6.6542969 C 41.18775 6.6542969 41.767578 7.1785383 41.767578 7.828125 C 41.767582 8.4777117 41.18775 9 40.46875 9 L 38.185547 9 C 37.466547 9 36.888672 8.4777117 36.888672 7.828125 C 36.888672 7.1785383 37.466547 6.6542969 38.185547 6.6542969 z M 45.513672 6.6542969 L 47.796875 6.6542969 C 48.515875 6.6542969 49.09375 7.1785383 49.09375 7.828125 C 49.093754 8.4777117 48.515875 9 47.796875 9 L 45.513672 9 C 44.794673 9 44.214844 8.4777117 44.214844 7.828125 C 44.214844 7.1785383 44.794673 6.6542969 45.513672 6.6542969 z M 16.203125 55 L 18.486328 55 C 19.205328 55 19.783203 55.522289 19.783203 56.171875 C 19.783203 56.821461 19.205328 57.345703 18.486328 57.345703 L 16.203125 57.345703 C 15.484125 57.345703 14.90625 56.821461 14.90625 56.171875 C 14.90625 55.522289 15.484125 55 16.203125 55 z M 23.529297 55 L 25.8125 55 C 26.5315 55 27.111328 55.522289 27.111328 56.171875 C 27.111328 56.821461 26.5315 57.345703 25.8125 57.345703 L 23.529297 57.345703 C 22.810297 57.345703 22.232422 56.821461 22.232422 56.171875 C 22.232422 55.522289 22.810297 55 23.529297 55 z M 30.859375 55 L 33.140625 55 C 33.859624 55 34.439453 55.522289 34.439453 56.171875 C 34.439453 56.821461 33.859624 57.345703 33.140625 57.345703 L 30.859375 57.345703 C 30.140375 57.345703 29.558594 56.821461 29.558594 56.171875 C 29.558594 55.522289 30.140375 55 30.859375 55 z M 38.185547 55 L 40.46875 55 C 41.187751 55 41.767578 55.522289 41.767578 56.171875 C 41.767578 56.821461 41.187751 57.345703 40.46875 57.345703 L 38.185547 57.345703 C 37.466547 57.345703 36.888672 56.821461 36.888672 56.171875 C 36.888672 55.522289 37.466547 55 38.185547 55 z M 45.513672 55 L 47.796875 55 C 48.515875 55 49.09375 55.522289 49.09375 56.171875 C 49.09375 56.821461 48.515875 57.345703 47.796875 57.345703 L 45.513672 57.345703 C 44.794673 57.345703 44.214844 56.821461 44.214844 56.171875 C 44.214844 55.522289 44.794673 55 45.513672 55 z " /><g
     id="g7"
     transform="translate(88.014279,1.625)"><path
       d="m -45.939289,11.85 -1.3787,2.5213 -2.5213,1.3787 2.5213,1.3787 1.3787,2.5213 1.3787,-2.5213 2.5213,-1.3787 -2.5213,-1.3787 z m -6.5,2.6 -0.45957,0.84043 -0.84043,0.45957 0.84043,0.45957 0.45957,0.84043 0.45957,-0.84043 0.84043,-0.45957 -0.84043,-0.45957 z m -4.55,0.65 c -9.3186,0 -16.9,7.5812 -16.9,16.9 0,9.3186 7.5814,16.9 16.9,16.9 9.3186,0 16.9,-7.5814 16.9,-16.9 h -1.4473 c 0,8.5208 -6.9318,15.453 -15.453,15.453 -8.521,0 -15.453,-6.9318 -15.453,-15.453 0,-8.5212 6.9318,-15.453 15.453,-15.453 z m 14.95,4.55 -0.91914,1.6809 -1.6809,0.91914 1.6809,0.91914 0.91914,1.6809 0.91914,-1.6809 1.6809,-0.91914 -1.6809,-0.91914 z m 1.95,6.4975 -0.68809,1.2619 -1.2619,0.69062 1.2619,0.68809 0.68809,1.2619 0.69062,-1.2619 1.2594,-0.68809 -1.2594,-0.69062 z"
       fill="#ffffff"
       id="path1"
       style="stroke-width:1.3" /><path
       d="m -57.073289,31.912 c 0,0 -1.8508,-0.34095 -3.4824,-0.58443 -1.6315,-0.24348 -3.4153,0.17652 -3.8719,0.70627 -0.45665,0.52956 0.60266,1.5342 0.8402,1.936 0.23734,0.40177 0.10955,0.45645 -0.31044,0.84 -0.35086,0.32035 -1.7749,0.49627 -2.2353,0.5456 v 0.01466 c 0,0 -0.02674,-0.0026 -0.07271,-0.0072 -0.04597,0.0046 -0.07251,0.0072 -0.07251,0.0072 v -0.01466 c -0.46042,-0.04933 -1.8845,-0.22526 -2.2353,-0.5456 -0.42,-0.38355 -0.54798,-0.43823 -0.31044,-0.84 0.23734,-0.40177 1.2967,-1.4064 0.8402,-1.936 -0.27914,-0.32372 -1.0548,-0.60563 -1.9875,-0.72093 -0.01183,0.22763 -0.01823,0.45685 -0.01823,0.68745 0,7.1798 5.8202,13 13,13 0.09411,0 0.18702,-0.0052 0.28073,-0.0072 0.38513,-1.4397 0.88735,-3.9086 0.0044,-4.5198 -1.2663,-0.87665 -2.7031,0.0731 -2.7031,0.0731 0,0 -1.0229,0.56007 -1.5342,-0.02436 -0.51153,-0.58443 -0.6088,-1.5098 -0.56026,-2.1428 0.04874,-0.63317 0.58463,-2.3623 1.5586,-1.9241 0.97412,0.43862 2.918,0.77601 3.3362,0.24368 1.0716,-1.3638 -0.46596,-4.7872 -0.46596,-4.7872"
       fill="#0092ee"
       id="path2"
       style="stroke-width:1.3" /><path
       d="m -57.073289,31.912 c 0,0 6.822,-2.0315 7.2113,-0.08341 0.38989,1.9482 -2.0453,2.0457 -0.58424,3.0198 1.1586,0.77205 2.1309,0.74827 2.4849,0.70548 v -0.02378 c 0,0 0.02674,0.0064 0.07231,0.01368 0.04597,-0.0073 0.07271,-0.01368 0.07271,-0.01368 v 0.02378 c 0.35403,0.04299 1.3264,0.06677 2.4849,-0.70548 1.4611,-0.97412 -0.97412,-1.0716 -0.58443,-3.0198 0.12541,-0.62644 0.89567,-0.84198 1.8827,-0.84674 -0.52025,-6.7032 -6.1203,-11.981 -12.957,-11.981 -0.20842,0 -0.41525,0.006 -0.62128,0.01565 -0.28806,1.1225 -0.52777,2.7157 0.12362,3.5448 0.41842,0.53253 2.3623,0.19475 3.3362,-0.24368 0.97412,-0.43823 1.5098,1.2907 1.5586,1.9239 0.04854,0.63317 -0.04874,1.5586 -0.56007,2.143 -0.51133,0.58444 -1.5342,0.02437 -1.5342,0.02437 0,0 -1.4367,-0.94976 -2.7031,-0.0731 -1.2663,0.87665 0.31658,5.5767 0.31658,5.5767"
       fill="#bee34a"
       id="path3"
       style="stroke-width:1.3" /><path
       d="m -68.823289,33.969 c -0.23734,0.40177 -0.10955,0.45665 0.31044,0.8402 0.35086,0.32015 1.7749,0.49608 2.2353,0.54541 v 0.01466 c 0,0 0.02674,-0.0026 0.07271,-0.0072 0.04576,0.0046 0.07251,0.0072 0.07251,0.0072 v -0.01466 c 0.46042,-0.04933 1.8845,-0.22526 2.2353,-0.54541 0.42,-0.38355 0.54798,-0.43842 0.31044,-0.8402 -0.23734,-0.40177 -1.2967,-1.4064 -0.8402,-1.936 0.45665,-0.52976 2.2405,-0.94976 3.8721,-0.70627 1.6315,0.24348 3.4822,0.58443 3.4822,0.58443 0,0 -1.5829,-4.6998 -0.31658,-5.5767 1.2665,-0.87665 2.7033,0.0731 2.7033,0.0731 0,0 1.0229,0.56007 1.5342,-0.02436 0.51153,-0.58443 0.6086,-1.5098 0.56007,-2.143 -0.04854,-0.63317 -0.58444,-2.3621 -1.5584,-1.9237 -0.97412,0.43823 -2.918,0.77581 -3.3362,0.24348 -0.6514,-0.8291 -0.41168,-2.4221 -0.12382,-3.5446 -6.6629,0.31361 -12.014,5.6423 -12.36,12.297 0.93272,0.1153 1.7083,0.39722 1.9875,0.72093 0.45645,0.52956 -0.60306,1.5344 -0.8404,1.936"
       fill="#f15976"
       id="path5"
       style="stroke-width:1.3" /><path
       d="m -43.989289,32 c 0,-0.34313 -0.01743,-0.6821 -0.04359,-1.0185 -0.9868,0.0048 -1.7571,0.2203 -1.8825,0.84674 -0.38949,1.9482 2.0457,2.0455 0.58444,3.0196 -1.1586,0.77244 -2.1309,0.74847 -2.4849,0.70568 v -0.02358 c 0,0 -0.02695,0.006 -0.07251,0.01347 -0.04576,-0.0075 -0.07251,-0.01347 -0.07251,-0.01347 v 0.02358 c -0.35403,0.04299 -1.3264,0.06696 -2.4849,-0.70568 -1.4611,-0.97412 0.97412,-1.0714 0.58443,-3.0196 -0.38969,-1.948 -7.2115,0.08341 -7.2115,0.08341 0,0 1.5376,3.4234 0.46596,4.787 -0.41822,0.53253 -2.3621,0.19494 -3.3362,-0.24348 -0.9741,-0.43842 -1.5098,1.2907 -1.5586,1.9239 -0.04874,0.63317 0.04874,1.5586 0.56007,2.1428 0.51153,0.58443 1.5342,0.02436 1.5342,0.02436 0,0 1.4369,-0.94976 2.7031,-0.0729 0.88299,0.61138 0.38097,3.0801 -0.0042,4.5196 7.0497,-0.14977 12.719,-5.9073 12.719,-12.993"
       fill="#10e7c4"
       id="path7"
       style="stroke-width:1.3" /><circle
       style="fill:url(#linearGradient7);fill-opacity:1;fill-rule:evenodd;stroke-width:0.443167;stroke-linecap:round;stroke-linejoin:round;paint-order:stroke fill markers"
       id="circle7"
       cx="-46.765217"
       cy="45.659538"
       r="11.746161"
       transform="rotate(15)" /></g></svg>
