<?xml version="1.0" encoding="UTF-8" standalone="no"?>
<svg
   width="64"
   height="64"
   version="1.1"
   viewBox="0 0 16.933 16.933"
   id="svg301"
   sodipodi:docname="pidgin.svg"
   xml:space="preserve"
   inkscape:version="1.3.2 (091e20ef0f, 2023-11-25, custom)"
   xmlns:inkscape="http://www.inkscape.org/namespaces/inkscape"
   xmlns:sodipodi="http://sodipodi.sourceforge.net/DTD/sodipodi-0.dtd"
   xmlns:xlink="http://www.w3.org/1999/xlink"
   xmlns="http://www.w3.org/2000/svg"
   xmlns:svg="http://www.w3.org/2000/svg"><defs
     id="defs305"><linearGradient
       inkscape:collect="always"
       id="linearGradient28138"><stop
         style="stop-color:#cb7642;stop-opacity:1"
         offset="0"
         id="stop28134" /><stop
         style="stop-color:#f3c293;stop-opacity:1"
         offset="0.38648036"
         id="stop33179" /><stop
         style="stop-color:#f28b30;stop-opacity:1"
         offset="0.63182157"
         id="stop35113" /><stop
         style="stop-color:#c35c31;stop-opacity:1"
         offset="1"
         id="stop28136" /></linearGradient><linearGradient
       inkscape:collect="always"
       id="linearGradient22295"><stop
         style="stop-color:#4c2956;stop-opacity:1"
         offset="0"
         id="stop22291" /><stop
         style="stop-color:#663c71;stop-opacity:1"
         offset="1"
         id="stop22293" /></linearGradient><linearGradient
       inkscape:collect="always"
       id="linearGradient13704"><stop
         style="stop-color:#462551;stop-opacity:1"
         offset="0"
         id="stop13700" /><stop
         style="stop-color:#72457e;stop-opacity:1"
         offset="0.32838112"
         id="stop18901" /><stop
         style="stop-color:#784a84;stop-opacity:1"
         offset="0.56781095"
         id="stop20490" /><stop
         style="stop-color:#60386b;stop-opacity:1"
         offset="1"
         id="stop13702" /></linearGradient><linearGradient
       id="linearGradient1448"
       x1="3.9686999"
       x2="3.9686999"
       y1="16.209"
       y2="0.54084998"
       gradientTransform="matrix(0.91665738,0,0,0.91665738,0.70539229,0.70539193)"
       gradientUnits="userSpaceOnUse"><stop
         stop-color="#1864ee"
         offset="0"
         id="stop1374" /><stop
         stop-color="#15c4fc"
         offset="1"
         id="stop1376" /></linearGradient><radialGradient
       inkscape:collect="always"
       xlink:href="#linearGradient22295"
       id="radialGradient14"
       gradientUnits="userSpaceOnUse"
       gradientTransform="matrix(0.72247495,0,0,0.65712112,3.264604,19.640515)"
       cx="7.8147583"
       cy="-6.3028841"
       fx="7.8147583"
       fy="-6.3028841"
       r="5.4259263" /><linearGradient
       inkscape:collect="always"
       xlink:href="#linearGradient13704"
       id="linearGradient14"
       gradientUnits="userSpaceOnUse"
       gradientTransform="matrix(0.81998707,0,0,0.81998707,2.471544,21.07888)"
       x1="7.7342486"
       y1="-21.508259"
       x2="7.7342486"
       y2="-4.4832044" /><linearGradient
       inkscape:collect="always"
       xlink:href="#linearGradient28138"
       id="linearGradient15"
       gradientUnits="userSpaceOnUse"
       gradientTransform="matrix(0.81998707,0,0,0.81998707,2.471544,21.07888)"
       x1="7.1929103"
       y1="-15.430085"
       x2="10.238373"
       y2="-15.430085" /></defs><sodipodi:namedview
     id="namedview303"
     pagecolor="#ffffff"
     bordercolor="#999999"
     borderopacity="1"
     inkscape:showpageshadow="0"
     inkscape:pageopacity="0"
     inkscape:pagecheckerboard="0"
     inkscape:deskcolor="#d1d1d1"
     showgrid="false"
     inkscape:zoom="3.1640626"
     inkscape:cx="24.651851"
     inkscape:cy="38.874073"
     inkscape:window-width="1920"
     inkscape:window-height="995"
     inkscape:window-x="0"
     inkscape:window-y="0"
     inkscape:window-maximized="1"
     inkscape:current-layer="svg301" /><rect
     x="1.1904695"
     y="1.1904695"
     width="14.552061"
     height="14.552061"
     ry="3.4395156"
     fill="url(#linearGradient1448)"
     stroke-opacity="0.95294"
     stroke-width="0.0831516"
     id="rect1386"
     style="fill:url(#linearGradient1448);image-rendering:optimizeSpeed" /><path
     id="path1"
     style="fill:#a2e363;fill-opacity:1;stroke:none;stroke-width:0.229139px;stroke-linecap:butt;stroke-linejoin:miter;stroke-opacity:1"
     d="M 4.6301172 1.1906016 C 2.7350896 1.1906016 1.2088697 2.708176 1.1921518 4.5991119 C 1.1919228 4.6192631 1.1906016 4.6750748 1.1906016 4.6750748 C 1.1906016 4.6750748 1.6236348 5.7804977 2.3388293 6.3297216 C 2.5935545 6.5253339 3.0593219 6.6701987 3.5216795 6.8211548 C 3.9840362 6.9721117 4.8276345 8.2360635 5.1613405 8.2272428 C 5.4950465 8.2184132 4.974499 8.2077475 4.8430199 7.6696651 C 4.711543 7.1315872 4.7816608 6.9397075 4.4446024 6.8211548 C 4.107541 6.702602 4.1022596 6.2588528 4.3515867 6.1571257 C 4.6009181 6.0553981 4.5522236 5.7058539 4.3066291 5.8940978 C 4.061026 6.0823425 3.7619239 6.5766889 3.4245298 6.3297216 C 3.0871345 6.0827544 3.2400538 4.7445576 3.8601535 4.7096973 C 4.4802531 4.6748394 5.8284221 4.7096973 6.105967 4.7096973 C 6.38351 4.7096973 7.0438926 3.5443834 6.6847317 3.3842229 C 6.3255739 3.2240634 6.0321477 3.1494115 6.4666614 2.8416311 C 6.9011731 2.5338507 7.1272292 2.7030754 6.8387244 2.3998063 C 6.5502163 2.0965353 6.651661 2.3480433 6.2744289 2.0613323 C 5.8971947 1.7746212 5.5714151 1.7111898 5.5716432 1.5233912 C 5.5718703 1.3355925 5.9155336 1.226579 6.1467906 1.1906016 L 4.6301172 1.1906016 z M 6.5974002 1.1906016 C 6.8727998 1.2098017 7.2006664 1.2540415 7.4495278 1.3151393 C 7.6837956 1.3726526 7.9408806 1.2888042 8.153347 1.1906016 L 6.5974002 1.1906016 z M 8.6912881 1.1906016 C 8.7471066 1.3427022 8.8283695 1.5233912 9.0555997 1.5233912 C 9.4697948 1.5233912 10.174482 1.7632749 10.065854 1.3352927 C 10.055159 1.2931518 10.048148 1.2436513 10.0426 1.1906016 L 8.6912881 1.1906016 z " /><path
     id="path2"
     style="fill:#a2e363;fill-opacity:1;stroke:none;stroke-width:0.335719px;stroke-linecap:butt;stroke-linejoin:miter;stroke-opacity:1"
     d="M 13.025305 1.2670812 C 12.88678 1.3027578 12.689415 1.3538959 12.689415 1.3538959 C 12.689415 1.3538959 12.88527 2.61891 13.275931 2.61891 C 13.666592 2.61891 13.628801 3.0392177 13.572548 3.4984256 C 13.516288 3.9576334 13.668233 4.3710254 13.976133 4.4166977 C 14.284054 4.4623687 13.668147 5.29673 13.668147 5.29673 C 13.668147 5.29673 13.397288 5.7515023 13.937893 6.562261 C 14.478497 7.3730196 15.455423 7.9531765 15.192572 8.3393785 C 15.028287 8.5807546 15.394866 8.4343095 15.742398 8.2644491 L 15.742398 4.6301172 C 15.742398 2.9726683 14.581499 1.597332 13.025305 1.2670812 z " /><path
     id="path3"
     style="fill:#4e2b58;fill-opacity:1;stroke:none;stroke-width:0.216951px;stroke-linecap:butt;stroke-linejoin:miter;stroke-opacity:1"
     d="M 9.8808561 11.524651 C 9.4948145 11.527451 9.1002703 11.542238 8.7067907 11.564958 L 11.116415 15.742398 L 12.302883 15.742398 C 13.633773 15.742398 14.781451 14.992998 15.353799 13.892419 C 14.709798 13.042378 13.904457 12.310012 12.859944 11.901882 C 12.119612 11.612606 11.038981 11.516214 9.8808561 11.524651 z " /><path
     id="path4"
     style="fill:#563060;fill-opacity:1;stroke:none;stroke-width:0.216951px;stroke-linecap:butt;stroke-linejoin:miter;stroke-opacity:1"
     d="M 8.0603312 11.608882 C 5.8475765 11.784743 3.8451676 12.172661 3.8451676 12.172661 C 3.8451676 12.172661 2.380245 12.695165 1.6644651 14.044861 C 2.2608342 15.061176 3.3618914 15.742398 4.6301172 15.742398 L 5.9333712 15.742398 L 8.0603312 11.608882 z " /><path
     id="path5"
     style="fill:#e36ca0;fill-opacity:1;stroke:none;stroke-width:0.216951px;stroke-linecap:butt;stroke-linejoin:miter;stroke-opacity:1"
     d="M 8.7067907 11.564958 C 8.4902719 11.577468 8.274523 11.591852 8.0603312 11.608882 L 5.9333712 15.742398 L 11.116415 15.742398 L 8.7067907 11.564958 z " /><path
     id="path6"
     style="fill:url(#radialGradient14);fill-opacity:1;stroke:none;stroke-width:0.216951px;stroke-linecap:butt;stroke-linejoin:round;stroke-opacity:1"
     d="M 6.0222529 10.271522 C 5.6724822 10.63522 4.1507827 11.919679 4.1624547 12.095148 C 4.1750047 12.28374 6.3660709 14.498697 6.6702626 14.762116 C 6.9158022 14.974743 7.8605121 15.440154 8.1647156 15.742398 L 10.062754 15.742398 C 10.557788 14.956317 11.217493 13.876716 11.476076 13.638176 C 11.870575 13.274255 13.204252 12.43242 13.048042 12.077578 C 12.891696 11.722707 12.571275 11.401506 12.037271 11.021849 C 11.695775 10.779057 11.429182 10.54304 11.28126 10.293743 C 11.27976 10.298743 11.278009 10.303182 11.276609 10.308212 C 11.269809 10.333392 11.264243 10.359488 11.260073 10.385208 C 11.255873 10.410938 11.253505 10.436591 11.251805 10.462721 C 11.250205 10.488851 11.249455 10.515415 11.250255 10.541785 C 11.251157 10.568145 11.253572 10.594408 11.256972 10.620848 C 11.260272 10.647298 11.264748 10.673531 11.270408 10.699911 C 11.276108 10.726291 11.282998 10.752815 11.291078 10.778975 C 11.299178 10.805135 11.308076 10.831225 11.318466 10.857005 C 11.328866 10.882785 11.340419 10.908244 11.353089 10.933484 C 11.365759 10.958734 11.380056 10.983337 11.394946 11.007897 C 11.409836 11.032457 11.425417 11.056533 11.442487 11.080242 C 11.459557 11.103962 11.477546 11.127801 11.496746 11.150521 C 11.506346 11.161881 11.515044 11.17347 11.522584 11.18566 C 11.530084 11.19784 11.536641 11.210463 11.542221 11.223383 C 11.547821 11.236313 11.552423 11.249583 11.556173 11.263173 C 11.559973 11.276773 11.562958 11.290851 11.564958 11.305031 C 11.566958 11.319221 11.568175 11.333728 11.568575 11.348438 C 11.568989 11.363138 11.568597 11.378246 11.567542 11.393396 C 11.566442 11.408545 11.564874 11.42336 11.562374 11.43887 C 11.559874 11.45438 11.556773 11.470095 11.553073 11.485895 C 11.549273 11.501694 11.545064 11.517933 11.540154 11.533953 C 11.535254 11.549963 11.529548 11.565861 11.523618 11.582011 C 11.517718 11.598161 11.511338 11.614366 11.504498 11.630586 C 11.497598 11.646806 11.490454 11.662961 11.482794 11.679161 C 11.467464 11.711571 11.450579 11.743894 11.432669 11.775794 C 11.414769 11.807694 11.395903 11.839063 11.376343 11.869843 C 11.356783 11.900623 11.336182 11.931205 11.315882 11.960275 C 11.295582 11.989335 11.275562 12.016752 11.255422 12.043472 C 11.235282 12.070192 11.215065 12.096152 11.195995 12.119952 C 11.176935 12.143742 11.158796 12.165846 11.141736 12.186096 C 11.107596 12.226586 11.078742 12.259026 11.058022 12.281696 C 11.037312 12.304366 11.02495 12.316835 11.02495 12.316835 C 11.02495 12.316835 11.032847 12.312917 11.046137 12.307017 C 11.052737 12.304117 11.060747 12.300599 11.069907 12.297199 C 11.079107 12.293799 11.089296 12.29065 11.100396 12.28738 C 11.111496 12.28408 11.123552 12.281195 11.136052 12.278595 C 11.148542 12.276095 11.161499 12.273594 11.174809 12.272394 C 11.188128 12.271194 11.201525 12.271098 11.215115 12.271878 C 11.228715 12.272627 11.242619 12.274262 11.255939 12.277562 C 11.262539 12.279162 11.269086 12.281263 11.275576 12.283763 C 11.282076 12.286263 11.288455 12.289248 11.294695 12.292548 C 11.300895 12.295848 11.307369 12.29918 11.313299 12.3034 C 11.319199 12.3076 11.324295 12.312659 11.329835 12.317869 C 11.335435 12.323069 11.341281 12.328652 11.346371 12.334922 C 11.351471 12.341122 11.35623 12.348162 11.36084 12.355592 C 11.36544 12.363092 11.369232 12.370702 11.373242 12.379362 C 11.377242 12.388062 11.380774 12.397297 11.384094 12.407267 C 11.387394 12.417267 11.390796 12.427956 11.393396 12.439306 C 11.395996 12.450656 11.398313 12.462669 11.400113 12.475479 C 11.401913 12.488299 11.402831 12.501942 11.403731 12.516302 C 11.404633 12.530662 11.405281 12.545797 11.405281 12.561777 C 11.405262 12.577747 11.404761 12.594749 11.403731 12.612419 C 11.402631 12.630089 11.40128 12.648251 11.39908 12.667711 C 11.39698 12.687161 11.394528 12.707388 11.391328 12.728688 C 11.388028 12.749988 11.383883 12.772626 11.379443 12.795866 C 11.377243 12.807486 11.374475 12.819809 11.371175 12.832039 C 11.367775 12.844279 11.364146 12.856415 11.359806 12.869245 C 11.355406 12.882085 11.350251 12.895099 11.344821 12.908519 C 11.339421 12.921929 11.333661 12.935899 11.327251 12.949859 C 11.314431 12.977779 11.29939 13.006704 11.28281 13.036674 C 11.26623 13.066634 11.248074 13.097373 11.228034 13.129173 C 11.208004 13.160973 11.186133 13.193936 11.162923 13.227356 C 11.139713 13.260776 11.115117 13.29482 11.089027 13.329673 C 11.062937 13.364523 11.035553 13.400059 11.006863 13.436125 C 10.978173 13.472195 10.947948 13.5086 10.916948 13.545677 C 10.885948 13.582757 10.854359 13.620437 10.821349 13.658329 C 10.788329 13.696219 10.754304 13.73455 10.719548 13.773048 C 10.684798 13.811548 10.648771 13.849908 10.61258 13.888801 C 10.57639 13.927701 10.539861 13.967016 10.502511 14.006104 C 10.427811 14.084284 10.350669 14.162458 10.273073 14.240194 C 10.195473 14.317934 10.117173 14.395016 10.038983 14.470666 C 9.960793 14.546316 9.8834402 14.620942 9.8069603 14.692871 C 9.7304803 14.764801 9.6551549 14.834556 9.582689 14.901123 C 9.510219 14.967693 9.4400682 15.030687 9.3739203 15.090255 C 9.3077704 15.149825 9.2454157 15.205719 9.1878888 15.25665 C 9.0728369 15.358509 8.9771337 15.441525 8.9103918 15.499007 C 8.8436519 15.556487 8.8060075 15.588406 8.8060075 15.588406 C 8.8060075 15.588406 8.8036897 15.558866 8.7992897 15.510376 C 8.7948897 15.461886 8.7885698 15.394579 8.7801698 15.319177 C 8.7759698 15.281477 8.7712974 15.241745 8.7662174 15.201357 C 8.7611174 15.160967 8.7551445 15.119777 8.7491645 15.079403 C 8.7431645 15.039033 8.7368346 14.999251 8.7300446 14.961583 C 8.7232446 14.923913 8.7158809 14.888424 8.7083409 14.856165 C 8.7064409 14.848065 8.7032959 14.838447 8.6980059 14.827227 C 8.6927059 14.815997 8.6857657 14.803167 8.6773357 14.788987 C 8.6689357 14.774807 8.6587539 14.759399 8.647364 14.742479 C 8.635974 14.725559 8.6232541 14.707153 8.6091241 14.687703 C 8.5808742 14.648803 8.5473106 14.60526 8.5093906 14.557481 C 8.4714606 14.509711 8.4291815 14.457418 8.3833026 14.402455 C 8.3374326 14.347439 8.2881556 14.289824 8.2360276 14.229342 C 8.1839077 14.168862 8.1288675 14.106079 8.0722166 14.041761 C 7.9589147 13.913122 7.8383304 13.777781 7.7172065 13.64386 C 7.5960826 13.50994 7.4743257 13.376908 7.3590959 13.251127 C 7.243867 13.125346 7.1348439 13.007054 7.039225 12.902834 C 6.9436051 12.798615 6.8612263 12.708525 6.7989344 12.63929 C 6.7677844 12.60467 6.7416612 12.575308 6.7214212 12.551958 C 6.7011813 12.528608 6.6871941 12.51122 6.6795641 12.5008 C 6.6757642 12.4956 6.6724458 12.490607 6.6697458 12.485297 C 6.6669458 12.479997 6.664828 12.474668 6.663028 12.469278 C 6.661228 12.463878 6.659694 12.458202 6.658894 12.452742 C 6.658066 12.447242 6.6578105 12.441705 6.6578605 12.436205 C 6.6579035 12.430705 6.6585247 12.425716 6.6594107 12.420186 C 6.6602627 12.414586 6.661428 12.40919 6.663028 12.40365 C 6.666228 12.39255 6.6711204 12.381111 6.6769804 12.370061 C 6.6828804 12.359011 6.6901273 12.347869 6.6981673 12.336989 C 6.7061673 12.326109 6.7148118 12.31551 6.7245218 12.30495 C 6.7342217 12.29438 6.744607 12.284065 6.755527 12.273945 C 6.766447 12.263825 6.7779928 12.25402 6.7896328 12.24449 C 6.8129028 12.22542 6.8371881 12.207711 6.8604281 12.191781 C 6.8836781 12.175861 6.9056624 12.161624 6.9250224 12.149924 C 6.9637423 12.126524 6.9911669 12.112717 6.9911669 12.112717 C 6.9911669 12.112717 6.9643386 12.077485 6.9224386 12.022285 C 6.8805386 11.967095 6.8233732 11.89166 6.7612113 11.81145 C 6.6990514 11.73124 6.6318177 11.646201 6.5710458 11.571159 C 6.5406658 11.533639 6.5122781 11.498891 6.4862981 11.468325 C 6.4603181 11.437755 6.4369565 11.411168 6.4180865 11.391328 C 6.3992166 11.371489 6.3812909 11.351555 6.3648609 11.331385 C 6.3566609 11.321295 6.3490169 11.311593 6.3416069 11.301413 C 6.3342069 11.291233 6.3273968 11.280708 6.3209368 11.270408 C 6.3144368 11.260098 6.3082504 11.249833 6.3028504 11.239403 C 6.2974504 11.228973 6.2925813 11.218451 6.2883813 11.207881 C 6.2841813 11.197301 6.2809362 11.186572 6.2780462 11.175842 C 6.2751462 11.165112 6.2727284 11.154196 6.2713284 11.143286 C 6.2699284 11.132377 6.2690614 11.121304 6.2692614 11.110214 C 6.2694614 11.099124 6.2709786 11.087905 6.2728786 11.076625 C 6.2747786 11.065335 6.2778635 11.054536 6.2816635 11.043036 C 6.2854634 11.031536 6.2898058 11.019627 6.2956158 11.007897 C 6.3014158 10.996167 6.308386 10.984201 6.316286 10.972241 C 6.324186 10.960281 6.3329972 10.948288 6.3431572 10.936068 C 6.3533072 10.923848 6.364723 10.911869 6.377263 10.899379 C 6.389803 10.886889 6.4035433 10.873909 6.4186033 10.861139 C 6.4261033 10.854739 6.4323832 10.847559 6.4377232 10.840469 C 6.4430232 10.833469 6.4473321 10.826495 6.4506421 10.818765 C 6.4539421 10.811065 6.4565766 10.802807 6.4578766 10.794477 C 6.4591766 10.786177 6.4588484 10.7775 6.4583934 10.76864 C 6.4579004 10.75974 6.4569761 10.751099 6.4547761 10.741769 C 6.4525761 10.732469 6.4497913 10.72257 6.4459913 10.71283 C 6.4422913 10.70313 6.4371989 10.692949 6.4320389 10.682859 C 6.4268389 10.672769 6.421476 10.66276 6.414986 10.65237 C 6.408486 10.64198 6.4014791 10.631478 6.3937991 10.620848 C 6.3860991 10.610218 6.3772081 10.599619 6.3684781 10.588809 C 6.3510182 10.567189 6.3320484 10.544655 6.3111184 10.522665 C 6.2901885 10.500675 6.2673304 10.478927 6.2439404 10.457037 C 6.2205504 10.435147 6.1964348 10.413246 6.1715948 10.391926 C 6.1467548 10.370596 6.1214187 10.350215 6.0961487 10.329915 C 6.0711887 10.309865 6.0466528 10.290112 6.0222529 10.271522 z " /><path
     id="path7"
     style="fill:url(#linearGradient14);fill-opacity:1;stroke:none;stroke-width:0.216951px;stroke-linecap:butt;stroke-linejoin:round;stroke-opacity:1"
     d="m 8.218617,3.4113859 c -0.316477,0.00615 -0.57119,0.039409 -0.57119,0.039409 0,0 0.431926,0.2098724 0.381359,0.3283917 -0.05057,0.1185193 -0.774158,0.043648 -0.774158,0.043648 0,0 0.411993,0.1881469 0.555088,0.4906811 0.05177,0.109456 -0.117373,0.1779675 -0.117373,0.1779675 0,0 -1.596622,0.5563621 -1.596622,1.8457753 0,1.2894141 0.156562,3.6373512 -0.01441,3.8678235 -0.0119,0.01604 -0.03316,0.03933 -0.05932,0.06652 0.0244,0.01859 0.0492,0.03801 0.07415,0.05806 0.02527,0.0203 0.05059,0.04096 0.07542,0.06229 0.02484,0.02133 0.04907,0.04336 0.07246,0.06526 0.02339,0.02189 0.04602,0.04369 0.06695,0.06568 0.02093,0.02199 0.04016,0.04406 0.05763,0.06568 0.0087,0.01082 0.01733,0.02157 0.025,0.0322 0.0077,0.01063 0.0147,0.02097 0.02119,0.03136 0.0065,0.01039 0.01219,0.02084 0.01737,0.03093 0.0052,0.01009 0.0098,0.01992 0.01356,0.02966 0.0037,0.0097 0.0067,0.01948 0.0089,0.02881 0.0022,0.0093 0.0033,0.01826 0.0038,0.02712 4.93e-4,0.0089 4.75e-4,0.01752 -8.45e-4,0.02585 -0.0013,0.0083 -0.0039,0.01642 -0.0072,0.02416 -0.0033,0.0077 -0.0074,0.01495 -0.01271,0.02203 -0.0053,0.007 -0.01154,0.01396 -0.01907,0.02034 -0.01506,0.01277 -0.02899,0.02565 -0.04153,0.03814 -0.01254,0.01249 -0.02375,0.02465 -0.0339,0.03687 -0.01015,0.01222 -0.01922,0.02448 -0.02712,0.03644 -0.0079,0.01196 -0.01456,0.02344 -0.02034,0.03517 -0.0058,0.01173 -0.01062,0.02367 -0.01441,0.03517 -0.0038,0.0115 -0.0065,0.02261 -0.0085,0.0339 -0.0019,0.01128 -0.0032,0.02239 -0.0034,0.03347 -2e-4,0.01109 3e-4,0.02215 0.0017,0.03305 0.0014,0.01091 0.0039,0.02189 0.0068,0.03263 0.0029,0.01073 0.0064,0.02121 0.01059,0.03178 0.0042,0.01058 0.009,0.02134 0.01441,0.03178 0.0054,0.01043 0.01133,0.02063 0.0178,0.03093 0.0065,0.0103 0.01336,0.02075 0.02076,0.03093 0.0074,0.01018 0.01509,0.02 0.0233,0.03009 0.01643,0.02017 0.03452,0.04033 0.05339,0.06017 0.01887,0.01984 0.04182,0.04612 0.0678,0.07669 0.02598,0.03057 0.05478,0.06544 0.08517,0.102966 0.06077,0.07504 0.127671,0.160046 0.189832,0.240257 0.06216,0.08021 0.119538,0.155398 0.161442,0.210595 0.0419,0.05519 0.06864,0.09068 0.06864,0.09068 0,0 -0.02738,0.01389 -0.0661,0.03729 -0.01936,0.0117 -0.04158,0.0256 -0.06483,0.04152 -0.02325,0.01592 -0.04749,0.0339 -0.07076,0.05297 -0.01164,0.0095 -0.02298,0.01912 -0.0339,0.02924 -0.01092,0.01012 -0.02121,0.02037 -0.03093,0.03093 -0.0097,0.01057 -0.01866,0.02133 -0.0267,0.0322 -0.008,0.01088 -0.01532,0.02199 -0.02119,0.03305 -0.0059,0.01105 -0.01034,0.02238 -0.01356,0.03347 -0.0016,0.0056 -0.003,0.01099 -0.0038,0.01652 -8.52e-4,0.0055 -0.0012,0.01102 -0.0013,0.01652 -4.3e-5,0.0055 1.8e-5,0.01107 8.45e-4,0.01652 8.28e-4,0.0055 0.0025,0.01071 0.0042,0.0161 0.0018,0.0054 0.004,0.0108 0.0068,0.01611 0.0028,0.0053 0.0059,0.01047 0.0097,0.01568 0.0076,0.01041 0.02171,0.02791 0.04195,0.05127 0.02024,0.02335 0.0464,0.05267 0.07754,0.08729 0.06229,0.06923 0.144637,0.159342 0.240256,0.263561 0.09562,0.104219 0.204688,0.222527 0.319917,0.348307 0.11523,0.125781 0.23693,0.25888 0.358053,0.3928 0.121124,0.13392 0.241786,0.268822 0.355088,0.39746 0.05665,0.06432 0.111436,0.127231 0.16356,0.187713 0.05212,0.06048 0.101577,0.118339 0.147459,0.173307 0.04588,0.05497 0.08792,0.106887 0.125848,0.154662 0.03793,0.04777 0.07175,0.0916 0.100001,0.130509 0.01413,0.01945 0.02675,0.03774 0.03814,0.05466 0.01139,0.01692 0.02123,0.03243 0.02966,0.04661 0.0084,0.01418 0.0155,0.02691 0.02076,0.03814 0.0053,0.01123 0.0087,0.02075 0.01059,0.02881 0.0075,0.03226 0.01483,0.06784 0.02161,0.105509 0.0068,0.03767 0.01309,0.07742 0.01907,0.117798 0.006,0.04037 0.01183,0.08165 0.01695,0.122035 0.0051,0.04039 0.0098,0.0801 0.01398,0.117797 0.0084,0.0754 0.01465,0.142617 0.01907,0.191103 0.0044,0.04849 0.0068,0.07797 0.0068,0.07797 0,0 0.03792,-0.03193 0.104661,-0.08941 0.06674,-0.05748 0.162492,-0.140514 0.277545,-0.242374 0.05753,-0.05093 0.11987,-0.106535 0.186018,-0.166103 0.06615,-0.05957 0.13601,-0.122841 0.208476,-0.189408 0.07247,-0.06657 0.147674,-0.136124 0.224154,-0.208052 0.07648,-0.07193 0.154014,-0.146384 0.232205,-0.222036 0.07819,-0.07565 0.156727,-0.152773 0.234324,-0.23051 0.0776,-0.07774 0.154539,-0.15614 0.229239,-0.234323 0.03735,-0.03909 0.07398,-0.07805 0.11017,-0.11695 0.03619,-0.0389 0.07203,-0.07761 0.106781,-0.116103 0.03475,-0.0385 0.06868,-0.07652 0.101695,-0.114407 0.03301,-0.03789 0.06476,-0.07563 0.09576,-0.112713 0.031,-0.03708 0.06115,-0.07368 0.08983,-0.109747 0.02869,-0.03607 0.05611,-0.07151 0.0822,-0.106356 0.02609,-0.03485 0.05095,-0.06912 0.07415,-0.102543 0.0232,-0.03342 0.0448,-0.06609 0.06483,-0.09788 0.02003,-0.03179 0.03851,-0.06284 0.05509,-0.0928 0.01657,-0.02996 0.03124,-0.05894 0.04407,-0.08686 0.0064,-0.01396 0.01237,-0.02769 0.01779,-0.0411 0.0054,-0.01342 0.01044,-0.02657 0.01483,-0.03941 0.0044,-0.01284 0.0081,-0.02505 0.01144,-0.03729 0.0034,-0.01224 0.0062,-0.0244 0.0085,-0.03601 0.0044,-0.02323 0.0082,-0.04565 0.01144,-0.06695 0.0033,-0.0213 0.006,-0.04156 0.008,-0.06101 0.0021,-0.01945 0.0036,-0.03783 0.0047,-0.05551 0.0011,-0.01767 0.0016,-0.03445 0.0017,-0.05042 1.8e-5,-0.01598 -7.76e-4,-0.03141 -0.0017,-0.04576 -9.02e-4,-0.01436 -0.002,-0.02786 -0.0038,-0.04068 -0.0018,-0.01282 -0.0042,-0.02467 -0.0068,-0.03601 -0.0026,-0.01135 -0.0056,-0.02224 -0.0089,-0.0322 -0.0033,-0.01 -0.0071,-0.01931 -0.01102,-0.02797 -0.004,-0.0087 -0.0081,-0.0163 -0.01271,-0.02373 -0.0046,-0.0075 -0.0093,-0.01449 -0.01441,-0.02076 -0.0051,-0.0062 -0.01056,-0.01175 -0.01611,-0.01695 -0.0056,-0.0052 -0.01102,-0.01021 -0.01695,-0.01441 -0.0059,-0.0042 -0.01241,-0.0077 -0.01865,-0.01102 -0.0062,-0.0033 -0.01259,-0.0061 -0.01906,-0.0085 -0.0065,-0.0025 -0.01283,-0.0047 -0.01949,-0.0064 -0.01332,-0.0034 -0.02708,-0.0052 -0.04068,-0.0059 -0.0136,-7.49e-4 -0.02694,-3.75e-4 -0.04025,8.2e-4 -0.01332,0.0012 -0.02649,0.0034 -0.03898,0.0059 -0.01249,0.0025 -0.02449,0.0056 -0.0356,0.0089 -0.0111,0.0033 -0.02135,0.0067 -0.03051,0.01017 -0.0092,0.0034 -0.01706,0.0069 -0.02373,0.0097 -0.01332,0.0058 -0.02119,0.0097 -0.02119,0.0097 0,0 0.01233,-0.0125 0.03305,-0.03517 0.02071,-0.02267 0.04976,-0.05527 0.0839,-0.09576 0.01707,-0.02025 0.03518,-0.04231 0.05423,-0.0661 0.01906,-0.02379 0.03919,-0.04954 0.05933,-0.07627 0.02014,-0.02672 0.04029,-0.05442 0.0606,-0.08348 0.0203,-0.02906 0.04061,-0.05947 0.06017,-0.09025 0.01956,-0.03078 0.03846,-0.06217 0.05636,-0.09407 0.0179,-0.0319 0.03467,-0.0642 0.05,-0.09661 0.0077,-0.0162 0.01518,-0.03251 0.02203,-0.04873 0.0069,-0.01622 0.01314,-0.03215 0.01906,-0.0483 0.0059,-0.01615 0.01163,-0.03229 0.01652,-0.04831 0.0049,-0.01601 0.009,-0.03208 0.01271,-0.04788 0.0038,-0.0158 0.0069,-0.03152 0.0093,-0.04703 0.0025,-0.01551 0.0044,-0.03062 0.0055,-0.04576 0.0011,-0.01514 0.0012,-0.03021 8.19e-4,-0.04492 -4.14e-4,-0.0147 -0.0014,-0.02903 -0.0034,-0.04322 -0.002,-0.01419 -0.0052,-0.02836 -0.0089,-0.04195 -0.0038,-0.0136 -0.0084,-0.0269 -0.01398,-0.03983 -0.0056,-0.01292 -0.01196,-0.02553 -0.01949,-0.03771 -0.0075,-0.01218 -0.01624,-0.02381 -0.02585,-0.03517 -0.01921,-0.02272 -0.03716,-0.0462 -0.05423,-0.06991 -0.01707,-0.02372 -0.03299,-0.0479 -0.04788,-0.07245 -0.0149,-0.02456 -0.02886,-0.04933 -0.04152,-0.07458 -0.01267,-0.02525 -0.02435,-0.05091 -0.03474,-0.07669 -0.0104,-0.02578 -0.01946,-0.05181 -0.02754,-0.07796 -0.0081,-0.02616 -0.01504,-0.05243 -0.02076,-0.07882 -0.0057,-0.02638 -0.01024,-0.05279 -0.01356,-0.07924 -0.0033,-0.02645 -0.0055,-0.05287 -0.0064,-0.07924 -9.02e-4,-0.02636 -3.64e-4,-0.05269 0.0013,-0.07882 0.0016,-0.02613 0.0043,-0.05181 0.0085,-0.07755 0.0042,-0.02573 0.0098,-0.05152 0.01652,-0.07669 0.0013,-0.005 0.0032,-0.0099 0.0047,-0.01483 -0.08339,-0.140533 -0.129238,-0.285221 -0.129238,-0.438139 0,-0.4241883 0.211018,-2.0139973 0.211018,-2.0139973 0,0 1.110183,-0.3994165 0.531784,-1.68052 0,0 -0.136907,-0.2550021 -0.63687,-0.5457662 0,0 0.125331,-0.1401817 -0.359748,-0.5652581 C 10.41308,4.6247122 9.899848,4.3379201 9.899848,4.3379201 c 0,0 -0.57216,-0.818812 -1.086448,-0.8957686 -0.192858,-0.028855 -0.405033,-0.034636 -0.594919,-0.03093 z" /><ellipse
     style="fill:#ffffff;fill-opacity:1;fill-rule:evenodd;stroke:#8b5996;stroke-width:0.236573;stroke-linecap:round;stroke-linejoin:round;stroke-dasharray:none;stroke-opacity:1;paint-order:stroke fill markers"
     id="ellipse7"
     cx="7.6574779"
     cy="6.7593365"
     rx="0.91328138"
     ry="0.92028332" /><ellipse
     style="fill:#ffffff;fill-opacity:1;fill-rule:evenodd;stroke:#8b5996;stroke-width:0.204857;stroke-linecap:round;stroke-linejoin:round;stroke-dasharray:none;stroke-opacity:1;paint-order:stroke fill markers"
     id="ellipse8"
     cx="11.171561"
     cy="6.7593365"
     rx="0.72841799"
     ry="0.86520791" /><ellipse
     style="fill:#ece6e9;fill-opacity:1;fill-rule:evenodd;stroke:none;stroke-width:0.231703;stroke-linecap:round;stroke-linejoin:round;stroke-dasharray:none;stroke-opacity:1;paint-order:stroke fill markers"
     id="ellipse9"
     cx="9.719348"
     cy="7.7015896"
     rx="0.7205267"
     ry="0.25921553" /><path
     style="fill:url(#linearGradient15);fill-opacity:1;stroke:none;stroke-width:0.216951px;stroke-linecap:butt;stroke-linejoin:miter;stroke-opacity:1"
     d="M 10.704295,8.5146796 9.891129,9.4118381 C 9.54973,8.9996782 8.731211,8.7169081 8.525988,8.6523013 8.320764,8.5876945 8.37656,8.1684425 8.37656,8.1684425 c 0,0 0.13445,-0.1819002 0.164174,-0.021705 C 8.570454,8.306931 8.721616,8.3401979 9.061196,8.33413 9.400777,8.32806 9.497821,7.9371784 9.494591,7.6743446 c -0.0032,-0.2628353 0.224757,-0.231971 0.224757,-0.231971 0,0 0.173246,-0.038121 0.173246,0.2845994 0,0.322724 0.55595,0.4710547 0.852326,0.4304867 0.296376,0.045993 -0.04062,0.35722 -0.04062,0.35722 z"
     id="path9"
     sodipodi:nodetypes="scscssscsccs" /><ellipse
     style="fill:#000000;fill-opacity:1;fill-rule:evenodd;stroke:none;stroke-width:0.0937909;stroke-linecap:round;stroke-linejoin:round;stroke-dasharray:none;stroke-opacity:1;paint-order:stroke fill markers"
     id="ellipse10"
     cx="7.6574779"
     cy="6.7593365"
     rx="0.36207816"
     ry="0.36485413" /><ellipse
     style="fill:#000000;fill-opacity:1;fill-rule:evenodd;stroke:none;stroke-width:0.0785721;stroke-linecap:round;stroke-linejoin:round;stroke-dasharray:none;stroke-opacity:1;paint-order:stroke fill markers"
     id="ellipse11"
     cx="11.235351"
     cy="6.7593365"
     rx="0.27938271"
     ry="0.33184803" /><path
     id="path11"
     style="color:#000000;fill:#4b2754;fill-opacity:1;stroke-width:0.819987;-inkscape-stroke:none"
     d="M 5.4455552 13.580299 C 5.4455552 13.580299 5.0917395 14.140716 4.7169319 14.821543 C 4.5573244 15.111465 4.3934552 15.421164 4.2513364 15.720695 C 4.3289901 15.72913 4.4083414 15.731943 4.487493 15.735164 C 4.6169445 15.465019 4.7628791 15.186018 4.9060639 14.925927 C 5.2773155 14.251558 5.6284862 13.695535 5.6284862 13.695535 L 5.4455552 13.580299 z " /><path
     id="path12"
     style="color:#000000;fill:#4b2754;fill-opacity:1;stroke-width:0.819987;-inkscape-stroke:none"
     d="M 4.4926606 12.542657 C 4.4926606 12.542657 4.0654077 13.013586 3.6022932 13.631974 C 3.2589327 14.090458 2.8945477 14.627136 2.6664514 15.129011 C 2.7266867 15.17085 2.7895048 15.208836 2.8524829 15.246831 C 3.0683632 14.767596 3.4311109 14.221411 3.7754058 13.76168 C 4.2317904 13.152277 4.6528544 12.689932 4.6528544 12.689932 L 4.4926606 12.542657 z " /><path
     id="path13"
     style="color:#000000;fill:#4b2754;fill-opacity:1;stroke-width:0.819987;-inkscape-stroke:none"
     d="M 11.552039 13.561696 L 11.398563 13.714655 C 11.398563 13.714655 11.799051 14.119658 12.196431 14.688737 C 12.410585 14.995421 12.620854 15.349345 12.768478 15.707776 C 12.843183 15.69773 12.918123 15.688399 12.991199 15.67367 C 12.834435 15.275685 12.603544 14.893385 12.373678 14.564199 C 11.964869 13.978754 11.552039 13.561696 11.552039 13.561696 z " /><path
     id="path14"
     style="color:#000000;fill:#4b2754;fill-opacity:1;stroke-width:0.819987;-inkscape-stroke:none"
     d="M 12.772612 12.561777 L 12.639807 12.732822 C 12.639807 12.732822 13.094147 13.086621 13.531724 13.594768 C 13.908656 14.032491 14.261911 14.581244 14.31409 15.093355 C 14.382157 15.044308 14.449378 14.994184 14.513557 14.940396 C 14.418199 14.396309 14.057884 13.872248 13.696569 13.452661 C 13.242999 12.92594 12.772612 12.561777 12.772612 12.561777 z " /></svg>
