<?xml version="1.0" encoding="UTF-8" standalone="no"?>
<svg
   width="64"
   height="64"
   version="1.1"
   id="svg56"
   sodipodi:docname="preferences-system-backup.svg"
   inkscape:version="1.3.2 (091e20ef0f, 2023-11-25, custom)"
   xmlns:inkscape="http://www.inkscape.org/namespaces/inkscape"
   xmlns:sodipodi="http://sodipodi.sourceforge.net/DTD/sodipodi-0.dtd"
   xmlns:xlink="http://www.w3.org/1999/xlink"
   xmlns="http://www.w3.org/2000/svg"
   xmlns:svg="http://www.w3.org/2000/svg">
  <defs
     id="defs60">
    <filter
       color-interpolation-filters="sRGB"
       height="1.1210735"
       width="1.1189449"
       y="-0.060536761"
       x="-0.059472452"
       id="e">
      <feGaussianBlur
         id="feGaussianBlur970"
         stdDeviation="1.3378352" />
    </filter>
    <linearGradient
       xlink:href="#linearGradient856"
       gradientUnits="userSpaceOnUse"
       y2="13.917"
       y1="13.917"
       x2="15.693"
       x1="1.2395999"
       id="linearGradient2168" />
    <linearGradient
       gradientUnits="userSpaceOnUse"
       gradientTransform="translate(75.14,-0.97417)"
       y2="17.198"
       y1="6.9798999"
       x2="-58.736"
       x1="-73.361"
       id="linearGradient856">
      <stop
         id="stop973-6"
         offset="0"
         stop-color="#3c3c3c" />
      <stop
         id="stop975-7"
         offset="1"
         stop-color="#1e1e1e" />
    </linearGradient>
    <filter
       color-interpolation-filters="sRGB"
       height="1.3524252"
       width="1.0400958"
       y="-0.17621261"
       x="-0.020047907"
       id="m">
      <feGaussianBlur
         id="feGaussianBlur964"
         stdDeviation="0.43981933" />
    </filter>
    <linearGradient
       gradientUnits="userSpaceOnUse"
       y2="49"
       y1="49"
       x2="43.331001"
       x1="20.388"
       id="linearGradient2176">
      <stop
         id="stop984"
         offset="0" />
      <stop
         id="stop986"
         offset="1"
         stop-opacity="0" />
    </linearGradient>
    <filter
       color-interpolation-filters="sRGB"
       height="1.8478282"
       width="1.1734616"
       y="-0.42391409"
       x="-0.086730791"
       id="j">
      <feGaussianBlur
         id="feGaussianBlur953"
         stdDeviation="0.70652346" />
    </filter>
    <filter
       color-interpolation-filters="sRGB"
       height="1.8478281"
       width="1.1734616"
       y="-0.4239141"
       x="-0.086730793"
       id="filter573">
      <feGaussianBlur
         id="feGaussianBlur571"
         stdDeviation="0.70652346" />
    </filter>
    <radialGradient
       gradientUnits="userSpaceOnUse"
       gradientTransform="matrix(0.3738,1.4135e-7,-4.447e-8,0.1302,-3.4952,5.7248)"
       r="9.9091997"
       cy="53.195999"
       cx="32"
       id="g">
      <stop
         id="stop946"
         offset="0"
         stop-color="#636363" />
      <stop
         id="stop948"
         offset=".47277"
         stop-color="#424242" />
      <stop
         id="stop950"
         offset="1"
         stop-color="#373737" />
    </radialGradient>
    <linearGradient
       xlink:href="#linearGradient856"
       gradientUnits="userSpaceOnUse"
       y2="13.432"
       y1="1.2559"
       x2="8.3205004"
       x1="8.3205004"
       id="linearGradient952" />
    <filter
       color-interpolation-filters="sRGB"
       height="1.2198792"
       width="1.082517"
       y="-0.1099396"
       x="-0.041258478"
       id="k">
      <feGaussianBlur
         id="feGaussianBlur967"
         stdDeviation="0.34069824" />
    </filter>
    <linearGradient
       gradientUnits="userSpaceOnUse"
       y2="14.552"
       y1="14.552"
       x2="15.069"
       x1="1.8645999"
       id="linearGradient2136">
      <stop
         id="stop978-5"
         offset="0" />
      <stop
         id="stop980-3"
         offset="1"
         stop-opacity="0" />
    </linearGradient>
    <filter
       color-interpolation-filters="sRGB"
       height="1.4761865"
       width="1.039681"
       y="-0.23809324"
       x="-0.019840479"
       id="n">
      <feGaussianBlur
         id="feGaussianBlur961"
         stdDeviation="0.1049892" />
    </filter>
    <radialGradient
       gradientUnits="userSpaceOnUse"
       gradientTransform="matrix(1.1114,4.7498e-8,-5.5414e-8,1.2966,-0.88353,-5.2238)"
       r="7.1420002"
       cy="13.903"
       cx="7.9373002"
       id="d">
      <stop
         id="stop956-3"
         offset="0"
         stop-color="#4d4d4d" />
      <stop
         id="stop958"
         offset="1"
         stop-opacity="0"
         stop-color="#4d4d4d" />
    </radialGradient>
    <filter
       id="filter861-3"
       x="-0.027"
       y="-0.027"
       width="1.054"
       height="1.054"
       color-interpolation-filters="sRGB">
      <feGaussianBlur
         stdDeviation="0.16371"
         id="feGaussianBlur1" />
    </filter>
    <linearGradient
       id="linearGradient2266"
       x1="32.16"
       x2="32.16"
       y1="59.339001"
       y2="43.091"
       gradientTransform="matrix(0.26459,0,0,0.26459,-4.2144,7.8335)"
       gradientUnits="userSpaceOnUse">
      <stop
         stop-color="#e1e1e1"
         offset="0"
         id="stop1" />
      <stop
         stop-color="#eee"
         offset="1"
         id="stop2-3" />
    </linearGradient>
    <filter
       id="j-3"
       x="-0.086730791"
       y="-0.42391409"
       width="1.1734616"
       height="1.8478282"
       color-interpolation-filters="sRGB">
      <feGaussianBlur
         stdDeviation="0.70652346"
         id="feGaussianBlur2" />
    </filter>
    <radialGradient
       id="radialGradient2258"
       cx="32"
       cy="53.195999"
       r="9.9091997"
       gradientTransform="matrix(0.41909,1.5847e-7,-4.9858e-8,0.14597,-9.1595,12.532)"
       gradientUnits="userSpaceOnUse">
      <stop
         stop-color="#636363"
         offset="0"
         id="stop3" />
      <stop
         stop-color="#424242"
         offset=".47277"
         id="stop4-6" />
      <stop
         stop-color="#373737"
         offset="1"
         id="stop5" />
    </radialGradient>
    <linearGradient
       id="linearGradient12292"
       x1="8.3512001"
       x2="8.3512001"
       y1="1.5664001"
       y2="13.85"
       gradientTransform="translate(-4.2144,7.4085)"
       gradientUnits="userSpaceOnUse">
      <stop
         stop-color="#3c3c3c"
         offset="0"
         id="stop6" />
      <stop
         stop-color="#1e1e1e"
         offset="1"
         id="stop7-7" />
    </linearGradient>
    <radialGradient
       id="radialGradient2140"
       cx="7.9373002"
       cy="13.903"
       r="7.1420002"
       gradientTransform="matrix(1.2281,5.2486e-8,-6.1234e-8,1.4327,-6.0803,0.54691)"
       gradientUnits="userSpaceOnUse">
      <stop
         stop-color="#4d4d4d"
         offset="0"
         id="stop8" />
      <stop
         stop-color="#4d4d4d"
         stop-opacity="0"
         offset="1"
         id="stop9-5" />
    </radialGradient>
    <filter
       id="k-1"
       x="-0.041258478"
       y="-0.1099396"
       width="1.082517"
       height="1.2198792"
       color-interpolation-filters="sRGB">
      <feGaussianBlur
         stdDeviation="0.34069824"
         id="feGaussianBlur9" />
    </filter>
    <linearGradient
       id="linearGradient3010"
       x1="-17.667999"
       x2="-3.1912999"
       y1="14.068"
       y2="14.068"
       gradientTransform="translate(14.704,7.8335)"
       gradientUnits="userSpaceOnUse">
      <stop
         stop-color="#1e1e1e"
         offset="0"
         id="stop10" />
      <stop
         stop-color="#3c3c3c"
         offset=".13042"
         id="stop11" />
      <stop
         stop-color="#5a5a5a"
         offset=".25018"
         id="stop12" />
      <stop
         stop-color="#5a5a5a"
         offset=".74216"
         id="stop13" />
      <stop
         stop-color="#3c3c3c"
         offset=".87189"
         id="stop14" />
      <stop
         stop-color="#1e1e1e"
         offset="1"
         id="stop15" />
    </linearGradient>
    <linearGradient
       id="linearGradient1191"
       x1="86.638"
       x2="86.638"
       y1="43.738998"
       y2="21.347"
       gradientTransform="matrix(1.0714,0,0,1.0714,-34.966,-76.303)"
       gradientUnits="userSpaceOnUse">
      <stop
         stop-color="#464646"
         offset="0"
         id="stop16" />
      <stop
         stop-color="#252525"
         offset="1"
         id="stop17" />
    </linearGradient>
    <linearGradient
       id="linearGradient1195"
       x1="46"
       x2="46"
       y1="55"
       y2="36"
       gradientTransform="matrix(0.78948,0,0,0.78948,21.617,5.0775)"
       gradientUnits="userSpaceOnUse">
      <stop
         stop-color="#3889e9"
         offset="0"
         id="stop18" />
      <stop
         stop-color="#5ea5fb"
         offset="1"
         id="stop19" />
    </linearGradient>
  </defs>
  <sodipodi:namedview
     id="namedview58"
     pagecolor="#ffffff"
     bordercolor="#999999"
     borderopacity="1"
     inkscape:showpageshadow="0"
     inkscape:pageopacity="0"
     inkscape:pagecheckerboard="0"
     inkscape:deskcolor="#d1d1d1"
     showgrid="false"
     inkscape:zoom="4.4746601"
     inkscape:cx="2.6817679"
     inkscape:cy="42.014364"
     inkscape:window-width="1920"
     inkscape:window-height="995"
     inkscape:window-x="0"
     inkscape:window-y="0"
     inkscape:window-maximized="1"
     inkscape:current-layer="svg56" />
  <linearGradient
     id="a">
    <stop
       stop-color="#292c2f"
       offset="0"
       id="stop2" />
    <stop
       stop-opacity="0"
       offset="1"
       id="stop4" />
  </linearGradient>
  <linearGradient
     id="b"
     x1="388.42"
     x2="388.42"
     y1="557.8"
     y2="505.8"
     gradientTransform="matrix(.58696 0 0 .53846 -271.92 -233.34)"
     gradientUnits="userSpaceOnUse">
    <stop
       stop-color="#7f8c8d"
       offset="0"
       id="stop7" />
    <stop
       stop-color="#afb0b3"
       offset="1"
       id="stop9" />
  </linearGradient>
  <g
     transform="matrix(3.7796,0,0,3.7796,15.928762,-29.60748)"
     id="g29">
    <g
       stroke-opacity="0.95294"
       id="g20">
      <rect
         transform="translate(-4.2144,7.4085)"
         x="1.1905"
         y="1.6155"
         width="14.552"
         height="14.552"
         ry="3.4395001"
         filter="url(#filter861-3)"
         opacity="0.3"
         stroke-width="0.083153"
         id="rect19" />
      <path
         d="m -2.829,21.238 h 4.2158 c 0.18474,-0.32232 0.38842,-0.60971 0.60668,-0.8599 0.21826,-0.25018 0.45106,-0.46307 0.69504,-0.63562 0.24398,-0.17254 0.49876,-0.3049 0.76068,-0.39429 0.26192,-0.08939 0.531,-0.13569 0.80306,-0.13642 0.2722,5.56e-4 0.5415,0.0466 0.80357,0.13591 0.26207,0.08931 0.51706,0.22174 0.7612,0.39429 0.24412,0.17255 0.47718,0.38535 0.69556,0.63562 0.21838,0.25028 0.42184,0.53793 0.60668,0.86042 h 4.2142 c 0.11718,-0.34711 0.19482,-0.71306 0.19482,-1.1007 v -7.673 c 0,-1.9055 -1.534,-3.4396 -3.4396,-3.4396 h -7.673 c -1.9055,0 -3.4396,1.534 -3.4396,3.4396 v 7.673 c 0,0.38764 0.077637,0.7536 0.19482,1.1007 z"
         fill="#b2b2b2"
         stroke-width="0.083155"
         id="path19" />
      <path
         d="m -2.829,21.238 c 0.45885,1.3591 1.7269,2.3388 3.2448,2.3388 h 7.673 c 1.5178,0 2.786,-0.97972 3.2448,-2.3388 H 7.1194 C 6.93456,20.91551 6.73111,20.62787 6.51272,20.37758 6.29434,20.12731 6.06128,19.91451 5.81716,19.74196 5.57304,19.56941 5.31803,19.43697 5.05596,19.34767 4.79389,19.258361 4.52459,19.21231 4.25239,19.21176 3.98033,19.212501 3.71125,19.25879 3.44933,19.34818 3.18741,19.43757 2.93264,19.56992 2.68865,19.74247 2.44466,19.91502 2.21186,20.1279 1.99361,20.37809 1.77535,20.62827 1.57167,20.91567 1.38693,21.23799 Z"
         fill="url(#linearGradient2266)"
         stroke-width="0.083155"
         id="path20"
         style="fill:url(#linearGradient2266)" />
    </g>
    <path
       transform="matrix(0.3133,0,0,0.3133,-5.7292,5.2592)"
       d="m 31.855,47 a 10.294,5.7981 0 0 0 -9.7715,4 h 2.502 A 10.294,5.7981 0 0 1 31.855,49.3008 10.294,5.7981 0 0 1 39.1128,51 h 2.5215 A 10.294,5.7981 0 0 0 31.855,47 Z"
       fill="#00a2ef"
       fill-rule="evenodd"
       filter="url(#j-3)"
       style="paint-order:stroke fill markers"
       id="path21" />
    <path
       d="m 4.2513,19.031 a 4.0122,6.8744 0 0 0 -2.9386,2.2062 h 0.26013 a 3.0537,1.8258 0 0 1 2.6785,-0.94962 3.0537,1.8258 0 0 1 2.675,0.94962 H 7.19168 A 4.0122,6.8744 0 0 0 4.25138,19.031 Z"
       fill="url(#radialGradient2258)"
       stroke-width="1.1211"
       id="path22"
       style="fill:url(#radialGradient2258)" />
    <path
       d="m -2.829,21.238 h 4.2158 c 0.18474,-0.32232 0.38842,-0.60971 0.60668,-0.8599 0.21826,-0.25018 0.45106,-0.46307 0.69504,-0.63562 0.24398,-0.17254 0.49876,-0.3049 0.76068,-0.39429 0.26192,-0.08939 0.531,-0.13569 0.80306,-0.13642 0.2722,5.56e-4 0.5415,0.0466 0.80357,0.13591 0.26207,0.08931 0.51706,0.22174 0.7612,0.39429 0.24412,0.17255 0.47718,0.38535 0.69556,0.63562 0.21838,0.25028 0.42184,0.53793 0.60668,0.86042 h 4.2142 c 0.11718,-0.34711 0.19482,-0.71306 0.19482,-1.1007 v -7.673 c 0,-1.9055 -1.534,-3.4396 -3.4396,-3.4396 h -7.673 c -1.9055,0 -3.4396,1.534 -3.4396,3.4396 v 7.673 c 0,0.38764 0.077637,0.7536 0.19482,1.1007 z"
       fill="url(#linearGradient12292)"
       stroke-opacity="0.95294"
       stroke-width="0.083155"
       id="path23"
       style="fill:url(#linearGradient12292)" />
    <path
       d="m 0.41576,9.024 c -0.94496,0 -1.7979,0.37842 -2.4184,0.99115 l -1.0211,6.5303 v 3.591 c 0,0.38367 0.076542,0.74591 0.19172,1.0898 h 4.1884 a 3.9545,6.3825 0 0 1 2.896,-2.0479 3.9545,6.3825 0 0 1 2.8981,2.0479 h 4.1863 c 0.11518,-0.34394 0.19172,-0.70618 0.19172,-1.0898 v -3.0701 L 10.2103,9.75625 C 9.62639,9.29886 8.8916,9.024 8.089,9.024 Z"
       fill="url(#radialGradient2140)"
       stroke-width="1.105"
       id="path24"
       style="fill:url(#radialGradient2140)" />
    <path
       transform="matrix(0.27877,0,0,0.27877,-4.6691,6.9296)"
       d="m 32,43.549 a 13.526,23.175 0 0 0 -9.9062,7.4375 h 0.29688 a 13.526,23.175 0 0 1 9.6094,-6.9199 13.526,23.175 0 0 1 9.6035,6.9199 h 0.30859 a 13.526,23.175 0 0 0 -9.9121,-7.4375 z"
       filter="url(#k-1)"
       opacity="0.15"
       stroke-width="3.7796"
       id="path25" />
    <path
       d="m -3.0238,17.783 v 2.3538 c 0,1.9055 1.534,3.4396 3.4396,3.4396 h 7.673 c 1.9055,0 3.4396,-1.534 3.4396,-3.4396 V 17.783 c 0,1.9055 -1.534,3.4396 -3.4396,3.4396 h -7.673 c -1.9055,0 -3.4396,-1.534 -3.4396,-3.4396 z"
       fill="url(#linearGradient3010)"
       stroke-linecap="round"
       stroke-width="0.51488"
       id="path26"
       style="fill:url(#linearGradient3010)" />
    <g
       fill-rule="evenodd"
       id="g28">
      <circle
         cx="6.7252998"
         cy="22.490999"
         r="0.39688"
         fill="#f44e24"
         style="paint-order:stroke fill markers"
         id="circle26" />
      <circle
         cx="5.4412999"
         cy="22.485001"
         r="0.31444001"
         fill="#ffb800"
         stroke-width="0.79228"
         style="paint-order:stroke fill markers"
         id="circle27" />
      <circle
         cx="4.2391"
         cy="22.485001"
         r="0.31444001"
         fill="#00a2ef"
         stroke-width="0.79228"
         style="paint-order:stroke fill markers"
         id="circle28" />
    </g>
  </g>
  <path
     id="path2332"
     d="m 30.33076,13.507812 c -1.308833,8.92e-4 -2.369327,1.06226 -2.369141,2.371094 v 0.189453 c 0.01412,1.250121 1.882363,1.250121 1.896484,0 v -0.189453 c -2.53e-4,-0.261463 0.211196,-0.473785 0.472657,-0.474609 h 10.054102 c 0.262225,-2.54e-4 0.474863,0.212384 0.47461,0.474609 l 1.382716,15.789063 c 2.53e-4,0.262225 -0.212385,0.474863 -0.47461,0.474609 h -2.796875 c -1.250121,0.01412 -1.250121,1.882362 0,1.896484 h 2.796875 c 1.309596,1.87e-4 2.37128,-1.061497 2.371094,-2.371093 L 42.755956,15.878906 c 1.87e-4,-1.309596 -1.061498,-2.371281 -2.371094,-2.371094 z m -6.589844,3.746094 c -1.309596,-1.87e-4 -2.37128,1.061498 -2.371094,2.371094 l -1.508494,15.789062 c -1.87e-4,1.309596 1.061498,2.371281 2.371094,2.371094 h 12.945312 c 1.308834,-8.92e-4 2.369328,-1.06226 2.369141,-2.371094 v -5.001953 c -0.01412,-1.250121 -1.882362,-1.250121 -1.896484,0 v 5.001953 c 2.54e-4,0.261463 -0.211195,0.473786 -0.472657,0.47461 H 22.232422 c -0.262225,2.54e-4 -0.474864,-0.212385 -0.47461,-0.47461 L 23.266306,19.625 c -2.53e-4,-0.262225 0.212386,-0.474863 0.47461,-0.474609 h 11.436818 c 0.261462,8.24e-4 0.472911,0.213146 0.472657,0.474609 v 0.734375 c 0.01412,1.250121 1.882362,1.250121 1.896484,0 V 19.625 c 1.87e-4,-1.308834 -1.060307,-2.370202 -2.369141,-2.371094 z m 16.118464,2.102402 c -0.327504,-0.03995 -0.652232,0.0932 -0.857422,0.351562 l -1.35938,1.860489 c -1.443425,1.708367 -1.980782,2.795292 -4.204396,3.035157 v -3.035157 c -0.007,-0.806911 -0.954456,-1.236933 -1.566407,-0.710937 l -6.875,5.878906 c -0.435422,0.370507 -0.446429,1.039191 -0.02344,1.423828 l 6.875,6.138672 c 0.176499,0.156298 0.404888,0.241248 0.640625,0.238281 0.524449,5.07e-4 0.949726,-0.424769 0.949219,-0.949218 v -3.365235 c 4.379238,-0.410736 5.623604,-2.81355 6.606744,-7.100724 l 0.617188,-2.583984 c 0.145563,-0.555715 -0.232482,-1.112206 -0.802734,-1.18164 z m -1.754041,4.77215 c -1.280207,3.058272 -2.202491,4.244589 -5.616376,4.244589 -0.522923,5.71e-4 -0.946694,0.424342 -0.947266,0.947265 v 2.158204 l -4.482422,-4.00586 4.482422,-3.841797 v 1.96875 c 5.72e-4,0.522924 0.424343,0.946695 0.947266,0.947266 2.888734,0.0064 3.613037,-0.337203 5.616376,-2.418417 z"
     sodipodi:nodetypes="ccccccccccccccccccccccccccccccccccccccccccccccccccccccccccccccc"
     style="fill:#00b1f7;fill-opacity:1" />
</svg>
