<?xml version="1.0" encoding="UTF-8" standalone="no"?>
<svg
   width="64"
   height="64"
   version="1.1"
   id="svg43"
   sodipodi:docname="preferences-system-network-remote.svg"
   inkscape:version="1.3.2 (091e20ef0f, 2023-11-25, custom)"
   xmlns:inkscape="http://www.inkscape.org/namespaces/inkscape"
   xmlns:sodipodi="http://sodipodi.sourceforge.net/DTD/sodipodi-0.dtd"
   xmlns="http://www.w3.org/2000/svg"
   xmlns:svg="http://www.w3.org/2000/svg">
  <sodipodi:namedview
     id="namedview45"
     pagecolor="#ffffff"
     bordercolor="#999999"
     borderopacity="1"
     inkscape:showpageshadow="0"
     inkscape:pageopacity="0"
     inkscape:pagecheckerboard="0"
     inkscape:deskcolor="#d1d1d1"
     showgrid="false"
     inkscape:zoom="4.4746601"
     inkscape:cx="-33.969061"
     inkscape:cy="33.298619"
     inkscape:window-width="1920"
     inkscape:window-height="995"
     inkscape:window-x="0"
     inkscape:window-y="0"
     inkscape:window-maximized="1"
     inkscape:current-layer="svg43" />
  <defs
     id="defs7">
    <linearGradient
       id="a"
       x1="13.229"
       x2="2.117"
       y1="297"
       y2="280.07"
       gradientTransform="matrix(4.0496,0,0,3.7796,-2.2867,-1058.5)"
       gradientUnits="userSpaceOnUse">
      <stop
         stop-color="#66bcff"
         offset="0"
         id="stop2" />
      <stop
         stop-color="#b29aff"
         offset="1"
         id="stop4" />
    </linearGradient>
    <linearGradient
       id="linearGradient29240"
       x1="32"
       x2="32"
       y1="44"
       y2="52"
       gradientTransform="matrix(0.79998,0,0,1,6.4007,0)"
       gradientUnits="userSpaceOnUse">
      <stop
         stop-color="#818990"
         offset="0"
         id="stop265" />
      <stop
         stop-color="#9fa8b0"
         offset="1"
         id="stop267" />
    </linearGradient>
    <linearGradient
       id="linearGradient1455"
       x1="4"
       x2="60"
       y1="27"
       y2="27"
       gradientTransform="matrix(1,0,0,1.0556,1e-6,-0.5)"
       gradientUnits="userSpaceOnUse">
      <stop
         stop-color="#555a5f"
         offset="0"
         id="stop255" />
      <stop
         stop-color="#4b4f53"
         offset="1"
         id="stop257" />
    </linearGradient>
    <linearGradient
       id="linearGradient17498"
       x1="15.408"
       x2="60"
       y1="19"
       y2="45"
       gradientTransform="matrix(0.96428,0,0,1,1.1428,1)"
       gradientUnits="userSpaceOnUse">
      <stop
         stop-color="#0082e5"
         offset="0"
         id="stop260" />
      <stop
         stop-color="#42b7ff"
         offset="1"
         id="stop262" />
    </linearGradient>
    <linearGradient
       id="linearGradient921"
       x1="8.2020998"
       x2="8.2020998"
       y1="293.56"
       y2="291.70999"
       gradientTransform="matrix(12.599,0,0,2.6996,-73.504,-737.53005)"
       gradientUnits="userSpaceOnUse">
      <stop
         stop-color="#9ea7af"
         offset="0"
         id="stop2-3" />
      <stop
         stop-color="#828a91"
         offset="1"
         id="stop3" />
    </linearGradient>
    <linearGradient
       id="linearGradient61257"
       x1="8.0889997"
       x2="55.716"
       y1="7.1454"
       y2="46.856998"
       gradientTransform="matrix(1.1459,0,0,1.1,-4.6667,-0.949742)"
       gradientUnits="userSpaceOnUse">
      <stop
         stop-color="#555a5f"
         offset="0"
         id="stop4-6" />
      <stop
         stop-color="#4b4f53"
         offset="1"
         id="stop5" />
    </linearGradient>
    <linearGradient
       id="linearGradient1116"
       x1="8.0889997"
       x2="55.716"
       y1="7.1454"
       y2="46.856998"
       gradientTransform="matrix(1.0625,0,0,1,-2.0001,1.772948)"
       gradientUnits="userSpaceOnUse">
      <stop
         stop-color="#0082e5"
         offset="0"
         id="stop6" />
      <stop
         stop-color="#41b6ff"
         offset="1"
         id="stop7" />
    </linearGradient>
  </defs>
  <path
     d="m 17.5,53.999948 h 28 c 0.554,0 0.87963,0.45924 1,1 l 0.6678,3 c 0.12037,0.54076 -0.446,1 -1,1 h -29.335 c -0.554,0 -1.1203,-0.45921 -1,-1 l 0.6672,-3 c 0.12027,-0.54079 0.446,-1 1,-1 z"
     color="#000000"
     fill="#bcc5cf"
     stroke-width="4.3186"
     style="-inkscape-stroke:none"
     id="path7" />
  <rect
     x="26.5"
     y="49.999947"
     width="10"
     height="5"
     ry="0"
     fill="url(#linearGradient921)"
     stroke-width="5.832"
     id="rect7"
     style="fill:url(#linearGradient921)" />
  <rect
     x="15.833008"
     y="56.961952"
     width="31.334999"
     height="2.0381999"
     ry="1.0191"
     fill="#43474b"
     fill-opacity="0.99608"
     stroke-width="2.7573"
     id="rect8" />
  <path
     d="m 17.5,4.999848 c -7.202,0 -13,5.798 -13,13 v 2 c 0,-7.202 5.798,-13 13,-13 h 29 c 7.202,0 13,5.798 13,13 v -2 c 0,-7.202 -5.798,-13 -13,-13 z"
     fill="#b8c2cc"
     id="path8" />
  <rect
     x="4.5"
     y="6.9998479"
     width="55"
     height="44"
     ry="13"
     fill="url(#linearGradient61257)"
     stroke-linecap="round"
     stroke-width="5.0934"
     id="rect9"
     style="fill:url(#linearGradient61257)" />
  <rect
     x="6.5"
     y="8.9998484"
     width="51"
     height="40"
     ry="11"
     fill="url(#linearGradient1116)"
     stroke-linecap="round"
     stroke-width="4.6764"
     id="rect10"
     style="fill:url(#linearGradient1116)" />
  <path
     d="m 17.5,8.999848 c -6.094,0 -11,4.906 -11,11 v 18 c 0,6.094 4.906,11 11,11 h 0.16211 l 23.256,-40 h -23.418 z"
     fill="#ffffff"
     opacity="0.15"
     id="path13" />
  <g
     id="g2"
     transform="translate(0,-3.0001516)">
    <path
       id="path1"
       style="fill:#ffffff;fill-opacity:1;fill-rule:evenodd;stroke-width:3;stroke-linecap:round;stroke-linejoin:round;paint-order:stroke fill markers"
       d="M 32,21.660156 A 10.385048,10.340118 0 0 0 21.615234,32 10.385048,10.340118 0 0 0 32,42.339844 10.385048,10.340118 0 0 0 42.384766,32 10.385048,10.340118 0 0 0 32,21.660156 Z m 0,3.296875 A 7.0743852,7.0437784 0 0 1 39.074219,32 7.0743852,7.0437784 0 0 1 32,39.042969 7.0743852,7.0437784 0 0 1 24.925781,32 7.0743852,7.0437784 0 0 1 32,24.957031 Z" />
    <path
       d="m 32,28 c -2.209139,0 -4,1.790861 -4,4 0,2.209139 1.790861,4 4,4 2.209139,0 4,-1.790861 4,-4 C 35.999,31.601219 35.93829,31.204836 35.82,30.824 35.496637,31.539155 34.784863,31.999071 34,32 32.895431,32 32,31.104569 32,30 32.0016,29.214201 32.463282,28.502177 33.18,28.18 32.797883,28.06132 32.400122,28.000644 32,28 Z"
       id="path2"
       style="fill:#ffffff;fill-opacity:1;stroke-width:1"
       sodipodi:nodetypes="csscccccc" />
  </g>
</svg>
