<?xml version="1.0" encoding="UTF-8" standalone="no"?>
<svg
   width="64"
   height="64"
   version="1.1"
   id="svg7"
   sodipodi:docname="preferences-security-apparmor.svg"
   inkscape:version="1.3.2 (091e20ef0f, 2023-11-25, custom)"
   xmlns:inkscape="http://www.inkscape.org/namespaces/inkscape"
   xmlns:sodipodi="http://sodipodi.sourceforge.net/DTD/sodipodi-0.dtd"
   xmlns:xlink="http://www.w3.org/1999/xlink"
   xmlns="http://www.w3.org/2000/svg"
   xmlns:svg="http://www.w3.org/2000/svg">
  <defs
     id="defs7">
    <linearGradient
       id="linearGradient1115"
       x1="-29.448"
       x2="-29.448"
       y1="4.6371002"
       y2="59.493999"
       gradientTransform="translate(63.693)"
       gradientUnits="userSpaceOnUse">
      <stop
         stop-color="#fff"
         offset="0"
         id="stop9" />
      <stop
         stop-color="#ccd4da"
         offset="1"
         id="stop10" />
    </linearGradient>
  </defs>
  <sodipodi:namedview
     id="namedview7"
     pagecolor="#ffffff"
     bordercolor="#000000"
     borderopacity="0.25"
     inkscape:showpageshadow="2"
     inkscape:pageopacity="0.0"
     inkscape:pagecheckerboard="0"
     inkscape:deskcolor="#d1d1d1"
     inkscape:zoom="4.3531261"
     inkscape:cx="9.8779587"
     inkscape:cy="32.620236"
     inkscape:window-width="1920"
     inkscape:window-height="995"
     inkscape:window-x="0"
     inkscape:window-y="0"
     inkscape:window-maximized="1"
     inkscape:current-layer="svg7" />
  <linearGradient
     id="j"
     x1="32"
     x2="32"
     y1="54"
     y2="9"
     gradientUnits="userSpaceOnUse"
     xlink:href="#b" />
  <linearGradient
     id="g"
     x1="28.385"
     x2="28.385"
     y1="27.846"
     y2="3.615"
     gradientUnits="userSpaceOnUse"
     xlink:href="#b" />
  <linearGradient
     id="b">
    <stop
       stop-color="#eff0f1"
       offset="0"
       id="stop1" />
    <stop
       stop-color="#fcfcfc"
       offset="1"
       id="stop2" />
  </linearGradient>
  <rect
     x="4.5"
     y="4.5"
     width="55"
     height="55"
     ry="13"
     fill="url(#linearGradient1115)"
     stroke-width="0.47291"
     id="rect10"
     style="fill:url(#linearGradient1115)" />
  <g
     transform="matrix(1.4285714,0,0,1.4285714,9.1428576,-36.571427)"
     id="g7">
    <path
       d="M 16,34 C 12.59,35.806 9.18,36.544 5.77,37.23 V 50.693 C 5.77,54.463 11.296,59.611 16,62 20.704,59.611 26.23,54.463 26.23,50.693 V 37.231 C 22.82,36.544 19.41,35.806 16,34 Z"
       fill="#2a4f5d"
       stroke-width="0.5"
       id="path2" />
    <g
       transform="translate(0,32)"
       stroke-width="0.269"
       id="g4">
      <path
         d="m 20.752,5.419 -9.487,18.974 c 1.473,1.373 3.127,2.636 4.735,3.453 3.98,-2.021 8.615,-6.503 8.615,-9.692 V 6.308 A 61.098,61.098 0 0 1 20.752,5.419 Z"
         fill="#d55443"
         id="path3" />
      <path
         d="M 16,3.615 C 13.114,5.144 10.27,5.727 7.385,6.308 v 11.846 c 0,1.9 1.707,4.215 3.88,6.24 L 20.752,5.419 C 19.172,4.993 17.592,4.459 16,3.615 Z"
         fill="url(#g)"
         id="path4"
         style="fill:url(#g)" />
    </g>
    <g
       transform="translate(0,32)"
       stroke-width="0.9285"
       id="g6">
      <path
         transform="matrix(0.53846,0,0,0.53846,-1.23,-1.23)"
         d="m 24,14 16,32 8,-16 h -4 l -1,2 H 37 L 28,14 Z m 14,20 h 4 l -2,4 z"
         fill="url(#j)"
         id="path5"
         style="fill:url(#j)" />
      <path
         transform="matrix(0.53846,0,0,0.53846,-1.23,-1.23)"
         d="m 24,14 -8,16 h 4 l 1,-2 h 6 l 8.5,17 h 4 z m 0,8 2,4 h -4 z"
         fill="#d55443"
         id="path6" />
    </g>
  </g>
</svg>
